  0
SECTION
  2
HEADER
  9
$ANGBASE
  50
0.0
  9
$ANGDIR
  70
1
  9
$MEASUREMENT
  70
1
  0
ENDSEC
  0
SECTION
  2
TABLES
  0
TABLE
  2
LTYPE
  70
4
  0
LTYPE
  5
40F
  2
CONTINUOUS
  70
0
  3
Solid line
  72
65
  73
0
  40
0.0
  0
LTYPE
  5
410
  2
DASHDOT
 70
0
  3
Dash Dot ____ _ ____ _
 72
65
 73
4
 40
2.0
 49
1.25
 49
-0.25
 49
0.25
 49
-0.25
  0
LTYPE
  5
411
  2
DASHED
 70
0
  3
Dashed __ __ __ __ __
 72
65
 73
2
 40
0.75
 49
0.5
 49
-0.25
  0
LTYPE
  5
43B
  2
DOTTED
 70
0
  3
Dotted .  .  .  .
 72
65
 73
2
 40
0.2
 49
0.0
 49
-0.2
  0
ENDTAB
  0
TABLE
  2
STYLE
  70
4
  0
STYLE
  2
KICAD
  70
0
  40
0
  41
1
  42
1
  50
0
  71
0
  3
isocp.shx
  0
STYLE
  2
KICADB
  70
0
  40
0
  41
1
  42
1
  50
0
  71
0
  3
isocp.shx
  0
STYLE
  2
KICADI
  70
0
  40
0
  41
1
  42
1
  50
15
  71
0
  3
isocp.shx
  0
STYLE
  2
KICADBI
  70
0
  40
0
  41
1
  42
1
  50
15
  71
0
  3
isocp.shx
  0
ENDTAB
  0
TABLE
  2
LAYER
  70
1
  0
LAYER
  2
BLACK
  70
0
  62
7
  6
CONTINUOUS
  0
ENDTAB
  0
ENDSEC
  0
SECTION
  2
ENTITIES
0
LINE
8
BLACK
6
CONTINUOUS
10
212.4
20
-137.3
11
80
21
-137.3
0
LINE
8
BLACK
6
CONTINUOUS
10
212.3
20
-78.9
11
212.4
21
-137.3
0
LINE
8
BLACK
6
CONTINUOUS
10
80
20
-137.3
11
80
21
-79
0
LINE
8
BLACK
6
CONTINUOUS
10
80
20
-79
11
212.3
21
-78.9
0
LINE
8
BLACK
6
CONTINUOUS
10
83.8199
20
-126.872
11
84.2199
21
-127.272
0
LINE
8
BLACK
6
CONTINUOUS
10
84.2199
20
-126.872
11
83.8199
21
-127.272
0
LINE
8
BLACK
6
CONTINUOUS
10
86.75
20
-120.05
11
87.15
21
-120.45
0
LINE
8
BLACK
6
CONTINUOUS
10
87.15
20
-120.05
11
86.75
21
-120.45
0
LINE
8
BLACK
6
CONTINUOUS
10
86.8
20
-124.1
11
87.2
21
-124.5
0
LINE
8
BLACK
6
CONTINUOUS
10
87.2
20
-124.1
11
86.8
21
-124.5
0
LINE
8
BLACK
6
CONTINUOUS
10
87.1
20
-115.5
11
87.5
21
-115.9
0
LINE
8
BLACK
6
CONTINUOUS
10
87.5
20
-115.5
11
87.1
21
-115.9
0
LINE
8
BLACK
6
CONTINUOUS
10
87.25
20
-128.9
11
87.65
21
-129.3
0
LINE
8
BLACK
6
CONTINUOUS
10
87.65
20
-128.9
11
87.25
21
-129.3
0
LINE
8
BLACK
6
CONTINUOUS
10
87.25
20
-132.15
11
87.65
21
-132.55
0
LINE
8
BLACK
6
CONTINUOUS
10
87.65
20
-132.15
11
87.25
21
-132.55
0
LINE
8
BLACK
6
CONTINUOUS
10
90.75
20
-104.05
11
91.15
21
-104.45
0
LINE
8
BLACK
6
CONTINUOUS
10
91.15
20
-104.05
11
90.75
21
-104.45
0
LINE
8
BLACK
6
CONTINUOUS
10
93.65
20
-132.05
11
94.05
21
-132.45
0
LINE
8
BLACK
6
CONTINUOUS
10
94.05
20
-132.05
11
93.65
21
-132.45
0
LINE
8
BLACK
6
CONTINUOUS
10
94
20
-118.45
11
94.4
21
-118.85
0
LINE
8
BLACK
6
CONTINUOUS
10
94.4
20
-118.45
11
94
21
-118.85
0
LINE
8
BLACK
6
CONTINUOUS
10
97
20
-97.9
11
97.4
21
-98.3
0
LINE
8
BLACK
6
CONTINUOUS
10
97.4
20
-97.9
11
97
21
-98.3
0
LINE
8
BLACK
6
CONTINUOUS
10
97.4
20
-107.95
11
97.8
21
-108.35
0
LINE
8
BLACK
6
CONTINUOUS
10
97.8
20
-107.95
11
97.4
21
-108.35
0
LINE
8
BLACK
6
CONTINUOUS
10
99.15
20
-117.1
11
99.55
21
-117.5
0
LINE
8
BLACK
6
CONTINUOUS
10
99.55
20
-117.1
11
99.15
21
-117.5
0
LINE
8
BLACK
6
CONTINUOUS
10
99.5889
20
-99.9691
11
99.9889
21
-100.369
0
LINE
8
BLACK
6
CONTINUOUS
10
99.9889
20
-99.9691
11
99.5889
21
-100.369
0
LINE
8
BLACK
6
CONTINUOUS
10
99.6998
20
-102.165
11
100.1
21
-102.565
0
LINE
8
BLACK
6
CONTINUOUS
10
100.1
20
-102.165
11
99.6998
21
-102.565
0
LINE
8
BLACK
6
CONTINUOUS
10
104.45
20
-116.45
11
104.85
21
-116.85
0
LINE
8
BLACK
6
CONTINUOUS
10
104.85
20
-116.45
11
104.45
21
-116.85
0
LINE
8
BLACK
6
CONTINUOUS
10
108.175
20
-112.343
11
108.575
21
-112.743
0
LINE
8
BLACK
6
CONTINUOUS
10
108.575
20
-112.343
11
108.175
21
-112.743
0
LINE
8
BLACK
6
CONTINUOUS
10
108.25
20
-132
11
108.65
21
-132.4
0
LINE
8
BLACK
6
CONTINUOUS
10
108.65
20
-132
11
108.25
21
-132.4
0
LINE
8
BLACK
6
CONTINUOUS
10
108.45
20
-128.25
11
108.85
21
-128.65
0
LINE
8
BLACK
6
CONTINUOUS
10
108.85
20
-128.25
11
108.45
21
-128.65
0
LINE
8
BLACK
6
CONTINUOUS
10
112.85
20
-135.5
11
113.25
21
-135.9
0
LINE
8
BLACK
6
CONTINUOUS
10
113.25
20
-135.5
11
112.85
21
-135.9
0
LINE
8
BLACK
6
CONTINUOUS
10
115.45
20
-132.35
11
115.85
21
-132.75
0
LINE
8
BLACK
6
CONTINUOUS
10
115.85
20
-132.35
11
115.45
21
-132.75
0
LINE
8
BLACK
6
CONTINUOUS
10
115.65
20
-101.2
11
116.05
21
-101.6
0
LINE
8
BLACK
6
CONTINUOUS
10
116.05
20
-101.2
11
115.65
21
-101.6
0
LINE
8
BLACK
6
CONTINUOUS
10
115.8
20
-104.3
11
116.2
21
-104.7
0
LINE
8
BLACK
6
CONTINUOUS
10
116.2
20
-104.3
11
115.8
21
-104.7
0
LINE
8
BLACK
6
CONTINUOUS
10
116.179
20
-110.897
11
116.579
21
-111.297
0
LINE
8
BLACK
6
CONTINUOUS
10
116.579
20
-110.897
11
116.179
21
-111.297
0
LINE
8
BLACK
6
CONTINUOUS
10
116.5
20
-113.2
11
116.9
21
-113.6
0
LINE
8
BLACK
6
CONTINUOUS
10
116.9
20
-113.2
11
116.5
21
-113.6
0
LINE
8
BLACK
6
CONTINUOUS
10
118.458
20
-97.2565
11
118.858
21
-97.6565
0
LINE
8
BLACK
6
CONTINUOUS
10
118.858
20
-97.2565
11
118.458
21
-97.6565
0
LINE
8
BLACK
6
CONTINUOUS
10
120.006
20
-95.7264
11
120.406
21
-96.1264
0
LINE
8
BLACK
6
CONTINUOUS
10
120.406
20
-95.7264
11
120.006
21
-96.1264
0
LINE
8
BLACK
6
CONTINUOUS
10
121.668
20
-94.0292
11
122.068
21
-94.4292
0
LINE
8
BLACK
6
CONTINUOUS
10
122.068
20
-94.0292
11
121.668
21
-94.4292
0
LINE
8
BLACK
6
CONTINUOUS
10
121.726
20
-118.799
11
122.126
21
-119.199
0
LINE
8
BLACK
6
CONTINUOUS
10
122.126
20
-118.799
11
121.726
21
-119.199
0
LINE
8
BLACK
6
CONTINUOUS
10
121.856
20
-97.3782
11
122.256
21
-97.7782
0
LINE
8
BLACK
6
CONTINUOUS
10
122.256
20
-97.3782
11
121.856
21
-97.7782
0
LINE
8
BLACK
6
CONTINUOUS
10
121.898
20
-125.383
11
122.298
21
-125.783
0
LINE
8
BLACK
6
CONTINUOUS
10
122.298
20
-125.383
11
121.898
21
-125.783
0
LINE
8
BLACK
6
CONTINUOUS
10
122.563
20
-95.8518
11
122.963
21
-96.2518
0
LINE
8
BLACK
6
CONTINUOUS
10
122.963
20
-95.8518
11
122.563
21
-96.2518
0
LINE
8
BLACK
6
CONTINUOUS
10
123
20
-110.75
11
123.4
21
-111.15
0
LINE
8
BLACK
6
CONTINUOUS
10
123.4
20
-110.75
11
123
21
-111.15
0
LINE
8
BLACK
6
CONTINUOUS
10
123.015
20
-80.866
11
123.415
21
-81.266
0
LINE
8
BLACK
6
CONTINUOUS
10
123.415
20
-80.866
11
123.015
21
-81.266
0
LINE
8
BLACK
6
CONTINUOUS
10
124.95
20
-112.45
11
125.35
21
-112.85
0
LINE
8
BLACK
6
CONTINUOUS
10
125.35
20
-112.45
11
124.95
21
-112.85
0
LINE
8
BLACK
6
CONTINUOUS
10
125.6
20
-101.45
11
126
21
-101.85
0
LINE
8
BLACK
6
CONTINUOUS
10
126
20
-101.45
11
125.6
21
-101.85
0
LINE
8
BLACK
6
CONTINUOUS
10
127.532
20
-95.8264
11
127.932
21
-96.2264
0
LINE
8
BLACK
6
CONTINUOUS
10
127.932
20
-95.8264
11
127.532
21
-96.2264
0
LINE
8
BLACK
6
CONTINUOUS
10
127.8
20
-134.65
11
128.2
21
-135.05
0
LINE
8
BLACK
6
CONTINUOUS
10
128.2
20
-134.65
11
127.8
21
-135.05
0
LINE
8
BLACK
6
CONTINUOUS
10
127.894
20
-89.0515
11
128.294
21
-89.4515
0
LINE
8
BLACK
6
CONTINUOUS
10
128.294
20
-89.0515
11
127.894
21
-89.4515
0
LINE
8
BLACK
6
CONTINUOUS
10
128.05
20
-116.05
11
128.45
21
-116.45
0
LINE
8
BLACK
6
CONTINUOUS
10
128.45
20
-116.05
11
128.05
21
-116.45
0
LINE
8
BLACK
6
CONTINUOUS
10
128.263
20
-120.079
11
128.663
21
-120.479
0
LINE
8
BLACK
6
CONTINUOUS
10
128.663
20
-120.079
11
128.263
21
-120.479
0
LINE
8
BLACK
6
CONTINUOUS
10
129.403
20
-122.464
11
129.803
21
-122.864
0
LINE
8
BLACK
6
CONTINUOUS
10
129.803
20
-122.464
11
129.403
21
-122.864
0
LINE
8
BLACK
6
CONTINUOUS
10
132.396
20
-120.612
11
132.796
21
-121.012
0
LINE
8
BLACK
6
CONTINUOUS
10
132.796
20
-120.612
11
132.396
21
-121.012
0
LINE
8
BLACK
6
CONTINUOUS
10
133.442
20
-99.6661
11
133.842
21
-100.066
0
LINE
8
BLACK
6
CONTINUOUS
10
133.842
20
-99.6661
11
133.442
21
-100.066
0
LINE
8
BLACK
6
CONTINUOUS
10
133.737
20
-111.882
11
134.137
21
-112.282
0
LINE
8
BLACK
6
CONTINUOUS
10
134.137
20
-111.882
11
133.737
21
-112.282
0
LINE
8
BLACK
6
CONTINUOUS
10
135.525
20
-80.126
11
135.925
21
-80.526
0
LINE
8
BLACK
6
CONTINUOUS
10
135.925
20
-80.126
11
135.525
21
-80.526
0
LINE
8
BLACK
6
CONTINUOUS
10
136.531
20
-111.823
11
136.931
21
-112.223
0
LINE
8
BLACK
6
CONTINUOUS
10
136.931
20
-111.823
11
136.531
21
-112.223
0
LINE
8
BLACK
6
CONTINUOUS
10
136.565
20
-122.369
11
136.965
21
-122.769
0
LINE
8
BLACK
6
CONTINUOUS
10
136.965
20
-122.369
11
136.565
21
-122.769
0
LINE
8
BLACK
6
CONTINUOUS
10
136.641
20
-121.122
11
137.04
21
-121.522
0
LINE
8
BLACK
6
CONTINUOUS
10
137.04
20
-121.122
11
136.641
21
-121.522
0
LINE
8
BLACK
6
CONTINUOUS
10
137.138
20
-112.63
11
137.538
21
-113.03
0
LINE
8
BLACK
6
CONTINUOUS
10
137.538
20
-112.63
11
137.138
21
-113.03
0
LINE
8
BLACK
6
CONTINUOUS
10
137.574
20
-86.3708
11
137.974
21
-86.7708
0
LINE
8
BLACK
6
CONTINUOUS
10
137.974
20
-86.3708
11
137.574
21
-86.7708
0
LINE
8
BLACK
6
CONTINUOUS
10
139.696
20
-85.9413
11
140.096
21
-86.3413
0
LINE
8
BLACK
6
CONTINUOUS
10
140.096
20
-85.9413
11
139.696
21
-86.3413
0
LINE
8
BLACK
6
CONTINUOUS
10
141.491
20
-134.601
11
141.891
21
-135.001
0
LINE
8
BLACK
6
CONTINUOUS
10
141.891
20
-134.601
11
141.491
21
-135.001
0
LINE
8
BLACK
6
CONTINUOUS
10
141.65
20
-115.25
11
142.05
21
-115.65
0
LINE
8
BLACK
6
CONTINUOUS
10
142.05
20
-115.25
11
141.65
21
-115.65
0
LINE
8
BLACK
6
CONTINUOUS
10
145.5
20
-117.55
11
145.9
21
-117.95
0
LINE
8
BLACK
6
CONTINUOUS
10
145.9
20
-117.55
11
145.5
21
-117.95
0
LINE
8
BLACK
6
CONTINUOUS
10
146.1
20
-113
11
146.5
21
-113.4
0
LINE
8
BLACK
6
CONTINUOUS
10
146.5
20
-113
11
146.1
21
-113.4
0
LINE
8
BLACK
6
CONTINUOUS
10
148.225
20
-133.759
11
148.625
21
-134.159
0
LINE
8
BLACK
6
CONTINUOUS
10
148.625
20
-133.759
11
148.225
21
-134.159
0
LINE
8
BLACK
6
CONTINUOUS
10
149.978
20
-111.485
11
150.378
21
-111.885
0
LINE
8
BLACK
6
CONTINUOUS
10
150.378
20
-111.485
11
149.978
21
-111.885
0
LINE
8
BLACK
6
CONTINUOUS
10
152.4
20
-112.75
11
152.8
21
-113.15
0
LINE
8
BLACK
6
CONTINUOUS
10
152.8
20
-112.75
11
152.4
21
-113.15
0
LINE
8
BLACK
6
CONTINUOUS
10
152.835
20
-121.634
11
153.235
21
-122.034
0
LINE
8
BLACK
6
CONTINUOUS
10
153.235
20
-121.634
11
152.835
21
-122.034
0
LINE
8
BLACK
6
CONTINUOUS
10
154.729
20
-119.868
11
155.129
21
-120.268
0
LINE
8
BLACK
6
CONTINUOUS
10
155.129
20
-119.868
11
154.729
21
-120.268
0
LINE
8
BLACK
6
CONTINUOUS
10
154.928
20
-131.143
11
155.328
21
-131.543
0
LINE
8
BLACK
6
CONTINUOUS
10
155.328
20
-131.143
11
154.928
21
-131.543
0
LINE
8
BLACK
6
CONTINUOUS
10
155.05
20
-97.75
11
155.45
21
-98.15
0
LINE
8
BLACK
6
CONTINUOUS
10
155.45
20
-97.75
11
155.05
21
-98.15
0
LINE
8
BLACK
6
CONTINUOUS
10
155.2
20
-112.107
11
155.6
21
-112.507
0
LINE
8
BLACK
6
CONTINUOUS
10
155.6
20
-112.107
11
155.2
21
-112.507
0
LINE
8
BLACK
6
CONTINUOUS
10
157.631
20
-117.871
11
158.031
21
-118.271
0
LINE
8
BLACK
6
CONTINUOUS
10
158.031
20
-117.871
11
157.631
21
-118.271
0
LINE
8
BLACK
6
CONTINUOUS
10
158.417
20
-117.113
11
158.817
21
-117.513
0
LINE
8
BLACK
6
CONTINUOUS
10
158.817
20
-117.113
11
158.417
21
-117.513
0
LINE
8
BLACK
6
CONTINUOUS
10
159.45
20
-96.05
11
159.85
21
-96.45
0
LINE
8
BLACK
6
CONTINUOUS
10
159.85
20
-96.05
11
159.45
21
-96.45
0
LINE
8
BLACK
6
CONTINUOUS
10
161.65
20
-112.9
11
162.05
21
-113.3
0
LINE
8
BLACK
6
CONTINUOUS
10
162.05
20
-112.9
11
161.65
21
-113.3
0
LINE
8
BLACK
6
CONTINUOUS
10
162.262
20
-95.2903
11
162.662
21
-95.6903
0
LINE
8
BLACK
6
CONTINUOUS
10
162.662
20
-95.2903
11
162.262
21
-95.6903
0
LINE
8
BLACK
6
CONTINUOUS
10
162.981
20
-120.766
11
163.381
21
-121.166
0
LINE
8
BLACK
6
CONTINUOUS
10
163.381
20
-120.766
11
162.981
21
-121.166
0
LINE
8
BLACK
6
CONTINUOUS
10
163.73
20
-89.6665
11
164.13
21
-90.0665
0
LINE
8
BLACK
6
CONTINUOUS
10
164.13
20
-89.6665
11
163.73
21
-90.0665
0
LINE
8
BLACK
6
CONTINUOUS
10
167.548
20
-100.612
11
167.948
21
-101.012
0
LINE
8
BLACK
6
CONTINUOUS
10
167.948
20
-100.612
11
167.548
21
-101.012
0
LINE
8
BLACK
6
CONTINUOUS
10
168.033
20
-122.833
11
168.433
21
-123.233
0
LINE
8
BLACK
6
CONTINUOUS
10
168.433
20
-122.833
11
168.033
21
-123.233
0
LINE
8
BLACK
6
CONTINUOUS
10
170.804
20
-94.4582
11
171.204
21
-94.8582
0
LINE
8
BLACK
6
CONTINUOUS
10
171.204
20
-94.4582
11
170.804
21
-94.8582
0
LINE
8
BLACK
6
CONTINUOUS
10
171.572
20
-93.735
11
171.972
21
-94.135
0
LINE
8
BLACK
6
CONTINUOUS
10
171.972
20
-93.735
11
171.572
21
-94.135
0
LINE
8
BLACK
6
CONTINUOUS
10
173.25
20
-118.15
11
173.65
21
-118.55
0
LINE
8
BLACK
6
CONTINUOUS
10
173.65
20
-118.15
11
173.25
21
-118.55
0
LINE
8
BLACK
6
CONTINUOUS
10
173.347
20
-95.907
11
173.747
21
-96.307
0
LINE
8
BLACK
6
CONTINUOUS
10
173.747
20
-95.907
11
173.347
21
-96.307
0
LINE
8
BLACK
6
CONTINUOUS
10
174.024
20
-91.6716
11
174.424
21
-92.0716
0
LINE
8
BLACK
6
CONTINUOUS
10
174.424
20
-91.6716
11
174.024
21
-92.0716
0
LINE
8
BLACK
6
CONTINUOUS
10
174.31
20
-120.18
11
174.71
21
-120.58
0
LINE
8
BLACK
6
CONTINUOUS
10
174.71
20
-120.18
11
174.31
21
-120.58
0
LINE
8
BLACK
6
CONTINUOUS
10
176.3
20
-93.45
11
176.7
21
-93.85
0
LINE
8
BLACK
6
CONTINUOUS
10
176.7
20
-93.45
11
176.3
21
-93.85
0
LINE
8
BLACK
6
CONTINUOUS
10
176.637
20
-109.034
11
177.037
21
-109.434
0
LINE
8
BLACK
6
CONTINUOUS
10
177.037
20
-109.034
11
176.637
21
-109.434
0
LINE
8
BLACK
6
CONTINUOUS
10
177.45
20
-118.35
11
177.85
21
-118.75
0
LINE
8
BLACK
6
CONTINUOUS
10
177.85
20
-118.35
11
177.45
21
-118.75
0
LINE
8
BLACK
6
CONTINUOUS
10
179.402
20
-100.17
11
179.802
21
-100.57
0
LINE
8
BLACK
6
CONTINUOUS
10
179.802
20
-100.17
11
179.402
21
-100.57
0
LINE
8
BLACK
6
CONTINUOUS
10
179.808
20
-130.829
11
180.208
21
-131.229
0
LINE
8
BLACK
6
CONTINUOUS
10
180.208
20
-130.829
11
179.808
21
-131.229
0
LINE
8
BLACK
6
CONTINUOUS
10
180.427
20
-133.333
11
180.827
21
-133.733
0
LINE
8
BLACK
6
CONTINUOUS
10
180.827
20
-133.333
11
180.427
21
-133.733
0
LINE
8
BLACK
6
CONTINUOUS
10
182.414
20
-101.21
11
182.814
21
-101.61
0
LINE
8
BLACK
6
CONTINUOUS
10
182.814
20
-101.21
11
182.414
21
-101.61
0
LINE
8
BLACK
6
CONTINUOUS
10
184.174
20
-100.608
11
184.574
21
-101.008
0
LINE
8
BLACK
6
CONTINUOUS
10
184.574
20
-100.608
11
184.174
21
-101.008
0
LINE
8
BLACK
6
CONTINUOUS
10
184.79
20
-128.521
11
185.19
21
-128.921
0
LINE
8
BLACK
6
CONTINUOUS
10
185.19
20
-128.521
11
184.79
21
-128.921
0
LINE
8
BLACK
6
CONTINUOUS
10
187
20
-92.65
11
187.4
21
-93.05
0
LINE
8
BLACK
6
CONTINUOUS
10
187.4
20
-92.65
11
187
21
-93.05
0
LINE
8
BLACK
6
CONTINUOUS
10
188.471
20
-128.268
11
188.871
21
-128.668
0
LINE
8
BLACK
6
CONTINUOUS
10
188.871
20
-128.268
11
188.471
21
-128.668
0
LINE
8
BLACK
6
CONTINUOUS
10
188.764
20
-105.355
11
189.164
21
-105.755
0
LINE
8
BLACK
6
CONTINUOUS
10
189.164
20
-105.355
11
188.764
21
-105.755
0
LINE
8
BLACK
6
CONTINUOUS
10
189.175
20
-100.1
11
189.575
21
-100.5
0
LINE
8
BLACK
6
CONTINUOUS
10
189.575
20
-100.1
11
189.175
21
-100.5
0
LINE
8
BLACK
6
CONTINUOUS
10
189.65
20
-93.15
11
190.05
21
-93.55
0
LINE
8
BLACK
6
CONTINUOUS
10
190.05
20
-93.15
11
189.65
21
-93.55
0
LINE
8
BLACK
6
CONTINUOUS
10
189.713
20
-102.837
11
190.113
21
-103.237
0
LINE
8
BLACK
6
CONTINUOUS
10
190.113
20
-102.837
11
189.713
21
-103.237
0
LINE
8
BLACK
6
CONTINUOUS
10
191.062
20
-95.5707
11
191.462
21
-95.9707
0
LINE
8
BLACK
6
CONTINUOUS
10
191.462
20
-95.5707
11
191.062
21
-95.9707
0
LINE
8
BLACK
6
CONTINUOUS
10
192.3
20
-93.05
11
192.7
21
-93.45
0
LINE
8
BLACK
6
CONTINUOUS
10
192.7
20
-93.05
11
192.3
21
-93.45
0
LINE
8
BLACK
6
CONTINUOUS
10
194.32
20
-83.2956
11
194.72
21
-83.6956
0
LINE
8
BLACK
6
CONTINUOUS
10
194.72
20
-83.2956
11
194.32
21
-83.6956
0
LINE
8
BLACK
6
CONTINUOUS
10
194.75
20
-94.05
11
195.15
21
-94.45
0
LINE
8
BLACK
6
CONTINUOUS
10
195.15
20
-94.05
11
194.75
21
-94.45
0
LINE
8
BLACK
6
CONTINUOUS
10
194.753
20
-126.81
11
195.153
21
-127.21
0
LINE
8
BLACK
6
CONTINUOUS
10
195.153
20
-126.81
11
194.753
21
-127.21
0
LINE
8
BLACK
6
CONTINUOUS
10
196.904
20
-100.706
11
197.304
21
-101.106
0
LINE
8
BLACK
6
CONTINUOUS
10
197.304
20
-100.706
11
196.904
21
-101.106
0
LINE
8
BLACK
6
CONTINUOUS
10
197.207
20
-126.352
11
197.607
21
-126.752
0
LINE
8
BLACK
6
CONTINUOUS
10
197.607
20
-126.352
11
197.207
21
-126.752
0
LINE
8
BLACK
6
CONTINUOUS
10
197.25
20
-94.05
11
197.65
21
-94.45
0
LINE
8
BLACK
6
CONTINUOUS
10
197.65
20
-94.05
11
197.25
21
-94.45
0
LINE
8
BLACK
6
CONTINUOUS
10
197.866
20
-114.597
11
198.266
21
-114.997
0
LINE
8
BLACK
6
CONTINUOUS
10
198.266
20
-114.597
11
197.866
21
-114.997
0
LINE
8
BLACK
6
CONTINUOUS
10
198.575
20
-134.244
11
198.975
21
-134.644
0
LINE
8
BLACK
6
CONTINUOUS
10
198.975
20
-134.244
11
198.575
21
-134.644
0
LINE
8
BLACK
6
CONTINUOUS
10
199.326
20
-83.6556
11
199.726
21
-84.0556
0
LINE
8
BLACK
6
CONTINUOUS
10
199.726
20
-83.6556
11
199.326
21
-84.0556
0
LINE
8
BLACK
6
CONTINUOUS
10
199.95
20
-94.25
11
200.35
21
-94.65
0
LINE
8
BLACK
6
CONTINUOUS
10
200.35
20
-94.25
11
199.95
21
-94.65
0
LINE
8
BLACK
6
CONTINUOUS
10
200.599
20
-116.121
11
200.999
21
-116.521
0
LINE
8
BLACK
6
CONTINUOUS
10
200.999
20
-116.121
11
200.599
21
-116.521
0
LINE
8
BLACK
6
CONTINUOUS
10
200.899
20
-127.731
11
201.299
21
-128.131
0
LINE
8
BLACK
6
CONTINUOUS
10
201.299
20
-127.731
11
200.899
21
-128.131
0
LINE
8
BLACK
6
CONTINUOUS
10
201.893
20
-109.82
11
202.293
21
-110.22
0
LINE
8
BLACK
6
CONTINUOUS
10
202.293
20
-109.82
11
201.893
21
-110.22
0
LINE
8
BLACK
6
CONTINUOUS
10
201.992
20
-135.803
11
202.391
21
-136.203
0
LINE
8
BLACK
6
CONTINUOUS
10
202.391
20
-135.803
11
201.992
21
-136.203
0
LINE
8
BLACK
6
CONTINUOUS
10
203.357
20
-124.835
11
203.757
21
-125.235
0
LINE
8
BLACK
6
CONTINUOUS
10
203.757
20
-124.835
11
203.357
21
-125.235
0
LINE
8
BLACK
6
CONTINUOUS
10
203.532
20
-121.438
11
203.932
21
-121.838
0
LINE
8
BLACK
6
CONTINUOUS
10
203.932
20
-121.438
11
203.532
21
-121.838
0
LINE
8
BLACK
6
CONTINUOUS
10
203.75
20
-92.95
11
204.15
21
-93.35
0
LINE
8
BLACK
6
CONTINUOUS
10
204.15
20
-92.95
11
203.75
21
-93.35
0
LINE
8
BLACK
6
CONTINUOUS
10
203.752
20
-125.922
11
204.152
21
-126.322
0
LINE
8
BLACK
6
CONTINUOUS
10
204.152
20
-125.922
11
203.752
21
-126.322
0
LINE
8
BLACK
6
CONTINUOUS
10
204.75
20
-114.8
11
205.15
21
-115.2
0
LINE
8
BLACK
6
CONTINUOUS
10
205.15
20
-114.8
11
204.75
21
-115.2
0
LINE
8
BLACK
6
CONTINUOUS
10
204.9
20
-107.5
11
205.3
21
-107.9
0
LINE
8
BLACK
6
CONTINUOUS
10
205.3
20
-107.5
11
204.9
21
-107.9
0
LINE
8
BLACK
6
CONTINUOUS
10
205.277
20
-131.096
11
205.677
21
-131.496
0
LINE
8
BLACK
6
CONTINUOUS
10
205.677
20
-131.096
11
205.277
21
-131.496
0
LINE
8
BLACK
6
CONTINUOUS
10
206.357
20
-130.099
11
206.757
21
-130.499
0
LINE
8
BLACK
6
CONTINUOUS
10
206.757
20
-130.099
11
206.357
21
-130.499
0
LINE
8
BLACK
6
CONTINUOUS
10
207.757
20
-123.989
11
208.157
21
-124.389
0
LINE
8
BLACK
6
CONTINUOUS
10
208.157
20
-123.989
11
207.757
21
-124.389
0
LINE
8
BLACK
6
CONTINUOUS
10
209.4
20
-95.35
11
209.8
21
-95.75
0
LINE
8
BLACK
6
CONTINUOUS
10
209.8
20
-95.35
11
209.4
21
-95.75
0
LINE
8
BLACK
6
CONTINUOUS
10
210.771
20
-123.025
11
211.171
21
-123.425
0
LINE
8
BLACK
6
CONTINUOUS
10
211.171
20
-123.025
11
210.771
21
-123.425
0
LINE
8
BLACK
6
CONTINUOUS
10
211.507
20
-123.749
11
211.907
21
-124.149
0
LINE
8
BLACK
6
CONTINUOUS
10
211.907
20
-123.749
11
211.507
21
-124.149
0
CIRCLE
8
BLACK
10
82.35
20
-112.025
40
0.4
0
CIRCLE
8
BLACK
10
82.35
20
-114.565
40
0.4
0
CIRCLE
8
BLACK
10
82.35
20
-117.105
40
0.4
0
CIRCLE
8
BLACK
10
82.35
20
-119.645
40
0.4
0
CIRCLE
8
BLACK
10
82.35
20
-122.185
40
0.4
0
CIRCLE
8
BLACK
10
82.35
20
-124.725
40
0.4
0
CIRCLE
8
BLACK
10
82.35
20
-127.265
40
0.4
0
CIRCLE
8
BLACK
10
82.35
20
-129.805
40
0.4
0
CIRCLE
8
BLACK
10
82.35
20
-132.345
40
0.4
0
CIRCLE
8
BLACK
10
82.35
20
-134.885
40
0.4
0
CIRCLE
8
BLACK
10
89.97
20
-112.025
40
0.4
0
CIRCLE
8
BLACK
10
89.97
20
-114.565
40
0.4
0
CIRCLE
8
BLACK
10
89.97
20
-117.105
40
0.4
0
CIRCLE
8
BLACK
10
89.97
20
-119.645
40
0.4
0
CIRCLE
8
BLACK
10
89.97
20
-122.185
40
0.4
0
CIRCLE
8
BLACK
10
89.97
20
-124.725
40
0.4
0
CIRCLE
8
BLACK
10
89.97
20
-127.265
40
0.4
0
CIRCLE
8
BLACK
10
89.97
20
-129.805
40
0.4
0
CIRCLE
8
BLACK
10
89.97
20
-132.345
40
0.4
0
CIRCLE
8
BLACK
10
89.97
20
-134.885
40
0.4
0
CIRCLE
8
BLACK
10
96.85
20
-114.5
40
0.4
0
CIRCLE
8
BLACK
10
96.85
20
-117.04
40
0.4
0
CIRCLE
8
BLACK
10
96.85
20
-119.58
40
0.4
0
CIRCLE
8
BLACK
10
96.85
20
-122.12
40
0.4
0
CIRCLE
8
BLACK
10
96.85
20
-124.66
40
0.4
0
CIRCLE
8
BLACK
10
96.85
20
-127.2
40
0.4
0
CIRCLE
8
BLACK
10
96.85
20
-129.74
40
0.4
0
CIRCLE
8
BLACK
10
96.85
20
-132.28
40
0.4
0
CIRCLE
8
BLACK
10
96.85
20
-134.82
40
0.4
0
CIRCLE
8
BLACK
10
101.7
20
-100.95
40
0.4
0
CIRCLE
8
BLACK
10
101.7
20
-103.49
40
0.4
0
CIRCLE
8
BLACK
10
101.7
20
-106.03
40
0.4
0
CIRCLE
8
BLACK
10
101.7
20
-108.57
40
0.4
0
CIRCLE
8
BLACK
10
101.7
20
-111.11
40
0.4
0
CIRCLE
8
BLACK
10
101.7
20
-113.65
40
0.4
0
CIRCLE
8
BLACK
10
101.7
20
-116.19
40
0.4
0
CIRCLE
8
BLACK
10
101.7
20
-118.73
40
0.4
0
CIRCLE
8
BLACK
10
101.7
20
-121.27
40
0.4
0
CIRCLE
8
BLACK
10
101.7
20
-123.81
40
0.4
0
CIRCLE
8
BLACK
10
109.32
20
-100.95
40
0.4
0
CIRCLE
8
BLACK
10
109.32
20
-103.49
40
0.4
0
CIRCLE
8
BLACK
10
109.32
20
-106.03
40
0.4
0
CIRCLE
8
BLACK
10
109.32
20
-108.57
40
0.4
0
CIRCLE
8
BLACK
10
109.32
20
-111.11
40
0.4
0
CIRCLE
8
BLACK
10
109.32
20
-113.65
40
0.4
0
CIRCLE
8
BLACK
10
109.32
20
-116.19
40
0.4
0
CIRCLE
8
BLACK
10
109.32
20
-118.73
40
0.4
0
CIRCLE
8
BLACK
10
109.32
20
-121.27
40
0.4
0
CIRCLE
8
BLACK
10
109.32
20
-123.81
40
0.4
0
CIRCLE
8
BLACK
10
114.1
20
-107.05
40
0.4
0
CIRCLE
8
BLACK
10
114.1
20
-109.59
40
0.4
0
CIRCLE
8
BLACK
10
114.1
20
-112.13
40
0.4
0
CIRCLE
8
BLACK
10
114.1
20
-114.67
40
0.4
0
CIRCLE
8
BLACK
10
114.1
20
-117.21
40
0.4
0
CIRCLE
8
BLACK
10
114.1
20
-119.75
40
0.4
0
CIRCLE
8
BLACK
10
114.1
20
-122.29
40
0.4
0
CIRCLE
8
BLACK
10
114.1
20
-124.83
40
0.4
0
CIRCLE
8
BLACK
10
114.1
20
-127.37
40
0.4
0
CIRCLE
8
BLACK
10
128.025
20
-90.78
40
0.4
0
CIRCLE
8
BLACK
10
128.025
20
-98.4
40
0.4
0
CIRCLE
8
BLACK
10
130.565
20
-90.78
40
0.4
0
CIRCLE
8
BLACK
10
130.565
20
-98.4
40
0.4
0
CIRCLE
8
BLACK
10
133.105
20
-90.78
40
0.4
0
CIRCLE
8
BLACK
10
133.105
20
-98.4
40
0.4
0
CIRCLE
8
BLACK
10
135.645
20
-90.78
40
0.4
0
CIRCLE
8
BLACK
10
135.645
20
-98.4
40
0.4
0
CIRCLE
8
BLACK
10
138.185
20
-90.78
40
0.4
0
CIRCLE
8
BLACK
10
138.185
20
-98.4
40
0.4
0
CIRCLE
8
BLACK
10
140.725
20
-90.78
40
0.4
0
CIRCLE
8
BLACK
10
140.725
20
-98.4
40
0.4
0
CIRCLE
8
BLACK
10
143.265
20
-90.78
40
0.4
0
CIRCLE
8
BLACK
10
143.265
20
-98.4
40
0.4
0
CIRCLE
8
BLACK
10
145.805
20
-90.78
40
0.4
0
CIRCLE
8
BLACK
10
145.805
20
-98.4
40
0.4
0
CIRCLE
8
BLACK
10
148.345
20
-90.78
40
0.4
0
CIRCLE
8
BLACK
10
148.345
20
-98.4
40
0.4
0
CIRCLE
8
BLACK
10
150.885
20
-90.78
40
0.4
0
CIRCLE
8
BLACK
10
150.885
20
-98.4
40
0.4
0
CIRCLE
8
BLACK
10
157.575
20
-90.88
40
0.4
0
CIRCLE
8
BLACK
10
157.575
20
-98.5
40
0.4
0
CIRCLE
8
BLACK
10
160.115
20
-90.88
40
0.4
0
CIRCLE
8
BLACK
10
160.115
20
-98.5
40
0.4
0
CIRCLE
8
BLACK
10
162.655
20
-90.88
40
0.4
0
CIRCLE
8
BLACK
10
162.655
20
-98.5
40
0.4
0
CIRCLE
8
BLACK
10
165.195
20
-90.88
40
0.4
0
CIRCLE
8
BLACK
10
165.195
20
-98.5
40
0.4
0
CIRCLE
8
BLACK
10
167.735
20
-90.88
40
0.4
0
CIRCLE
8
BLACK
10
167.735
20
-98.5
40
0.4
0
CIRCLE
8
BLACK
10
170.275
20
-90.88
40
0.4
0
CIRCLE
8
BLACK
10
170.275
20
-98.5
40
0.4
0
CIRCLE
8
BLACK
10
172.815
20
-90.88
40
0.4
0
CIRCLE
8
BLACK
10
172.815
20
-98.5
40
0.4
0
CIRCLE
8
BLACK
10
175.355
20
-90.88
40
0.4
0
CIRCLE
8
BLACK
10
175.355
20
-98.5
40
0.4
0
CIRCLE
8
BLACK
10
177.895
20
-90.88
40
0.4
0
CIRCLE
8
BLACK
10
177.895
20
-98.5
40
0.4
0
CIRCLE
8
BLACK
10
180.435
20
-90.88
40
0.4
0
CIRCLE
8
BLACK
10
180.435
20
-98.5
40
0.4
0
CIRCLE
8
BLACK
10
185.5
20
-102.6
40
0.4
0
CIRCLE
8
BLACK
10
185.5
20
-105.14
40
0.4
0
CIRCLE
8
BLACK
10
185.5
20
-107.68
40
0.4
0
CIRCLE
8
BLACK
10
185.5
20
-110.22
40
0.4
0
CIRCLE
8
BLACK
10
185.5
20
-112.76
40
0.4
0
CIRCLE
8
BLACK
10
185.5
20
-115.3
40
0.4
0
CIRCLE
8
BLACK
10
185.5
20
-117.84
40
0.4
0
CIRCLE
8
BLACK
10
185.5
20
-120.38
40
0.4
0
CIRCLE
8
BLACK
10
185.5
20
-122.92
40
0.4
0
CIRCLE
8
BLACK
10
185.5
20
-125.46
40
0.4
0
CIRCLE
8
BLACK
10
187.475
20
-90.78
40
0.4
0
CIRCLE
8
BLACK
10
187.475
20
-98.4
40
0.4
0
CIRCLE
8
BLACK
10
190.015
20
-90.78
40
0.4
0
CIRCLE
8
BLACK
10
190.015
20
-98.4
40
0.4
0
CIRCLE
8
BLACK
10
192.555
20
-90.78
40
0.4
0
CIRCLE
8
BLACK
10
192.555
20
-98.4
40
0.4
0
CIRCLE
8
BLACK
10
193.12
20
-102.6
40
0.4
0
CIRCLE
8
BLACK
10
193.12
20
-105.14
40
0.4
0
CIRCLE
8
BLACK
10
193.12
20
-107.68
40
0.4
0
CIRCLE
8
BLACK
10
193.12
20
-110.22
40
0.4
0
CIRCLE
8
BLACK
10
193.12
20
-112.76
40
0.4
0
CIRCLE
8
BLACK
10
193.12
20
-115.3
40
0.4
0
CIRCLE
8
BLACK
10
193.12
20
-117.84
40
0.4
0
CIRCLE
8
BLACK
10
193.12
20
-120.38
40
0.4
0
CIRCLE
8
BLACK
10
193.12
20
-122.92
40
0.4
0
CIRCLE
8
BLACK
10
193.12
20
-125.46
40
0.4
0
CIRCLE
8
BLACK
10
195.095
20
-90.78
40
0.4
0
CIRCLE
8
BLACK
10
195.095
20
-98.4
40
0.4
0
CIRCLE
8
BLACK
10
197.635
20
-90.78
40
0.4
0
CIRCLE
8
BLACK
10
197.635
20
-98.4
40
0.4
0
CIRCLE
8
BLACK
10
199.6
20
-102.6
40
0.4
0
CIRCLE
8
BLACK
10
199.6
20
-105.14
40
0.4
0
CIRCLE
8
BLACK
10
199.6
20
-107.68
40
0.4
0
CIRCLE
8
BLACK
10
199.6
20
-110.22
40
0.4
0
CIRCLE
8
BLACK
10
199.6
20
-112.76
40
0.4
0
CIRCLE
8
BLACK
10
199.6
20
-115.3
40
0.4
0
CIRCLE
8
BLACK
10
199.6
20
-117.84
40
0.4
0
CIRCLE
8
BLACK
10
199.6
20
-120.38
40
0.4
0
CIRCLE
8
BLACK
10
199.6
20
-122.92
40
0.4
0
CIRCLE
8
BLACK
10
199.6
20
-125.46
40
0.4
0
CIRCLE
8
BLACK
10
200.175
20
-90.78
40
0.4
0
CIRCLE
8
BLACK
10
200.175
20
-98.4
40
0.4
0
CIRCLE
8
BLACK
10
202.715
20
-90.78
40
0.4
0
CIRCLE
8
BLACK
10
202.715
20
-98.4
40
0.4
0
CIRCLE
8
BLACK
10
205.255
20
-90.78
40
0.4
0
CIRCLE
8
BLACK
10
205.255
20
-98.4
40
0.4
0
CIRCLE
8
BLACK
10
207.22
20
-102.6
40
0.4
0
CIRCLE
8
BLACK
10
207.22
20
-105.14
40
0.4
0
CIRCLE
8
BLACK
10
207.22
20
-107.68
40
0.4
0
CIRCLE
8
BLACK
10
207.22
20
-110.22
40
0.4
0
CIRCLE
8
BLACK
10
207.22
20
-112.76
40
0.4
0
CIRCLE
8
BLACK
10
207.22
20
-115.3
40
0.4
0
CIRCLE
8
BLACK
10
207.22
20
-117.84
40
0.4
0
CIRCLE
8
BLACK
10
207.22
20
-120.38
40
0.4
0
CIRCLE
8
BLACK
10
207.22
20
-122.92
40
0.4
0
CIRCLE
8
BLACK
10
207.22
20
-125.46
40
0.4
0
CIRCLE
8
BLACK
10
207.795
20
-90.78
40
0.4
0
CIRCLE
8
BLACK
10
207.795
20
-98.4
40
0.4
0
CIRCLE
8
BLACK
10
210.335
20
-90.78
40
0.4
0
CIRCLE
8
BLACK
10
210.335
20
-98.4
40
0.4
0
LINE
8
BLACK
6
CONTINUOUS
10
113.2
20
-81.275
11
113.2
21
-82.275
0
LINE
8
BLACK
6
CONTINUOUS
10
112.7
20
-81.775
11
113.7
21
-81.775
0
LINE
8
BLACK
6
CONTINUOUS
10
113.2
20
-83.815
11
113.2
21
-84.815
0
LINE
8
BLACK
6
CONTINUOUS
10
112.7
20
-84.315
11
113.7
21
-84.315
0
LINE
8
BLACK
6
CONTINUOUS
10
113.2
20
-86.355
11
113.2
21
-87.355
0
LINE
8
BLACK
6
CONTINUOUS
10
112.7
20
-86.855
11
113.7
21
-86.855
0
LINE
8
BLACK
6
CONTINUOUS
10
113.2
20
-88.895
11
113.2
21
-89.895
0
LINE
8
BLACK
6
CONTINUOUS
10
112.7
20
-89.395
11
113.7
21
-89.395
0
LINE
8
BLACK
6
CONTINUOUS
10
113.2
20
-91.435
11
113.2
21
-92.435
0
LINE
8
BLACK
6
CONTINUOUS
10
112.7
20
-91.935
11
113.7
21
-91.935
0
LINE
8
BLACK
6
CONTINUOUS
10
113.2
20
-93.975
11
113.2
21
-94.975
0
LINE
8
BLACK
6
CONTINUOUS
10
112.7
20
-94.475
11
113.7
21
-94.475
0
LINE
8
BLACK
6
CONTINUOUS
10
124.73
20
-81.6725
11
124.73
21
-82.6725
0
LINE
8
BLACK
6
CONTINUOUS
10
124.23
20
-82.1725
11
125.23
21
-82.1725
0
LINE
8
BLACK
6
CONTINUOUS
10
124.73
20
-84.2125
11
124.73
21
-85.2125
0
LINE
8
BLACK
6
CONTINUOUS
10
124.23
20
-84.7125
11
125.23
21
-84.7125
0
LINE
8
BLACK
6
CONTINUOUS
10
125.56
20
-129.36
11
125.56
21
-130.36
0
LINE
8
BLACK
6
CONTINUOUS
10
125.06
20
-129.86
11
126.06
21
-129.86
0
LINE
8
BLACK
6
CONTINUOUS
10
125.56
20
-131.9
11
125.56
21
-132.9
0
LINE
8
BLACK
6
CONTINUOUS
10
125.06
20
-132.4
11
126.06
21
-132.4
0
LINE
8
BLACK
6
CONTINUOUS
10
127.27
20
-81.6725
11
127.27
21
-82.6725
0
LINE
8
BLACK
6
CONTINUOUS
10
126.77
20
-82.1725
11
127.77
21
-82.1725
0
LINE
8
BLACK
6
CONTINUOUS
10
127.27
20
-84.2125
11
127.27
21
-85.2125
0
LINE
8
BLACK
6
CONTINUOUS
10
126.77
20
-84.7125
11
127.77
21
-84.7125
0
LINE
8
BLACK
6
CONTINUOUS
10
128.1
20
-129.36
11
128.1
21
-130.36
0
LINE
8
BLACK
6
CONTINUOUS
10
127.6
20
-129.86
11
128.6
21
-129.86
0
LINE
8
BLACK
6
CONTINUOUS
10
128.1
20
-131.9
11
128.1
21
-132.9
0
LINE
8
BLACK
6
CONTINUOUS
10
127.6
20
-132.4
11
128.6
21
-132.4
0
LINE
8
BLACK
6
CONTINUOUS
10
129.81
20
-81.6725
11
129.81
21
-82.6725
0
LINE
8
BLACK
6
CONTINUOUS
10
129.31
20
-82.1725
11
130.31
21
-82.1725
0
LINE
8
BLACK
6
CONTINUOUS
10
129.81
20
-84.2125
11
129.81
21
-85.2125
0
LINE
8
BLACK
6
CONTINUOUS
10
129.31
20
-84.7125
11
130.31
21
-84.7125
0
LINE
8
BLACK
6
CONTINUOUS
10
130.64
20
-129.36
11
130.64
21
-130.36
0
LINE
8
BLACK
6
CONTINUOUS
10
130.14
20
-129.86
11
131.14
21
-129.86
0
LINE
8
BLACK
6
CONTINUOUS
10
130.64
20
-131.9
11
130.64
21
-132.9
0
LINE
8
BLACK
6
CONTINUOUS
10
130.14
20
-132.4
11
131.14
21
-132.4
0
LINE
8
BLACK
6
CONTINUOUS
10
132.35
20
-81.6725
11
132.35
21
-82.6725
0
LINE
8
BLACK
6
CONTINUOUS
10
131.85
20
-82.1725
11
132.85
21
-82.1725
0
LINE
8
BLACK
6
CONTINUOUS
10
132.35
20
-84.2125
11
132.35
21
-85.2125
0
LINE
8
BLACK
6
CONTINUOUS
10
131.85
20
-84.7125
11
132.85
21
-84.7125
0
LINE
8
BLACK
6
CONTINUOUS
10
133.18
20
-129.36
11
133.18
21
-130.36
0
LINE
8
BLACK
6
CONTINUOUS
10
132.68
20
-129.86
11
133.68
21
-129.86
0
LINE
8
BLACK
6
CONTINUOUS
10
133.18
20
-131.9
11
133.18
21
-132.9
0
LINE
8
BLACK
6
CONTINUOUS
10
132.68
20
-132.4
11
133.68
21
-132.4
0
LINE
8
BLACK
6
CONTINUOUS
10
134.89
20
-81.6725
11
134.89
21
-82.6725
0
LINE
8
BLACK
6
CONTINUOUS
10
134.39
20
-82.1725
11
135.39
21
-82.1725
0
LINE
8
BLACK
6
CONTINUOUS
10
134.89
20
-84.2125
11
134.89
21
-85.2125
0
LINE
8
BLACK
6
CONTINUOUS
10
134.39
20
-84.7125
11
135.39
21
-84.7125
0
LINE
8
BLACK
6
CONTINUOUS
10
135.72
20
-129.36
11
135.72
21
-130.36
0
LINE
8
BLACK
6
CONTINUOUS
10
135.22
20
-129.86
11
136.22
21
-129.86
0
LINE
8
BLACK
6
CONTINUOUS
10
135.72
20
-131.9
11
135.72
21
-132.9
0
LINE
8
BLACK
6
CONTINUOUS
10
135.22
20
-132.4
11
136.22
21
-132.4
0
LINE
8
BLACK
6
CONTINUOUS
10
137.43
20
-81.6725
11
137.43
21
-82.6725
0
LINE
8
BLACK
6
CONTINUOUS
10
136.93
20
-82.1725
11
137.93
21
-82.1725
0
LINE
8
BLACK
6
CONTINUOUS
10
137.43
20
-84.2125
11
137.43
21
-85.2125
0
LINE
8
BLACK
6
CONTINUOUS
10
136.93
20
-84.7125
11
137.93
21
-84.7125
0
LINE
8
BLACK
6
CONTINUOUS
10
138.26
20
-129.36
11
138.26
21
-130.36
0
LINE
8
BLACK
6
CONTINUOUS
10
137.76
20
-129.86
11
138.76
21
-129.86
0
LINE
8
BLACK
6
CONTINUOUS
10
138.26
20
-131.9
11
138.26
21
-132.9
0
LINE
8
BLACK
6
CONTINUOUS
10
137.76
20
-132.4
11
138.76
21
-132.4
0
LINE
8
BLACK
6
CONTINUOUS
10
139.97
20
-81.6725
11
139.97
21
-82.6725
0
LINE
8
BLACK
6
CONTINUOUS
10
139.47
20
-82.1725
11
140.47
21
-82.1725
0
LINE
8
BLACK
6
CONTINUOUS
10
139.97
20
-84.2125
11
139.97
21
-85.2125
0
LINE
8
BLACK
6
CONTINUOUS
10
139.47
20
-84.7125
11
140.47
21
-84.7125
0
LINE
8
BLACK
6
CONTINUOUS
10
140.8
20
-129.36
11
140.8
21
-130.36
0
LINE
8
BLACK
6
CONTINUOUS
10
140.3
20
-129.86
11
141.3
21
-129.86
0
LINE
8
BLACK
6
CONTINUOUS
10
140.8
20
-131.9
11
140.8
21
-132.9
0
LINE
8
BLACK
6
CONTINUOUS
10
140.3
20
-132.4
11
141.3
21
-132.4
0
LINE
8
BLACK
6
CONTINUOUS
10
142.51
20
-81.6725
11
142.51
21
-82.6725
0
LINE
8
BLACK
6
CONTINUOUS
10
142.01
20
-82.1725
11
143.01
21
-82.1725
0
LINE
8
BLACK
6
CONTINUOUS
10
142.51
20
-84.2125
11
142.51
21
-85.2125
0
LINE
8
BLACK
6
CONTINUOUS
10
142.01
20
-84.7125
11
143.01
21
-84.7125
0
LINE
8
BLACK
6
CONTINUOUS
10
143.34
20
-129.36
11
143.34
21
-130.36
0
LINE
8
BLACK
6
CONTINUOUS
10
142.84
20
-129.86
11
143.84
21
-129.86
0
LINE
8
BLACK
6
CONTINUOUS
10
143.34
20
-131.9
11
143.34
21
-132.9
0
LINE
8
BLACK
6
CONTINUOUS
10
142.84
20
-132.4
11
143.84
21
-132.4
0
LINE
8
BLACK
6
CONTINUOUS
10
145.05
20
-81.6725
11
145.05
21
-82.6725
0
LINE
8
BLACK
6
CONTINUOUS
10
144.55
20
-82.1725
11
145.55
21
-82.1725
0
LINE
8
BLACK
6
CONTINUOUS
10
145.05
20
-84.2125
11
145.05
21
-85.2125
0
LINE
8
BLACK
6
CONTINUOUS
10
144.55
20
-84.7125
11
145.55
21
-84.7125
0
LINE
8
BLACK
6
CONTINUOUS
10
145.88
20
-129.36
11
145.88
21
-130.36
0
LINE
8
BLACK
6
CONTINUOUS
10
145.38
20
-129.86
11
146.38
21
-129.86
0
LINE
8
BLACK
6
CONTINUOUS
10
145.88
20
-131.9
11
145.88
21
-132.9
0
LINE
8
BLACK
6
CONTINUOUS
10
145.38
20
-132.4
11
146.38
21
-132.4
0
LINE
8
BLACK
6
CONTINUOUS
10
147.59
20
-81.6725
11
147.59
21
-82.6725
0
LINE
8
BLACK
6
CONTINUOUS
10
147.09
20
-82.1725
11
148.09
21
-82.1725
0
LINE
8
BLACK
6
CONTINUOUS
10
147.59
20
-84.2125
11
147.59
21
-85.2125
0
LINE
8
BLACK
6
CONTINUOUS
10
147.09
20
-84.7125
11
148.09
21
-84.7125
0
LINE
8
BLACK
6
CONTINUOUS
10
148.42
20
-129.36
11
148.42
21
-130.36
0
LINE
8
BLACK
6
CONTINUOUS
10
147.92
20
-129.86
11
148.92
21
-129.86
0
LINE
8
BLACK
6
CONTINUOUS
10
148.42
20
-131.9
11
148.42
21
-132.9
0
LINE
8
BLACK
6
CONTINUOUS
10
147.92
20
-132.4
11
148.92
21
-132.4
0
LINE
8
BLACK
6
CONTINUOUS
10
150.13
20
-81.6725
11
150.13
21
-82.6725
0
LINE
8
BLACK
6
CONTINUOUS
10
149.63
20
-82.1725
11
150.63
21
-82.1725
0
LINE
8
BLACK
6
CONTINUOUS
10
150.13
20
-84.2125
11
150.13
21
-85.2125
0
LINE
8
BLACK
6
CONTINUOUS
10
149.63
20
-84.7125
11
150.63
21
-84.7125
0
LINE
8
BLACK
6
CONTINUOUS
10
150.96
20
-129.36
11
150.96
21
-130.36
0
LINE
8
BLACK
6
CONTINUOUS
10
150.46
20
-129.86
11
151.46
21
-129.86
0
LINE
8
BLACK
6
CONTINUOUS
10
150.96
20
-131.9
11
150.96
21
-132.9
0
LINE
8
BLACK
6
CONTINUOUS
10
150.46
20
-132.4
11
151.46
21
-132.4
0
LINE
8
BLACK
6
CONTINUOUS
10
152.67
20
-81.6725
11
152.67
21
-82.6725
0
LINE
8
BLACK
6
CONTINUOUS
10
152.17
20
-82.1725
11
153.17
21
-82.1725
0
LINE
8
BLACK
6
CONTINUOUS
10
152.67
20
-84.2125
11
152.67
21
-85.2125
0
LINE
8
BLACK
6
CONTINUOUS
10
152.17
20
-84.7125
11
153.17
21
-84.7125
0
LINE
8
BLACK
6
CONTINUOUS
10
153.5
20
-129.36
11
153.5
21
-130.36
0
LINE
8
BLACK
6
CONTINUOUS
10
153
20
-129.86
11
154
21
-129.86
0
LINE
8
BLACK
6
CONTINUOUS
10
153.5
20
-131.9
11
153.5
21
-132.9
0
LINE
8
BLACK
6
CONTINUOUS
10
153
20
-132.4
11
154
21
-132.4
0
LINE
8
BLACK
6
CONTINUOUS
10
155.21
20
-81.6725
11
155.21
21
-82.6725
0
LINE
8
BLACK
6
CONTINUOUS
10
154.71
20
-82.1725
11
155.71
21
-82.1725
0
LINE
8
BLACK
6
CONTINUOUS
10
155.21
20
-84.2125
11
155.21
21
-85.2125
0
LINE
8
BLACK
6
CONTINUOUS
10
154.71
20
-84.7125
11
155.71
21
-84.7125
0
LINE
8
BLACK
6
CONTINUOUS
10
156.04
20
-129.36
11
156.04
21
-130.36
0
LINE
8
BLACK
6
CONTINUOUS
10
155.54
20
-129.86
11
156.54
21
-129.86
0
LINE
8
BLACK
6
CONTINUOUS
10
156.04
20
-131.9
11
156.04
21
-132.9
0
LINE
8
BLACK
6
CONTINUOUS
10
155.54
20
-132.4
11
156.54
21
-132.4
0
LINE
8
BLACK
6
CONTINUOUS
10
157.75
20
-81.6725
11
157.75
21
-82.6725
0
LINE
8
BLACK
6
CONTINUOUS
10
157.25
20
-82.1725
11
158.25
21
-82.1725
0
LINE
8
BLACK
6
CONTINUOUS
10
157.75
20
-84.2125
11
157.75
21
-85.2125
0
LINE
8
BLACK
6
CONTINUOUS
10
157.25
20
-84.7125
11
158.25
21
-84.7125
0
LINE
8
BLACK
6
CONTINUOUS
10
158.58
20
-129.36
11
158.58
21
-130.36
0
LINE
8
BLACK
6
CONTINUOUS
10
158.08
20
-129.86
11
159.08
21
-129.86
0
LINE
8
BLACK
6
CONTINUOUS
10
158.58
20
-131.9
11
158.58
21
-132.9
0
LINE
8
BLACK
6
CONTINUOUS
10
158.08
20
-132.4
11
159.08
21
-132.4
0
LINE
8
BLACK
6
CONTINUOUS
10
160.29
20
-81.6725
11
160.29
21
-82.6725
0
LINE
8
BLACK
6
CONTINUOUS
10
159.79
20
-82.1725
11
160.79
21
-82.1725
0
LINE
8
BLACK
6
CONTINUOUS
10
160.29
20
-84.2125
11
160.29
21
-85.2125
0
LINE
8
BLACK
6
CONTINUOUS
10
159.79
20
-84.7125
11
160.79
21
-84.7125
0
LINE
8
BLACK
6
CONTINUOUS
10
161.12
20
-129.36
11
161.12
21
-130.36
0
LINE
8
BLACK
6
CONTINUOUS
10
160.62
20
-129.86
11
161.62
21
-129.86
0
LINE
8
BLACK
6
CONTINUOUS
10
161.12
20
-131.9
11
161.12
21
-132.9
0
LINE
8
BLACK
6
CONTINUOUS
10
160.62
20
-132.4
11
161.62
21
-132.4
0
LINE
8
BLACK
6
CONTINUOUS
10
162.83
20
-81.6725
11
162.83
21
-82.6725
0
LINE
8
BLACK
6
CONTINUOUS
10
162.33
20
-82.1725
11
163.33
21
-82.1725
0
LINE
8
BLACK
6
CONTINUOUS
10
162.83
20
-84.2125
11
162.83
21
-85.2125
0
LINE
8
BLACK
6
CONTINUOUS
10
162.33
20
-84.7125
11
163.33
21
-84.7125
0
LINE
8
BLACK
6
CONTINUOUS
10
163.66
20
-129.36
11
163.66
21
-130.36
0
LINE
8
BLACK
6
CONTINUOUS
10
163.16
20
-129.86
11
164.16
21
-129.86
0
LINE
8
BLACK
6
CONTINUOUS
10
163.66
20
-131.9
11
163.66
21
-132.9
0
LINE
8
BLACK
6
CONTINUOUS
10
163.16
20
-132.4
11
164.16
21
-132.4
0
LINE
8
BLACK
6
CONTINUOUS
10
165.37
20
-81.6725
11
165.37
21
-82.6725
0
LINE
8
BLACK
6
CONTINUOUS
10
164.87
20
-82.1725
11
165.87
21
-82.1725
0
LINE
8
BLACK
6
CONTINUOUS
10
165.37
20
-84.2125
11
165.37
21
-85.2125
0
LINE
8
BLACK
6
CONTINUOUS
10
164.87
20
-84.7125
11
165.87
21
-84.7125
0
LINE
8
BLACK
6
CONTINUOUS
10
166.2
20
-129.36
11
166.2
21
-130.36
0
LINE
8
BLACK
6
CONTINUOUS
10
165.7
20
-129.86
11
166.7
21
-129.86
0
LINE
8
BLACK
6
CONTINUOUS
10
166.2
20
-131.9
11
166.2
21
-132.9
0
LINE
8
BLACK
6
CONTINUOUS
10
165.7
20
-132.4
11
166.7
21
-132.4
0
LINE
8
BLACK
6
CONTINUOUS
10
167.91
20
-81.6725
11
167.91
21
-82.6725
0
LINE
8
BLACK
6
CONTINUOUS
10
167.41
20
-82.1725
11
168.41
21
-82.1725
0
LINE
8
BLACK
6
CONTINUOUS
10
167.91
20
-84.2125
11
167.91
21
-85.2125
0
LINE
8
BLACK
6
CONTINUOUS
10
167.41
20
-84.7125
11
168.41
21
-84.7125
0
LINE
8
BLACK
6
CONTINUOUS
10
168.74
20
-129.36
11
168.74
21
-130.36
0
LINE
8
BLACK
6
CONTINUOUS
10
168.24
20
-129.86
11
169.24
21
-129.86
0
LINE
8
BLACK
6
CONTINUOUS
10
168.74
20
-131.9
11
168.74
21
-132.9
0
LINE
8
BLACK
6
CONTINUOUS
10
168.24
20
-132.4
11
169.24
21
-132.4
0
LINE
8
BLACK
6
CONTINUOUS
10
170.45
20
-81.6725
11
170.45
21
-82.6725
0
LINE
8
BLACK
6
CONTINUOUS
10
169.95
20
-82.1725
11
170.95
21
-82.1725
0
LINE
8
BLACK
6
CONTINUOUS
10
170.45
20
-84.2125
11
170.45
21
-85.2125
0
LINE
8
BLACK
6
CONTINUOUS
10
169.95
20
-84.7125
11
170.95
21
-84.7125
0
LINE
8
BLACK
6
CONTINUOUS
10
171.28
20
-129.36
11
171.28
21
-130.36
0
LINE
8
BLACK
6
CONTINUOUS
10
170.78
20
-129.86
11
171.78
21
-129.86
0
LINE
8
BLACK
6
CONTINUOUS
10
171.28
20
-131.9
11
171.28
21
-132.9
0
LINE
8
BLACK
6
CONTINUOUS
10
170.78
20
-132.4
11
171.78
21
-132.4
0
LINE
8
BLACK
6
CONTINUOUS
10
172.99
20
-81.6725
11
172.99
21
-82.6725
0
LINE
8
BLACK
6
CONTINUOUS
10
172.49
20
-82.1725
11
173.49
21
-82.1725
0
LINE
8
BLACK
6
CONTINUOUS
10
172.99
20
-84.2125
11
172.99
21
-85.2125
0
LINE
8
BLACK
6
CONTINUOUS
10
172.49
20
-84.7125
11
173.49
21
-84.7125
0
LINE
8
BLACK
6
CONTINUOUS
10
173.82
20
-129.36
11
173.82
21
-130.36
0
LINE
8
BLACK
6
CONTINUOUS
10
173.32
20
-129.86
11
174.32
21
-129.86
0
LINE
8
BLACK
6
CONTINUOUS
10
173.82
20
-131.9
11
173.82
21
-132.9
0
LINE
8
BLACK
6
CONTINUOUS
10
173.32
20
-132.4
11
174.32
21
-132.4
0
LINE
8
BLACK
6
CONTINUOUS
10
175.53
20
-81.6725
11
175.53
21
-82.6725
0
LINE
8
BLACK
6
CONTINUOUS
10
175.03
20
-82.1725
11
176.03
21
-82.1725
0
LINE
8
BLACK
6
CONTINUOUS
10
175.53
20
-84.2125
11
175.53
21
-85.2125
0
LINE
8
BLACK
6
CONTINUOUS
10
175.03
20
-84.7125
11
176.03
21
-84.7125
0
LINE
8
BLACK
6
CONTINUOUS
10
176.36
20
-129.36
11
176.36
21
-130.36
0
LINE
8
BLACK
6
CONTINUOUS
10
175.86
20
-129.86
11
176.86
21
-129.86
0
LINE
8
BLACK
6
CONTINUOUS
10
176.36
20
-131.9
11
176.36
21
-132.9
0
LINE
8
BLACK
6
CONTINUOUS
10
175.86
20
-132.4
11
176.86
21
-132.4
0
LINE
8
BLACK
6
CONTINUOUS
10
178.07
20
-81.6725
11
178.07
21
-82.6725
0
LINE
8
BLACK
6
CONTINUOUS
10
177.57
20
-82.1725
11
178.57
21
-82.1725
0
LINE
8
BLACK
6
CONTINUOUS
10
178.07
20
-84.2125
11
178.07
21
-85.2125
0
LINE
8
BLACK
6
CONTINUOUS
10
177.57
20
-84.7125
11
178.57
21
-84.7125
0
LINE
8
BLACK
6
CONTINUOUS
10
178.9
20
-129.36
11
178.9
21
-130.36
0
LINE
8
BLACK
6
CONTINUOUS
10
178.4
20
-129.86
11
179.4
21
-129.86
0
LINE
8
BLACK
6
CONTINUOUS
10
178.9
20
-131.9
11
178.9
21
-132.9
0
LINE
8
BLACK
6
CONTINUOUS
10
178.4
20
-132.4
11
179.4
21
-132.4
0
LINE
8
BLACK
6
CONTINUOUS
10
180.61
20
-81.6725
11
180.61
21
-82.6725
0
LINE
8
BLACK
6
CONTINUOUS
10
180.11
20
-82.1725
11
181.11
21
-82.1725
0
LINE
8
BLACK
6
CONTINUOUS
10
180.61
20
-84.2125
11
180.61
21
-85.2125
0
LINE
8
BLACK
6
CONTINUOUS
10
180.11
20
-84.7125
11
181.11
21
-84.7125
0
LINE
8
BLACK
6
CONTINUOUS
10
181.44
20
-129.36
11
181.44
21
-130.36
0
LINE
8
BLACK
6
CONTINUOUS
10
180.94
20
-129.86
11
181.94
21
-129.86
0
LINE
8
BLACK
6
CONTINUOUS
10
181.44
20
-131.9
11
181.44
21
-132.9
0
LINE
8
BLACK
6
CONTINUOUS
10
180.94
20
-132.4
11
181.94
21
-132.4
0
LINE
8
BLACK
6
CONTINUOUS
10
183.15
20
-81.6725
11
183.15
21
-82.6725
0
LINE
8
BLACK
6
CONTINUOUS
10
182.65
20
-82.1725
11
183.65
21
-82.1725
0
LINE
8
BLACK
6
CONTINUOUS
10
183.15
20
-84.2125
11
183.15
21
-85.2125
0
LINE
8
BLACK
6
CONTINUOUS
10
182.65
20
-84.7125
11
183.65
21
-84.7125
0
LINE
8
BLACK
6
CONTINUOUS
10
183.98
20
-129.36
11
183.98
21
-130.36
0
LINE
8
BLACK
6
CONTINUOUS
10
183.48
20
-129.86
11
184.48
21
-129.86
0
LINE
8
BLACK
6
CONTINUOUS
10
183.98
20
-131.9
11
183.98
21
-132.9
0
LINE
8
BLACK
6
CONTINUOUS
10
183.48
20
-132.4
11
184.48
21
-132.4
0
LINE
8
BLACK
6
CONTINUOUS
10
185.69
20
-81.6725
11
185.69
21
-82.6725
0
LINE
8
BLACK
6
CONTINUOUS
10
185.19
20
-82.1725
11
186.19
21
-82.1725
0
LINE
8
BLACK
6
CONTINUOUS
10
185.69
20
-84.2125
11
185.69
21
-85.2125
0
LINE
8
BLACK
6
CONTINUOUS
10
185.19
20
-84.7125
11
186.19
21
-84.7125
0
LINE
8
BLACK
6
CONTINUOUS
10
186.52
20
-129.36
11
186.52
21
-130.36
0
LINE
8
BLACK
6
CONTINUOUS
10
186.02
20
-129.86
11
187.02
21
-129.86
0
LINE
8
BLACK
6
CONTINUOUS
10
186.52
20
-131.9
11
186.52
21
-132.9
0
LINE
8
BLACK
6
CONTINUOUS
10
186.02
20
-132.4
11
187.02
21
-132.4
0
LINE
8
BLACK
6
CONTINUOUS
10
188.23
20
-81.6725
11
188.23
21
-82.6725
0
LINE
8
BLACK
6
CONTINUOUS
10
187.73
20
-82.1725
11
188.73
21
-82.1725
0
LINE
8
BLACK
6
CONTINUOUS
10
188.23
20
-84.2125
11
188.23
21
-85.2125
0
LINE
8
BLACK
6
CONTINUOUS
10
187.73
20
-84.7125
11
188.73
21
-84.7125
0
LINE
8
BLACK
6
CONTINUOUS
10
189.06
20
-129.36
11
189.06
21
-130.36
0
LINE
8
BLACK
6
CONTINUOUS
10
188.56
20
-129.86
11
189.56
21
-129.86
0
LINE
8
BLACK
6
CONTINUOUS
10
189.06
20
-131.9
11
189.06
21
-132.9
0
LINE
8
BLACK
6
CONTINUOUS
10
188.56
20
-132.4
11
189.56
21
-132.4
0
LINE
8
BLACK
6
CONTINUOUS
10
190.77
20
-81.6725
11
190.77
21
-82.6725
0
LINE
8
BLACK
6
CONTINUOUS
10
190.27
20
-82.1725
11
191.27
21
-82.1725
0
LINE
8
BLACK
6
CONTINUOUS
10
190.77
20
-84.2125
11
190.77
21
-85.2125
0
LINE
8
BLACK
6
CONTINUOUS
10
190.27
20
-84.7125
11
191.27
21
-84.7125
0
LINE
8
BLACK
6
CONTINUOUS
10
191.6
20
-129.36
11
191.6
21
-130.36
0
LINE
8
BLACK
6
CONTINUOUS
10
191.1
20
-129.86
11
192.1
21
-129.86
0
LINE
8
BLACK
6
CONTINUOUS
10
191.6
20
-131.9
11
191.6
21
-132.9
0
LINE
8
BLACK
6
CONTINUOUS
10
191.1
20
-132.4
11
192.1
21
-132.4
0
LINE
8
BLACK
6
CONTINUOUS
10
193.31
20
-81.6725
11
193.31
21
-82.6725
0
LINE
8
BLACK
6
CONTINUOUS
10
192.81
20
-82.1725
11
193.81
21
-82.1725
0
LINE
8
BLACK
6
CONTINUOUS
10
193.31
20
-84.2125
11
193.31
21
-85.2125
0
LINE
8
BLACK
6
CONTINUOUS
10
192.81
20
-84.7125
11
193.81
21
-84.7125
0
LINE
8
BLACK
6
CONTINUOUS
10
194.14
20
-129.36
11
194.14
21
-130.36
0
LINE
8
BLACK
6
CONTINUOUS
10
193.64
20
-129.86
11
194.64
21
-129.86
0
LINE
8
BLACK
6
CONTINUOUS
10
194.14
20
-131.9
11
194.14
21
-132.9
0
LINE
8
BLACK
6
CONTINUOUS
10
193.64
20
-132.4
11
194.64
21
-132.4
0
LINE
8
BLACK
6
CONTINUOUS
10
195.85
20
-81.6725
11
195.85
21
-82.6725
0
LINE
8
BLACK
6
CONTINUOUS
10
195.35
20
-82.1725
11
196.35
21
-82.1725
0
LINE
8
BLACK
6
CONTINUOUS
10
195.85
20
-84.2125
11
195.85
21
-85.2125
0
LINE
8
BLACK
6
CONTINUOUS
10
195.35
20
-84.7125
11
196.35
21
-84.7125
0
LINE
8
BLACK
6
CONTINUOUS
10
196.68
20
-129.36
11
196.68
21
-130.36
0
LINE
8
BLACK
6
CONTINUOUS
10
196.18
20
-129.86
11
197.18
21
-129.86
0
LINE
8
BLACK
6
CONTINUOUS
10
196.68
20
-131.9
11
196.68
21
-132.9
0
LINE
8
BLACK
6
CONTINUOUS
10
196.18
20
-132.4
11
197.18
21
-132.4
0
LINE
8
BLACK
6
CONTINUOUS
10
198.39
20
-81.6725
11
198.39
21
-82.6725
0
LINE
8
BLACK
6
CONTINUOUS
10
197.89
20
-82.1725
11
198.89
21
-82.1725
0
LINE
8
BLACK
6
CONTINUOUS
10
198.39
20
-84.2125
11
198.39
21
-85.2125
0
LINE
8
BLACK
6
CONTINUOUS
10
197.89
20
-84.7125
11
198.89
21
-84.7125
0
LINE
8
BLACK
6
CONTINUOUS
10
199.22
20
-129.36
11
199.22
21
-130.36
0
LINE
8
BLACK
6
CONTINUOUS
10
198.72
20
-129.86
11
199.72
21
-129.86
0
LINE
8
BLACK
6
CONTINUOUS
10
199.22
20
-131.9
11
199.22
21
-132.9
0
LINE
8
BLACK
6
CONTINUOUS
10
198.72
20
-132.4
11
199.72
21
-132.4
0
LINE
8
BLACK
6
CONTINUOUS
10
200.93
20
-81.6725
11
200.93
21
-82.6725
0
LINE
8
BLACK
6
CONTINUOUS
10
200.43
20
-82.1725
11
201.43
21
-82.1725
0
LINE
8
BLACK
6
CONTINUOUS
10
200.93
20
-84.2125
11
200.93
21
-85.2125
0
LINE
8
BLACK
6
CONTINUOUS
10
200.43
20
-84.7125
11
201.43
21
-84.7125
0
LINE
8
BLACK
6
CONTINUOUS
10
201.76
20
-129.36
11
201.76
21
-130.36
0
LINE
8
BLACK
6
CONTINUOUS
10
201.26
20
-129.86
11
202.26
21
-129.86
0
LINE
8
BLACK
6
CONTINUOUS
10
201.76
20
-131.9
11
201.76
21
-132.9
0
LINE
8
BLACK
6
CONTINUOUS
10
201.26
20
-132.4
11
202.26
21
-132.4
0
LINE
8
BLACK
6
CONTINUOUS
10
203.47
20
-81.6725
11
203.47
21
-82.6725
0
LINE
8
BLACK
6
CONTINUOUS
10
202.97
20
-82.1725
11
203.97
21
-82.1725
0
LINE
8
BLACK
6
CONTINUOUS
10
203.47
20
-84.2125
11
203.47
21
-85.2125
0
LINE
8
BLACK
6
CONTINUOUS
10
202.97
20
-84.7125
11
203.97
21
-84.7125
0
LINE
8
BLACK
6
CONTINUOUS
10
204.3
20
-129.36
11
204.3
21
-130.36
0
LINE
8
BLACK
6
CONTINUOUS
10
203.8
20
-129.86
11
204.8
21
-129.86
0
LINE
8
BLACK
6
CONTINUOUS
10
204.3
20
-131.9
11
204.3
21
-132.9
0
LINE
8
BLACK
6
CONTINUOUS
10
203.8
20
-132.4
11
204.8
21
-132.4
0
LINE
8
BLACK
6
CONTINUOUS
10
132.331
20
-107.071
11
132.331
21
-106.349
0
LINE
8
BLACK
6
CONTINUOUS
10
132.331
20
-106.349
11
131.609
21
-106.349
0
LINE
8
BLACK
6
CONTINUOUS
10
131.609
20
-106.349
11
131.609
21
-107.071
0
LINE
8
BLACK
6
CONTINUOUS
10
131.609
20
-107.071
11
132.331
21
-107.071
0
LINE
8
BLACK
6
CONTINUOUS
10
132.331
20
-124.851
11
132.331
21
-124.129
0
LINE
8
BLACK
6
CONTINUOUS
10
132.331
20
-124.129
11
131.609
21
-124.129
0
LINE
8
BLACK
6
CONTINUOUS
10
131.609
20
-124.129
11
131.609
21
-124.851
0
LINE
8
BLACK
6
CONTINUOUS
10
131.609
20
-124.851
11
132.331
21
-124.851
0
LINE
8
BLACK
6
CONTINUOUS
10
134.871
20
-107.071
11
134.871
21
-106.349
0
LINE
8
BLACK
6
CONTINUOUS
10
134.871
20
-106.349
11
134.149
21
-106.349
0
LINE
8
BLACK
6
CONTINUOUS
10
134.149
20
-106.349
11
134.149
21
-107.071
0
LINE
8
BLACK
6
CONTINUOUS
10
134.149
20
-107.071
11
134.871
21
-107.071
0
LINE
8
BLACK
6
CONTINUOUS
10
134.871
20
-124.851
11
134.871
21
-124.129
0
LINE
8
BLACK
6
CONTINUOUS
10
134.871
20
-124.129
11
134.149
21
-124.129
0
LINE
8
BLACK
6
CONTINUOUS
10
134.149
20
-124.129
11
134.149
21
-124.851
0
LINE
8
BLACK
6
CONTINUOUS
10
134.149
20
-124.851
11
134.871
21
-124.851
0
LINE
8
BLACK
6
CONTINUOUS
10
137.411
20
-107.071
11
137.411
21
-106.349
0
LINE
8
BLACK
6
CONTINUOUS
10
137.411
20
-106.349
11
136.689
21
-106.349
0
LINE
8
BLACK
6
CONTINUOUS
10
136.689
20
-106.349
11
136.689
21
-107.071
0
LINE
8
BLACK
6
CONTINUOUS
10
136.689
20
-107.071
11
137.411
21
-107.071
0
LINE
8
BLACK
6
CONTINUOUS
10
137.411
20
-124.851
11
137.411
21
-124.129
0
LINE
8
BLACK
6
CONTINUOUS
10
137.411
20
-124.129
11
136.689
21
-124.129
0
LINE
8
BLACK
6
CONTINUOUS
10
136.689
20
-124.129
11
136.689
21
-124.851
0
LINE
8
BLACK
6
CONTINUOUS
10
136.689
20
-124.851
11
137.411
21
-124.851
0
LINE
8
BLACK
6
CONTINUOUS
10
139.951
20
-107.071
11
139.951
21
-106.349
0
LINE
8
BLACK
6
CONTINUOUS
10
139.951
20
-106.349
11
139.229
21
-106.349
0
LINE
8
BLACK
6
CONTINUOUS
10
139.229
20
-106.349
11
139.229
21
-107.071
0
LINE
8
BLACK
6
CONTINUOUS
10
139.229
20
-107.071
11
139.951
21
-107.071
0
LINE
8
BLACK
6
CONTINUOUS
10
139.951
20
-124.851
11
139.951
21
-124.129
0
LINE
8
BLACK
6
CONTINUOUS
10
139.951
20
-124.129
11
139.229
21
-124.129
0
LINE
8
BLACK
6
CONTINUOUS
10
139.229
20
-124.129
11
139.229
21
-124.851
0
LINE
8
BLACK
6
CONTINUOUS
10
139.229
20
-124.851
11
139.951
21
-124.851
0
LINE
8
BLACK
6
CONTINUOUS
10
142.491
20
-107.071
11
142.491
21
-106.349
0
LINE
8
BLACK
6
CONTINUOUS
10
142.491
20
-106.349
11
141.769
21
-106.349
0
LINE
8
BLACK
6
CONTINUOUS
10
141.769
20
-106.349
11
141.769
21
-107.071
0
LINE
8
BLACK
6
CONTINUOUS
10
141.769
20
-107.071
11
142.491
21
-107.071
0
LINE
8
BLACK
6
CONTINUOUS
10
142.491
20
-124.851
11
142.491
21
-124.129
0
LINE
8
BLACK
6
CONTINUOUS
10
142.491
20
-124.129
11
141.769
21
-124.129
0
LINE
8
BLACK
6
CONTINUOUS
10
141.769
20
-124.129
11
141.769
21
-124.851
0
LINE
8
BLACK
6
CONTINUOUS
10
141.769
20
-124.851
11
142.491
21
-124.851
0
LINE
8
BLACK
6
CONTINUOUS
10
145.031
20
-107.071
11
145.031
21
-106.349
0
LINE
8
BLACK
6
CONTINUOUS
10
145.031
20
-106.349
11
144.309
21
-106.349
0
LINE
8
BLACK
6
CONTINUOUS
10
144.309
20
-106.349
11
144.309
21
-107.071
0
LINE
8
BLACK
6
CONTINUOUS
10
144.309
20
-107.071
11
145.031
21
-107.071
0
LINE
8
BLACK
6
CONTINUOUS
10
145.031
20
-124.851
11
145.031
21
-124.129
0
LINE
8
BLACK
6
CONTINUOUS
10
145.031
20
-124.129
11
144.309
21
-124.129
0
LINE
8
BLACK
6
CONTINUOUS
10
144.309
20
-124.129
11
144.309
21
-124.851
0
LINE
8
BLACK
6
CONTINUOUS
10
144.309
20
-124.851
11
145.031
21
-124.851
0
LINE
8
BLACK
6
CONTINUOUS
10
147.571
20
-107.071
11
147.571
21
-106.349
0
LINE
8
BLACK
6
CONTINUOUS
10
147.571
20
-106.349
11
146.849
21
-106.349
0
LINE
8
BLACK
6
CONTINUOUS
10
146.849
20
-106.349
11
146.849
21
-107.071
0
LINE
8
BLACK
6
CONTINUOUS
10
146.849
20
-107.071
11
147.571
21
-107.071
0
LINE
8
BLACK
6
CONTINUOUS
10
147.571
20
-124.851
11
147.571
21
-124.129
0
LINE
8
BLACK
6
CONTINUOUS
10
147.571
20
-124.129
11
146.849
21
-124.129
0
LINE
8
BLACK
6
CONTINUOUS
10
146.849
20
-124.129
11
146.849
21
-124.851
0
LINE
8
BLACK
6
CONTINUOUS
10
146.849
20
-124.851
11
147.571
21
-124.851
0
LINE
8
BLACK
6
CONTINUOUS
10
150.111
20
-107.071
11
150.111
21
-106.349
0
LINE
8
BLACK
6
CONTINUOUS
10
150.111
20
-106.349
11
149.389
21
-106.349
0
LINE
8
BLACK
6
CONTINUOUS
10
149.389
20
-106.349
11
149.389
21
-107.071
0
LINE
8
BLACK
6
CONTINUOUS
10
149.389
20
-107.071
11
150.111
21
-107.071
0
LINE
8
BLACK
6
CONTINUOUS
10
150.111
20
-124.851
11
150.111
21
-124.129
0
LINE
8
BLACK
6
CONTINUOUS
10
150.111
20
-124.129
11
149.389
21
-124.129
0
LINE
8
BLACK
6
CONTINUOUS
10
149.389
20
-124.129
11
149.389
21
-124.851
0
LINE
8
BLACK
6
CONTINUOUS
10
149.389
20
-124.851
11
150.111
21
-124.851
0
LINE
8
BLACK
6
CONTINUOUS
10
152.651
20
-107.071
11
152.651
21
-106.349
0
LINE
8
BLACK
6
CONTINUOUS
10
152.651
20
-106.349
11
151.929
21
-106.349
0
LINE
8
BLACK
6
CONTINUOUS
10
151.929
20
-106.349
11
151.929
21
-107.071
0
LINE
8
BLACK
6
CONTINUOUS
10
151.929
20
-107.071
11
152.651
21
-107.071
0
LINE
8
BLACK
6
CONTINUOUS
10
152.651
20
-124.851
11
152.651
21
-124.129
0
LINE
8
BLACK
6
CONTINUOUS
10
152.651
20
-124.129
11
151.929
21
-124.129
0
LINE
8
BLACK
6
CONTINUOUS
10
151.929
20
-124.129
11
151.929
21
-124.851
0
LINE
8
BLACK
6
CONTINUOUS
10
151.929
20
-124.851
11
152.651
21
-124.851
0
LINE
8
BLACK
6
CONTINUOUS
10
155.191
20
-107.071
11
155.191
21
-106.349
0
LINE
8
BLACK
6
CONTINUOUS
10
155.191
20
-106.349
11
154.469
21
-106.349
0
LINE
8
BLACK
6
CONTINUOUS
10
154.469
20
-106.349
11
154.469
21
-107.071
0
LINE
8
BLACK
6
CONTINUOUS
10
154.469
20
-107.071
11
155.191
21
-107.071
0
LINE
8
BLACK
6
CONTINUOUS
10
155.191
20
-124.851
11
155.191
21
-124.129
0
LINE
8
BLACK
6
CONTINUOUS
10
155.191
20
-124.129
11
154.469
21
-124.129
0
LINE
8
BLACK
6
CONTINUOUS
10
154.469
20
-124.129
11
154.469
21
-124.851
0
LINE
8
BLACK
6
CONTINUOUS
10
154.469
20
-124.851
11
155.191
21
-124.851
0
LINE
8
BLACK
6
CONTINUOUS
10
157.731
20
-107.071
11
157.731
21
-106.349
0
LINE
8
BLACK
6
CONTINUOUS
10
157.731
20
-106.349
11
157.009
21
-106.349
0
LINE
8
BLACK
6
CONTINUOUS
10
157.009
20
-106.349
11
157.009
21
-107.071
0
LINE
8
BLACK
6
CONTINUOUS
10
157.009
20
-107.071
11
157.731
21
-107.071
0
LINE
8
BLACK
6
CONTINUOUS
10
157.731
20
-124.851
11
157.731
21
-124.129
0
LINE
8
BLACK
6
CONTINUOUS
10
157.731
20
-124.129
11
157.009
21
-124.129
0
LINE
8
BLACK
6
CONTINUOUS
10
157.009
20
-124.129
11
157.009
21
-124.851
0
LINE
8
BLACK
6
CONTINUOUS
10
157.009
20
-124.851
11
157.731
21
-124.851
0
LINE
8
BLACK
6
CONTINUOUS
10
160.271
20
-107.071
11
160.271
21
-106.349
0
LINE
8
BLACK
6
CONTINUOUS
10
160.271
20
-106.349
11
159.549
21
-106.349
0
LINE
8
BLACK
6
CONTINUOUS
10
159.549
20
-106.349
11
159.549
21
-107.071
0
LINE
8
BLACK
6
CONTINUOUS
10
159.549
20
-107.071
11
160.271
21
-107.071
0
LINE
8
BLACK
6
CONTINUOUS
10
160.271
20
-124.851
11
160.271
21
-124.129
0
LINE
8
BLACK
6
CONTINUOUS
10
160.271
20
-124.129
11
159.549
21
-124.129
0
LINE
8
BLACK
6
CONTINUOUS
10
159.549
20
-124.129
11
159.549
21
-124.851
0
LINE
8
BLACK
6
CONTINUOUS
10
159.549
20
-124.851
11
160.271
21
-124.851
0
LINE
8
BLACK
6
CONTINUOUS
10
162.811
20
-107.071
11
162.811
21
-106.349
0
LINE
8
BLACK
6
CONTINUOUS
10
162.811
20
-106.349
11
162.089
21
-106.349
0
LINE
8
BLACK
6
CONTINUOUS
10
162.089
20
-106.349
11
162.089
21
-107.071
0
LINE
8
BLACK
6
CONTINUOUS
10
162.089
20
-107.071
11
162.811
21
-107.071
0
LINE
8
BLACK
6
CONTINUOUS
10
162.811
20
-124.851
11
162.811
21
-124.129
0
LINE
8
BLACK
6
CONTINUOUS
10
162.811
20
-124.129
11
162.089
21
-124.129
0
LINE
8
BLACK
6
CONTINUOUS
10
162.089
20
-124.129
11
162.089
21
-124.851
0
LINE
8
BLACK
6
CONTINUOUS
10
162.089
20
-124.851
11
162.811
21
-124.851
0
LINE
8
BLACK
6
CONTINUOUS
10
165.351
20
-107.071
11
165.351
21
-106.349
0
LINE
8
BLACK
6
CONTINUOUS
10
165.351
20
-106.349
11
164.629
21
-106.349
0
LINE
8
BLACK
6
CONTINUOUS
10
164.629
20
-106.349
11
164.629
21
-107.071
0
LINE
8
BLACK
6
CONTINUOUS
10
164.629
20
-107.071
11
165.351
21
-107.071
0
LINE
8
BLACK
6
CONTINUOUS
10
165.351
20
-124.851
11
165.351
21
-124.129
0
LINE
8
BLACK
6
CONTINUOUS
10
165.351
20
-124.129
11
164.629
21
-124.129
0
LINE
8
BLACK
6
CONTINUOUS
10
164.629
20
-124.129
11
164.629
21
-124.851
0
LINE
8
BLACK
6
CONTINUOUS
10
164.629
20
-124.851
11
165.351
21
-124.851
0
LINE
8
BLACK
6
CONTINUOUS
10
167.891
20
-107.071
11
167.891
21
-106.349
0
LINE
8
BLACK
6
CONTINUOUS
10
167.891
20
-106.349
11
167.169
21
-106.349
0
LINE
8
BLACK
6
CONTINUOUS
10
167.169
20
-106.349
11
167.169
21
-107.071
0
LINE
8
BLACK
6
CONTINUOUS
10
167.169
20
-107.071
11
167.891
21
-107.071
0
LINE
8
BLACK
6
CONTINUOUS
10
167.891
20
-124.851
11
167.891
21
-124.129
0
LINE
8
BLACK
6
CONTINUOUS
10
167.891
20
-124.129
11
167.169
21
-124.129
0
LINE
8
BLACK
6
CONTINUOUS
10
167.169
20
-124.129
11
167.169
21
-124.851
0
LINE
8
BLACK
6
CONTINUOUS
10
167.169
20
-124.851
11
167.891
21
-124.851
0
LINE
8
BLACK
6
CONTINUOUS
10
170.431
20
-107.071
11
170.431
21
-106.349
0
LINE
8
BLACK
6
CONTINUOUS
10
170.431
20
-106.349
11
169.709
21
-106.349
0
LINE
8
BLACK
6
CONTINUOUS
10
169.709
20
-106.349
11
169.709
21
-107.071
0
LINE
8
BLACK
6
CONTINUOUS
10
169.709
20
-107.071
11
170.431
21
-107.071
0
LINE
8
BLACK
6
CONTINUOUS
10
170.431
20
-124.851
11
170.431
21
-124.129
0
LINE
8
BLACK
6
CONTINUOUS
10
170.431
20
-124.129
11
169.709
21
-124.129
0
LINE
8
BLACK
6
CONTINUOUS
10
169.709
20
-124.129
11
169.709
21
-124.851
0
LINE
8
BLACK
6
CONTINUOUS
10
169.709
20
-124.851
11
170.431
21
-124.851
0
LINE
8
BLACK
6
CONTINUOUS
10
172.971
20
-107.071
11
172.971
21
-106.349
0
LINE
8
BLACK
6
CONTINUOUS
10
172.971
20
-106.349
11
172.249
21
-106.349
0
LINE
8
BLACK
6
CONTINUOUS
10
172.249
20
-106.349
11
172.249
21
-107.071
0
LINE
8
BLACK
6
CONTINUOUS
10
172.249
20
-107.071
11
172.971
21
-107.071
0
LINE
8
BLACK
6
CONTINUOUS
10
172.971
20
-124.851
11
172.971
21
-124.129
0
LINE
8
BLACK
6
CONTINUOUS
10
172.971
20
-124.129
11
172.249
21
-124.129
0
LINE
8
BLACK
6
CONTINUOUS
10
172.249
20
-124.129
11
172.249
21
-124.851
0
LINE
8
BLACK
6
CONTINUOUS
10
172.249
20
-124.851
11
172.971
21
-124.851
0
LINE
8
BLACK
6
CONTINUOUS
10
175.511
20
-107.071
11
175.511
21
-106.349
0
LINE
8
BLACK
6
CONTINUOUS
10
175.511
20
-106.349
11
174.789
21
-106.349
0
LINE
8
BLACK
6
CONTINUOUS
10
174.789
20
-106.349
11
174.789
21
-107.071
0
LINE
8
BLACK
6
CONTINUOUS
10
174.789
20
-107.071
11
175.511
21
-107.071
0
LINE
8
BLACK
6
CONTINUOUS
10
175.511
20
-124.851
11
175.511
21
-124.129
0
LINE
8
BLACK
6
CONTINUOUS
10
175.511
20
-124.129
11
174.789
21
-124.129
0
LINE
8
BLACK
6
CONTINUOUS
10
174.789
20
-124.129
11
174.789
21
-124.851
0
LINE
8
BLACK
6
CONTINUOUS
10
174.789
20
-124.851
11
175.511
21
-124.851
0
LINE
8
BLACK
6
CONTINUOUS
10
178.051
20
-107.071
11
178.051
21
-106.349
0
LINE
8
BLACK
6
CONTINUOUS
10
178.051
20
-106.349
11
177.329
21
-106.349
0
LINE
8
BLACK
6
CONTINUOUS
10
177.329
20
-106.349
11
177.329
21
-107.071
0
LINE
8
BLACK
6
CONTINUOUS
10
177.329
20
-107.071
11
178.051
21
-107.071
0
LINE
8
BLACK
6
CONTINUOUS
10
178.051
20
-124.851
11
178.051
21
-124.129
0
LINE
8
BLACK
6
CONTINUOUS
10
178.051
20
-124.129
11
177.329
21
-124.129
0
LINE
8
BLACK
6
CONTINUOUS
10
177.329
20
-124.129
11
177.329
21
-124.851
0
LINE
8
BLACK
6
CONTINUOUS
10
177.329
20
-124.851
11
178.051
21
-124.851
0
LINE
8
BLACK
6
CONTINUOUS
10
180.361
20
-113.421
11
180.361
21
-112.699
0
LINE
8
BLACK
6
CONTINUOUS
10
180.361
20
-112.699
11
179.639
21
-112.699
0
LINE
8
BLACK
6
CONTINUOUS
10
179.639
20
-112.699
11
179.639
21
-113.421
0
LINE
8
BLACK
6
CONTINUOUS
10
179.639
20
-113.421
11
180.361
21
-113.421
0
LINE
8
BLACK
6
CONTINUOUS
10
180.361
20
-115.961
11
180.361
21
-115.239
0
LINE
8
BLACK
6
CONTINUOUS
10
180.361
20
-115.239
11
179.639
21
-115.239
0
LINE
8
BLACK
6
CONTINUOUS
10
179.639
20
-115.239
11
179.639
21
-115.961
0
LINE
8
BLACK
6
CONTINUOUS
10
179.639
20
-115.961
11
180.361
21
-115.961
0
LINE
8
BLACK
6
CONTINUOUS
10
180.361
20
-118.501
11
180.361
21
-117.779
0
LINE
8
BLACK
6
CONTINUOUS
10
180.361
20
-117.779
11
179.639
21
-117.779
0
LINE
8
BLACK
6
CONTINUOUS
10
179.639
20
-117.779
11
179.639
21
-118.501
0
LINE
8
BLACK
6
CONTINUOUS
10
179.639
20
-118.501
11
180.361
21
-118.501
0
LINE
8
BLACK
6
CONTINUOUS
10
180.591
20
-107.071
11
180.591
21
-106.349
0
LINE
8
BLACK
6
CONTINUOUS
10
180.591
20
-106.349
11
179.869
21
-106.349
0
LINE
8
BLACK
6
CONTINUOUS
10
179.869
20
-106.349
11
179.869
21
-107.071
0
LINE
8
BLACK
6
CONTINUOUS
10
179.869
20
-107.071
11
180.591
21
-107.071
0
LINE
8
BLACK
6
CONTINUOUS
10
180.591
20
-124.851
11
180.591
21
-124.129
0
LINE
8
BLACK
6
CONTINUOUS
10
180.591
20
-124.129
11
179.869
21
-124.129
0
LINE
8
BLACK
6
CONTINUOUS
10
179.869
20
-124.129
11
179.869
21
-124.851
0
LINE
8
BLACK
6
CONTINUOUS
10
179.869
20
-124.851
11
180.591
21
-124.851
0
LINE
8
BLACK
6
CONTINUOUS
10
117.97
20
-107.3
11
118.52
21
-106.75
0
LINE
8
BLACK
6
CONTINUOUS
10
118.52
20
-106.75
11
117.97
21
-106.2
0
LINE
8
BLACK
6
CONTINUOUS
10
117.97
20
-106.2
11
117.42
21
-106.75
0
LINE
8
BLACK
6
CONTINUOUS
10
117.42
20
-106.75
11
117.97
21
-107.3
0
LINE
8
BLACK
6
CONTINUOUS
10
128.13
20
-107.3
11
128.68
21
-106.75
0
LINE
8
BLACK
6
CONTINUOUS
10
128.68
20
-106.75
11
128.13
21
-106.2
0
LINE
8
BLACK
6
CONTINUOUS
10
128.13
20
-106.2
11
127.58
21
-106.75
0
LINE
8
BLACK
6
CONTINUOUS
10
127.58
20
-106.75
11
128.13
21
-107.3
0
LINE
8
BLACK
6
CONTINUOUS
10
82.5262
20
-140.455
11
82.5262
21
-138.455
0
LINE
8
BLACK
6
CONTINUOUS
10
82.5262
20
-138.455
11
83.0024
21
-138.455
0
LINE
8
BLACK
6
CONTINUOUS
10
83.0024
20
-138.455
11
83.2881
21
-138.55
0
LINE
8
BLACK
6
CONTINUOUS
10
83.2881
20
-138.55
11
83.4786
21
-138.74
0
LINE
8
BLACK
6
CONTINUOUS
10
83.4786
20
-138.74
11
83.5738
21
-138.931
0
LINE
8
BLACK
6
CONTINUOUS
10
83.5738
20
-138.931
11
83.669
21
-139.312
0
LINE
8
BLACK
6
CONTINUOUS
10
83.669
20
-139.312
11
83.669
21
-139.598
0
LINE
8
BLACK
6
CONTINUOUS
10
83.669
20
-139.598
11
83.5738
21
-139.979
0
LINE
8
BLACK
6
CONTINUOUS
10
83.5738
20
-139.979
11
83.4786
21
-140.169
0
LINE
8
BLACK
6
CONTINUOUS
10
83.4786
20
-140.169
11
83.2881
21
-140.36
0
LINE
8
BLACK
6
CONTINUOUS
10
83.2881
20
-140.36
11
83.0024
21
-140.455
0
LINE
8
BLACK
6
CONTINUOUS
10
83.0024
20
-140.455
11
82.5262
21
-140.455
0
LINE
8
BLACK
6
CONTINUOUS
10
84.5262
20
-140.455
11
84.5262
21
-139.121
0
LINE
8
BLACK
6
CONTINUOUS
10
84.5262
20
-139.502
11
84.6214
21
-139.312
0
LINE
8
BLACK
6
CONTINUOUS
10
84.6214
20
-139.312
11
84.7167
21
-139.217
0
LINE
8
BLACK
6
CONTINUOUS
10
84.7167
20
-139.217
11
84.9071
21
-139.121
0
LINE
8
BLACK
6
CONTINUOUS
10
84.9071
20
-139.121
11
85.0976
21
-139.121
0
LINE
8
BLACK
6
CONTINUOUS
10
85.7643
20
-140.455
11
85.7643
21
-139.121
0
LINE
8
BLACK
6
CONTINUOUS
10
85.7643
20
-138.455
11
85.669
21
-138.55
0
LINE
8
BLACK
6
CONTINUOUS
10
85.669
20
-138.55
11
85.7643
21
-138.645
0
LINE
8
BLACK
6
CONTINUOUS
10
85.7643
20
-138.645
11
85.8595
21
-138.55
0
LINE
8
BLACK
6
CONTINUOUS
10
85.8595
20
-138.55
11
85.7643
21
-138.455
0
LINE
8
BLACK
6
CONTINUOUS
10
85.7643
20
-138.455
11
85.7643
21
-138.645
0
LINE
8
BLACK
6
CONTINUOUS
10
87.0024
20
-140.455
11
86.8119
21
-140.36
0
LINE
8
BLACK
6
CONTINUOUS
10
86.8119
20
-140.36
11
86.7167
21
-140.169
0
LINE
8
BLACK
6
CONTINUOUS
10
86.7167
20
-140.169
11
86.7167
21
-138.455
0
LINE
8
BLACK
6
CONTINUOUS
10
88.05
20
-140.455
11
87.8595
21
-140.36
0
LINE
8
BLACK
6
CONTINUOUS
10
87.8595
20
-140.36
11
87.7643
21
-140.169
0
LINE
8
BLACK
6
CONTINUOUS
10
87.7643
20
-140.169
11
87.7643
21
-138.455
0
LINE
8
BLACK
6
CONTINUOUS
10
90.3357
20
-140.455
11
90.3357
21
-138.455
0
LINE
8
BLACK
6
CONTINUOUS
10
90.3357
20
-138.455
11
91.0024
21
-139.883
0
LINE
8
BLACK
6
CONTINUOUS
10
91.0024
20
-139.883
11
91.669
21
-138.455
0
LINE
8
BLACK
6
CONTINUOUS
10
91.669
20
-138.455
11
91.669
21
-140.455
0
LINE
8
BLACK
6
CONTINUOUS
10
93.4786
20
-140.455
11
93.4786
21
-139.407
0
LINE
8
BLACK
6
CONTINUOUS
10
93.4786
20
-139.407
11
93.3833
21
-139.217
0
LINE
8
BLACK
6
CONTINUOUS
10
93.3833
20
-139.217
11
93.1929
21
-139.121
0
LINE
8
BLACK
6
CONTINUOUS
10
93.1929
20
-139.121
11
92.8119
21
-139.121
0
LINE
8
BLACK
6
CONTINUOUS
10
92.8119
20
-139.121
11
92.6214
21
-139.217
0
LINE
8
BLACK
6
CONTINUOUS
10
93.4786
20
-140.36
11
93.2881
21
-140.455
0
LINE
8
BLACK
6
CONTINUOUS
10
93.2881
20
-140.455
11
92.8119
21
-140.455
0
LINE
8
BLACK
6
CONTINUOUS
10
92.8119
20
-140.455
11
92.6214
21
-140.36
0
LINE
8
BLACK
6
CONTINUOUS
10
92.6214
20
-140.36
11
92.5262
21
-140.169
0
LINE
8
BLACK
6
CONTINUOUS
10
92.5262
20
-140.169
11
92.5262
21
-139.979
0
LINE
8
BLACK
6
CONTINUOUS
10
92.5262
20
-139.979
11
92.6214
21
-139.788
0
LINE
8
BLACK
6
CONTINUOUS
10
92.6214
20
-139.788
11
92.8119
21
-139.693
0
LINE
8
BLACK
6
CONTINUOUS
10
92.8119
20
-139.693
11
93.2881
21
-139.693
0
LINE
8
BLACK
6
CONTINUOUS
10
93.2881
20
-139.693
11
93.4786
21
-139.598
0
LINE
8
BLACK
6
CONTINUOUS
10
94.431
20
-139.121
11
94.431
21
-141.121
0
LINE
8
BLACK
6
CONTINUOUS
10
94.431
20
-139.217
11
94.6214
21
-139.121
0
LINE
8
BLACK
6
CONTINUOUS
10
94.6214
20
-139.121
11
95.0024
21
-139.121
0
LINE
8
BLACK
6
CONTINUOUS
10
95.0024
20
-139.121
11
95.1929
21
-139.217
0
LINE
8
BLACK
6
CONTINUOUS
10
95.1929
20
-139.217
11
95.2881
21
-139.312
0
LINE
8
BLACK
6
CONTINUOUS
10
95.2881
20
-139.312
11
95.3833
21
-139.502
0
LINE
8
BLACK
6
CONTINUOUS
10
95.3833
20
-139.502
11
95.3833
21
-140.074
0
LINE
8
BLACK
6
CONTINUOUS
10
95.3833
20
-140.074
11
95.2881
21
-140.264
0
LINE
8
BLACK
6
CONTINUOUS
10
95.2881
20
-140.264
11
95.1929
21
-140.36
0
LINE
8
BLACK
6
CONTINUOUS
10
95.1929
20
-140.36
11
95.0024
21
-140.455
0
LINE
8
BLACK
6
CONTINUOUS
10
95.0024
20
-140.455
11
94.6214
21
-140.455
0
LINE
8
BLACK
6
CONTINUOUS
10
94.6214
20
-140.455
11
94.431
21
-140.36
0
LINE
8
BLACK
6
CONTINUOUS
10
96.2405
20
-140.264
11
96.3357
21
-140.36
0
LINE
8
BLACK
6
CONTINUOUS
10
96.3357
20
-140.36
11
96.2405
21
-140.455
0
LINE
8
BLACK
6
CONTINUOUS
10
96.2405
20
-140.455
11
96.1452
21
-140.36
0
LINE
8
BLACK
6
CONTINUOUS
10
96.1452
20
-140.36
11
96.2405
21
-140.264
0
LINE
8
BLACK
6
CONTINUOUS
10
96.2405
20
-140.264
11
96.2405
21
-140.455
0
LINE
8
BLACK
6
CONTINUOUS
10
96.2405
20
-139.217
11
96.3357
21
-139.312
0
LINE
8
BLACK
6
CONTINUOUS
10
96.3357
20
-139.312
11
96.2405
21
-139.407
0
LINE
8
BLACK
6
CONTINUOUS
10
96.2405
20
-139.407
11
96.1452
21
-139.312
0
LINE
8
BLACK
6
CONTINUOUS
10
96.1452
20
-139.312
11
96.2405
21
-139.217
0
LINE
8
BLACK
6
CONTINUOUS
10
96.2405
20
-139.217
11
96.2405
21
-139.407
0
LINE
8
BLACK
6
CONTINUOUS
10
79.55
20
-143.55
11
79.95
21
-143.95
0
LINE
8
BLACK
6
CONTINUOUS
10
79.95
20
-143.55
11
79.55
21
-143.95
0
LINE
8
BLACK
6
CONTINUOUS
10
82.9071
20
-142.655
11
83.0976
21
-142.655
0
LINE
8
BLACK
6
CONTINUOUS
10
83.0976
20
-142.655
11
83.2881
21
-142.75
0
LINE
8
BLACK
6
CONTINUOUS
10
83.2881
20
-142.75
11
83.3833
21
-142.845
0
LINE
8
BLACK
6
CONTINUOUS
10
83.3833
20
-142.845
11
83.4786
21
-143.036
0
LINE
8
BLACK
6
CONTINUOUS
10
83.4786
20
-143.036
11
83.5738
21
-143.417
0
LINE
8
BLACK
6
CONTINUOUS
10
83.5738
20
-143.417
11
83.5738
21
-143.893
0
LINE
8
BLACK
6
CONTINUOUS
10
83.5738
20
-143.893
11
83.4786
21
-144.274
0
LINE
8
BLACK
6
CONTINUOUS
10
83.4786
20
-144.274
11
83.3833
21
-144.464
0
LINE
8
BLACK
6
CONTINUOUS
10
83.3833
20
-144.464
11
83.2881
21
-144.56
0
LINE
8
BLACK
6
CONTINUOUS
10
83.2881
20
-144.56
11
83.0976
21
-144.655
0
LINE
8
BLACK
6
CONTINUOUS
10
83.0976
20
-144.655
11
82.9071
21
-144.655
0
LINE
8
BLACK
6
CONTINUOUS
10
82.9071
20
-144.655
11
82.7167
21
-144.56
0
LINE
8
BLACK
6
CONTINUOUS
10
82.7167
20
-144.56
11
82.6214
21
-144.464
0
LINE
8
BLACK
6
CONTINUOUS
10
82.6214
20
-144.464
11
82.5262
21
-144.274
0
LINE
8
BLACK
6
CONTINUOUS
10
82.5262
20
-144.274
11
82.431
21
-143.893
0
LINE
8
BLACK
6
CONTINUOUS
10
82.431
20
-143.893
11
82.431
21
-143.417
0
LINE
8
BLACK
6
CONTINUOUS
10
82.431
20
-143.417
11
82.5262
21
-143.036
0
LINE
8
BLACK
6
CONTINUOUS
10
82.5262
20
-143.036
11
82.6214
21
-142.845
0
LINE
8
BLACK
6
CONTINUOUS
10
82.6214
20
-142.845
11
82.7167
21
-142.75
0
LINE
8
BLACK
6
CONTINUOUS
10
82.7167
20
-142.75
11
82.9071
21
-142.655
0
LINE
8
BLACK
6
CONTINUOUS
10
84.431
20
-144.464
11
84.5262
21
-144.56
0
LINE
8
BLACK
6
CONTINUOUS
10
84.5262
20
-144.56
11
84.431
21
-144.655
0
LINE
8
BLACK
6
CONTINUOUS
10
84.431
20
-144.655
11
84.3357
21
-144.56
0
LINE
8
BLACK
6
CONTINUOUS
10
84.3357
20
-144.56
11
84.431
21
-144.464
0
LINE
8
BLACK
6
CONTINUOUS
10
84.431
20
-144.464
11
84.431
21
-144.655
0
LINE
8
BLACK
6
CONTINUOUS
10
86.2405
20
-143.321
11
86.2405
21
-144.655
0
LINE
8
BLACK
6
CONTINUOUS
10
85.7643
20
-142.56
11
85.2881
21
-143.988
0
LINE
8
BLACK
6
CONTINUOUS
10
85.2881
20
-143.988
11
86.5262
21
-143.988
0
LINE
8
BLACK
6
CONTINUOUS
10
87.669
20
-142.655
11
87.8595
21
-142.655
0
LINE
8
BLACK
6
CONTINUOUS
10
87.8595
20
-142.655
11
88.05
21
-142.75
0
LINE
8
BLACK
6
CONTINUOUS
10
88.05
20
-142.75
11
88.1452
21
-142.845
0
LINE
8
BLACK
6
CONTINUOUS
10
88.1452
20
-142.845
11
88.2405
21
-143.036
0
LINE
8
BLACK
6
CONTINUOUS
10
88.2405
20
-143.036
11
88.3357
21
-143.417
0
LINE
8
BLACK
6
CONTINUOUS
10
88.3357
20
-143.417
11
88.3357
21
-143.893
0
LINE
8
BLACK
6
CONTINUOUS
10
88.3357
20
-143.893
11
88.2405
21
-144.274
0
LINE
8
BLACK
6
CONTINUOUS
10
88.2405
20
-144.274
11
88.1452
21
-144.464
0
LINE
8
BLACK
6
CONTINUOUS
10
88.1452
20
-144.464
11
88.05
21
-144.56
0
LINE
8
BLACK
6
CONTINUOUS
10
88.05
20
-144.56
11
87.8595
21
-144.655
0
LINE
8
BLACK
6
CONTINUOUS
10
87.8595
20
-144.655
11
87.669
21
-144.655
0
LINE
8
BLACK
6
CONTINUOUS
10
87.669
20
-144.655
11
87.4786
21
-144.56
0
LINE
8
BLACK
6
CONTINUOUS
10
87.4786
20
-144.56
11
87.3833
21
-144.464
0
LINE
8
BLACK
6
CONTINUOUS
10
87.3833
20
-144.464
11
87.2881
21
-144.274
0
LINE
8
BLACK
6
CONTINUOUS
10
87.2881
20
-144.274
11
87.1929
21
-143.893
0
LINE
8
BLACK
6
CONTINUOUS
10
87.1929
20
-143.893
11
87.1929
21
-143.417
0
LINE
8
BLACK
6
CONTINUOUS
10
87.1929
20
-143.417
11
87.2881
21
-143.036
0
LINE
8
BLACK
6
CONTINUOUS
10
87.2881
20
-143.036
11
87.3833
21
-142.845
0
LINE
8
BLACK
6
CONTINUOUS
10
87.3833
20
-142.845
11
87.4786
21
-142.75
0
LINE
8
BLACK
6
CONTINUOUS
10
87.4786
20
-142.75
11
87.669
21
-142.655
0
LINE
8
BLACK
6
CONTINUOUS
10
89.5738
20
-142.655
11
89.7643
21
-142.655
0
LINE
8
BLACK
6
CONTINUOUS
10
89.7643
20
-142.655
11
89.9548
21
-142.75
0
LINE
8
BLACK
6
CONTINUOUS
10
89.9548
20
-142.75
11
90.05
21
-142.845
0
LINE
8
BLACK
6
CONTINUOUS
10
90.05
20
-142.845
11
90.1452
21
-143.036
0
LINE
8
BLACK
6
CONTINUOUS
10
90.1452
20
-143.036
11
90.2405
21
-143.417
0
LINE
8
BLACK
6
CONTINUOUS
10
90.2405
20
-143.417
11
90.2405
21
-143.893
0
LINE
8
BLACK
6
CONTINUOUS
10
90.2405
20
-143.893
11
90.1452
21
-144.274
0
LINE
8
BLACK
6
CONTINUOUS
10
90.1452
20
-144.274
11
90.05
21
-144.464
0
LINE
8
BLACK
6
CONTINUOUS
10
90.05
20
-144.464
11
89.9548
21
-144.56
0
LINE
8
BLACK
6
CONTINUOUS
10
89.9548
20
-144.56
11
89.7643
21
-144.655
0
LINE
8
BLACK
6
CONTINUOUS
10
89.7643
20
-144.655
11
89.5738
21
-144.655
0
LINE
8
BLACK
6
CONTINUOUS
10
89.5738
20
-144.655
11
89.3833
21
-144.56
0
LINE
8
BLACK
6
CONTINUOUS
10
89.3833
20
-144.56
11
89.2881
21
-144.464
0
LINE
8
BLACK
6
CONTINUOUS
10
89.2881
20
-144.464
11
89.1929
21
-144.274
0
LINE
8
BLACK
6
CONTINUOUS
10
89.1929
20
-144.274
11
89.0976
21
-143.893
0
LINE
8
BLACK
6
CONTINUOUS
10
89.0976
20
-143.893
11
89.0976
21
-143.417
0
LINE
8
BLACK
6
CONTINUOUS
10
89.0976
20
-143.417
11
89.1929
21
-143.036
0
LINE
8
BLACK
6
CONTINUOUS
10
89.1929
20
-143.036
11
89.2881
21
-142.845
0
LINE
8
BLACK
6
CONTINUOUS
10
89.2881
20
-142.845
11
89.3833
21
-142.75
0
LINE
8
BLACK
6
CONTINUOUS
10
89.3833
20
-142.75
11
89.5738
21
-142.655
0
LINE
8
BLACK
6
CONTINUOUS
10
91.0976
20
-144.655
11
91.0976
21
-143.321
0
LINE
8
BLACK
6
CONTINUOUS
10
91.0976
20
-143.512
11
91.1929
21
-143.417
0
LINE
8
BLACK
6
CONTINUOUS
10
91.1929
20
-143.417
11
91.3833
21
-143.321
0
LINE
8
BLACK
6
CONTINUOUS
10
91.3833
20
-143.321
11
91.669
21
-143.321
0
LINE
8
BLACK
6
CONTINUOUS
10
91.669
20
-143.321
11
91.8595
21
-143.417
0
LINE
8
BLACK
6
CONTINUOUS
10
91.8595
20
-143.417
11
91.9548
21
-143.607
0
LINE
8
BLACK
6
CONTINUOUS
10
91.9548
20
-143.607
11
91.9548
21
-144.655
0
LINE
8
BLACK
6
CONTINUOUS
10
91.9548
20
-143.607
11
92.05
21
-143.417
0
LINE
8
BLACK
6
CONTINUOUS
10
92.05
20
-143.417
11
92.2405
21
-143.321
0
LINE
8
BLACK
6
CONTINUOUS
10
92.2405
20
-143.321
11
92.5262
21
-143.321
0
LINE
8
BLACK
6
CONTINUOUS
10
92.5262
20
-143.321
11
92.7167
21
-143.417
0
LINE
8
BLACK
6
CONTINUOUS
10
92.7167
20
-143.417
11
92.8119
21
-143.607
0
LINE
8
BLACK
6
CONTINUOUS
10
92.8119
20
-143.607
11
92.8119
21
-144.655
0
LINE
8
BLACK
6
CONTINUOUS
10
93.7643
20
-144.655
11
93.7643
21
-143.321
0
LINE
8
BLACK
6
CONTINUOUS
10
93.7643
20
-143.512
11
93.8595
21
-143.417
0
LINE
8
BLACK
6
CONTINUOUS
10
93.8595
20
-143.417
11
94.05
21
-143.321
0
LINE
8
BLACK
6
CONTINUOUS
10
94.05
20
-143.321
11
94.3357
21
-143.321
0
LINE
8
BLACK
6
CONTINUOUS
10
94.3357
20
-143.321
11
94.5262
21
-143.417
0
LINE
8
BLACK
6
CONTINUOUS
10
94.5262
20
-143.417
11
94.6214
21
-143.607
0
LINE
8
BLACK
6
CONTINUOUS
10
94.6214
20
-143.607
11
94.6214
21
-144.655
0
LINE
8
BLACK
6
CONTINUOUS
10
94.6214
20
-143.607
11
94.7167
21
-143.417
0
LINE
8
BLACK
6
CONTINUOUS
10
94.7167
20
-143.417
11
94.9071
21
-143.321
0
LINE
8
BLACK
6
CONTINUOUS
10
94.9071
20
-143.321
11
95.1929
21
-143.321
0
LINE
8
BLACK
6
CONTINUOUS
10
95.1929
20
-143.321
11
95.3833
21
-143.417
0
LINE
8
BLACK
6
CONTINUOUS
10
95.3833
20
-143.417
11
95.4786
21
-143.607
0
LINE
8
BLACK
6
CONTINUOUS
10
95.4786
20
-143.607
11
95.4786
21
-144.655
0
LINE
8
BLACK
6
CONTINUOUS
10
99.3833
20
-142.56
11
97.669
21
-145.131
0
LINE
8
BLACK
6
CONTINUOUS
10
101.955
20
-142.655
11
102.145
21
-142.655
0
LINE
8
BLACK
6
CONTINUOUS
10
102.145
20
-142.655
11
102.336
21
-142.75
0
LINE
8
BLACK
6
CONTINUOUS
10
102.336
20
-142.75
11
102.431
21
-142.845
0
LINE
8
BLACK
6
CONTINUOUS
10
102.431
20
-142.845
11
102.526
21
-143.036
0
LINE
8
BLACK
6
CONTINUOUS
10
102.526
20
-143.036
11
102.621
21
-143.417
0
LINE
8
BLACK
6
CONTINUOUS
10
102.621
20
-143.417
11
102.621
21
-143.893
0
LINE
8
BLACK
6
CONTINUOUS
10
102.621
20
-143.893
11
102.526
21
-144.274
0
LINE
8
BLACK
6
CONTINUOUS
10
102.526
20
-144.274
11
102.431
21
-144.464
0
LINE
8
BLACK
6
CONTINUOUS
10
102.431
20
-144.464
11
102.336
21
-144.56
0
LINE
8
BLACK
6
CONTINUOUS
10
102.336
20
-144.56
11
102.145
21
-144.655
0
LINE
8
BLACK
6
CONTINUOUS
10
102.145
20
-144.655
11
101.955
21
-144.655
0
LINE
8
BLACK
6
CONTINUOUS
10
101.955
20
-144.655
11
101.764
21
-144.56
0
LINE
8
BLACK
6
CONTINUOUS
10
101.764
20
-144.56
11
101.669
21
-144.464
0
LINE
8
BLACK
6
CONTINUOUS
10
101.669
20
-144.464
11
101.574
21
-144.274
0
LINE
8
BLACK
6
CONTINUOUS
10
101.574
20
-144.274
11
101.479
21
-143.893
0
LINE
8
BLACK
6
CONTINUOUS
10
101.479
20
-143.893
11
101.479
21
-143.417
0
LINE
8
BLACK
6
CONTINUOUS
10
101.479
20
-143.417
11
101.574
21
-143.036
0
LINE
8
BLACK
6
CONTINUOUS
10
101.574
20
-143.036
11
101.669
21
-142.845
0
LINE
8
BLACK
6
CONTINUOUS
10
101.669
20
-142.845
11
101.764
21
-142.75
0
LINE
8
BLACK
6
CONTINUOUS
10
101.764
20
-142.75
11
101.955
21
-142.655
0
LINE
8
BLACK
6
CONTINUOUS
10
103.479
20
-144.464
11
103.574
21
-144.56
0
LINE
8
BLACK
6
CONTINUOUS
10
103.574
20
-144.56
11
103.479
21
-144.655
0
LINE
8
BLACK
6
CONTINUOUS
10
103.479
20
-144.655
11
103.383
21
-144.56
0
LINE
8
BLACK
6
CONTINUOUS
10
103.383
20
-144.56
11
103.479
21
-144.464
0
LINE
8
BLACK
6
CONTINUOUS
10
103.479
20
-144.464
11
103.479
21
-144.655
0
LINE
8
BLACK
6
CONTINUOUS
10
104.812
20
-142.655
11
105.002
21
-142.655
0
LINE
8
BLACK
6
CONTINUOUS
10
105.002
20
-142.655
11
105.193
21
-142.75
0
LINE
8
BLACK
6
CONTINUOUS
10
105.193
20
-142.75
11
105.288
21
-142.845
0
LINE
8
BLACK
6
CONTINUOUS
10
105.288
20
-142.845
11
105.383
21
-143.036
0
LINE
8
BLACK
6
CONTINUOUS
10
105.383
20
-143.036
11
105.479
21
-143.417
0
LINE
8
BLACK
6
CONTINUOUS
10
105.479
20
-143.417
11
105.479
21
-143.893
0
LINE
8
BLACK
6
CONTINUOUS
10
105.479
20
-143.893
11
105.383
21
-144.274
0
LINE
8
BLACK
6
CONTINUOUS
10
105.383
20
-144.274
11
105.288
21
-144.464
0
LINE
8
BLACK
6
CONTINUOUS
10
105.288
20
-144.464
11
105.193
21
-144.56
0
LINE
8
BLACK
6
CONTINUOUS
10
105.193
20
-144.56
11
105.002
21
-144.655
0
LINE
8
BLACK
6
CONTINUOUS
10
105.002
20
-144.655
11
104.812
21
-144.655
0
LINE
8
BLACK
6
CONTINUOUS
10
104.812
20
-144.655
11
104.621
21
-144.56
0
LINE
8
BLACK
6
CONTINUOUS
10
104.621
20
-144.56
11
104.526
21
-144.464
0
LINE
8
BLACK
6
CONTINUOUS
10
104.526
20
-144.464
11
104.431
21
-144.274
0
LINE
8
BLACK
6
CONTINUOUS
10
104.431
20
-144.274
11
104.336
21
-143.893
0
LINE
8
BLACK
6
CONTINUOUS
10
104.336
20
-143.893
11
104.336
21
-143.417
0
LINE
8
BLACK
6
CONTINUOUS
10
104.336
20
-143.417
11
104.431
21
-143.036
0
LINE
8
BLACK
6
CONTINUOUS
10
104.431
20
-143.036
11
104.526
21
-142.845
0
LINE
8
BLACK
6
CONTINUOUS
10
104.526
20
-142.845
11
104.621
21
-142.75
0
LINE
8
BLACK
6
CONTINUOUS
10
104.621
20
-142.75
11
104.812
21
-142.655
0
LINE
8
BLACK
6
CONTINUOUS
10
107.383
20
-144.655
11
106.24
21
-144.655
0
LINE
8
BLACK
6
CONTINUOUS
10
106.812
20
-144.655
11
106.812
21
-142.655
0
LINE
8
BLACK
6
CONTINUOUS
10
106.812
20
-142.655
11
106.621
21
-142.94
0
LINE
8
BLACK
6
CONTINUOUS
10
106.621
20
-142.94
11
106.431
21
-143.131
0
LINE
8
BLACK
6
CONTINUOUS
10
106.431
20
-143.131
11
106.24
21
-143.226
0
LINE
8
BLACK
6
CONTINUOUS
10
109.193
20
-142.655
11
108.24
21
-142.655
0
LINE
8
BLACK
6
CONTINUOUS
10
108.24
20
-142.655
11
108.145
21
-143.607
0
LINE
8
BLACK
6
CONTINUOUS
10
108.145
20
-143.607
11
108.24
21
-143.512
0
LINE
8
BLACK
6
CONTINUOUS
10
108.24
20
-143.512
11
108.431
21
-143.417
0
LINE
8
BLACK
6
CONTINUOUS
10
108.431
20
-143.417
11
108.907
21
-143.417
0
LINE
8
BLACK
6
CONTINUOUS
10
108.907
20
-143.417
11
109.098
21
-143.512
0
LINE
8
BLACK
6
CONTINUOUS
10
109.098
20
-143.512
11
109.193
21
-143.607
0
LINE
8
BLACK
6
CONTINUOUS
10
109.193
20
-143.607
11
109.288
21
-143.798
0
LINE
8
BLACK
6
CONTINUOUS
10
109.288
20
-143.798
11
109.288
21
-144.274
0
LINE
8
BLACK
6
CONTINUOUS
10
109.288
20
-144.274
11
109.193
21
-144.464
0
LINE
8
BLACK
6
CONTINUOUS
10
109.193
20
-144.464
11
109.098
21
-144.56
0
LINE
8
BLACK
6
CONTINUOUS
10
109.098
20
-144.56
11
108.907
21
-144.655
0
LINE
8
BLACK
6
CONTINUOUS
10
108.907
20
-144.655
11
108.431
21
-144.655
0
LINE
8
BLACK
6
CONTINUOUS
10
108.431
20
-144.655
11
108.24
21
-144.56
0
LINE
8
BLACK
6
CONTINUOUS
10
108.24
20
-144.56
11
108.145
21
-144.464
0
LINE
8
BLACK
6
CONTINUOUS
10
109.955
20
-142.655
11
111.288
21
-142.655
0
LINE
8
BLACK
6
CONTINUOUS
10
111.288
20
-142.655
11
110.431
21
-144.655
0
LINE
8
BLACK
6
CONTINUOUS
10
111.955
20
-142.655
11
111.955
21
-143.036
0
LINE
8
BLACK
6
CONTINUOUS
10
112.717
20
-142.655
11
112.717
21
-143.036
0
LINE
8
BLACK
6
CONTINUOUS
10
115.669
20
-145.417
11
115.574
21
-145.321
0
LINE
8
BLACK
6
CONTINUOUS
10
115.574
20
-145.321
11
115.383
21
-145.036
0
LINE
8
BLACK
6
CONTINUOUS
10
115.383
20
-145.036
11
115.288
21
-144.845
0
LINE
8
BLACK
6
CONTINUOUS
10
115.288
20
-144.845
11
115.193
21
-144.56
0
LINE
8
BLACK
6
CONTINUOUS
10
115.193
20
-144.56
11
115.098
21
-144.083
0
LINE
8
BLACK
6
CONTINUOUS
10
115.098
20
-144.083
11
115.098
21
-143.702
0
LINE
8
BLACK
6
CONTINUOUS
10
115.098
20
-143.702
11
115.193
21
-143.226
0
LINE
8
BLACK
6
CONTINUOUS
10
115.193
20
-143.226
11
115.288
21
-142.94
0
LINE
8
BLACK
6
CONTINUOUS
10
115.288
20
-142.94
11
115.383
21
-142.75
0
LINE
8
BLACK
6
CONTINUOUS
10
115.383
20
-142.75
11
115.574
21
-142.464
0
LINE
8
BLACK
6
CONTINUOUS
10
115.574
20
-142.464
11
115.669
21
-142.369
0
LINE
8
BLACK
6
CONTINUOUS
10
117.479
20
-144.655
11
116.336
21
-144.655
0
LINE
8
BLACK
6
CONTINUOUS
10
116.907
20
-144.655
11
116.907
21
-142.655
0
LINE
8
BLACK
6
CONTINUOUS
10
116.907
20
-142.655
11
116.717
21
-142.94
0
LINE
8
BLACK
6
CONTINUOUS
10
116.717
20
-142.94
11
116.526
21
-143.131
0
LINE
8
BLACK
6
CONTINUOUS
10
116.526
20
-143.131
11
116.336
21
-143.226
0
LINE
8
BLACK
6
CONTINUOUS
10
118.24
20
-142.845
11
118.336
21
-142.75
0
LINE
8
BLACK
6
CONTINUOUS
10
118.336
20
-142.75
11
118.526
21
-142.655
0
LINE
8
BLACK
6
CONTINUOUS
10
118.526
20
-142.655
11
119.002
21
-142.655
0
LINE
8
BLACK
6
CONTINUOUS
10
119.002
20
-142.655
11
119.193
21
-142.75
0
LINE
8
BLACK
6
CONTINUOUS
10
119.193
20
-142.75
11
119.288
21
-142.845
0
LINE
8
BLACK
6
CONTINUOUS
10
119.288
20
-142.845
11
119.383
21
-143.036
0
LINE
8
BLACK
6
CONTINUOUS
10
119.383
20
-143.036
11
119.383
21
-143.226
0
LINE
8
BLACK
6
CONTINUOUS
10
119.383
20
-143.226
11
119.288
21
-143.512
0
LINE
8
BLACK
6
CONTINUOUS
10
119.288
20
-143.512
11
118.145
21
-144.655
0
LINE
8
BLACK
6
CONTINUOUS
10
118.145
20
-144.655
11
119.383
21
-144.655
0
LINE
8
BLACK
6
CONTINUOUS
10
121.288
20
-144.655
11
120.145
21
-144.655
0
LINE
8
BLACK
6
CONTINUOUS
10
120.717
20
-144.655
11
120.717
21
-142.655
0
LINE
8
BLACK
6
CONTINUOUS
10
120.717
20
-142.655
11
120.526
21
-142.94
0
LINE
8
BLACK
6
CONTINUOUS
10
120.526
20
-142.94
11
120.336
21
-143.131
0
LINE
8
BLACK
6
CONTINUOUS
10
120.336
20
-143.131
11
120.145
21
-143.226
0
LINE
8
BLACK
6
CONTINUOUS
10
123.669
20
-144.655
11
123.669
21
-142.655
0
LINE
8
BLACK
6
CONTINUOUS
10
124.526
20
-144.655
11
124.526
21
-143.607
0
LINE
8
BLACK
6
CONTINUOUS
10
124.526
20
-143.607
11
124.431
21
-143.417
0
LINE
8
BLACK
6
CONTINUOUS
10
124.431
20
-143.417
11
124.24
21
-143.321
0
LINE
8
BLACK
6
CONTINUOUS
10
124.24
20
-143.321
11
123.955
21
-143.321
0
LINE
8
BLACK
6
CONTINUOUS
10
123.955
20
-143.321
11
123.764
21
-143.417
0
LINE
8
BLACK
6
CONTINUOUS
10
123.764
20
-143.417
11
123.669
21
-143.512
0
LINE
8
BLACK
6
CONTINUOUS
10
125.764
20
-144.655
11
125.574
21
-144.56
0
LINE
8
BLACK
6
CONTINUOUS
10
125.574
20
-144.56
11
125.479
21
-144.464
0
LINE
8
BLACK
6
CONTINUOUS
10
125.479
20
-144.464
11
125.383
21
-144.274
0
LINE
8
BLACK
6
CONTINUOUS
10
125.383
20
-144.274
11
125.383
21
-143.702
0
LINE
8
BLACK
6
CONTINUOUS
10
125.383
20
-143.702
11
125.479
21
-143.512
0
LINE
8
BLACK
6
CONTINUOUS
10
125.479
20
-143.512
11
125.574
21
-143.417
0
LINE
8
BLACK
6
CONTINUOUS
10
125.574
20
-143.417
11
125.764
21
-143.321
0
LINE
8
BLACK
6
CONTINUOUS
10
125.764
20
-143.321
11
126.05
21
-143.321
0
LINE
8
BLACK
6
CONTINUOUS
10
126.05
20
-143.321
11
126.24
21
-143.417
0
LINE
8
BLACK
6
CONTINUOUS
10
126.24
20
-143.417
11
126.336
21
-143.512
0
LINE
8
BLACK
6
CONTINUOUS
10
126.336
20
-143.512
11
126.431
21
-143.702
0
LINE
8
BLACK
6
CONTINUOUS
10
126.431
20
-143.702
11
126.431
21
-144.274
0
LINE
8
BLACK
6
CONTINUOUS
10
126.431
20
-144.274
11
126.336
21
-144.464
0
LINE
8
BLACK
6
CONTINUOUS
10
126.336
20
-144.464
11
126.24
21
-144.56
0
LINE
8
BLACK
6
CONTINUOUS
10
126.24
20
-144.56
11
126.05
21
-144.655
0
LINE
8
BLACK
6
CONTINUOUS
10
126.05
20
-144.655
11
125.764
21
-144.655
0
LINE
8
BLACK
6
CONTINUOUS
10
127.574
20
-144.655
11
127.383
21
-144.56
0
LINE
8
BLACK
6
CONTINUOUS
10
127.383
20
-144.56
11
127.288
21
-144.369
0
LINE
8
BLACK
6
CONTINUOUS
10
127.288
20
-144.369
11
127.288
21
-142.655
0
LINE
8
BLACK
6
CONTINUOUS
10
129.098
20
-144.56
11
128.907
21
-144.655
0
LINE
8
BLACK
6
CONTINUOUS
10
128.907
20
-144.655
11
128.526
21
-144.655
0
LINE
8
BLACK
6
CONTINUOUS
10
128.526
20
-144.655
11
128.336
21
-144.56
0
LINE
8
BLACK
6
CONTINUOUS
10
128.336
20
-144.56
11
128.24
21
-144.369
0
LINE
8
BLACK
6
CONTINUOUS
10
128.24
20
-144.369
11
128.24
21
-143.607
0
LINE
8
BLACK
6
CONTINUOUS
10
128.24
20
-143.607
11
128.336
21
-143.417
0
LINE
8
BLACK
6
CONTINUOUS
10
128.336
20
-143.417
11
128.526
21
-143.321
0
LINE
8
BLACK
6
CONTINUOUS
10
128.526
20
-143.321
11
128.907
21
-143.321
0
LINE
8
BLACK
6
CONTINUOUS
10
128.907
20
-143.321
11
129.098
21
-143.417
0
LINE
8
BLACK
6
CONTINUOUS
10
129.098
20
-143.417
11
129.193
21
-143.607
0
LINE
8
BLACK
6
CONTINUOUS
10
129.193
20
-143.607
11
129.193
21
-143.798
0
LINE
8
BLACK
6
CONTINUOUS
10
129.193
20
-143.798
11
128.24
21
-143.988
0
LINE
8
BLACK
6
CONTINUOUS
10
129.955
20
-144.56
11
130.145
21
-144.655
0
LINE
8
BLACK
6
CONTINUOUS
10
130.145
20
-144.655
11
130.526
21
-144.655
0
LINE
8
BLACK
6
CONTINUOUS
10
130.526
20
-144.655
11
130.717
21
-144.56
0
LINE
8
BLACK
6
CONTINUOUS
10
130.717
20
-144.56
11
130.812
21
-144.369
0
LINE
8
BLACK
6
CONTINUOUS
10
130.812
20
-144.369
11
130.812
21
-144.274
0
LINE
8
BLACK
6
CONTINUOUS
10
130.812
20
-144.274
11
130.717
21
-144.083
0
LINE
8
BLACK
6
CONTINUOUS
10
130.717
20
-144.083
11
130.526
21
-143.988
0
LINE
8
BLACK
6
CONTINUOUS
10
130.526
20
-143.988
11
130.24
21
-143.988
0
LINE
8
BLACK
6
CONTINUOUS
10
130.24
20
-143.988
11
130.05
21
-143.893
0
LINE
8
BLACK
6
CONTINUOUS
10
130.05
20
-143.893
11
129.955
21
-143.702
0
LINE
8
BLACK
6
CONTINUOUS
10
129.955
20
-143.702
11
129.955
21
-143.607
0
LINE
8
BLACK
6
CONTINUOUS
10
129.955
20
-143.607
11
130.05
21
-143.417
0
LINE
8
BLACK
6
CONTINUOUS
10
130.05
20
-143.417
11
130.24
21
-143.321
0
LINE
8
BLACK
6
CONTINUOUS
10
130.24
20
-143.321
11
130.526
21
-143.321
0
LINE
8
BLACK
6
CONTINUOUS
10
130.526
20
-143.321
11
130.717
21
-143.417
0
LINE
8
BLACK
6
CONTINUOUS
10
131.479
20
-145.417
11
131.574
21
-145.321
0
LINE
8
BLACK
6
CONTINUOUS
10
131.574
20
-145.321
11
131.764
21
-145.036
0
LINE
8
BLACK
6
CONTINUOUS
10
131.764
20
-145.036
11
131.86
21
-144.845
0
LINE
8
BLACK
6
CONTINUOUS
10
131.86
20
-144.845
11
131.955
21
-144.56
0
LINE
8
BLACK
6
CONTINUOUS
10
131.955
20
-144.56
11
132.05
21
-144.083
0
LINE
8
BLACK
6
CONTINUOUS
10
132.05
20
-144.083
11
132.05
21
-143.702
0
LINE
8
BLACK
6
CONTINUOUS
10
132.05
20
-143.702
11
131.955
21
-143.226
0
LINE
8
BLACK
6
CONTINUOUS
10
131.955
20
-143.226
11
131.86
21
-142.94
0
LINE
8
BLACK
6
CONTINUOUS
10
131.86
20
-142.94
11
131.764
21
-142.75
0
LINE
8
BLACK
6
CONTINUOUS
10
131.764
20
-142.75
11
131.574
21
-142.464
0
LINE
8
BLACK
6
CONTINUOUS
10
131.574
20
-142.464
11
131.479
21
-142.369
0
CIRCLE
8
BLACK
10
79.55
20
-146.39
40
0.4
0
LINE
8
BLACK
6
CONTINUOUS
10
82.9071
20
-145.295
11
83.0976
21
-145.295
0
LINE
8
BLACK
6
CONTINUOUS
10
83.0976
20
-145.295
11
83.2881
21
-145.39
0
LINE
8
BLACK
6
CONTINUOUS
10
83.2881
20
-145.39
11
83.3833
21
-145.485
0
LINE
8
BLACK
6
CONTINUOUS
10
83.3833
20
-145.485
11
83.4786
21
-145.676
0
LINE
8
BLACK
6
CONTINUOUS
10
83.4786
20
-145.676
11
83.5738
21
-146.057
0
LINE
8
BLACK
6
CONTINUOUS
10
83.5738
20
-146.057
11
83.5738
21
-146.533
0
LINE
8
BLACK
6
CONTINUOUS
10
83.5738
20
-146.533
11
83.4786
21
-146.914
0
LINE
8
BLACK
6
CONTINUOUS
10
83.4786
20
-146.914
11
83.3833
21
-147.104
0
LINE
8
BLACK
6
CONTINUOUS
10
83.3833
20
-147.104
11
83.2881
21
-147.2
0
LINE
8
BLACK
6
CONTINUOUS
10
83.2881
20
-147.2
11
83.0976
21
-147.295
0
LINE
8
BLACK
6
CONTINUOUS
10
83.0976
20
-147.295
11
82.9071
21
-147.295
0
LINE
8
BLACK
6
CONTINUOUS
10
82.9071
20
-147.295
11
82.7167
21
-147.2
0
LINE
8
BLACK
6
CONTINUOUS
10
82.7167
20
-147.2
11
82.6214
21
-147.104
0
LINE
8
BLACK
6
CONTINUOUS
10
82.6214
20
-147.104
11
82.5262
21
-146.914
0
LINE
8
BLACK
6
CONTINUOUS
10
82.5262
20
-146.914
11
82.431
21
-146.533
0
LINE
8
BLACK
6
CONTINUOUS
10
82.431
20
-146.533
11
82.431
21
-146.057
0
LINE
8
BLACK
6
CONTINUOUS
10
82.431
20
-146.057
11
82.5262
21
-145.676
0
LINE
8
BLACK
6
CONTINUOUS
10
82.5262
20
-145.676
11
82.6214
21
-145.485
0
LINE
8
BLACK
6
CONTINUOUS
10
82.6214
20
-145.485
11
82.7167
21
-145.39
0
LINE
8
BLACK
6
CONTINUOUS
10
82.7167
20
-145.39
11
82.9071
21
-145.295
0
LINE
8
BLACK
6
CONTINUOUS
10
84.431
20
-147.104
11
84.5262
21
-147.2
0
LINE
8
BLACK
6
CONTINUOUS
10
84.5262
20
-147.2
11
84.431
21
-147.295
0
LINE
8
BLACK
6
CONTINUOUS
10
84.431
20
-147.295
11
84.3357
21
-147.2
0
LINE
8
BLACK
6
CONTINUOUS
10
84.3357
20
-147.2
11
84.431
21
-147.104
0
LINE
8
BLACK
6
CONTINUOUS
10
84.431
20
-147.104
11
84.431
21
-147.295
0
LINE
8
BLACK
6
CONTINUOUS
10
85.669
20
-146.152
11
85.4786
21
-146.057
0
LINE
8
BLACK
6
CONTINUOUS
10
85.4786
20
-146.057
11
85.3833
21
-145.961
0
LINE
8
BLACK
6
CONTINUOUS
10
85.3833
20
-145.961
11
85.2881
21
-145.771
0
LINE
8
BLACK
6
CONTINUOUS
10
85.2881
20
-145.771
11
85.2881
21
-145.676
0
LINE
8
BLACK
6
CONTINUOUS
10
85.2881
20
-145.676
11
85.3833
21
-145.485
0
LINE
8
BLACK
6
CONTINUOUS
10
85.3833
20
-145.485
11
85.4786
21
-145.39
0
LINE
8
BLACK
6
CONTINUOUS
10
85.4786
20
-145.39
11
85.669
21
-145.295
0
LINE
8
BLACK
6
CONTINUOUS
10
85.669
20
-145.295
11
86.05
21
-145.295
0
LINE
8
BLACK
6
CONTINUOUS
10
86.05
20
-145.295
11
86.2405
21
-145.39
0
LINE
8
BLACK
6
CONTINUOUS
10
86.2405
20
-145.39
11
86.3357
21
-145.485
0
LINE
8
BLACK
6
CONTINUOUS
10
86.3357
20
-145.485
11
86.431
21
-145.676
0
LINE
8
BLACK
6
CONTINUOUS
10
86.431
20
-145.676
11
86.431
21
-145.771
0
LINE
8
BLACK
6
CONTINUOUS
10
86.431
20
-145.771
11
86.3357
21
-145.961
0
LINE
8
BLACK
6
CONTINUOUS
10
86.3357
20
-145.961
11
86.2405
21
-146.057
0
LINE
8
BLACK
6
CONTINUOUS
10
86.2405
20
-146.057
11
86.05
21
-146.152
0
LINE
8
BLACK
6
CONTINUOUS
10
86.05
20
-146.152
11
85.669
21
-146.152
0
LINE
8
BLACK
6
CONTINUOUS
10
85.669
20
-146.152
11
85.4786
21
-146.247
0
LINE
8
BLACK
6
CONTINUOUS
10
85.4786
20
-146.247
11
85.3833
21
-146.342
0
LINE
8
BLACK
6
CONTINUOUS
10
85.3833
20
-146.342
11
85.2881
21
-146.533
0
LINE
8
BLACK
6
CONTINUOUS
10
85.2881
20
-146.533
11
85.2881
21
-146.914
0
LINE
8
BLACK
6
CONTINUOUS
10
85.2881
20
-146.914
11
85.3833
21
-147.104
0
LINE
8
BLACK
6
CONTINUOUS
10
85.3833
20
-147.104
11
85.4786
21
-147.2
0
LINE
8
BLACK
6
CONTINUOUS
10
85.4786
20
-147.2
11
85.669
21
-147.295
0
LINE
8
BLACK
6
CONTINUOUS
10
85.669
20
-147.295
11
86.05
21
-147.295
0
LINE
8
BLACK
6
CONTINUOUS
10
86.05
20
-147.295
11
86.2405
21
-147.2
0
LINE
8
BLACK
6
CONTINUOUS
10
86.2405
20
-147.2
11
86.3357
21
-147.104
0
LINE
8
BLACK
6
CONTINUOUS
10
86.3357
20
-147.104
11
86.431
21
-146.914
0
LINE
8
BLACK
6
CONTINUOUS
10
86.431
20
-146.914
11
86.431
21
-146.533
0
LINE
8
BLACK
6
CONTINUOUS
10
86.431
20
-146.533
11
86.3357
21
-146.342
0
LINE
8
BLACK
6
CONTINUOUS
10
86.3357
20
-146.342
11
86.2405
21
-146.247
0
LINE
8
BLACK
6
CONTINUOUS
10
86.2405
20
-146.247
11
86.05
21
-146.152
0
LINE
8
BLACK
6
CONTINUOUS
10
87.669
20
-145.295
11
87.8595
21
-145.295
0
LINE
8
BLACK
6
CONTINUOUS
10
87.8595
20
-145.295
11
88.05
21
-145.39
0
LINE
8
BLACK
6
CONTINUOUS
10
88.05
20
-145.39
11
88.1452
21
-145.485
0
LINE
8
BLACK
6
CONTINUOUS
10
88.1452
20
-145.485
11
88.2405
21
-145.676
0
LINE
8
BLACK
6
CONTINUOUS
10
88.2405
20
-145.676
11
88.3357
21
-146.057
0
LINE
8
BLACK
6
CONTINUOUS
10
88.3357
20
-146.057
11
88.3357
21
-146.533
0
LINE
8
BLACK
6
CONTINUOUS
10
88.3357
20
-146.533
11
88.2405
21
-146.914
0
LINE
8
BLACK
6
CONTINUOUS
10
88.2405
20
-146.914
11
88.1452
21
-147.104
0
LINE
8
BLACK
6
CONTINUOUS
10
88.1452
20
-147.104
11
88.05
21
-147.2
0
LINE
8
BLACK
6
CONTINUOUS
10
88.05
20
-147.2
11
87.8595
21
-147.295
0
LINE
8
BLACK
6
CONTINUOUS
10
87.8595
20
-147.295
11
87.669
21
-147.295
0
LINE
8
BLACK
6
CONTINUOUS
10
87.669
20
-147.295
11
87.4786
21
-147.2
0
LINE
8
BLACK
6
CONTINUOUS
10
87.4786
20
-147.2
11
87.3833
21
-147.104
0
LINE
8
BLACK
6
CONTINUOUS
10
87.3833
20
-147.104
11
87.2881
21
-146.914
0
LINE
8
BLACK
6
CONTINUOUS
10
87.2881
20
-146.914
11
87.1929
21
-146.533
0
LINE
8
BLACK
6
CONTINUOUS
10
87.1929
20
-146.533
11
87.1929
21
-146.057
0
LINE
8
BLACK
6
CONTINUOUS
10
87.1929
20
-146.057
11
87.2881
21
-145.676
0
LINE
8
BLACK
6
CONTINUOUS
10
87.2881
20
-145.676
11
87.3833
21
-145.485
0
LINE
8
BLACK
6
CONTINUOUS
10
87.3833
20
-145.485
11
87.4786
21
-145.39
0
LINE
8
BLACK
6
CONTINUOUS
10
87.4786
20
-145.39
11
87.669
21
-145.295
0
LINE
8
BLACK
6
CONTINUOUS
10
89.5738
20
-145.295
11
89.7643
21
-145.295
0
LINE
8
BLACK
6
CONTINUOUS
10
89.7643
20
-145.295
11
89.9548
21
-145.39
0
LINE
8
BLACK
6
CONTINUOUS
10
89.9548
20
-145.39
11
90.05
21
-145.485
0
LINE
8
BLACK
6
CONTINUOUS
10
90.05
20
-145.485
11
90.1452
21
-145.676
0
LINE
8
BLACK
6
CONTINUOUS
10
90.1452
20
-145.676
11
90.2405
21
-146.057
0
LINE
8
BLACK
6
CONTINUOUS
10
90.2405
20
-146.057
11
90.2405
21
-146.533
0
LINE
8
BLACK
6
CONTINUOUS
10
90.2405
20
-146.533
11
90.1452
21
-146.914
0
LINE
8
BLACK
6
CONTINUOUS
10
90.1452
20
-146.914
11
90.05
21
-147.104
0
LINE
8
BLACK
6
CONTINUOUS
10
90.05
20
-147.104
11
89.9548
21
-147.2
0
LINE
8
BLACK
6
CONTINUOUS
10
89.9548
20
-147.2
11
89.7643
21
-147.295
0
LINE
8
BLACK
6
CONTINUOUS
10
89.7643
20
-147.295
11
89.5738
21
-147.295
0
LINE
8
BLACK
6
CONTINUOUS
10
89.5738
20
-147.295
11
89.3833
21
-147.2
0
LINE
8
BLACK
6
CONTINUOUS
10
89.3833
20
-147.2
11
89.2881
21
-147.104
0
LINE
8
BLACK
6
CONTINUOUS
10
89.2881
20
-147.104
11
89.1929
21
-146.914
0
LINE
8
BLACK
6
CONTINUOUS
10
89.1929
20
-146.914
11
89.0976
21
-146.533
0
LINE
8
BLACK
6
CONTINUOUS
10
89.0976
20
-146.533
11
89.0976
21
-146.057
0
LINE
8
BLACK
6
CONTINUOUS
10
89.0976
20
-146.057
11
89.1929
21
-145.676
0
LINE
8
BLACK
6
CONTINUOUS
10
89.1929
20
-145.676
11
89.2881
21
-145.485
0
LINE
8
BLACK
6
CONTINUOUS
10
89.2881
20
-145.485
11
89.3833
21
-145.39
0
LINE
8
BLACK
6
CONTINUOUS
10
89.3833
20
-145.39
11
89.5738
21
-145.295
0
LINE
8
BLACK
6
CONTINUOUS
10
91.0976
20
-147.295
11
91.0976
21
-145.961
0
LINE
8
BLACK
6
CONTINUOUS
10
91.0976
20
-146.152
11
91.1929
21
-146.057
0
LINE
8
BLACK
6
CONTINUOUS
10
91.1929
20
-146.057
11
91.3833
21
-145.961
0
LINE
8
BLACK
6
CONTINUOUS
10
91.3833
20
-145.961
11
91.669
21
-145.961
0
LINE
8
BLACK
6
CONTINUOUS
10
91.669
20
-145.961
11
91.8595
21
-146.057
0
LINE
8
BLACK
6
CONTINUOUS
10
91.8595
20
-146.057
11
91.9548
21
-146.247
0
LINE
8
BLACK
6
CONTINUOUS
10
91.9548
20
-146.247
11
91.9548
21
-147.295
0
LINE
8
BLACK
6
CONTINUOUS
10
91.9548
20
-146.247
11
92.05
21
-146.057
0
LINE
8
BLACK
6
CONTINUOUS
10
92.05
20
-146.057
11
92.2405
21
-145.961
0
LINE
8
BLACK
6
CONTINUOUS
10
92.2405
20
-145.961
11
92.5262
21
-145.961
0
LINE
8
BLACK
6
CONTINUOUS
10
92.5262
20
-145.961
11
92.7167
21
-146.057
0
LINE
8
BLACK
6
CONTINUOUS
10
92.7167
20
-146.057
11
92.8119
21
-146.247
0
LINE
8
BLACK
6
CONTINUOUS
10
92.8119
20
-146.247
11
92.8119
21
-147.295
0
LINE
8
BLACK
6
CONTINUOUS
10
93.7643
20
-147.295
11
93.7643
21
-145.961
0
LINE
8
BLACK
6
CONTINUOUS
10
93.7643
20
-146.152
11
93.8595
21
-146.057
0
LINE
8
BLACK
6
CONTINUOUS
10
93.8595
20
-146.057
11
94.05
21
-145.961
0
LINE
8
BLACK
6
CONTINUOUS
10
94.05
20
-145.961
11
94.3357
21
-145.961
0
LINE
8
BLACK
6
CONTINUOUS
10
94.3357
20
-145.961
11
94.5262
21
-146.057
0
LINE
8
BLACK
6
CONTINUOUS
10
94.5262
20
-146.057
11
94.6214
21
-146.247
0
LINE
8
BLACK
6
CONTINUOUS
10
94.6214
20
-146.247
11
94.6214
21
-147.295
0
LINE
8
BLACK
6
CONTINUOUS
10
94.6214
20
-146.247
11
94.7167
21
-146.057
0
LINE
8
BLACK
6
CONTINUOUS
10
94.7167
20
-146.057
11
94.9071
21
-145.961
0
LINE
8
BLACK
6
CONTINUOUS
10
94.9071
20
-145.961
11
95.1929
21
-145.961
0
LINE
8
BLACK
6
CONTINUOUS
10
95.1929
20
-145.961
11
95.3833
21
-146.057
0
LINE
8
BLACK
6
CONTINUOUS
10
95.3833
20
-146.057
11
95.4786
21
-146.247
0
LINE
8
BLACK
6
CONTINUOUS
10
95.4786
20
-146.247
11
95.4786
21
-147.295
0
LINE
8
BLACK
6
CONTINUOUS
10
99.3833
20
-145.2
11
97.669
21
-147.771
0
LINE
8
BLACK
6
CONTINUOUS
10
101.955
20
-145.295
11
102.145
21
-145.295
0
LINE
8
BLACK
6
CONTINUOUS
10
102.145
20
-145.295
11
102.336
21
-145.39
0
LINE
8
BLACK
6
CONTINUOUS
10
102.336
20
-145.39
11
102.431
21
-145.485
0
LINE
8
BLACK
6
CONTINUOUS
10
102.431
20
-145.485
11
102.526
21
-145.676
0
LINE
8
BLACK
6
CONTINUOUS
10
102.526
20
-145.676
11
102.621
21
-146.057
0
LINE
8
BLACK
6
CONTINUOUS
10
102.621
20
-146.057
11
102.621
21
-146.533
0
LINE
8
BLACK
6
CONTINUOUS
10
102.621
20
-146.533
11
102.526
21
-146.914
0
LINE
8
BLACK
6
CONTINUOUS
10
102.526
20
-146.914
11
102.431
21
-147.104
0
LINE
8
BLACK
6
CONTINUOUS
10
102.431
20
-147.104
11
102.336
21
-147.2
0
LINE
8
BLACK
6
CONTINUOUS
10
102.336
20
-147.2
11
102.145
21
-147.295
0
LINE
8
BLACK
6
CONTINUOUS
10
102.145
20
-147.295
11
101.955
21
-147.295
0
LINE
8
BLACK
6
CONTINUOUS
10
101.955
20
-147.295
11
101.764
21
-147.2
0
LINE
8
BLACK
6
CONTINUOUS
10
101.764
20
-147.2
11
101.669
21
-147.104
0
LINE
8
BLACK
6
CONTINUOUS
10
101.669
20
-147.104
11
101.574
21
-146.914
0
LINE
8
BLACK
6
CONTINUOUS
10
101.574
20
-146.914
11
101.479
21
-146.533
0
LINE
8
BLACK
6
CONTINUOUS
10
101.479
20
-146.533
11
101.479
21
-146.057
0
LINE
8
BLACK
6
CONTINUOUS
10
101.479
20
-146.057
11
101.574
21
-145.676
0
LINE
8
BLACK
6
CONTINUOUS
10
101.574
20
-145.676
11
101.669
21
-145.485
0
LINE
8
BLACK
6
CONTINUOUS
10
101.669
20
-145.485
11
101.764
21
-145.39
0
LINE
8
BLACK
6
CONTINUOUS
10
101.764
20
-145.39
11
101.955
21
-145.295
0
LINE
8
BLACK
6
CONTINUOUS
10
103.479
20
-147.104
11
103.574
21
-147.2
0
LINE
8
BLACK
6
CONTINUOUS
10
103.574
20
-147.2
11
103.479
21
-147.295
0
LINE
8
BLACK
6
CONTINUOUS
10
103.479
20
-147.295
11
103.383
21
-147.2
0
LINE
8
BLACK
6
CONTINUOUS
10
103.383
20
-147.2
11
103.479
21
-147.104
0
LINE
8
BLACK
6
CONTINUOUS
10
103.479
20
-147.104
11
103.479
21
-147.295
0
LINE
8
BLACK
6
CONTINUOUS
10
104.812
20
-145.295
11
105.002
21
-145.295
0
LINE
8
BLACK
6
CONTINUOUS
10
105.002
20
-145.295
11
105.193
21
-145.39
0
LINE
8
BLACK
6
CONTINUOUS
10
105.193
20
-145.39
11
105.288
21
-145.485
0
LINE
8
BLACK
6
CONTINUOUS
10
105.288
20
-145.485
11
105.383
21
-145.676
0
LINE
8
BLACK
6
CONTINUOUS
10
105.383
20
-145.676
11
105.479
21
-146.057
0
LINE
8
BLACK
6
CONTINUOUS
10
105.479
20
-146.057
11
105.479
21
-146.533
0
LINE
8
BLACK
6
CONTINUOUS
10
105.479
20
-146.533
11
105.383
21
-146.914
0
LINE
8
BLACK
6
CONTINUOUS
10
105.383
20
-146.914
11
105.288
21
-147.104
0
LINE
8
BLACK
6
CONTINUOUS
10
105.288
20
-147.104
11
105.193
21
-147.2
0
LINE
8
BLACK
6
CONTINUOUS
10
105.193
20
-147.2
11
105.002
21
-147.295
0
LINE
8
BLACK
6
CONTINUOUS
10
105.002
20
-147.295
11
104.812
21
-147.295
0
LINE
8
BLACK
6
CONTINUOUS
10
104.812
20
-147.295
11
104.621
21
-147.2
0
LINE
8
BLACK
6
CONTINUOUS
10
104.621
20
-147.2
11
104.526
21
-147.104
0
LINE
8
BLACK
6
CONTINUOUS
10
104.526
20
-147.104
11
104.431
21
-146.914
0
LINE
8
BLACK
6
CONTINUOUS
10
104.431
20
-146.914
11
104.336
21
-146.533
0
LINE
8
BLACK
6
CONTINUOUS
10
104.336
20
-146.533
11
104.336
21
-146.057
0
LINE
8
BLACK
6
CONTINUOUS
10
104.336
20
-146.057
11
104.431
21
-145.676
0
LINE
8
BLACK
6
CONTINUOUS
10
104.431
20
-145.676
11
104.526
21
-145.485
0
LINE
8
BLACK
6
CONTINUOUS
10
104.526
20
-145.485
11
104.621
21
-145.39
0
LINE
8
BLACK
6
CONTINUOUS
10
104.621
20
-145.39
11
104.812
21
-145.295
0
LINE
8
BLACK
6
CONTINUOUS
10
106.145
20
-145.295
11
107.383
21
-145.295
0
LINE
8
BLACK
6
CONTINUOUS
10
107.383
20
-145.295
11
106.717
21
-146.057
0
LINE
8
BLACK
6
CONTINUOUS
10
106.717
20
-146.057
11
107.002
21
-146.057
0
LINE
8
BLACK
6
CONTINUOUS
10
107.002
20
-146.057
11
107.193
21
-146.152
0
LINE
8
BLACK
6
CONTINUOUS
10
107.193
20
-146.152
11
107.288
21
-146.247
0
LINE
8
BLACK
6
CONTINUOUS
10
107.288
20
-146.247
11
107.383
21
-146.438
0
LINE
8
BLACK
6
CONTINUOUS
10
107.383
20
-146.438
11
107.383
21
-146.914
0
LINE
8
BLACK
6
CONTINUOUS
10
107.383
20
-146.914
11
107.288
21
-147.104
0
LINE
8
BLACK
6
CONTINUOUS
10
107.288
20
-147.104
11
107.193
21
-147.2
0
LINE
8
BLACK
6
CONTINUOUS
10
107.193
20
-147.2
11
107.002
21
-147.295
0
LINE
8
BLACK
6
CONTINUOUS
10
107.002
20
-147.295
11
106.431
21
-147.295
0
LINE
8
BLACK
6
CONTINUOUS
10
106.431
20
-147.295
11
106.24
21
-147.2
0
LINE
8
BLACK
6
CONTINUOUS
10
106.24
20
-147.2
11
106.145
21
-147.104
0
LINE
8
BLACK
6
CONTINUOUS
10
109.288
20
-147.295
11
108.145
21
-147.295
0
LINE
8
BLACK
6
CONTINUOUS
10
108.717
20
-147.295
11
108.717
21
-145.295
0
LINE
8
BLACK
6
CONTINUOUS
10
108.717
20
-145.295
11
108.526
21
-145.58
0
LINE
8
BLACK
6
CONTINUOUS
10
108.526
20
-145.58
11
108.336
21
-145.771
0
LINE
8
BLACK
6
CONTINUOUS
10
108.336
20
-145.771
11
108.145
21
-145.866
0
LINE
8
BLACK
6
CONTINUOUS
10
111.098
20
-145.295
11
110.145
21
-145.295
0
LINE
8
BLACK
6
CONTINUOUS
10
110.145
20
-145.295
11
110.05
21
-146.247
0
LINE
8
BLACK
6
CONTINUOUS
10
110.05
20
-146.247
11
110.145
21
-146.152
0
LINE
8
BLACK
6
CONTINUOUS
10
110.145
20
-146.152
11
110.336
21
-146.057
0
LINE
8
BLACK
6
CONTINUOUS
10
110.336
20
-146.057
11
110.812
21
-146.057
0
LINE
8
BLACK
6
CONTINUOUS
10
110.812
20
-146.057
11
111.002
21
-146.152
0
LINE
8
BLACK
6
CONTINUOUS
10
111.002
20
-146.152
11
111.098
21
-146.247
0
LINE
8
BLACK
6
CONTINUOUS
10
111.098
20
-146.247
11
111.193
21
-146.438
0
LINE
8
BLACK
6
CONTINUOUS
10
111.193
20
-146.438
11
111.193
21
-146.914
0
LINE
8
BLACK
6
CONTINUOUS
10
111.193
20
-146.914
11
111.098
21
-147.104
0
LINE
8
BLACK
6
CONTINUOUS
10
111.098
20
-147.104
11
111.002
21
-147.2
0
LINE
8
BLACK
6
CONTINUOUS
10
111.002
20
-147.2
11
110.812
21
-147.295
0
LINE
8
BLACK
6
CONTINUOUS
10
110.812
20
-147.295
11
110.336
21
-147.295
0
LINE
8
BLACK
6
CONTINUOUS
10
110.336
20
-147.295
11
110.145
21
-147.2
0
LINE
8
BLACK
6
CONTINUOUS
10
110.145
20
-147.2
11
110.05
21
-147.104
0
LINE
8
BLACK
6
CONTINUOUS
10
111.955
20
-145.295
11
111.955
21
-145.676
0
LINE
8
BLACK
6
CONTINUOUS
10
112.717
20
-145.295
11
112.717
21
-145.676
0
LINE
8
BLACK
6
CONTINUOUS
10
115.669
20
-148.057
11
115.574
21
-147.961
0
LINE
8
BLACK
6
CONTINUOUS
10
115.574
20
-147.961
11
115.383
21
-147.676
0
LINE
8
BLACK
6
CONTINUOUS
10
115.383
20
-147.676
11
115.288
21
-147.485
0
LINE
8
BLACK
6
CONTINUOUS
10
115.288
20
-147.485
11
115.193
21
-147.2
0
LINE
8
BLACK
6
CONTINUOUS
10
115.193
20
-147.2
11
115.098
21
-146.723
0
LINE
8
BLACK
6
CONTINUOUS
10
115.098
20
-146.723
11
115.098
21
-146.342
0
LINE
8
BLACK
6
CONTINUOUS
10
115.098
20
-146.342
11
115.193
21
-145.866
0
LINE
8
BLACK
6
CONTINUOUS
10
115.193
20
-145.866
11
115.288
21
-145.58
0
LINE
8
BLACK
6
CONTINUOUS
10
115.288
20
-145.58
11
115.383
21
-145.39
0
LINE
8
BLACK
6
CONTINUOUS
10
115.383
20
-145.39
11
115.574
21
-145.104
0
LINE
8
BLACK
6
CONTINUOUS
10
115.574
20
-145.104
11
115.669
21
-145.009
0
LINE
8
BLACK
6
CONTINUOUS
10
117.479
20
-147.295
11
116.336
21
-147.295
0
LINE
8
BLACK
6
CONTINUOUS
10
116.907
20
-147.295
11
116.907
21
-145.295
0
LINE
8
BLACK
6
CONTINUOUS
10
116.907
20
-145.295
11
116.717
21
-145.58
0
LINE
8
BLACK
6
CONTINUOUS
10
116.717
20
-145.58
11
116.526
21
-145.771
0
LINE
8
BLACK
6
CONTINUOUS
10
116.526
20
-145.771
11
116.336
21
-145.866
0
LINE
8
BLACK
6
CONTINUOUS
10
119.288
20
-145.295
11
118.336
21
-145.295
0
LINE
8
BLACK
6
CONTINUOUS
10
118.336
20
-145.295
11
118.24
21
-146.247
0
LINE
8
BLACK
6
CONTINUOUS
10
118.24
20
-146.247
11
118.336
21
-146.152
0
LINE
8
BLACK
6
CONTINUOUS
10
118.336
20
-146.152
11
118.526
21
-146.057
0
LINE
8
BLACK
6
CONTINUOUS
10
118.526
20
-146.057
11
119.002
21
-146.057
0
LINE
8
BLACK
6
CONTINUOUS
10
119.002
20
-146.057
11
119.193
21
-146.152
0
LINE
8
BLACK
6
CONTINUOUS
10
119.193
20
-146.152
11
119.288
21
-146.247
0
LINE
8
BLACK
6
CONTINUOUS
10
119.288
20
-146.247
11
119.383
21
-146.438
0
LINE
8
BLACK
6
CONTINUOUS
10
119.383
20
-146.438
11
119.383
21
-146.914
0
LINE
8
BLACK
6
CONTINUOUS
10
119.383
20
-146.914
11
119.288
21
-147.104
0
LINE
8
BLACK
6
CONTINUOUS
10
119.288
20
-147.104
11
119.193
21
-147.2
0
LINE
8
BLACK
6
CONTINUOUS
10
119.193
20
-147.2
11
119.002
21
-147.295
0
LINE
8
BLACK
6
CONTINUOUS
10
119.002
20
-147.295
11
118.526
21
-147.295
0
LINE
8
BLACK
6
CONTINUOUS
10
118.526
20
-147.295
11
118.336
21
-147.2
0
LINE
8
BLACK
6
CONTINUOUS
10
118.336
20
-147.2
11
118.24
21
-147.104
0
LINE
8
BLACK
6
CONTINUOUS
10
120.526
20
-146.152
11
120.336
21
-146.057
0
LINE
8
BLACK
6
CONTINUOUS
10
120.336
20
-146.057
11
120.24
21
-145.961
0
LINE
8
BLACK
6
CONTINUOUS
10
120.24
20
-145.961
11
120.145
21
-145.771
0
LINE
8
BLACK
6
CONTINUOUS
10
120.145
20
-145.771
11
120.145
21
-145.676
0
LINE
8
BLACK
6
CONTINUOUS
10
120.145
20
-145.676
11
120.24
21
-145.485
0
LINE
8
BLACK
6
CONTINUOUS
10
120.24
20
-145.485
11
120.336
21
-145.39
0
LINE
8
BLACK
6
CONTINUOUS
10
120.336
20
-145.39
11
120.526
21
-145.295
0
LINE
8
BLACK
6
CONTINUOUS
10
120.526
20
-145.295
11
120.907
21
-145.295
0
LINE
8
BLACK
6
CONTINUOUS
10
120.907
20
-145.295
11
121.098
21
-145.39
0
LINE
8
BLACK
6
CONTINUOUS
10
121.098
20
-145.39
11
121.193
21
-145.485
0
LINE
8
BLACK
6
CONTINUOUS
10
121.193
20
-145.485
11
121.288
21
-145.676
0
LINE
8
BLACK
6
CONTINUOUS
10
121.288
20
-145.676
11
121.288
21
-145.771
0
LINE
8
BLACK
6
CONTINUOUS
10
121.288
20
-145.771
11
121.193
21
-145.961
0
LINE
8
BLACK
6
CONTINUOUS
10
121.193
20
-145.961
11
121.098
21
-146.057
0
LINE
8
BLACK
6
CONTINUOUS
10
121.098
20
-146.057
11
120.907
21
-146.152
0
LINE
8
BLACK
6
CONTINUOUS
10
120.907
20
-146.152
11
120.526
21
-146.152
0
LINE
8
BLACK
6
CONTINUOUS
10
120.526
20
-146.152
11
120.336
21
-146.247
0
LINE
8
BLACK
6
CONTINUOUS
10
120.336
20
-146.247
11
120.24
21
-146.342
0
LINE
8
BLACK
6
CONTINUOUS
10
120.24
20
-146.342
11
120.145
21
-146.533
0
LINE
8
BLACK
6
CONTINUOUS
10
120.145
20
-146.533
11
120.145
21
-146.914
0
LINE
8
BLACK
6
CONTINUOUS
10
120.145
20
-146.914
11
120.24
21
-147.104
0
LINE
8
BLACK
6
CONTINUOUS
10
120.24
20
-147.104
11
120.336
21
-147.2
0
LINE
8
BLACK
6
CONTINUOUS
10
120.336
20
-147.2
11
120.526
21
-147.295
0
LINE
8
BLACK
6
CONTINUOUS
10
120.526
20
-147.295
11
120.907
21
-147.295
0
LINE
8
BLACK
6
CONTINUOUS
10
120.907
20
-147.295
11
121.098
21
-147.2
0
LINE
8
BLACK
6
CONTINUOUS
10
121.098
20
-147.2
11
121.193
21
-147.104
0
LINE
8
BLACK
6
CONTINUOUS
10
121.193
20
-147.104
11
121.288
21
-146.914
0
LINE
8
BLACK
6
CONTINUOUS
10
121.288
20
-146.914
11
121.288
21
-146.533
0
LINE
8
BLACK
6
CONTINUOUS
10
121.288
20
-146.533
11
121.193
21
-146.342
0
LINE
8
BLACK
6
CONTINUOUS
10
121.193
20
-146.342
11
121.098
21
-146.247
0
LINE
8
BLACK
6
CONTINUOUS
10
121.098
20
-146.247
11
120.907
21
-146.152
0
LINE
8
BLACK
6
CONTINUOUS
10
123.669
20
-147.295
11
123.669
21
-145.295
0
LINE
8
BLACK
6
CONTINUOUS
10
124.526
20
-147.295
11
124.526
21
-146.247
0
LINE
8
BLACK
6
CONTINUOUS
10
124.526
20
-146.247
11
124.431
21
-146.057
0
LINE
8
BLACK
6
CONTINUOUS
10
124.431
20
-146.057
11
124.24
21
-145.961
0
LINE
8
BLACK
6
CONTINUOUS
10
124.24
20
-145.961
11
123.955
21
-145.961
0
LINE
8
BLACK
6
CONTINUOUS
10
123.955
20
-145.961
11
123.764
21
-146.057
0
LINE
8
BLACK
6
CONTINUOUS
10
123.764
20
-146.057
11
123.669
21
-146.152
0
LINE
8
BLACK
6
CONTINUOUS
10
125.764
20
-147.295
11
125.574
21
-147.2
0
LINE
8
BLACK
6
CONTINUOUS
10
125.574
20
-147.2
11
125.479
21
-147.104
0
LINE
8
BLACK
6
CONTINUOUS
10
125.479
20
-147.104
11
125.383
21
-146.914
0
LINE
8
BLACK
6
CONTINUOUS
10
125.383
20
-146.914
11
125.383
21
-146.342
0
LINE
8
BLACK
6
CONTINUOUS
10
125.383
20
-146.342
11
125.479
21
-146.152
0
LINE
8
BLACK
6
CONTINUOUS
10
125.479
20
-146.152
11
125.574
21
-146.057
0
LINE
8
BLACK
6
CONTINUOUS
10
125.574
20
-146.057
11
125.764
21
-145.961
0
LINE
8
BLACK
6
CONTINUOUS
10
125.764
20
-145.961
11
126.05
21
-145.961
0
LINE
8
BLACK
6
CONTINUOUS
10
126.05
20
-145.961
11
126.24
21
-146.057
0
LINE
8
BLACK
6
CONTINUOUS
10
126.24
20
-146.057
11
126.336
21
-146.152
0
LINE
8
BLACK
6
CONTINUOUS
10
126.336
20
-146.152
11
126.431
21
-146.342
0
LINE
8
BLACK
6
CONTINUOUS
10
126.431
20
-146.342
11
126.431
21
-146.914
0
LINE
8
BLACK
6
CONTINUOUS
10
126.431
20
-146.914
11
126.336
21
-147.104
0
LINE
8
BLACK
6
CONTINUOUS
10
126.336
20
-147.104
11
126.24
21
-147.2
0
LINE
8
BLACK
6
CONTINUOUS
10
126.24
20
-147.2
11
126.05
21
-147.295
0
LINE
8
BLACK
6
CONTINUOUS
10
126.05
20
-147.295
11
125.764
21
-147.295
0
LINE
8
BLACK
6
CONTINUOUS
10
127.574
20
-147.295
11
127.383
21
-147.2
0
LINE
8
BLACK
6
CONTINUOUS
10
127.383
20
-147.2
11
127.288
21
-147.009
0
LINE
8
BLACK
6
CONTINUOUS
10
127.288
20
-147.009
11
127.288
21
-145.295
0
LINE
8
BLACK
6
CONTINUOUS
10
129.098
20
-147.2
11
128.907
21
-147.295
0
LINE
8
BLACK
6
CONTINUOUS
10
128.907
20
-147.295
11
128.526
21
-147.295
0
LINE
8
BLACK
6
CONTINUOUS
10
128.526
20
-147.295
11
128.336
21
-147.2
0
LINE
8
BLACK
6
CONTINUOUS
10
128.336
20
-147.2
11
128.24
21
-147.009
0
LINE
8
BLACK
6
CONTINUOUS
10
128.24
20
-147.009
11
128.24
21
-146.247
0
LINE
8
BLACK
6
CONTINUOUS
10
128.24
20
-146.247
11
128.336
21
-146.057
0
LINE
8
BLACK
6
CONTINUOUS
10
128.336
20
-146.057
11
128.526
21
-145.961
0
LINE
8
BLACK
6
CONTINUOUS
10
128.526
20
-145.961
11
128.907
21
-145.961
0
LINE
8
BLACK
6
CONTINUOUS
10
128.907
20
-145.961
11
129.098
21
-146.057
0
LINE
8
BLACK
6
CONTINUOUS
10
129.098
20
-146.057
11
129.193
21
-146.247
0
LINE
8
BLACK
6
CONTINUOUS
10
129.193
20
-146.247
11
129.193
21
-146.438
0
LINE
8
BLACK
6
CONTINUOUS
10
129.193
20
-146.438
11
128.24
21
-146.628
0
LINE
8
BLACK
6
CONTINUOUS
10
129.955
20
-147.2
11
130.145
21
-147.295
0
LINE
8
BLACK
6
CONTINUOUS
10
130.145
20
-147.295
11
130.526
21
-147.295
0
LINE
8
BLACK
6
CONTINUOUS
10
130.526
20
-147.295
11
130.717
21
-147.2
0
LINE
8
BLACK
6
CONTINUOUS
10
130.717
20
-147.2
11
130.812
21
-147.009
0
LINE
8
BLACK
6
CONTINUOUS
10
130.812
20
-147.009
11
130.812
21
-146.914
0
LINE
8
BLACK
6
CONTINUOUS
10
130.812
20
-146.914
11
130.717
21
-146.723
0
LINE
8
BLACK
6
CONTINUOUS
10
130.717
20
-146.723
11
130.526
21
-146.628
0
LINE
8
BLACK
6
CONTINUOUS
10
130.526
20
-146.628
11
130.24
21
-146.628
0
LINE
8
BLACK
6
CONTINUOUS
10
130.24
20
-146.628
11
130.05
21
-146.533
0
LINE
8
BLACK
6
CONTINUOUS
10
130.05
20
-146.533
11
129.955
21
-146.342
0
LINE
8
BLACK
6
CONTINUOUS
10
129.955
20
-146.342
11
129.955
21
-146.247
0
LINE
8
BLACK
6
CONTINUOUS
10
129.955
20
-146.247
11
130.05
21
-146.057
0
LINE
8
BLACK
6
CONTINUOUS
10
130.05
20
-146.057
11
130.24
21
-145.961
0
LINE
8
BLACK
6
CONTINUOUS
10
130.24
20
-145.961
11
130.526
21
-145.961
0
LINE
8
BLACK
6
CONTINUOUS
10
130.526
20
-145.961
11
130.717
21
-146.057
0
LINE
8
BLACK
6
CONTINUOUS
10
131.479
20
-148.057
11
131.574
21
-147.961
0
LINE
8
BLACK
6
CONTINUOUS
10
131.574
20
-147.961
11
131.764
21
-147.676
0
LINE
8
BLACK
6
CONTINUOUS
10
131.764
20
-147.676
11
131.86
21
-147.485
0
LINE
8
BLACK
6
CONTINUOUS
10
131.86
20
-147.485
11
131.955
21
-147.2
0
LINE
8
BLACK
6
CONTINUOUS
10
131.955
20
-147.2
11
132.05
21
-146.723
0
LINE
8
BLACK
6
CONTINUOUS
10
132.05
20
-146.723
11
132.05
21
-146.342
0
LINE
8
BLACK
6
CONTINUOUS
10
132.05
20
-146.342
11
131.955
21
-145.866
0
LINE
8
BLACK
6
CONTINUOUS
10
131.955
20
-145.866
11
131.86
21
-145.58
0
LINE
8
BLACK
6
CONTINUOUS
10
131.86
20
-145.58
11
131.764
21
-145.39
0
LINE
8
BLACK
6
CONTINUOUS
10
131.764
20
-145.39
11
131.574
21
-145.104
0
LINE
8
BLACK
6
CONTINUOUS
10
131.574
20
-145.104
11
131.479
21
-145.009
0
LINE
8
BLACK
6
CONTINUOUS
10
79.45
20
-148.53
11
79.45
21
-149.53
0
LINE
8
BLACK
6
CONTINUOUS
10
78.95
20
-149.03
11
79.95
21
-149.03
0
LINE
8
BLACK
6
CONTINUOUS
10
83.5738
20
-149.935
11
82.431
21
-149.935
0
LINE
8
BLACK
6
CONTINUOUS
10
83.0024
20
-149.935
11
83.0024
21
-147.935
0
LINE
8
BLACK
6
CONTINUOUS
10
83.0024
20
-147.935
11
82.8119
21
-148.22
0
LINE
8
BLACK
6
CONTINUOUS
10
82.8119
20
-148.22
11
82.6214
21
-148.411
0
LINE
8
BLACK
6
CONTINUOUS
10
82.6214
20
-148.411
11
82.431
21
-148.506
0
LINE
8
BLACK
6
CONTINUOUS
10
84.431
20
-149.744
11
84.5262
21
-149.84
0
LINE
8
BLACK
6
CONTINUOUS
10
84.5262
20
-149.84
11
84.431
21
-149.935
0
LINE
8
BLACK
6
CONTINUOUS
10
84.431
20
-149.935
11
84.3357
21
-149.84
0
LINE
8
BLACK
6
CONTINUOUS
10
84.3357
20
-149.84
11
84.431
21
-149.744
0
LINE
8
BLACK
6
CONTINUOUS
10
84.431
20
-149.744
11
84.431
21
-149.935
0
LINE
8
BLACK
6
CONTINUOUS
10
85.7643
20
-147.935
11
85.9548
21
-147.935
0
LINE
8
BLACK
6
CONTINUOUS
10
85.9548
20
-147.935
11
86.1452
21
-148.03
0
LINE
8
BLACK
6
CONTINUOUS
10
86.1452
20
-148.03
11
86.2405
21
-148.125
0
LINE
8
BLACK
6
CONTINUOUS
10
86.2405
20
-148.125
11
86.3357
21
-148.316
0
LINE
8
BLACK
6
CONTINUOUS
10
86.3357
20
-148.316
11
86.431
21
-148.697
0
LINE
8
BLACK
6
CONTINUOUS
10
86.431
20
-148.697
11
86.431
21
-149.173
0
LINE
8
BLACK
6
CONTINUOUS
10
86.431
20
-149.173
11
86.3357
21
-149.554
0
LINE
8
BLACK
6
CONTINUOUS
10
86.3357
20
-149.554
11
86.2405
21
-149.744
0
LINE
8
BLACK
6
CONTINUOUS
10
86.2405
20
-149.744
11
86.1452
21
-149.84
0
LINE
8
BLACK
6
CONTINUOUS
10
86.1452
20
-149.84
11
85.9548
21
-149.935
0
LINE
8
BLACK
6
CONTINUOUS
10
85.9548
20
-149.935
11
85.7643
21
-149.935
0
LINE
8
BLACK
6
CONTINUOUS
10
85.7643
20
-149.935
11
85.5738
21
-149.84
0
LINE
8
BLACK
6
CONTINUOUS
10
85.5738
20
-149.84
11
85.4786
21
-149.744
0
LINE
8
BLACK
6
CONTINUOUS
10
85.4786
20
-149.744
11
85.3833
21
-149.554
0
LINE
8
BLACK
6
CONTINUOUS
10
85.3833
20
-149.554
11
85.2881
21
-149.173
0
LINE
8
BLACK
6
CONTINUOUS
10
85.2881
20
-149.173
11
85.2881
21
-148.697
0
LINE
8
BLACK
6
CONTINUOUS
10
85.2881
20
-148.697
11
85.3833
21
-148.316
0
LINE
8
BLACK
6
CONTINUOUS
10
85.3833
20
-148.316
11
85.4786
21
-148.125
0
LINE
8
BLACK
6
CONTINUOUS
10
85.4786
20
-148.125
11
85.5738
21
-148.03
0
LINE
8
BLACK
6
CONTINUOUS
10
85.5738
20
-148.03
11
85.7643
21
-147.935
0
LINE
8
BLACK
6
CONTINUOUS
10
87.669
20
-147.935
11
87.8595
21
-147.935
0
LINE
8
BLACK
6
CONTINUOUS
10
87.8595
20
-147.935
11
88.05
21
-148.03
0
LINE
8
BLACK
6
CONTINUOUS
10
88.05
20
-148.03
11
88.1452
21
-148.125
0
LINE
8
BLACK
6
CONTINUOUS
10
88.1452
20
-148.125
11
88.2405
21
-148.316
0
LINE
8
BLACK
6
CONTINUOUS
10
88.2405
20
-148.316
11
88.3357
21
-148.697
0
LINE
8
BLACK
6
CONTINUOUS
10
88.3357
20
-148.697
11
88.3357
21
-149.173
0
LINE
8
BLACK
6
CONTINUOUS
10
88.3357
20
-149.173
11
88.2405
21
-149.554
0
LINE
8
BLACK
6
CONTINUOUS
10
88.2405
20
-149.554
11
88.1452
21
-149.744
0
LINE
8
BLACK
6
CONTINUOUS
10
88.1452
20
-149.744
11
88.05
21
-149.84
0
LINE
8
BLACK
6
CONTINUOUS
10
88.05
20
-149.84
11
87.8595
21
-149.935
0
LINE
8
BLACK
6
CONTINUOUS
10
87.8595
20
-149.935
11
87.669
21
-149.935
0
LINE
8
BLACK
6
CONTINUOUS
10
87.669
20
-149.935
11
87.4786
21
-149.84
0
LINE
8
BLACK
6
CONTINUOUS
10
87.4786
20
-149.84
11
87.3833
21
-149.744
0
LINE
8
BLACK
6
CONTINUOUS
10
87.3833
20
-149.744
11
87.2881
21
-149.554
0
LINE
8
BLACK
6
CONTINUOUS
10
87.2881
20
-149.554
11
87.1929
21
-149.173
0
LINE
8
BLACK
6
CONTINUOUS
10
87.1929
20
-149.173
11
87.1929
21
-148.697
0
LINE
8
BLACK
6
CONTINUOUS
10
87.1929
20
-148.697
11
87.2881
21
-148.316
0
LINE
8
BLACK
6
CONTINUOUS
10
87.2881
20
-148.316
11
87.3833
21
-148.125
0
LINE
8
BLACK
6
CONTINUOUS
10
87.3833
20
-148.125
11
87.4786
21
-148.03
0
LINE
8
BLACK
6
CONTINUOUS
10
87.4786
20
-148.03
11
87.669
21
-147.935
0
LINE
8
BLACK
6
CONTINUOUS
10
89.5738
20
-147.935
11
89.7643
21
-147.935
0
LINE
8
BLACK
6
CONTINUOUS
10
89.7643
20
-147.935
11
89.9548
21
-148.03
0
LINE
8
BLACK
6
CONTINUOUS
10
89.9548
20
-148.03
11
90.05
21
-148.125
0
LINE
8
BLACK
6
CONTINUOUS
10
90.05
20
-148.125
11
90.1452
21
-148.316
0
LINE
8
BLACK
6
CONTINUOUS
10
90.1452
20
-148.316
11
90.2405
21
-148.697
0
LINE
8
BLACK
6
CONTINUOUS
10
90.2405
20
-148.697
11
90.2405
21
-149.173
0
LINE
8
BLACK
6
CONTINUOUS
10
90.2405
20
-149.173
11
90.1452
21
-149.554
0
LINE
8
BLACK
6
CONTINUOUS
10
90.1452
20
-149.554
11
90.05
21
-149.744
0
LINE
8
BLACK
6
CONTINUOUS
10
90.05
20
-149.744
11
89.9548
21
-149.84
0
LINE
8
BLACK
6
CONTINUOUS
10
89.9548
20
-149.84
11
89.7643
21
-149.935
0
LINE
8
BLACK
6
CONTINUOUS
10
89.7643
20
-149.935
11
89.5738
21
-149.935
0
LINE
8
BLACK
6
CONTINUOUS
10
89.5738
20
-149.935
11
89.3833
21
-149.84
0
LINE
8
BLACK
6
CONTINUOUS
10
89.3833
20
-149.84
11
89.2881
21
-149.744
0
LINE
8
BLACK
6
CONTINUOUS
10
89.2881
20
-149.744
11
89.1929
21
-149.554
0
LINE
8
BLACK
6
CONTINUOUS
10
89.1929
20
-149.554
11
89.0976
21
-149.173
0
LINE
8
BLACK
6
CONTINUOUS
10
89.0976
20
-149.173
11
89.0976
21
-148.697
0
LINE
8
BLACK
6
CONTINUOUS
10
89.0976
20
-148.697
11
89.1929
21
-148.316
0
LINE
8
BLACK
6
CONTINUOUS
10
89.1929
20
-148.316
11
89.2881
21
-148.125
0
LINE
8
BLACK
6
CONTINUOUS
10
89.2881
20
-148.125
11
89.3833
21
-148.03
0
LINE
8
BLACK
6
CONTINUOUS
10
89.3833
20
-148.03
11
89.5738
21
-147.935
0
LINE
8
BLACK
6
CONTINUOUS
10
91.0976
20
-149.935
11
91.0976
21
-148.601
0
LINE
8
BLACK
6
CONTINUOUS
10
91.0976
20
-148.792
11
91.1929
21
-148.697
0
LINE
8
BLACK
6
CONTINUOUS
10
91.1929
20
-148.697
11
91.3833
21
-148.601
0
LINE
8
BLACK
6
CONTINUOUS
10
91.3833
20
-148.601
11
91.669
21
-148.601
0
LINE
8
BLACK
6
CONTINUOUS
10
91.669
20
-148.601
11
91.8595
21
-148.697
0
LINE
8
BLACK
6
CONTINUOUS
10
91.8595
20
-148.697
11
91.9548
21
-148.887
0
LINE
8
BLACK
6
CONTINUOUS
10
91.9548
20
-148.887
11
91.9548
21
-149.935
0
LINE
8
BLACK
6
CONTINUOUS
10
91.9548
20
-148.887
11
92.05
21
-148.697
0
LINE
8
BLACK
6
CONTINUOUS
10
92.05
20
-148.697
11
92.2405
21
-148.601
0
LINE
8
BLACK
6
CONTINUOUS
10
92.2405
20
-148.601
11
92.5262
21
-148.601
0
LINE
8
BLACK
6
CONTINUOUS
10
92.5262
20
-148.601
11
92.7167
21
-148.697
0
LINE
8
BLACK
6
CONTINUOUS
10
92.7167
20
-148.697
11
92.8119
21
-148.887
0
LINE
8
BLACK
6
CONTINUOUS
10
92.8119
20
-148.887
11
92.8119
21
-149.935
0
LINE
8
BLACK
6
CONTINUOUS
10
93.7643
20
-149.935
11
93.7643
21
-148.601
0
LINE
8
BLACK
6
CONTINUOUS
10
93.7643
20
-148.792
11
93.8595
21
-148.697
0
LINE
8
BLACK
6
CONTINUOUS
10
93.8595
20
-148.697
11
94.05
21
-148.601
0
LINE
8
BLACK
6
CONTINUOUS
10
94.05
20
-148.601
11
94.3357
21
-148.601
0
LINE
8
BLACK
6
CONTINUOUS
10
94.3357
20
-148.601
11
94.5262
21
-148.697
0
LINE
8
BLACK
6
CONTINUOUS
10
94.5262
20
-148.697
11
94.6214
21
-148.887
0
LINE
8
BLACK
6
CONTINUOUS
10
94.6214
20
-148.887
11
94.6214
21
-149.935
0
LINE
8
BLACK
6
CONTINUOUS
10
94.6214
20
-148.887
11
94.7167
21
-148.697
0
LINE
8
BLACK
6
CONTINUOUS
10
94.7167
20
-148.697
11
94.9071
21
-148.601
0
LINE
8
BLACK
6
CONTINUOUS
10
94.9071
20
-148.601
11
95.1929
21
-148.601
0
LINE
8
BLACK
6
CONTINUOUS
10
95.1929
20
-148.601
11
95.3833
21
-148.697
0
LINE
8
BLACK
6
CONTINUOUS
10
95.3833
20
-148.697
11
95.4786
21
-148.887
0
LINE
8
BLACK
6
CONTINUOUS
10
95.4786
20
-148.887
11
95.4786
21
-149.935
0
LINE
8
BLACK
6
CONTINUOUS
10
99.3833
20
-147.84
11
97.669
21
-150.411
0
LINE
8
BLACK
6
CONTINUOUS
10
101.955
20
-147.935
11
102.145
21
-147.935
0
LINE
8
BLACK
6
CONTINUOUS
10
102.145
20
-147.935
11
102.336
21
-148.03
0
LINE
8
BLACK
6
CONTINUOUS
10
102.336
20
-148.03
11
102.431
21
-148.125
0
LINE
8
BLACK
6
CONTINUOUS
10
102.431
20
-148.125
11
102.526
21
-148.316
0
LINE
8
BLACK
6
CONTINUOUS
10
102.526
20
-148.316
11
102.621
21
-148.697
0
LINE
8
BLACK
6
CONTINUOUS
10
102.621
20
-148.697
11
102.621
21
-149.173
0
LINE
8
BLACK
6
CONTINUOUS
10
102.621
20
-149.173
11
102.526
21
-149.554
0
LINE
8
BLACK
6
CONTINUOUS
10
102.526
20
-149.554
11
102.431
21
-149.744
0
LINE
8
BLACK
6
CONTINUOUS
10
102.431
20
-149.744
11
102.336
21
-149.84
0
LINE
8
BLACK
6
CONTINUOUS
10
102.336
20
-149.84
11
102.145
21
-149.935
0
LINE
8
BLACK
6
CONTINUOUS
10
102.145
20
-149.935
11
101.955
21
-149.935
0
LINE
8
BLACK
6
CONTINUOUS
10
101.955
20
-149.935
11
101.764
21
-149.84
0
LINE
8
BLACK
6
CONTINUOUS
10
101.764
20
-149.84
11
101.669
21
-149.744
0
LINE
8
BLACK
6
CONTINUOUS
10
101.669
20
-149.744
11
101.574
21
-149.554
0
LINE
8
BLACK
6
CONTINUOUS
10
101.574
20
-149.554
11
101.479
21
-149.173
0
LINE
8
BLACK
6
CONTINUOUS
10
101.479
20
-149.173
11
101.479
21
-148.697
0
LINE
8
BLACK
6
CONTINUOUS
10
101.479
20
-148.697
11
101.574
21
-148.316
0
LINE
8
BLACK
6
CONTINUOUS
10
101.574
20
-148.316
11
101.669
21
-148.125
0
LINE
8
BLACK
6
CONTINUOUS
10
101.669
20
-148.125
11
101.764
21
-148.03
0
LINE
8
BLACK
6
CONTINUOUS
10
101.764
20
-148.03
11
101.955
21
-147.935
0
LINE
8
BLACK
6
CONTINUOUS
10
103.479
20
-149.744
11
103.574
21
-149.84
0
LINE
8
BLACK
6
CONTINUOUS
10
103.574
20
-149.84
11
103.479
21
-149.935
0
LINE
8
BLACK
6
CONTINUOUS
10
103.479
20
-149.935
11
103.383
21
-149.84
0
LINE
8
BLACK
6
CONTINUOUS
10
103.383
20
-149.84
11
103.479
21
-149.744
0
LINE
8
BLACK
6
CONTINUOUS
10
103.479
20
-149.744
11
103.479
21
-149.935
0
LINE
8
BLACK
6
CONTINUOUS
10
104.812
20
-147.935
11
105.002
21
-147.935
0
LINE
8
BLACK
6
CONTINUOUS
10
105.002
20
-147.935
11
105.193
21
-148.03
0
LINE
8
BLACK
6
CONTINUOUS
10
105.193
20
-148.03
11
105.288
21
-148.125
0
LINE
8
BLACK
6
CONTINUOUS
10
105.288
20
-148.125
11
105.383
21
-148.316
0
LINE
8
BLACK
6
CONTINUOUS
10
105.383
20
-148.316
11
105.479
21
-148.697
0
LINE
8
BLACK
6
CONTINUOUS
10
105.479
20
-148.697
11
105.479
21
-149.173
0
LINE
8
BLACK
6
CONTINUOUS
10
105.479
20
-149.173
11
105.383
21
-149.554
0
LINE
8
BLACK
6
CONTINUOUS
10
105.383
20
-149.554
11
105.288
21
-149.744
0
LINE
8
BLACK
6
CONTINUOUS
10
105.288
20
-149.744
11
105.193
21
-149.84
0
LINE
8
BLACK
6
CONTINUOUS
10
105.193
20
-149.84
11
105.002
21
-149.935
0
LINE
8
BLACK
6
CONTINUOUS
10
105.002
20
-149.935
11
104.812
21
-149.935
0
LINE
8
BLACK
6
CONTINUOUS
10
104.812
20
-149.935
11
104.621
21
-149.84
0
LINE
8
BLACK
6
CONTINUOUS
10
104.621
20
-149.84
11
104.526
21
-149.744
0
LINE
8
BLACK
6
CONTINUOUS
10
104.526
20
-149.744
11
104.431
21
-149.554
0
LINE
8
BLACK
6
CONTINUOUS
10
104.431
20
-149.554
11
104.336
21
-149.173
0
LINE
8
BLACK
6
CONTINUOUS
10
104.336
20
-149.173
11
104.336
21
-148.697
0
LINE
8
BLACK
6
CONTINUOUS
10
104.336
20
-148.697
11
104.431
21
-148.316
0
LINE
8
BLACK
6
CONTINUOUS
10
104.431
20
-148.316
11
104.526
21
-148.125
0
LINE
8
BLACK
6
CONTINUOUS
10
104.526
20
-148.125
11
104.621
21
-148.03
0
LINE
8
BLACK
6
CONTINUOUS
10
104.621
20
-148.03
11
104.812
21
-147.935
0
LINE
8
BLACK
6
CONTINUOUS
10
106.145
20
-147.935
11
107.383
21
-147.935
0
LINE
8
BLACK
6
CONTINUOUS
10
107.383
20
-147.935
11
106.717
21
-148.697
0
LINE
8
BLACK
6
CONTINUOUS
10
106.717
20
-148.697
11
107.002
21
-148.697
0
LINE
8
BLACK
6
CONTINUOUS
10
107.002
20
-148.697
11
107.193
21
-148.792
0
LINE
8
BLACK
6
CONTINUOUS
10
107.193
20
-148.792
11
107.288
21
-148.887
0
LINE
8
BLACK
6
CONTINUOUS
10
107.288
20
-148.887
11
107.383
21
-149.078
0
LINE
8
BLACK
6
CONTINUOUS
10
107.383
20
-149.078
11
107.383
21
-149.554
0
LINE
8
BLACK
6
CONTINUOUS
10
107.383
20
-149.554
11
107.288
21
-149.744
0
LINE
8
BLACK
6
CONTINUOUS
10
107.288
20
-149.744
11
107.193
21
-149.84
0
LINE
8
BLACK
6
CONTINUOUS
10
107.193
20
-149.84
11
107.002
21
-149.935
0
LINE
8
BLACK
6
CONTINUOUS
10
107.002
20
-149.935
11
106.431
21
-149.935
0
LINE
8
BLACK
6
CONTINUOUS
10
106.431
20
-149.935
11
106.24
21
-149.84
0
LINE
8
BLACK
6
CONTINUOUS
10
106.24
20
-149.84
11
106.145
21
-149.744
0
LINE
8
BLACK
6
CONTINUOUS
10
108.336
20
-149.935
11
108.717
21
-149.935
0
LINE
8
BLACK
6
CONTINUOUS
10
108.717
20
-149.935
11
108.907
21
-149.84
0
LINE
8
BLACK
6
CONTINUOUS
10
108.907
20
-149.84
11
109.002
21
-149.744
0
LINE
8
BLACK
6
CONTINUOUS
10
109.002
20
-149.744
11
109.193
21
-149.459
0
LINE
8
BLACK
6
CONTINUOUS
10
109.193
20
-149.459
11
109.288
21
-149.078
0
LINE
8
BLACK
6
CONTINUOUS
10
109.288
20
-149.078
11
109.288
21
-148.316
0
LINE
8
BLACK
6
CONTINUOUS
10
109.288
20
-148.316
11
109.193
21
-148.125
0
LINE
8
BLACK
6
CONTINUOUS
10
109.193
20
-148.125
11
109.098
21
-148.03
0
LINE
8
BLACK
6
CONTINUOUS
10
109.098
20
-148.03
11
108.907
21
-147.935
0
LINE
8
BLACK
6
CONTINUOUS
10
108.907
20
-147.935
11
108.526
21
-147.935
0
LINE
8
BLACK
6
CONTINUOUS
10
108.526
20
-147.935
11
108.336
21
-148.03
0
LINE
8
BLACK
6
CONTINUOUS
10
108.336
20
-148.03
11
108.24
21
-148.125
0
LINE
8
BLACK
6
CONTINUOUS
10
108.24
20
-148.125
11
108.145
21
-148.316
0
LINE
8
BLACK
6
CONTINUOUS
10
108.145
20
-148.316
11
108.145
21
-148.792
0
LINE
8
BLACK
6
CONTINUOUS
10
108.145
20
-148.792
11
108.24
21
-148.982
0
LINE
8
BLACK
6
CONTINUOUS
10
108.24
20
-148.982
11
108.336
21
-149.078
0
LINE
8
BLACK
6
CONTINUOUS
10
108.336
20
-149.078
11
108.526
21
-149.173
0
LINE
8
BLACK
6
CONTINUOUS
10
108.526
20
-149.173
11
108.907
21
-149.173
0
LINE
8
BLACK
6
CONTINUOUS
10
108.907
20
-149.173
11
109.098
21
-149.078
0
LINE
8
BLACK
6
CONTINUOUS
10
109.098
20
-149.078
11
109.193
21
-148.982
0
LINE
8
BLACK
6
CONTINUOUS
10
109.193
20
-148.982
11
109.288
21
-148.792
0
LINE
8
BLACK
6
CONTINUOUS
10
111.002
20
-148.601
11
111.002
21
-149.935
0
LINE
8
BLACK
6
CONTINUOUS
10
110.526
20
-147.84
11
110.05
21
-149.268
0
LINE
8
BLACK
6
CONTINUOUS
10
110.05
20
-149.268
11
111.288
21
-149.268
0
LINE
8
BLACK
6
CONTINUOUS
10
111.955
20
-147.935
11
111.955
21
-148.316
0
LINE
8
BLACK
6
CONTINUOUS
10
112.717
20
-147.935
11
112.717
21
-148.316
0
LINE
8
BLACK
6
CONTINUOUS
10
115.669
20
-150.697
11
115.574
21
-150.601
0
LINE
8
BLACK
6
CONTINUOUS
10
115.574
20
-150.601
11
115.383
21
-150.316
0
LINE
8
BLACK
6
CONTINUOUS
10
115.383
20
-150.316
11
115.288
21
-150.125
0
LINE
8
BLACK
6
CONTINUOUS
10
115.288
20
-150.125
11
115.193
21
-149.84
0
LINE
8
BLACK
6
CONTINUOUS
10
115.193
20
-149.84
11
115.098
21
-149.363
0
LINE
8
BLACK
6
CONTINUOUS
10
115.098
20
-149.363
11
115.098
21
-148.982
0
LINE
8
BLACK
6
CONTINUOUS
10
115.098
20
-148.982
11
115.193
21
-148.506
0
LINE
8
BLACK
6
CONTINUOUS
10
115.193
20
-148.506
11
115.288
21
-148.22
0
LINE
8
BLACK
6
CONTINUOUS
10
115.288
20
-148.22
11
115.383
21
-148.03
0
LINE
8
BLACK
6
CONTINUOUS
10
115.383
20
-148.03
11
115.574
21
-147.744
0
LINE
8
BLACK
6
CONTINUOUS
10
115.574
20
-147.744
11
115.669
21
-147.649
0
LINE
8
BLACK
6
CONTINUOUS
10
117.479
20
-149.935
11
116.336
21
-149.935
0
LINE
8
BLACK
6
CONTINUOUS
10
116.907
20
-149.935
11
116.907
21
-147.935
0
LINE
8
BLACK
6
CONTINUOUS
10
116.907
20
-147.935
11
116.717
21
-148.22
0
LINE
8
BLACK
6
CONTINUOUS
10
116.717
20
-148.22
11
116.526
21
-148.411
0
LINE
8
BLACK
6
CONTINUOUS
10
116.526
20
-148.411
11
116.336
21
-148.506
0
LINE
8
BLACK
6
CONTINUOUS
10
118.145
20
-147.935
11
119.383
21
-147.935
0
LINE
8
BLACK
6
CONTINUOUS
10
119.383
20
-147.935
11
118.717
21
-148.697
0
LINE
8
BLACK
6
CONTINUOUS
10
118.717
20
-148.697
11
119.002
21
-148.697
0
LINE
8
BLACK
6
CONTINUOUS
10
119.002
20
-148.697
11
119.193
21
-148.792
0
LINE
8
BLACK
6
CONTINUOUS
10
119.193
20
-148.792
11
119.288
21
-148.887
0
LINE
8
BLACK
6
CONTINUOUS
10
119.288
20
-148.887
11
119.383
21
-149.078
0
LINE
8
BLACK
6
CONTINUOUS
10
119.383
20
-149.078
11
119.383
21
-149.554
0
LINE
8
BLACK
6
CONTINUOUS
10
119.383
20
-149.554
11
119.288
21
-149.744
0
LINE
8
BLACK
6
CONTINUOUS
10
119.288
20
-149.744
11
119.193
21
-149.84
0
LINE
8
BLACK
6
CONTINUOUS
10
119.193
20
-149.84
11
119.002
21
-149.935
0
LINE
8
BLACK
6
CONTINUOUS
10
119.002
20
-149.935
11
118.431
21
-149.935
0
LINE
8
BLACK
6
CONTINUOUS
10
118.431
20
-149.935
11
118.24
21
-149.84
0
LINE
8
BLACK
6
CONTINUOUS
10
118.24
20
-149.84
11
118.145
21
-149.744
0
LINE
8
BLACK
6
CONTINUOUS
10
121.098
20
-148.601
11
121.098
21
-149.935
0
LINE
8
BLACK
6
CONTINUOUS
10
120.621
20
-147.84
11
120.145
21
-149.268
0
LINE
8
BLACK
6
CONTINUOUS
10
120.145
20
-149.268
11
121.383
21
-149.268
0
LINE
8
BLACK
6
CONTINUOUS
10
123.669
20
-149.935
11
123.669
21
-147.935
0
LINE
8
BLACK
6
CONTINUOUS
10
124.526
20
-149.935
11
124.526
21
-148.887
0
LINE
8
BLACK
6
CONTINUOUS
10
124.526
20
-148.887
11
124.431
21
-148.697
0
LINE
8
BLACK
6
CONTINUOUS
10
124.431
20
-148.697
11
124.24
21
-148.601
0
LINE
8
BLACK
6
CONTINUOUS
10
124.24
20
-148.601
11
123.955
21
-148.601
0
LINE
8
BLACK
6
CONTINUOUS
10
123.955
20
-148.601
11
123.764
21
-148.697
0
LINE
8
BLACK
6
CONTINUOUS
10
123.764
20
-148.697
11
123.669
21
-148.792
0
LINE
8
BLACK
6
CONTINUOUS
10
125.764
20
-149.935
11
125.574
21
-149.84
0
LINE
8
BLACK
6
CONTINUOUS
10
125.574
20
-149.84
11
125.479
21
-149.744
0
LINE
8
BLACK
6
CONTINUOUS
10
125.479
20
-149.744
11
125.383
21
-149.554
0
LINE
8
BLACK
6
CONTINUOUS
10
125.383
20
-149.554
11
125.383
21
-148.982
0
LINE
8
BLACK
6
CONTINUOUS
10
125.383
20
-148.982
11
125.479
21
-148.792
0
LINE
8
BLACK
6
CONTINUOUS
10
125.479
20
-148.792
11
125.574
21
-148.697
0
LINE
8
BLACK
6
CONTINUOUS
10
125.574
20
-148.697
11
125.764
21
-148.601
0
LINE
8
BLACK
6
CONTINUOUS
10
125.764
20
-148.601
11
126.05
21
-148.601
0
LINE
8
BLACK
6
CONTINUOUS
10
126.05
20
-148.601
11
126.24
21
-148.697
0
LINE
8
BLACK
6
CONTINUOUS
10
126.24
20
-148.697
11
126.336
21
-148.792
0
LINE
8
BLACK
6
CONTINUOUS
10
126.336
20
-148.792
11
126.431
21
-148.982
0
LINE
8
BLACK
6
CONTINUOUS
10
126.431
20
-148.982
11
126.431
21
-149.554
0
LINE
8
BLACK
6
CONTINUOUS
10
126.431
20
-149.554
11
126.336
21
-149.744
0
LINE
8
BLACK
6
CONTINUOUS
10
126.336
20
-149.744
11
126.24
21
-149.84
0
LINE
8
BLACK
6
CONTINUOUS
10
126.24
20
-149.84
11
126.05
21
-149.935
0
LINE
8
BLACK
6
CONTINUOUS
10
126.05
20
-149.935
11
125.764
21
-149.935
0
LINE
8
BLACK
6
CONTINUOUS
10
127.574
20
-149.935
11
127.383
21
-149.84
0
LINE
8
BLACK
6
CONTINUOUS
10
127.383
20
-149.84
11
127.288
21
-149.649
0
LINE
8
BLACK
6
CONTINUOUS
10
127.288
20
-149.649
11
127.288
21
-147.935
0
LINE
8
BLACK
6
CONTINUOUS
10
129.098
20
-149.84
11
128.907
21
-149.935
0
LINE
8
BLACK
6
CONTINUOUS
10
128.907
20
-149.935
11
128.526
21
-149.935
0
LINE
8
BLACK
6
CONTINUOUS
10
128.526
20
-149.935
11
128.336
21
-149.84
0
LINE
8
BLACK
6
CONTINUOUS
10
128.336
20
-149.84
11
128.24
21
-149.649
0
LINE
8
BLACK
6
CONTINUOUS
10
128.24
20
-149.649
11
128.24
21
-148.887
0
LINE
8
BLACK
6
CONTINUOUS
10
128.24
20
-148.887
11
128.336
21
-148.697
0
LINE
8
BLACK
6
CONTINUOUS
10
128.336
20
-148.697
11
128.526
21
-148.601
0
LINE
8
BLACK
6
CONTINUOUS
10
128.526
20
-148.601
11
128.907
21
-148.601
0
LINE
8
BLACK
6
CONTINUOUS
10
128.907
20
-148.601
11
129.098
21
-148.697
0
LINE
8
BLACK
6
CONTINUOUS
10
129.098
20
-148.697
11
129.193
21
-148.887
0
LINE
8
BLACK
6
CONTINUOUS
10
129.193
20
-148.887
11
129.193
21
-149.078
0
LINE
8
BLACK
6
CONTINUOUS
10
129.193
20
-149.078
11
128.24
21
-149.268
0
LINE
8
BLACK
6
CONTINUOUS
10
129.955
20
-149.84
11
130.145
21
-149.935
0
LINE
8
BLACK
6
CONTINUOUS
10
130.145
20
-149.935
11
130.526
21
-149.935
0
LINE
8
BLACK
6
CONTINUOUS
10
130.526
20
-149.935
11
130.717
21
-149.84
0
LINE
8
BLACK
6
CONTINUOUS
10
130.717
20
-149.84
11
130.812
21
-149.649
0
LINE
8
BLACK
6
CONTINUOUS
10
130.812
20
-149.649
11
130.812
21
-149.554
0
LINE
8
BLACK
6
CONTINUOUS
10
130.812
20
-149.554
11
130.717
21
-149.363
0
LINE
8
BLACK
6
CONTINUOUS
10
130.717
20
-149.363
11
130.526
21
-149.268
0
LINE
8
BLACK
6
CONTINUOUS
10
130.526
20
-149.268
11
130.24
21
-149.268
0
LINE
8
BLACK
6
CONTINUOUS
10
130.24
20
-149.268
11
130.05
21
-149.173
0
LINE
8
BLACK
6
CONTINUOUS
10
130.05
20
-149.173
11
129.955
21
-148.982
0
LINE
8
BLACK
6
CONTINUOUS
10
129.955
20
-148.982
11
129.955
21
-148.887
0
LINE
8
BLACK
6
CONTINUOUS
10
129.955
20
-148.887
11
130.05
21
-148.697
0
LINE
8
BLACK
6
CONTINUOUS
10
130.05
20
-148.697
11
130.24
21
-148.601
0
LINE
8
BLACK
6
CONTINUOUS
10
130.24
20
-148.601
11
130.526
21
-148.601
0
LINE
8
BLACK
6
CONTINUOUS
10
130.526
20
-148.601
11
130.717
21
-148.697
0
LINE
8
BLACK
6
CONTINUOUS
10
131.479
20
-150.697
11
131.574
21
-150.601
0
LINE
8
BLACK
6
CONTINUOUS
10
131.574
20
-150.601
11
131.764
21
-150.316
0
LINE
8
BLACK
6
CONTINUOUS
10
131.764
20
-150.316
11
131.86
21
-150.125
0
LINE
8
BLACK
6
CONTINUOUS
10
131.86
20
-150.125
11
131.955
21
-149.84
0
LINE
8
BLACK
6
CONTINUOUS
10
131.955
20
-149.84
11
132.05
21
-149.363
0
LINE
8
BLACK
6
CONTINUOUS
10
132.05
20
-149.363
11
132.05
21
-148.982
0
LINE
8
BLACK
6
CONTINUOUS
10
132.05
20
-148.982
11
131.955
21
-148.506
0
LINE
8
BLACK
6
CONTINUOUS
10
131.955
20
-148.506
11
131.86
21
-148.22
0
LINE
8
BLACK
6
CONTINUOUS
10
131.86
20
-148.22
11
131.764
21
-148.03
0
LINE
8
BLACK
6
CONTINUOUS
10
131.764
20
-148.03
11
131.574
21
-147.744
0
LINE
8
BLACK
6
CONTINUOUS
10
131.574
20
-147.744
11
131.479
21
-147.649
0
LINE
8
BLACK
6
CONTINUOUS
10
79.8006
20
-152.031
11
79.8006
21
-151.309
0
LINE
8
BLACK
6
CONTINUOUS
10
79.8006
20
-151.309
11
79.0794
21
-151.309
0
LINE
8
BLACK
6
CONTINUOUS
10
79.0794
20
-151.309
11
79.0794
21
-152.031
0
LINE
8
BLACK
6
CONTINUOUS
10
79.0794
20
-152.031
11
79.8006
21
-152.031
0
LINE
8
BLACK
6
CONTINUOUS
10
83.5738
20
-152.575
11
82.431
21
-152.575
0
LINE
8
BLACK
6
CONTINUOUS
10
83.0024
20
-152.575
11
83.0024
21
-150.575
0
LINE
8
BLACK
6
CONTINUOUS
10
83.0024
20
-150.575
11
82.8119
21
-150.86
0
LINE
8
BLACK
6
CONTINUOUS
10
82.8119
20
-150.86
11
82.6214
21
-151.051
0
LINE
8
BLACK
6
CONTINUOUS
10
82.6214
20
-151.051
11
82.431
21
-151.146
0
LINE
8
BLACK
6
CONTINUOUS
10
84.431
20
-152.384
11
84.5262
21
-152.48
0
LINE
8
BLACK
6
CONTINUOUS
10
84.5262
20
-152.48
11
84.431
21
-152.575
0
LINE
8
BLACK
6
CONTINUOUS
10
84.431
20
-152.575
11
84.3357
21
-152.48
0
LINE
8
BLACK
6
CONTINUOUS
10
84.3357
20
-152.48
11
84.431
21
-152.384
0
LINE
8
BLACK
6
CONTINUOUS
10
84.431
20
-152.384
11
84.431
21
-152.575
0
LINE
8
BLACK
6
CONTINUOUS
10
85.7643
20
-150.575
11
85.9548
21
-150.575
0
LINE
8
BLACK
6
CONTINUOUS
10
85.9548
20
-150.575
11
86.1452
21
-150.67
0
LINE
8
BLACK
6
CONTINUOUS
10
86.1452
20
-150.67
11
86.2405
21
-150.765
0
LINE
8
BLACK
6
CONTINUOUS
10
86.2405
20
-150.765
11
86.3357
21
-150.956
0
LINE
8
BLACK
6
CONTINUOUS
10
86.3357
20
-150.956
11
86.431
21
-151.337
0
LINE
8
BLACK
6
CONTINUOUS
10
86.431
20
-151.337
11
86.431
21
-151.813
0
LINE
8
BLACK
6
CONTINUOUS
10
86.431
20
-151.813
11
86.3357
21
-152.194
0
LINE
8
BLACK
6
CONTINUOUS
10
86.3357
20
-152.194
11
86.2405
21
-152.384
0
LINE
8
BLACK
6
CONTINUOUS
10
86.2405
20
-152.384
11
86.1452
21
-152.48
0
LINE
8
BLACK
6
CONTINUOUS
10
86.1452
20
-152.48
11
85.9548
21
-152.575
0
LINE
8
BLACK
6
CONTINUOUS
10
85.9548
20
-152.575
11
85.7643
21
-152.575
0
LINE
8
BLACK
6
CONTINUOUS
10
85.7643
20
-152.575
11
85.5738
21
-152.48
0
LINE
8
BLACK
6
CONTINUOUS
10
85.5738
20
-152.48
11
85.4786
21
-152.384
0
LINE
8
BLACK
6
CONTINUOUS
10
85.4786
20
-152.384
11
85.3833
21
-152.194
0
LINE
8
BLACK
6
CONTINUOUS
10
85.3833
20
-152.194
11
85.2881
21
-151.813
0
LINE
8
BLACK
6
CONTINUOUS
10
85.2881
20
-151.813
11
85.2881
21
-151.337
0
LINE
8
BLACK
6
CONTINUOUS
10
85.2881
20
-151.337
11
85.3833
21
-150.956
0
LINE
8
BLACK
6
CONTINUOUS
10
85.3833
20
-150.956
11
85.4786
21
-150.765
0
LINE
8
BLACK
6
CONTINUOUS
10
85.4786
20
-150.765
11
85.5738
21
-150.67
0
LINE
8
BLACK
6
CONTINUOUS
10
85.5738
20
-150.67
11
85.7643
21
-150.575
0
LINE
8
BLACK
6
CONTINUOUS
10
87.1929
20
-150.765
11
87.2881
21
-150.67
0
LINE
8
BLACK
6
CONTINUOUS
10
87.2881
20
-150.67
11
87.4786
21
-150.575
0
LINE
8
BLACK
6
CONTINUOUS
10
87.4786
20
-150.575
11
87.9548
21
-150.575
0
LINE
8
BLACK
6
CONTINUOUS
10
87.9548
20
-150.575
11
88.1452
21
-150.67
0
LINE
8
BLACK
6
CONTINUOUS
10
88.1452
20
-150.67
11
88.2405
21
-150.765
0
LINE
8
BLACK
6
CONTINUOUS
10
88.2405
20
-150.765
11
88.3357
21
-150.956
0
LINE
8
BLACK
6
CONTINUOUS
10
88.3357
20
-150.956
11
88.3357
21
-151.146
0
LINE
8
BLACK
6
CONTINUOUS
10
88.3357
20
-151.146
11
88.2405
21
-151.432
0
LINE
8
BLACK
6
CONTINUOUS
10
88.2405
20
-151.432
11
87.0976
21
-152.575
0
LINE
8
BLACK
6
CONTINUOUS
10
87.0976
20
-152.575
11
88.3357
21
-152.575
0
LINE
8
BLACK
6
CONTINUOUS
10
89.5738
20
-150.575
11
89.7643
21
-150.575
0
LINE
8
BLACK
6
CONTINUOUS
10
89.7643
20
-150.575
11
89.9548
21
-150.67
0
LINE
8
BLACK
6
CONTINUOUS
10
89.9548
20
-150.67
11
90.05
21
-150.765
0
LINE
8
BLACK
6
CONTINUOUS
10
90.05
20
-150.765
11
90.1452
21
-150.956
0
LINE
8
BLACK
6
CONTINUOUS
10
90.1452
20
-150.956
11
90.2405
21
-151.337
0
LINE
8
BLACK
6
CONTINUOUS
10
90.2405
20
-151.337
11
90.2405
21
-151.813
0
LINE
8
BLACK
6
CONTINUOUS
10
90.2405
20
-151.813
11
90.1452
21
-152.194
0
LINE
8
BLACK
6
CONTINUOUS
10
90.1452
20
-152.194
11
90.05
21
-152.384
0
LINE
8
BLACK
6
CONTINUOUS
10
90.05
20
-152.384
11
89.9548
21
-152.48
0
LINE
8
BLACK
6
CONTINUOUS
10
89.9548
20
-152.48
11
89.7643
21
-152.575
0
LINE
8
BLACK
6
CONTINUOUS
10
89.7643
20
-152.575
11
89.5738
21
-152.575
0
LINE
8
BLACK
6
CONTINUOUS
10
89.5738
20
-152.575
11
89.3833
21
-152.48
0
LINE
8
BLACK
6
CONTINUOUS
10
89.3833
20
-152.48
11
89.2881
21
-152.384
0
LINE
8
BLACK
6
CONTINUOUS
10
89.2881
20
-152.384
11
89.1929
21
-152.194
0
LINE
8
BLACK
6
CONTINUOUS
10
89.1929
20
-152.194
11
89.0976
21
-151.813
0
LINE
8
BLACK
6
CONTINUOUS
10
89.0976
20
-151.813
11
89.0976
21
-151.337
0
LINE
8
BLACK
6
CONTINUOUS
10
89.0976
20
-151.337
11
89.1929
21
-150.956
0
LINE
8
BLACK
6
CONTINUOUS
10
89.1929
20
-150.956
11
89.2881
21
-150.765
0
LINE
8
BLACK
6
CONTINUOUS
10
89.2881
20
-150.765
11
89.3833
21
-150.67
0
LINE
8
BLACK
6
CONTINUOUS
10
89.3833
20
-150.67
11
89.5738
21
-150.575
0
LINE
8
BLACK
6
CONTINUOUS
10
91.0976
20
-152.575
11
91.0976
21
-151.241
0
LINE
8
BLACK
6
CONTINUOUS
10
91.0976
20
-151.432
11
91.1929
21
-151.337
0
LINE
8
BLACK
6
CONTINUOUS
10
91.1929
20
-151.337
11
91.3833
21
-151.241
0
LINE
8
BLACK
6
CONTINUOUS
10
91.3833
20
-151.241
11
91.669
21
-151.241
0
LINE
8
BLACK
6
CONTINUOUS
10
91.669
20
-151.241
11
91.8595
21
-151.337
0
LINE
8
BLACK
6
CONTINUOUS
10
91.8595
20
-151.337
11
91.9548
21
-151.527
0
LINE
8
BLACK
6
CONTINUOUS
10
91.9548
20
-151.527
11
91.9548
21
-152.575
0
LINE
8
BLACK
6
CONTINUOUS
10
91.9548
20
-151.527
11
92.05
21
-151.337
0
LINE
8
BLACK
6
CONTINUOUS
10
92.05
20
-151.337
11
92.2405
21
-151.241
0
LINE
8
BLACK
6
CONTINUOUS
10
92.2405
20
-151.241
11
92.5262
21
-151.241
0
LINE
8
BLACK
6
CONTINUOUS
10
92.5262
20
-151.241
11
92.7167
21
-151.337
0
LINE
8
BLACK
6
CONTINUOUS
10
92.7167
20
-151.337
11
92.8119
21
-151.527
0
LINE
8
BLACK
6
CONTINUOUS
10
92.8119
20
-151.527
11
92.8119
21
-152.575
0
LINE
8
BLACK
6
CONTINUOUS
10
93.7643
20
-152.575
11
93.7643
21
-151.241
0
LINE
8
BLACK
6
CONTINUOUS
10
93.7643
20
-151.432
11
93.8595
21
-151.337
0
LINE
8
BLACK
6
CONTINUOUS
10
93.8595
20
-151.337
11
94.05
21
-151.241
0
LINE
8
BLACK
6
CONTINUOUS
10
94.05
20
-151.241
11
94.3357
21
-151.241
0
LINE
8
BLACK
6
CONTINUOUS
10
94.3357
20
-151.241
11
94.5262
21
-151.337
0
LINE
8
BLACK
6
CONTINUOUS
10
94.5262
20
-151.337
11
94.6214
21
-151.527
0
LINE
8
BLACK
6
CONTINUOUS
10
94.6214
20
-151.527
11
94.6214
21
-152.575
0
LINE
8
BLACK
6
CONTINUOUS
10
94.6214
20
-151.527
11
94.7167
21
-151.337
0
LINE
8
BLACK
6
CONTINUOUS
10
94.7167
20
-151.337
11
94.9071
21
-151.241
0
LINE
8
BLACK
6
CONTINUOUS
10
94.9071
20
-151.241
11
95.1929
21
-151.241
0
LINE
8
BLACK
6
CONTINUOUS
10
95.1929
20
-151.241
11
95.3833
21
-151.337
0
LINE
8
BLACK
6
CONTINUOUS
10
95.3833
20
-151.337
11
95.4786
21
-151.527
0
LINE
8
BLACK
6
CONTINUOUS
10
95.4786
20
-151.527
11
95.4786
21
-152.575
0
LINE
8
BLACK
6
CONTINUOUS
10
99.3833
20
-150.48
11
97.669
21
-153.051
0
LINE
8
BLACK
6
CONTINUOUS
10
101.955
20
-150.575
11
102.145
21
-150.575
0
LINE
8
BLACK
6
CONTINUOUS
10
102.145
20
-150.575
11
102.336
21
-150.67
0
LINE
8
BLACK
6
CONTINUOUS
10
102.336
20
-150.67
11
102.431
21
-150.765
0
LINE
8
BLACK
6
CONTINUOUS
10
102.431
20
-150.765
11
102.526
21
-150.956
0
LINE
8
BLACK
6
CONTINUOUS
10
102.526
20
-150.956
11
102.621
21
-151.337
0
LINE
8
BLACK
6
CONTINUOUS
10
102.621
20
-151.337
11
102.621
21
-151.813
0
LINE
8
BLACK
6
CONTINUOUS
10
102.621
20
-151.813
11
102.526
21
-152.194
0
LINE
8
BLACK
6
CONTINUOUS
10
102.526
20
-152.194
11
102.431
21
-152.384
0
LINE
8
BLACK
6
CONTINUOUS
10
102.431
20
-152.384
11
102.336
21
-152.48
0
LINE
8
BLACK
6
CONTINUOUS
10
102.336
20
-152.48
11
102.145
21
-152.575
0
LINE
8
BLACK
6
CONTINUOUS
10
102.145
20
-152.575
11
101.955
21
-152.575
0
LINE
8
BLACK
6
CONTINUOUS
10
101.955
20
-152.575
11
101.764
21
-152.48
0
LINE
8
BLACK
6
CONTINUOUS
10
101.764
20
-152.48
11
101.669
21
-152.384
0
LINE
8
BLACK
6
CONTINUOUS
10
101.669
20
-152.384
11
101.574
21
-152.194
0
LINE
8
BLACK
6
CONTINUOUS
10
101.574
20
-152.194
11
101.479
21
-151.813
0
LINE
8
BLACK
6
CONTINUOUS
10
101.479
20
-151.813
11
101.479
21
-151.337
0
LINE
8
BLACK
6
CONTINUOUS
10
101.479
20
-151.337
11
101.574
21
-150.956
0
LINE
8
BLACK
6
CONTINUOUS
10
101.574
20
-150.956
11
101.669
21
-150.765
0
LINE
8
BLACK
6
CONTINUOUS
10
101.669
20
-150.765
11
101.764
21
-150.67
0
LINE
8
BLACK
6
CONTINUOUS
10
101.764
20
-150.67
11
101.955
21
-150.575
0
LINE
8
BLACK
6
CONTINUOUS
10
103.479
20
-152.384
11
103.574
21
-152.48
0
LINE
8
BLACK
6
CONTINUOUS
10
103.574
20
-152.48
11
103.479
21
-152.575
0
LINE
8
BLACK
6
CONTINUOUS
10
103.479
20
-152.575
11
103.383
21
-152.48
0
LINE
8
BLACK
6
CONTINUOUS
10
103.383
20
-152.48
11
103.479
21
-152.384
0
LINE
8
BLACK
6
CONTINUOUS
10
103.479
20
-152.384
11
103.479
21
-152.575
0
LINE
8
BLACK
6
CONTINUOUS
10
104.812
20
-150.575
11
105.002
21
-150.575
0
LINE
8
BLACK
6
CONTINUOUS
10
105.002
20
-150.575
11
105.193
21
-150.67
0
LINE
8
BLACK
6
CONTINUOUS
10
105.193
20
-150.67
11
105.288
21
-150.765
0
LINE
8
BLACK
6
CONTINUOUS
10
105.288
20
-150.765
11
105.383
21
-150.956
0
LINE
8
BLACK
6
CONTINUOUS
10
105.383
20
-150.956
11
105.479
21
-151.337
0
LINE
8
BLACK
6
CONTINUOUS
10
105.479
20
-151.337
11
105.479
21
-151.813
0
LINE
8
BLACK
6
CONTINUOUS
10
105.479
20
-151.813
11
105.383
21
-152.194
0
LINE
8
BLACK
6
CONTINUOUS
10
105.383
20
-152.194
11
105.288
21
-152.384
0
LINE
8
BLACK
6
CONTINUOUS
10
105.288
20
-152.384
11
105.193
21
-152.48
0
LINE
8
BLACK
6
CONTINUOUS
10
105.193
20
-152.48
11
105.002
21
-152.575
0
LINE
8
BLACK
6
CONTINUOUS
10
105.002
20
-152.575
11
104.812
21
-152.575
0
LINE
8
BLACK
6
CONTINUOUS
10
104.812
20
-152.575
11
104.621
21
-152.48
0
LINE
8
BLACK
6
CONTINUOUS
10
104.621
20
-152.48
11
104.526
21
-152.384
0
LINE
8
BLACK
6
CONTINUOUS
10
104.526
20
-152.384
11
104.431
21
-152.194
0
LINE
8
BLACK
6
CONTINUOUS
10
104.431
20
-152.194
11
104.336
21
-151.813
0
LINE
8
BLACK
6
CONTINUOUS
10
104.336
20
-151.813
11
104.336
21
-151.337
0
LINE
8
BLACK
6
CONTINUOUS
10
104.336
20
-151.337
11
104.431
21
-150.956
0
LINE
8
BLACK
6
CONTINUOUS
10
104.431
20
-150.956
11
104.526
21
-150.765
0
LINE
8
BLACK
6
CONTINUOUS
10
104.526
20
-150.765
11
104.621
21
-150.67
0
LINE
8
BLACK
6
CONTINUOUS
10
104.621
20
-150.67
11
104.812
21
-150.575
0
LINE
8
BLACK
6
CONTINUOUS
10
107.193
20
-151.241
11
107.193
21
-152.575
0
LINE
8
BLACK
6
CONTINUOUS
10
106.717
20
-150.48
11
106.24
21
-151.908
0
LINE
8
BLACK
6
CONTINUOUS
10
106.24
20
-151.908
11
107.479
21
-151.908
0
LINE
8
BLACK
6
CONTINUOUS
10
108.621
20
-150.575
11
108.812
21
-150.575
0
LINE
8
BLACK
6
CONTINUOUS
10
108.812
20
-150.575
11
109.002
21
-150.67
0
LINE
8
BLACK
6
CONTINUOUS
10
109.002
20
-150.67
11
109.098
21
-150.765
0
LINE
8
BLACK
6
CONTINUOUS
10
109.098
20
-150.765
11
109.193
21
-150.956
0
LINE
8
BLACK
6
CONTINUOUS
10
109.193
20
-150.956
11
109.288
21
-151.337
0
LINE
8
BLACK
6
CONTINUOUS
10
109.288
20
-151.337
11
109.288
21
-151.813
0
LINE
8
BLACK
6
CONTINUOUS
10
109.288
20
-151.813
11
109.193
21
-152.194
0
LINE
8
BLACK
6
CONTINUOUS
10
109.193
20
-152.194
11
109.098
21
-152.384
0
LINE
8
BLACK
6
CONTINUOUS
10
109.098
20
-152.384
11
109.002
21
-152.48
0
LINE
8
BLACK
6
CONTINUOUS
10
109.002
20
-152.48
11
108.812
21
-152.575
0
LINE
8
BLACK
6
CONTINUOUS
10
108.812
20
-152.575
11
108.621
21
-152.575
0
LINE
8
BLACK
6
CONTINUOUS
10
108.621
20
-152.575
11
108.431
21
-152.48
0
LINE
8
BLACK
6
CONTINUOUS
10
108.431
20
-152.48
11
108.336
21
-152.384
0
LINE
8
BLACK
6
CONTINUOUS
10
108.336
20
-152.384
11
108.24
21
-152.194
0
LINE
8
BLACK
6
CONTINUOUS
10
108.24
20
-152.194
11
108.145
21
-151.813
0
LINE
8
BLACK
6
CONTINUOUS
10
108.145
20
-151.813
11
108.145
21
-151.337
0
LINE
8
BLACK
6
CONTINUOUS
10
108.145
20
-151.337
11
108.24
21
-150.956
0
LINE
8
BLACK
6
CONTINUOUS
10
108.24
20
-150.956
11
108.336
21
-150.765
0
LINE
8
BLACK
6
CONTINUOUS
10
108.336
20
-150.765
11
108.431
21
-150.67
0
LINE
8
BLACK
6
CONTINUOUS
10
108.431
20
-150.67
11
108.621
21
-150.575
0
LINE
8
BLACK
6
CONTINUOUS
10
110.05
20
-150.765
11
110.145
21
-150.67
0
LINE
8
BLACK
6
CONTINUOUS
10
110.145
20
-150.67
11
110.336
21
-150.575
0
LINE
8
BLACK
6
CONTINUOUS
10
110.336
20
-150.575
11
110.812
21
-150.575
0
LINE
8
BLACK
6
CONTINUOUS
10
110.812
20
-150.575
11
111.002
21
-150.67
0
LINE
8
BLACK
6
CONTINUOUS
10
111.002
20
-150.67
11
111.098
21
-150.765
0
LINE
8
BLACK
6
CONTINUOUS
10
111.098
20
-150.765
11
111.193
21
-150.956
0
LINE
8
BLACK
6
CONTINUOUS
10
111.193
20
-150.956
11
111.193
21
-151.146
0
LINE
8
BLACK
6
CONTINUOUS
10
111.193
20
-151.146
11
111.098
21
-151.432
0
LINE
8
BLACK
6
CONTINUOUS
10
111.098
20
-151.432
11
109.955
21
-152.575
0
LINE
8
BLACK
6
CONTINUOUS
10
109.955
20
-152.575
11
111.193
21
-152.575
0
LINE
8
BLACK
6
CONTINUOUS
10
111.955
20
-150.575
11
111.955
21
-150.956
0
LINE
8
BLACK
6
CONTINUOUS
10
112.717
20
-150.575
11
112.717
21
-150.956
0
LINE
8
BLACK
6
CONTINUOUS
10
115.669
20
-153.337
11
115.574
21
-153.241
0
LINE
8
BLACK
6
CONTINUOUS
10
115.574
20
-153.241
11
115.383
21
-152.956
0
LINE
8
BLACK
6
CONTINUOUS
10
115.383
20
-152.956
11
115.288
21
-152.765
0
LINE
8
BLACK
6
CONTINUOUS
10
115.288
20
-152.765
11
115.193
21
-152.48
0
LINE
8
BLACK
6
CONTINUOUS
10
115.193
20
-152.48
11
115.098
21
-152.003
0
LINE
8
BLACK
6
CONTINUOUS
10
115.098
20
-152.003
11
115.098
21
-151.622
0
LINE
8
BLACK
6
CONTINUOUS
10
115.098
20
-151.622
11
115.193
21
-151.146
0
LINE
8
BLACK
6
CONTINUOUS
10
115.193
20
-151.146
11
115.288
21
-150.86
0
LINE
8
BLACK
6
CONTINUOUS
10
115.288
20
-150.86
11
115.383
21
-150.67
0
LINE
8
BLACK
6
CONTINUOUS
10
115.383
20
-150.67
11
115.574
21
-150.384
0
LINE
8
BLACK
6
CONTINUOUS
10
115.574
20
-150.384
11
115.669
21
-150.289
0
LINE
8
BLACK
6
CONTINUOUS
10
117.288
20
-151.241
11
117.288
21
-152.575
0
LINE
8
BLACK
6
CONTINUOUS
10
116.812
20
-150.48
11
116.336
21
-151.908
0
LINE
8
BLACK
6
CONTINUOUS
10
116.336
20
-151.908
11
117.574
21
-151.908
0
LINE
8
BLACK
6
CONTINUOUS
10
118.145
20
-150.575
11
119.383
21
-150.575
0
LINE
8
BLACK
6
CONTINUOUS
10
119.383
20
-150.575
11
118.717
21
-151.337
0
LINE
8
BLACK
6
CONTINUOUS
10
118.717
20
-151.337
11
119.002
21
-151.337
0
LINE
8
BLACK
6
CONTINUOUS
10
119.002
20
-151.337
11
119.193
21
-151.432
0
LINE
8
BLACK
6
CONTINUOUS
10
119.193
20
-151.432
11
119.288
21
-151.527
0
LINE
8
BLACK
6
CONTINUOUS
10
119.288
20
-151.527
11
119.383
21
-151.718
0
LINE
8
BLACK
6
CONTINUOUS
10
119.383
20
-151.718
11
119.383
21
-152.194
0
LINE
8
BLACK
6
CONTINUOUS
10
119.383
20
-152.194
11
119.288
21
-152.384
0
LINE
8
BLACK
6
CONTINUOUS
10
119.288
20
-152.384
11
119.193
21
-152.48
0
LINE
8
BLACK
6
CONTINUOUS
10
119.193
20
-152.48
11
119.002
21
-152.575
0
LINE
8
BLACK
6
CONTINUOUS
10
119.002
20
-152.575
11
118.431
21
-152.575
0
LINE
8
BLACK
6
CONTINUOUS
10
118.431
20
-152.575
11
118.24
21
-152.48
0
LINE
8
BLACK
6
CONTINUOUS
10
118.24
20
-152.48
11
118.145
21
-152.384
0
LINE
8
BLACK
6
CONTINUOUS
10
121.764
20
-152.575
11
121.764
21
-150.575
0
LINE
8
BLACK
6
CONTINUOUS
10
122.621
20
-152.575
11
122.621
21
-151.527
0
LINE
8
BLACK
6
CONTINUOUS
10
122.621
20
-151.527
11
122.526
21
-151.337
0
LINE
8
BLACK
6
CONTINUOUS
10
122.526
20
-151.337
11
122.336
21
-151.241
0
LINE
8
BLACK
6
CONTINUOUS
10
122.336
20
-151.241
11
122.05
21
-151.241
0
LINE
8
BLACK
6
CONTINUOUS
10
122.05
20
-151.241
11
121.86
21
-151.337
0
LINE
8
BLACK
6
CONTINUOUS
10
121.86
20
-151.337
11
121.764
21
-151.432
0
LINE
8
BLACK
6
CONTINUOUS
10
123.86
20
-152.575
11
123.669
21
-152.48
0
LINE
8
BLACK
6
CONTINUOUS
10
123.669
20
-152.48
11
123.574
21
-152.384
0
LINE
8
BLACK
6
CONTINUOUS
10
123.574
20
-152.384
11
123.479
21
-152.194
0
LINE
8
BLACK
6
CONTINUOUS
10
123.479
20
-152.194
11
123.479
21
-151.622
0
LINE
8
BLACK
6
CONTINUOUS
10
123.479
20
-151.622
11
123.574
21
-151.432
0
LINE
8
BLACK
6
CONTINUOUS
10
123.574
20
-151.432
11
123.669
21
-151.337
0
LINE
8
BLACK
6
CONTINUOUS
10
123.669
20
-151.337
11
123.86
21
-151.241
0
LINE
8
BLACK
6
CONTINUOUS
10
123.86
20
-151.241
11
124.145
21
-151.241
0
LINE
8
BLACK
6
CONTINUOUS
10
124.145
20
-151.241
11
124.336
21
-151.337
0
LINE
8
BLACK
6
CONTINUOUS
10
124.336
20
-151.337
11
124.431
21
-151.432
0
LINE
8
BLACK
6
CONTINUOUS
10
124.431
20
-151.432
11
124.526
21
-151.622
0
LINE
8
BLACK
6
CONTINUOUS
10
124.526
20
-151.622
11
124.526
21
-152.194
0
LINE
8
BLACK
6
CONTINUOUS
10
124.526
20
-152.194
11
124.431
21
-152.384
0
LINE
8
BLACK
6
CONTINUOUS
10
124.431
20
-152.384
11
124.336
21
-152.48
0
LINE
8
BLACK
6
CONTINUOUS
10
124.336
20
-152.48
11
124.145
21
-152.575
0
LINE
8
BLACK
6
CONTINUOUS
10
124.145
20
-152.575
11
123.86
21
-152.575
0
LINE
8
BLACK
6
CONTINUOUS
10
125.669
20
-152.575
11
125.479
21
-152.48
0
LINE
8
BLACK
6
CONTINUOUS
10
125.479
20
-152.48
11
125.383
21
-152.289
0
LINE
8
BLACK
6
CONTINUOUS
10
125.383
20
-152.289
11
125.383
21
-150.575
0
LINE
8
BLACK
6
CONTINUOUS
10
127.193
20
-152.48
11
127.002
21
-152.575
0
LINE
8
BLACK
6
CONTINUOUS
10
127.002
20
-152.575
11
126.621
21
-152.575
0
LINE
8
BLACK
6
CONTINUOUS
10
126.621
20
-152.575
11
126.431
21
-152.48
0
LINE
8
BLACK
6
CONTINUOUS
10
126.431
20
-152.48
11
126.336
21
-152.289
0
LINE
8
BLACK
6
CONTINUOUS
10
126.336
20
-152.289
11
126.336
21
-151.527
0
LINE
8
BLACK
6
CONTINUOUS
10
126.336
20
-151.527
11
126.431
21
-151.337
0
LINE
8
BLACK
6
CONTINUOUS
10
126.431
20
-151.337
11
126.621
21
-151.241
0
LINE
8
BLACK
6
CONTINUOUS
10
126.621
20
-151.241
11
127.002
21
-151.241
0
LINE
8
BLACK
6
CONTINUOUS
10
127.002
20
-151.241
11
127.193
21
-151.337
0
LINE
8
BLACK
6
CONTINUOUS
10
127.193
20
-151.337
11
127.288
21
-151.527
0
LINE
8
BLACK
6
CONTINUOUS
10
127.288
20
-151.527
11
127.288
21
-151.718
0
LINE
8
BLACK
6
CONTINUOUS
10
127.288
20
-151.718
11
126.336
21
-151.908
0
LINE
8
BLACK
6
CONTINUOUS
10
128.05
20
-152.48
11
128.24
21
-152.575
0
LINE
8
BLACK
6
CONTINUOUS
10
128.24
20
-152.575
11
128.621
21
-152.575
0
LINE
8
BLACK
6
CONTINUOUS
10
128.621
20
-152.575
11
128.812
21
-152.48
0
LINE
8
BLACK
6
CONTINUOUS
10
128.812
20
-152.48
11
128.907
21
-152.289
0
LINE
8
BLACK
6
CONTINUOUS
10
128.907
20
-152.289
11
128.907
21
-152.194
0
LINE
8
BLACK
6
CONTINUOUS
10
128.907
20
-152.194
11
128.812
21
-152.003
0
LINE
8
BLACK
6
CONTINUOUS
10
128.812
20
-152.003
11
128.621
21
-151.908
0
LINE
8
BLACK
6
CONTINUOUS
10
128.621
20
-151.908
11
128.336
21
-151.908
0
LINE
8
BLACK
6
CONTINUOUS
10
128.336
20
-151.908
11
128.145
21
-151.813
0
LINE
8
BLACK
6
CONTINUOUS
10
128.145
20
-151.813
11
128.05
21
-151.622
0
LINE
8
BLACK
6
CONTINUOUS
10
128.05
20
-151.622
11
128.05
21
-151.527
0
LINE
8
BLACK
6
CONTINUOUS
10
128.05
20
-151.527
11
128.145
21
-151.337
0
LINE
8
BLACK
6
CONTINUOUS
10
128.145
20
-151.337
11
128.336
21
-151.241
0
LINE
8
BLACK
6
CONTINUOUS
10
128.336
20
-151.241
11
128.621
21
-151.241
0
LINE
8
BLACK
6
CONTINUOUS
10
128.621
20
-151.241
11
128.812
21
-151.337
0
LINE
8
BLACK
6
CONTINUOUS
10
129.574
20
-153.337
11
129.669
21
-153.241
0
LINE
8
BLACK
6
CONTINUOUS
10
129.669
20
-153.241
11
129.86
21
-152.956
0
LINE
8
BLACK
6
CONTINUOUS
10
129.86
20
-152.956
11
129.955
21
-152.765
0
LINE
8
BLACK
6
CONTINUOUS
10
129.955
20
-152.765
11
130.05
21
-152.48
0
LINE
8
BLACK
6
CONTINUOUS
10
130.05
20
-152.48
11
130.145
21
-152.003
0
LINE
8
BLACK
6
CONTINUOUS
10
130.145
20
-152.003
11
130.145
21
-151.622
0
LINE
8
BLACK
6
CONTINUOUS
10
130.145
20
-151.622
11
130.05
21
-151.146
0
LINE
8
BLACK
6
CONTINUOUS
10
130.05
20
-151.146
11
129.955
21
-150.86
0
LINE
8
BLACK
6
CONTINUOUS
10
129.955
20
-150.86
11
129.86
21
-150.67
0
LINE
8
BLACK
6
CONTINUOUS
10
129.86
20
-150.67
11
129.669
21
-150.384
0
LINE
8
BLACK
6
CONTINUOUS
10
129.669
20
-150.384
11
129.574
21
-150.289
0
LINE
8
BLACK
6
CONTINUOUS
10
79.4
20
-154.86
11
79.95
21
-154.31
0
LINE
8
BLACK
6
CONTINUOUS
10
79.95
20
-154.31
11
79.4
21
-153.76
0
LINE
8
BLACK
6
CONTINUOUS
10
79.4
20
-153.76
11
78.85
21
-154.31
0
LINE
8
BLACK
6
CONTINUOUS
10
78.85
20
-154.31
11
79.4
21
-154.86
0
LINE
8
BLACK
6
CONTINUOUS
10
83.5738
20
-155.215
11
82.431
21
-155.215
0
LINE
8
BLACK
6
CONTINUOUS
10
83.0024
20
-155.215
11
83.0024
21
-153.215
0
LINE
8
BLACK
6
CONTINUOUS
10
83.0024
20
-153.215
11
82.8119
21
-153.5
0
LINE
8
BLACK
6
CONTINUOUS
10
82.8119
20
-153.5
11
82.6214
21
-153.691
0
LINE
8
BLACK
6
CONTINUOUS
10
82.6214
20
-153.691
11
82.431
21
-153.786
0
LINE
8
BLACK
6
CONTINUOUS
10
84.431
20
-155.024
11
84.5262
21
-155.12
0
LINE
8
BLACK
6
CONTINUOUS
10
84.5262
20
-155.12
11
84.431
21
-155.215
0
LINE
8
BLACK
6
CONTINUOUS
10
84.431
20
-155.215
11
84.3357
21
-155.12
0
LINE
8
BLACK
6
CONTINUOUS
10
84.3357
20
-155.12
11
84.431
21
-155.024
0
LINE
8
BLACK
6
CONTINUOUS
10
84.431
20
-155.024
11
84.431
21
-155.215
0
LINE
8
BLACK
6
CONTINUOUS
10
86.431
20
-155.215
11
85.2881
21
-155.215
0
LINE
8
BLACK
6
CONTINUOUS
10
85.8595
20
-155.215
11
85.8595
21
-153.215
0
LINE
8
BLACK
6
CONTINUOUS
10
85.8595
20
-153.215
11
85.669
21
-153.5
0
LINE
8
BLACK
6
CONTINUOUS
10
85.669
20
-153.5
11
85.4786
21
-153.691
0
LINE
8
BLACK
6
CONTINUOUS
10
85.4786
20
-153.691
11
85.2881
21
-153.786
0
LINE
8
BLACK
6
CONTINUOUS
10
87.669
20
-153.215
11
87.8595
21
-153.215
0
LINE
8
BLACK
6
CONTINUOUS
10
87.8595
20
-153.215
11
88.05
21
-153.31
0
LINE
8
BLACK
6
CONTINUOUS
10
88.05
20
-153.31
11
88.1452
21
-153.405
0
LINE
8
BLACK
6
CONTINUOUS
10
88.1452
20
-153.405
11
88.2405
21
-153.596
0
LINE
8
BLACK
6
CONTINUOUS
10
88.2405
20
-153.596
11
88.3357
21
-153.977
0
LINE
8
BLACK
6
CONTINUOUS
10
88.3357
20
-153.977
11
88.3357
21
-154.453
0
LINE
8
BLACK
6
CONTINUOUS
10
88.3357
20
-154.453
11
88.2405
21
-154.834
0
LINE
8
BLACK
6
CONTINUOUS
10
88.2405
20
-154.834
11
88.1452
21
-155.024
0
LINE
8
BLACK
6
CONTINUOUS
10
88.1452
20
-155.024
11
88.05
21
-155.12
0
LINE
8
BLACK
6
CONTINUOUS
10
88.05
20
-155.12
11
87.8595
21
-155.215
0
LINE
8
BLACK
6
CONTINUOUS
10
87.8595
20
-155.215
11
87.669
21
-155.215
0
LINE
8
BLACK
6
CONTINUOUS
10
87.669
20
-155.215
11
87.4786
21
-155.12
0
LINE
8
BLACK
6
CONTINUOUS
10
87.4786
20
-155.12
11
87.3833
21
-155.024
0
LINE
8
BLACK
6
CONTINUOUS
10
87.3833
20
-155.024
11
87.2881
21
-154.834
0
LINE
8
BLACK
6
CONTINUOUS
10
87.2881
20
-154.834
11
87.1929
21
-154.453
0
LINE
8
BLACK
6
CONTINUOUS
10
87.1929
20
-154.453
11
87.1929
21
-153.977
0
LINE
8
BLACK
6
CONTINUOUS
10
87.1929
20
-153.977
11
87.2881
21
-153.596
0
LINE
8
BLACK
6
CONTINUOUS
10
87.2881
20
-153.596
11
87.3833
21
-153.405
0
LINE
8
BLACK
6
CONTINUOUS
10
87.3833
20
-153.405
11
87.4786
21
-153.31
0
LINE
8
BLACK
6
CONTINUOUS
10
87.4786
20
-153.31
11
87.669
21
-153.215
0
LINE
8
BLACK
6
CONTINUOUS
10
89.5738
20
-153.215
11
89.7643
21
-153.215
0
LINE
8
BLACK
6
CONTINUOUS
10
89.7643
20
-153.215
11
89.9548
21
-153.31
0
LINE
8
BLACK
6
CONTINUOUS
10
89.9548
20
-153.31
11
90.05
21
-153.405
0
LINE
8
BLACK
6
CONTINUOUS
10
90.05
20
-153.405
11
90.1452
21
-153.596
0
LINE
8
BLACK
6
CONTINUOUS
10
90.1452
20
-153.596
11
90.2405
21
-153.977
0
LINE
8
BLACK
6
CONTINUOUS
10
90.2405
20
-153.977
11
90.2405
21
-154.453
0
LINE
8
BLACK
6
CONTINUOUS
10
90.2405
20
-154.453
11
90.1452
21
-154.834
0
LINE
8
BLACK
6
CONTINUOUS
10
90.1452
20
-154.834
11
90.05
21
-155.024
0
LINE
8
BLACK
6
CONTINUOUS
10
90.05
20
-155.024
11
89.9548
21
-155.12
0
LINE
8
BLACK
6
CONTINUOUS
10
89.9548
20
-155.12
11
89.7643
21
-155.215
0
LINE
8
BLACK
6
CONTINUOUS
10
89.7643
20
-155.215
11
89.5738
21
-155.215
0
LINE
8
BLACK
6
CONTINUOUS
10
89.5738
20
-155.215
11
89.3833
21
-155.12
0
LINE
8
BLACK
6
CONTINUOUS
10
89.3833
20
-155.12
11
89.2881
21
-155.024
0
LINE
8
BLACK
6
CONTINUOUS
10
89.2881
20
-155.024
11
89.1929
21
-154.834
0
LINE
8
BLACK
6
CONTINUOUS
10
89.1929
20
-154.834
11
89.0976
21
-154.453
0
LINE
8
BLACK
6
CONTINUOUS
10
89.0976
20
-154.453
11
89.0976
21
-153.977
0
LINE
8
BLACK
6
CONTINUOUS
10
89.0976
20
-153.977
11
89.1929
21
-153.596
0
LINE
8
BLACK
6
CONTINUOUS
10
89.1929
20
-153.596
11
89.2881
21
-153.405
0
LINE
8
BLACK
6
CONTINUOUS
10
89.2881
20
-153.405
11
89.3833
21
-153.31
0
LINE
8
BLACK
6
CONTINUOUS
10
89.3833
20
-153.31
11
89.5738
21
-153.215
0
LINE
8
BLACK
6
CONTINUOUS
10
91.0976
20
-155.215
11
91.0976
21
-153.881
0
LINE
8
BLACK
6
CONTINUOUS
10
91.0976
20
-154.072
11
91.1929
21
-153.977
0
LINE
8
BLACK
6
CONTINUOUS
10
91.1929
20
-153.977
11
91.3833
21
-153.881
0
LINE
8
BLACK
6
CONTINUOUS
10
91.3833
20
-153.881
11
91.669
21
-153.881
0
LINE
8
BLACK
6
CONTINUOUS
10
91.669
20
-153.881
11
91.8595
21
-153.977
0
LINE
8
BLACK
6
CONTINUOUS
10
91.8595
20
-153.977
11
91.9548
21
-154.167
0
LINE
8
BLACK
6
CONTINUOUS
10
91.9548
20
-154.167
11
91.9548
21
-155.215
0
LINE
8
BLACK
6
CONTINUOUS
10
91.9548
20
-154.167
11
92.05
21
-153.977
0
LINE
8
BLACK
6
CONTINUOUS
10
92.05
20
-153.977
11
92.2405
21
-153.881
0
LINE
8
BLACK
6
CONTINUOUS
10
92.2405
20
-153.881
11
92.5262
21
-153.881
0
LINE
8
BLACK
6
CONTINUOUS
10
92.5262
20
-153.881
11
92.7167
21
-153.977
0
LINE
8
BLACK
6
CONTINUOUS
10
92.7167
20
-153.977
11
92.8119
21
-154.167
0
LINE
8
BLACK
6
CONTINUOUS
10
92.8119
20
-154.167
11
92.8119
21
-155.215
0
LINE
8
BLACK
6
CONTINUOUS
10
93.7643
20
-155.215
11
93.7643
21
-153.881
0
LINE
8
BLACK
6
CONTINUOUS
10
93.7643
20
-154.072
11
93.8595
21
-153.977
0
LINE
8
BLACK
6
CONTINUOUS
10
93.8595
20
-153.977
11
94.05
21
-153.881
0
LINE
8
BLACK
6
CONTINUOUS
10
94.05
20
-153.881
11
94.3357
21
-153.881
0
LINE
8
BLACK
6
CONTINUOUS
10
94.3357
20
-153.881
11
94.5262
21
-153.977
0
LINE
8
BLACK
6
CONTINUOUS
10
94.5262
20
-153.977
11
94.6214
21
-154.167
0
LINE
8
BLACK
6
CONTINUOUS
10
94.6214
20
-154.167
11
94.6214
21
-155.215
0
LINE
8
BLACK
6
CONTINUOUS
10
94.6214
20
-154.167
11
94.7167
21
-153.977
0
LINE
8
BLACK
6
CONTINUOUS
10
94.7167
20
-153.977
11
94.9071
21
-153.881
0
LINE
8
BLACK
6
CONTINUOUS
10
94.9071
20
-153.881
11
95.1929
21
-153.881
0
LINE
8
BLACK
6
CONTINUOUS
10
95.1929
20
-153.881
11
95.3833
21
-153.977
0
LINE
8
BLACK
6
CONTINUOUS
10
95.3833
20
-153.977
11
95.4786
21
-154.167
0
LINE
8
BLACK
6
CONTINUOUS
10
95.4786
20
-154.167
11
95.4786
21
-155.215
0
LINE
8
BLACK
6
CONTINUOUS
10
99.3833
20
-153.12
11
97.669
21
-155.691
0
LINE
8
BLACK
6
CONTINUOUS
10
101.955
20
-153.215
11
102.145
21
-153.215
0
LINE
8
BLACK
6
CONTINUOUS
10
102.145
20
-153.215
11
102.336
21
-153.31
0
LINE
8
BLACK
6
CONTINUOUS
10
102.336
20
-153.31
11
102.431
21
-153.405
0
LINE
8
BLACK
6
CONTINUOUS
10
102.431
20
-153.405
11
102.526
21
-153.596
0
LINE
8
BLACK
6
CONTINUOUS
10
102.526
20
-153.596
11
102.621
21
-153.977
0
LINE
8
BLACK
6
CONTINUOUS
10
102.621
20
-153.977
11
102.621
21
-154.453
0
LINE
8
BLACK
6
CONTINUOUS
10
102.621
20
-154.453
11
102.526
21
-154.834
0
LINE
8
BLACK
6
CONTINUOUS
10
102.526
20
-154.834
11
102.431
21
-155.024
0
LINE
8
BLACK
6
CONTINUOUS
10
102.431
20
-155.024
11
102.336
21
-155.12
0
LINE
8
BLACK
6
CONTINUOUS
10
102.336
20
-155.12
11
102.145
21
-155.215
0
LINE
8
BLACK
6
CONTINUOUS
10
102.145
20
-155.215
11
101.955
21
-155.215
0
LINE
8
BLACK
6
CONTINUOUS
10
101.955
20
-155.215
11
101.764
21
-155.12
0
LINE
8
BLACK
6
CONTINUOUS
10
101.764
20
-155.12
11
101.669
21
-155.024
0
LINE
8
BLACK
6
CONTINUOUS
10
101.669
20
-155.024
11
101.574
21
-154.834
0
LINE
8
BLACK
6
CONTINUOUS
10
101.574
20
-154.834
11
101.479
21
-154.453
0
LINE
8
BLACK
6
CONTINUOUS
10
101.479
20
-154.453
11
101.479
21
-153.977
0
LINE
8
BLACK
6
CONTINUOUS
10
101.479
20
-153.977
11
101.574
21
-153.596
0
LINE
8
BLACK
6
CONTINUOUS
10
101.574
20
-153.596
11
101.669
21
-153.405
0
LINE
8
BLACK
6
CONTINUOUS
10
101.669
20
-153.405
11
101.764
21
-153.31
0
LINE
8
BLACK
6
CONTINUOUS
10
101.764
20
-153.31
11
101.955
21
-153.215
0
LINE
8
BLACK
6
CONTINUOUS
10
103.479
20
-155.024
11
103.574
21
-155.12
0
LINE
8
BLACK
6
CONTINUOUS
10
103.574
20
-155.12
11
103.479
21
-155.215
0
LINE
8
BLACK
6
CONTINUOUS
10
103.479
20
-155.215
11
103.383
21
-155.12
0
LINE
8
BLACK
6
CONTINUOUS
10
103.383
20
-155.12
11
103.479
21
-155.024
0
LINE
8
BLACK
6
CONTINUOUS
10
103.479
20
-155.024
11
103.479
21
-155.215
0
LINE
8
BLACK
6
CONTINUOUS
10
104.812
20
-153.215
11
105.002
21
-153.215
0
LINE
8
BLACK
6
CONTINUOUS
10
105.002
20
-153.215
11
105.193
21
-153.31
0
LINE
8
BLACK
6
CONTINUOUS
10
105.193
20
-153.31
11
105.288
21
-153.405
0
LINE
8
BLACK
6
CONTINUOUS
10
105.288
20
-153.405
11
105.383
21
-153.596
0
LINE
8
BLACK
6
CONTINUOUS
10
105.383
20
-153.596
11
105.479
21
-153.977
0
LINE
8
BLACK
6
CONTINUOUS
10
105.479
20
-153.977
11
105.479
21
-154.453
0
LINE
8
BLACK
6
CONTINUOUS
10
105.479
20
-154.453
11
105.383
21
-154.834
0
LINE
8
BLACK
6
CONTINUOUS
10
105.383
20
-154.834
11
105.288
21
-155.024
0
LINE
8
BLACK
6
CONTINUOUS
10
105.288
20
-155.024
11
105.193
21
-155.12
0
LINE
8
BLACK
6
CONTINUOUS
10
105.193
20
-155.12
11
105.002
21
-155.215
0
LINE
8
BLACK
6
CONTINUOUS
10
105.002
20
-155.215
11
104.812
21
-155.215
0
LINE
8
BLACK
6
CONTINUOUS
10
104.812
20
-155.215
11
104.621
21
-155.12
0
LINE
8
BLACK
6
CONTINUOUS
10
104.621
20
-155.12
11
104.526
21
-155.024
0
LINE
8
BLACK
6
CONTINUOUS
10
104.526
20
-155.024
11
104.431
21
-154.834
0
LINE
8
BLACK
6
CONTINUOUS
10
104.431
20
-154.834
11
104.336
21
-154.453
0
LINE
8
BLACK
6
CONTINUOUS
10
104.336
20
-154.453
11
104.336
21
-153.977
0
LINE
8
BLACK
6
CONTINUOUS
10
104.336
20
-153.977
11
104.431
21
-153.596
0
LINE
8
BLACK
6
CONTINUOUS
10
104.431
20
-153.596
11
104.526
21
-153.405
0
LINE
8
BLACK
6
CONTINUOUS
10
104.526
20
-153.405
11
104.621
21
-153.31
0
LINE
8
BLACK
6
CONTINUOUS
10
104.621
20
-153.31
11
104.812
21
-153.215
0
LINE
8
BLACK
6
CONTINUOUS
10
107.193
20
-153.881
11
107.193
21
-155.215
0
LINE
8
BLACK
6
CONTINUOUS
10
106.717
20
-153.12
11
106.24
21
-154.548
0
LINE
8
BLACK
6
CONTINUOUS
10
106.24
20
-154.548
11
107.479
21
-154.548
0
LINE
8
BLACK
6
CONTINUOUS
10
108.05
20
-153.215
11
109.288
21
-153.215
0
LINE
8
BLACK
6
CONTINUOUS
10
109.288
20
-153.215
11
108.621
21
-153.977
0
LINE
8
BLACK
6
CONTINUOUS
10
108.621
20
-153.977
11
108.907
21
-153.977
0
LINE
8
BLACK
6
CONTINUOUS
10
108.907
20
-153.977
11
109.098
21
-154.072
0
LINE
8
BLACK
6
CONTINUOUS
10
109.098
20
-154.072
11
109.193
21
-154.167
0
LINE
8
BLACK
6
CONTINUOUS
10
109.193
20
-154.167
11
109.288
21
-154.358
0
LINE
8
BLACK
6
CONTINUOUS
10
109.288
20
-154.358
11
109.288
21
-154.834
0
LINE
8
BLACK
6
CONTINUOUS
10
109.288
20
-154.834
11
109.193
21
-155.024
0
LINE
8
BLACK
6
CONTINUOUS
10
109.193
20
-155.024
11
109.098
21
-155.12
0
LINE
8
BLACK
6
CONTINUOUS
10
109.098
20
-155.12
11
108.907
21
-155.215
0
LINE
8
BLACK
6
CONTINUOUS
10
108.907
20
-155.215
11
108.336
21
-155.215
0
LINE
8
BLACK
6
CONTINUOUS
10
108.336
20
-155.215
11
108.145
21
-155.12
0
LINE
8
BLACK
6
CONTINUOUS
10
108.145
20
-155.12
11
108.05
21
-155.024
0
LINE
8
BLACK
6
CONTINUOUS
10
109.955
20
-153.215
11
111.193
21
-153.215
0
LINE
8
BLACK
6
CONTINUOUS
10
111.193
20
-153.215
11
110.526
21
-153.977
0
LINE
8
BLACK
6
CONTINUOUS
10
110.526
20
-153.977
11
110.812
21
-153.977
0
LINE
8
BLACK
6
CONTINUOUS
10
110.812
20
-153.977
11
111.002
21
-154.072
0
LINE
8
BLACK
6
CONTINUOUS
10
111.002
20
-154.072
11
111.098
21
-154.167
0
LINE
8
BLACK
6
CONTINUOUS
10
111.098
20
-154.167
11
111.193
21
-154.358
0
LINE
8
BLACK
6
CONTINUOUS
10
111.193
20
-154.358
11
111.193
21
-154.834
0
LINE
8
BLACK
6
CONTINUOUS
10
111.193
20
-154.834
11
111.098
21
-155.024
0
LINE
8
BLACK
6
CONTINUOUS
10
111.098
20
-155.024
11
111.002
21
-155.12
0
LINE
8
BLACK
6
CONTINUOUS
10
111.002
20
-155.12
11
110.812
21
-155.215
0
LINE
8
BLACK
6
CONTINUOUS
10
110.812
20
-155.215
11
110.24
21
-155.215
0
LINE
8
BLACK
6
CONTINUOUS
10
110.24
20
-155.215
11
110.05
21
-155.12
0
LINE
8
BLACK
6
CONTINUOUS
10
110.05
20
-155.12
11
109.955
21
-155.024
0
LINE
8
BLACK
6
CONTINUOUS
10
111.955
20
-153.215
11
111.955
21
-153.596
0
LINE
8
BLACK
6
CONTINUOUS
10
112.717
20
-153.215
11
112.717
21
-153.596
0
LINE
8
BLACK
6
CONTINUOUS
10
115.669
20
-155.977
11
115.574
21
-155.881
0
LINE
8
BLACK
6
CONTINUOUS
10
115.574
20
-155.881
11
115.383
21
-155.596
0
LINE
8
BLACK
6
CONTINUOUS
10
115.383
20
-155.596
11
115.288
21
-155.405
0
LINE
8
BLACK
6
CONTINUOUS
10
115.288
20
-155.405
11
115.193
21
-155.12
0
LINE
8
BLACK
6
CONTINUOUS
10
115.193
20
-155.12
11
115.098
21
-154.643
0
LINE
8
BLACK
6
CONTINUOUS
10
115.098
20
-154.643
11
115.098
21
-154.262
0
LINE
8
BLACK
6
CONTINUOUS
10
115.098
20
-154.262
11
115.193
21
-153.786
0
LINE
8
BLACK
6
CONTINUOUS
10
115.193
20
-153.786
11
115.288
21
-153.5
0
LINE
8
BLACK
6
CONTINUOUS
10
115.288
20
-153.5
11
115.383
21
-153.31
0
LINE
8
BLACK
6
CONTINUOUS
10
115.383
20
-153.31
11
115.574
21
-153.024
0
LINE
8
BLACK
6
CONTINUOUS
10
115.574
20
-153.024
11
115.669
21
-152.929
0
LINE
8
BLACK
6
CONTINUOUS
10
116.336
20
-153.405
11
116.431
21
-153.31
0
LINE
8
BLACK
6
CONTINUOUS
10
116.431
20
-153.31
11
116.621
21
-153.215
0
LINE
8
BLACK
6
CONTINUOUS
10
116.621
20
-153.215
11
117.098
21
-153.215
0
LINE
8
BLACK
6
CONTINUOUS
10
117.098
20
-153.215
11
117.288
21
-153.31
0
LINE
8
BLACK
6
CONTINUOUS
10
117.288
20
-153.31
11
117.383
21
-153.405
0
LINE
8
BLACK
6
CONTINUOUS
10
117.383
20
-153.405
11
117.479
21
-153.596
0
LINE
8
BLACK
6
CONTINUOUS
10
117.479
20
-153.596
11
117.479
21
-153.786
0
LINE
8
BLACK
6
CONTINUOUS
10
117.479
20
-153.786
11
117.383
21
-154.072
0
LINE
8
BLACK
6
CONTINUOUS
10
117.383
20
-154.072
11
116.24
21
-155.215
0
LINE
8
BLACK
6
CONTINUOUS
10
116.24
20
-155.215
11
117.479
21
-155.215
0
LINE
8
BLACK
6
CONTINUOUS
10
119.86
20
-155.215
11
119.86
21
-153.215
0
LINE
8
BLACK
6
CONTINUOUS
10
120.717
20
-155.215
11
120.717
21
-154.167
0
LINE
8
BLACK
6
CONTINUOUS
10
120.717
20
-154.167
11
120.621
21
-153.977
0
LINE
8
BLACK
6
CONTINUOUS
10
120.621
20
-153.977
11
120.431
21
-153.881
0
LINE
8
BLACK
6
CONTINUOUS
10
120.431
20
-153.881
11
120.145
21
-153.881
0
LINE
8
BLACK
6
CONTINUOUS
10
120.145
20
-153.881
11
119.955
21
-153.977
0
LINE
8
BLACK
6
CONTINUOUS
10
119.955
20
-153.977
11
119.86
21
-154.072
0
LINE
8
BLACK
6
CONTINUOUS
10
121.955
20
-155.215
11
121.764
21
-155.12
0
LINE
8
BLACK
6
CONTINUOUS
10
121.764
20
-155.12
11
121.669
21
-155.024
0
LINE
8
BLACK
6
CONTINUOUS
10
121.669
20
-155.024
11
121.574
21
-154.834
0
LINE
8
BLACK
6
CONTINUOUS
10
121.574
20
-154.834
11
121.574
21
-154.262
0
LINE
8
BLACK
6
CONTINUOUS
10
121.574
20
-154.262
11
121.669
21
-154.072
0
LINE
8
BLACK
6
CONTINUOUS
10
121.669
20
-154.072
11
121.764
21
-153.977
0
LINE
8
BLACK
6
CONTINUOUS
10
121.764
20
-153.977
11
121.955
21
-153.881
0
LINE
8
BLACK
6
CONTINUOUS
10
121.955
20
-153.881
11
122.24
21
-153.881
0
LINE
8
BLACK
6
CONTINUOUS
10
122.24
20
-153.881
11
122.431
21
-153.977
0
LINE
8
BLACK
6
CONTINUOUS
10
122.431
20
-153.977
11
122.526
21
-154.072
0
LINE
8
BLACK
6
CONTINUOUS
10
122.526
20
-154.072
11
122.621
21
-154.262
0
LINE
8
BLACK
6
CONTINUOUS
10
122.621
20
-154.262
11
122.621
21
-154.834
0
LINE
8
BLACK
6
CONTINUOUS
10
122.621
20
-154.834
11
122.526
21
-155.024
0
LINE
8
BLACK
6
CONTINUOUS
10
122.526
20
-155.024
11
122.431
21
-155.12
0
LINE
8
BLACK
6
CONTINUOUS
10
122.431
20
-155.12
11
122.24
21
-155.215
0
LINE
8
BLACK
6
CONTINUOUS
10
122.24
20
-155.215
11
121.955
21
-155.215
0
LINE
8
BLACK
6
CONTINUOUS
10
123.764
20
-155.215
11
123.574
21
-155.12
0
LINE
8
BLACK
6
CONTINUOUS
10
123.574
20
-155.12
11
123.479
21
-154.929
0
LINE
8
BLACK
6
CONTINUOUS
10
123.479
20
-154.929
11
123.479
21
-153.215
0
LINE
8
BLACK
6
CONTINUOUS
10
125.288
20
-155.12
11
125.098
21
-155.215
0
LINE
8
BLACK
6
CONTINUOUS
10
125.098
20
-155.215
11
124.717
21
-155.215
0
LINE
8
BLACK
6
CONTINUOUS
10
124.717
20
-155.215
11
124.526
21
-155.12
0
LINE
8
BLACK
6
CONTINUOUS
10
124.526
20
-155.12
11
124.431
21
-154.929
0
LINE
8
BLACK
6
CONTINUOUS
10
124.431
20
-154.929
11
124.431
21
-154.167
0
LINE
8
BLACK
6
CONTINUOUS
10
124.431
20
-154.167
11
124.526
21
-153.977
0
LINE
8
BLACK
6
CONTINUOUS
10
124.526
20
-153.977
11
124.717
21
-153.881
0
LINE
8
BLACK
6
CONTINUOUS
10
124.717
20
-153.881
11
125.098
21
-153.881
0
LINE
8
BLACK
6
CONTINUOUS
10
125.098
20
-153.881
11
125.288
21
-153.977
0
LINE
8
BLACK
6
CONTINUOUS
10
125.288
20
-153.977
11
125.383
21
-154.167
0
LINE
8
BLACK
6
CONTINUOUS
10
125.383
20
-154.167
11
125.383
21
-154.358
0
LINE
8
BLACK
6
CONTINUOUS
10
125.383
20
-154.358
11
124.431
21
-154.548
0
LINE
8
BLACK
6
CONTINUOUS
10
126.145
20
-155.12
11
126.336
21
-155.215
0
LINE
8
BLACK
6
CONTINUOUS
10
126.336
20
-155.215
11
126.717
21
-155.215
0
LINE
8
BLACK
6
CONTINUOUS
10
126.717
20
-155.215
11
126.907
21
-155.12
0
LINE
8
BLACK
6
CONTINUOUS
10
126.907
20
-155.12
11
127.002
21
-154.929
0
LINE
8
BLACK
6
CONTINUOUS
10
127.002
20
-154.929
11
127.002
21
-154.834
0
LINE
8
BLACK
6
CONTINUOUS
10
127.002
20
-154.834
11
126.907
21
-154.643
0
LINE
8
BLACK
6
CONTINUOUS
10
126.907
20
-154.643
11
126.717
21
-154.548
0
LINE
8
BLACK
6
CONTINUOUS
10
126.717
20
-154.548
11
126.431
21
-154.548
0
LINE
8
BLACK
6
CONTINUOUS
10
126.431
20
-154.548
11
126.24
21
-154.453
0
LINE
8
BLACK
6
CONTINUOUS
10
126.24
20
-154.453
11
126.145
21
-154.262
0
LINE
8
BLACK
6
CONTINUOUS
10
126.145
20
-154.262
11
126.145
21
-154.167
0
LINE
8
BLACK
6
CONTINUOUS
10
126.145
20
-154.167
11
126.24
21
-153.977
0
LINE
8
BLACK
6
CONTINUOUS
10
126.24
20
-153.977
11
126.431
21
-153.881
0
LINE
8
BLACK
6
CONTINUOUS
10
126.431
20
-153.881
11
126.717
21
-153.881
0
LINE
8
BLACK
6
CONTINUOUS
10
126.717
20
-153.881
11
126.907
21
-153.977
0
LINE
8
BLACK
6
CONTINUOUS
10
127.669
20
-155.977
11
127.764
21
-155.881
0
LINE
8
BLACK
6
CONTINUOUS
10
127.764
20
-155.881
11
127.955
21
-155.596
0
LINE
8
BLACK
6
CONTINUOUS
10
127.955
20
-155.596
11
128.05
21
-155.405
0
LINE
8
BLACK
6
CONTINUOUS
10
128.05
20
-155.405
11
128.145
21
-155.12
0
LINE
8
BLACK
6
CONTINUOUS
10
128.145
20
-155.12
11
128.24
21
-154.643
0
LINE
8
BLACK
6
CONTINUOUS
10
128.24
20
-154.643
11
128.24
21
-154.262
0
LINE
8
BLACK
6
CONTINUOUS
10
128.24
20
-154.262
11
128.145
21
-153.786
0
LINE
8
BLACK
6
CONTINUOUS
10
128.145
20
-153.786
11
128.05
21
-153.5
0
LINE
8
BLACK
6
CONTINUOUS
10
128.05
20
-153.5
11
127.955
21
-153.31
0
LINE
8
BLACK
6
CONTINUOUS
10
127.955
20
-153.31
11
127.764
21
-153.024
0
LINE
8
BLACK
6
CONTINUOUS
10
127.764
20
-153.024
11
127.669
21
-152.929
  0
ENDSEC
  0
EOF
