%TF.GenerationSoftware,KiCad,Pcbnew,(6.0.9)*%
%TF.CreationDate,2023-02-07T16:21:55+00:00*%
%TF.ProjectId,Apricot-Hard-Disk-Interface,41707269-636f-4742-9d48-6172642d4469,rev?*%
%TF.SameCoordinates,Original*%
%TF.FileFunction,Soldermask,Bot*%
%TF.FilePolarity,Negative*%
%FSLAX46Y46*%
G04 Gerber Fmt 4.6, Leading zero omitted, Abs format (unit mm)*
G04 Created by KiCad (PCBNEW (6.0.9)) date 2023-02-07 16:21:55*
%MOMM*%
%LPD*%
G01*
G04 APERTURE LIST*
G04 Aperture macros list*
%AMRoundRect*
0 Rectangle with rounded corners*
0 $1 Rounding radius*
0 $2 $3 $4 $5 $6 $7 $8 $9 X,Y pos of 4 corners*
0 Add a 4 corners polygon primitive as box body*
4,1,4,$2,$3,$4,$5,$6,$7,$8,$9,$2,$3,0*
0 Add four circle primitives for the rounded corners*
1,1,$1+$1,$2,$3*
1,1,$1+$1,$4,$5*
1,1,$1+$1,$6,$7*
1,1,$1+$1,$8,$9*
0 Add four rect primitives between the rounded corners*
20,1,$1+$1,$2,$3,$4,$5,0*
20,1,$1+$1,$4,$5,$6,$7,0*
20,1,$1+$1,$6,$7,$8,$9,0*
20,1,$1+$1,$8,$9,$2,$3,0*%
G04 Aperture macros list end*
%ADD10R,1.600000X1.600000*%
%ADD11O,1.600000X1.600000*%
%ADD12R,2.200000X2.200000*%
%ADD13O,2.200000X2.200000*%
%ADD14C,2.850000*%
%ADD15RoundRect,0.249999X0.525001X0.525001X-0.525001X0.525001X-0.525001X-0.525001X0.525001X-0.525001X0*%
%ADD16C,1.550000*%
%ADD17RoundRect,0.249999X0.525001X-0.525001X0.525001X0.525001X-0.525001X0.525001X-0.525001X-0.525001X0*%
%ADD18O,1.700000X1.700000*%
%ADD19R,1.700000X1.700000*%
G04 APERTURE END LIST*
D10*
%TO.C,U3*%
X102100000Y-105750000D03*
D11*
X102100000Y-108290000D03*
X102100000Y-110830000D03*
X102100000Y-113370000D03*
X102100000Y-115910000D03*
X102100000Y-118450000D03*
X102100000Y-120990000D03*
X102100000Y-123530000D03*
X102100000Y-126070000D03*
X102100000Y-128610000D03*
X109720000Y-128610000D03*
X109720000Y-126070000D03*
X109720000Y-123530000D03*
X109720000Y-120990000D03*
X109720000Y-118450000D03*
X109720000Y-115910000D03*
X109720000Y-113370000D03*
X109720000Y-110830000D03*
X109720000Y-108290000D03*
X109720000Y-105750000D03*
%TD*%
D10*
%TO.C,RN3*%
X117650000Y-102150000D03*
D11*
X120190000Y-102150000D03*
X122730000Y-102150000D03*
X125270000Y-102150000D03*
X127810000Y-102150000D03*
%TD*%
D10*
%TO.C,U1*%
X128025000Y-98400000D03*
D11*
X130565000Y-98400000D03*
X133105000Y-98400000D03*
X135645000Y-98400000D03*
X138185000Y-98400000D03*
X140725000Y-98400000D03*
X143265000Y-98400000D03*
X145805000Y-98400000D03*
X148345000Y-98400000D03*
X150885000Y-98400000D03*
X150885000Y-90780000D03*
X148345000Y-90780000D03*
X145805000Y-90780000D03*
X143265000Y-90780000D03*
X140725000Y-90780000D03*
X138185000Y-90780000D03*
X135645000Y-90780000D03*
X133105000Y-90780000D03*
X130565000Y-90780000D03*
X128025000Y-90780000D03*
%TD*%
D12*
%TO.C,D1*%
X128130000Y-106750000D03*
D13*
X117970000Y-106750000D03*
%TD*%
D10*
%TO.C,U6*%
X199600000Y-102600000D03*
D11*
X199600000Y-105140000D03*
X199600000Y-107680000D03*
X199600000Y-110220000D03*
X199600000Y-112760000D03*
X199600000Y-115300000D03*
X199600000Y-117840000D03*
X199600000Y-120380000D03*
X199600000Y-122920000D03*
X199600000Y-125460000D03*
X207220000Y-125460000D03*
X207220000Y-122920000D03*
X207220000Y-120380000D03*
X207220000Y-117840000D03*
X207220000Y-115300000D03*
X207220000Y-112760000D03*
X207220000Y-110220000D03*
X207220000Y-107680000D03*
X207220000Y-105140000D03*
X207220000Y-102600000D03*
%TD*%
D10*
%TO.C,RN2*%
X93750000Y-112100000D03*
D11*
X93750000Y-114640000D03*
X93750000Y-117180000D03*
X93750000Y-119720000D03*
X93750000Y-122260000D03*
X93750000Y-124800000D03*
X93750000Y-127340000D03*
X93750000Y-129880000D03*
X93750000Y-132420000D03*
%TD*%
D10*
%TO.C,U7*%
X185500000Y-102600000D03*
D11*
X185500000Y-105140000D03*
X185500000Y-107680000D03*
X185500000Y-110220000D03*
X185500000Y-112760000D03*
X185500000Y-115300000D03*
X185500000Y-117840000D03*
X185500000Y-120380000D03*
X185500000Y-122920000D03*
X185500000Y-125460000D03*
X193120000Y-125460000D03*
X193120000Y-122920000D03*
X193120000Y-120380000D03*
X193120000Y-117840000D03*
X193120000Y-115300000D03*
X193120000Y-112760000D03*
X193120000Y-110220000D03*
X193120000Y-107680000D03*
X193120000Y-105140000D03*
X193120000Y-102600000D03*
%TD*%
D10*
%TO.C,U2*%
X82350000Y-112025000D03*
D11*
X82350000Y-114565000D03*
X82350000Y-117105000D03*
X82350000Y-119645000D03*
X82350000Y-122185000D03*
X82350000Y-124725000D03*
X82350000Y-127265000D03*
X82350000Y-129805000D03*
X82350000Y-132345000D03*
X82350000Y-134885000D03*
X89970000Y-134885000D03*
X89970000Y-132345000D03*
X89970000Y-129805000D03*
X89970000Y-127265000D03*
X89970000Y-124725000D03*
X89970000Y-122185000D03*
X89970000Y-119645000D03*
X89970000Y-117105000D03*
X89970000Y-114565000D03*
X89970000Y-112025000D03*
%TD*%
D14*
%TO.C,J1*%
X120480000Y-134940000D03*
X209380000Y-134940000D03*
D15*
X204300000Y-132400000D03*
D16*
X201760000Y-132400000D03*
X199220000Y-132400000D03*
X196680000Y-132400000D03*
X194140000Y-132400000D03*
X191600000Y-132400000D03*
X189060000Y-132400000D03*
X186520000Y-132400000D03*
X183980000Y-132400000D03*
X181440000Y-132400000D03*
X178900000Y-132400000D03*
X176360000Y-132400000D03*
X173820000Y-132400000D03*
X171280000Y-132400000D03*
X168740000Y-132400000D03*
X166200000Y-132400000D03*
X163660000Y-132400000D03*
X161120000Y-132400000D03*
X158580000Y-132400000D03*
X156040000Y-132400000D03*
X153500000Y-132400000D03*
X150960000Y-132400000D03*
X148420000Y-132400000D03*
X145880000Y-132400000D03*
X143340000Y-132400000D03*
X140800000Y-132400000D03*
X138260000Y-132400000D03*
X135720000Y-132400000D03*
X133180000Y-132400000D03*
X130640000Y-132400000D03*
X128100000Y-132400000D03*
X125560000Y-132400000D03*
X204300000Y-129860000D03*
X201760000Y-129860000D03*
X199220000Y-129860000D03*
X196680000Y-129860000D03*
X194140000Y-129860000D03*
X191600000Y-129860000D03*
X189060000Y-129860000D03*
X186520000Y-129860000D03*
X183980000Y-129860000D03*
X181440000Y-129860000D03*
X178900000Y-129860000D03*
X176360000Y-129860000D03*
X173820000Y-129860000D03*
X171280000Y-129860000D03*
X168740000Y-129860000D03*
X166200000Y-129860000D03*
X163660000Y-129860000D03*
X161120000Y-129860000D03*
X158580000Y-129860000D03*
X156040000Y-129860000D03*
X153500000Y-129860000D03*
X150960000Y-129860000D03*
X148420000Y-129860000D03*
X145880000Y-129860000D03*
X143340000Y-129860000D03*
X140800000Y-129860000D03*
X138260000Y-129860000D03*
X135720000Y-129860000D03*
X133180000Y-129860000D03*
X130640000Y-129860000D03*
X128100000Y-129860000D03*
X125560000Y-129860000D03*
%TD*%
D14*
%TO.C,J2*%
X119100000Y-82472500D03*
X209100000Y-82472500D03*
D17*
X124730000Y-84712500D03*
D16*
X127270000Y-84712500D03*
X129810000Y-84712500D03*
X132350000Y-84712500D03*
X134890000Y-84712500D03*
X137430000Y-84712500D03*
X139970000Y-84712500D03*
X142510000Y-84712500D03*
X145050000Y-84712500D03*
X147590000Y-84712500D03*
X150130000Y-84712500D03*
X152670000Y-84712500D03*
X155210000Y-84712500D03*
X157750000Y-84712500D03*
X160290000Y-84712500D03*
X162830000Y-84712500D03*
X165370000Y-84712500D03*
X167910000Y-84712500D03*
X170450000Y-84712500D03*
X172990000Y-84712500D03*
X175530000Y-84712500D03*
X178070000Y-84712500D03*
X180610000Y-84712500D03*
X183150000Y-84712500D03*
X185690000Y-84712500D03*
X188230000Y-84712500D03*
X190770000Y-84712500D03*
X193310000Y-84712500D03*
X195850000Y-84712500D03*
X198390000Y-84712500D03*
X200930000Y-84712500D03*
X203470000Y-84712500D03*
X124730000Y-82172500D03*
X127270000Y-82172500D03*
X129810000Y-82172500D03*
X132350000Y-82172500D03*
X134890000Y-82172500D03*
X137430000Y-82172500D03*
X139970000Y-82172500D03*
X142510000Y-82172500D03*
X145050000Y-82172500D03*
X147590000Y-82172500D03*
X150130000Y-82172500D03*
X152670000Y-82172500D03*
X155210000Y-82172500D03*
X157750000Y-82172500D03*
X160290000Y-82172500D03*
X162830000Y-82172500D03*
X165370000Y-82172500D03*
X167910000Y-82172500D03*
X170450000Y-82172500D03*
X172990000Y-82172500D03*
X175530000Y-82172500D03*
X178070000Y-82172500D03*
X180610000Y-82172500D03*
X183150000Y-82172500D03*
X185690000Y-82172500D03*
X188230000Y-82172500D03*
X190770000Y-82172500D03*
X193310000Y-82172500D03*
X195850000Y-82172500D03*
X198390000Y-82172500D03*
X200930000Y-82172500D03*
X203470000Y-82172500D03*
%TD*%
D10*
%TO.C,U5*%
X187475000Y-98400000D03*
D11*
X190015000Y-98400000D03*
X192555000Y-98400000D03*
X195095000Y-98400000D03*
X197635000Y-98400000D03*
X200175000Y-98400000D03*
X202715000Y-98400000D03*
X205255000Y-98400000D03*
X207795000Y-98400000D03*
X210335000Y-98400000D03*
X210335000Y-90780000D03*
X207795000Y-90780000D03*
X205255000Y-90780000D03*
X202715000Y-90780000D03*
X200175000Y-90780000D03*
X197635000Y-90780000D03*
X195095000Y-90780000D03*
X192555000Y-90780000D03*
X190015000Y-90780000D03*
X187475000Y-90780000D03*
%TD*%
D18*
%TO.C,P1*%
X131970000Y-124490000D03*
X134510000Y-124490000D03*
D19*
X137050000Y-124490000D03*
D18*
X139590000Y-124490000D03*
X142130000Y-124490000D03*
X144670000Y-124490000D03*
X147210000Y-124490000D03*
D19*
X149750000Y-124490000D03*
D18*
X152290000Y-124490000D03*
X154830000Y-124490000D03*
X157370000Y-124490000D03*
X159910000Y-124490000D03*
D19*
X162450000Y-124490000D03*
D18*
X164990000Y-124490000D03*
X167530000Y-124490000D03*
X170070000Y-124490000D03*
X172610000Y-124490000D03*
D19*
X175150000Y-124490000D03*
D18*
X177690000Y-124490000D03*
X180230000Y-124490000D03*
X180230000Y-106710000D03*
X177690000Y-106710000D03*
D19*
X175150000Y-106710000D03*
D18*
X172610000Y-106710000D03*
X170070000Y-106710000D03*
X167530000Y-106710000D03*
X164990000Y-106710000D03*
D19*
X162450000Y-106710000D03*
D18*
X159910000Y-106710000D03*
X157370000Y-106710000D03*
X154830000Y-106710000D03*
X152290000Y-106710000D03*
D19*
X149750000Y-106710000D03*
D18*
X147210000Y-106710000D03*
X144670000Y-106710000D03*
X142130000Y-106710000D03*
X139590000Y-106710000D03*
D19*
X137050000Y-106710000D03*
D18*
X134510000Y-106710000D03*
X131970000Y-106710000D03*
X180000000Y-118140000D03*
D19*
X180000000Y-115600000D03*
D18*
X180000000Y-113060000D03*
%TD*%
D10*
%TO.C,RN4*%
X98150000Y-106850000D03*
D11*
X98150000Y-109390000D03*
X98150000Y-111930000D03*
X98150000Y-114470000D03*
X98150000Y-117010000D03*
X98150000Y-119550000D03*
X98150000Y-122090000D03*
X98150000Y-124630000D03*
X98150000Y-127170000D03*
%TD*%
D10*
%TO.C,U4*%
X157575000Y-98500000D03*
D11*
X160115000Y-98500000D03*
X162655000Y-98500000D03*
X165195000Y-98500000D03*
X167735000Y-98500000D03*
X170275000Y-98500000D03*
X172815000Y-98500000D03*
X175355000Y-98500000D03*
X177895000Y-98500000D03*
X180435000Y-98500000D03*
X180435000Y-90880000D03*
X177895000Y-90880000D03*
X175355000Y-90880000D03*
X172815000Y-90880000D03*
X170275000Y-90880000D03*
X167735000Y-90880000D03*
X165195000Y-90880000D03*
X162655000Y-90880000D03*
X160115000Y-90880000D03*
X157575000Y-90880000D03*
%TD*%
D19*
%TO.C,J3*%
X113550000Y-82925000D03*
D18*
X113550000Y-85465000D03*
X113550000Y-88005000D03*
X113550000Y-90545000D03*
X113550000Y-93085000D03*
X113550000Y-95625000D03*
%TD*%
D10*
%TO.C,RN1*%
X114100000Y-107050000D03*
D11*
X114100000Y-109590000D03*
X114100000Y-112130000D03*
X114100000Y-114670000D03*
X114100000Y-117210000D03*
X114100000Y-119750000D03*
X114100000Y-122290000D03*
X114100000Y-124830000D03*
X114100000Y-127370000D03*
%TD*%
M02*
