  0
SECTION
  2
HEADER
  9
$ANGBASE
  50
0.0
  9
$ANGDIR
  70
1
  9
$MEASUREMENT
  70
1
  0
ENDSEC
  0
SECTION
  2
TABLES
  0
TABLE
  2
LTYPE
  70
4
  0
LTYPE
  5
40F
  2
CONTINUOUS
  70
0
  3
Solid line
  72
65
  73
0
  40
0.0
  0
LTYPE
  5
410
  2
DASHDOT
 70
0
  3
Dash Dot ____ _ ____ _
 72
65
 73
4
 40
2.0
 49
1.25
 49
-0.25
 49
0.25
 49
-0.25
  0
LTYPE
  5
411
  2
DASHED
 70
0
  3
Dashed __ __ __ __ __
 72
65
 73
2
 40
0.75
 49
0.5
 49
-0.25
  0
LTYPE
  5
43B
  2
DOTTED
 70
0
  3
Dotted .  .  .  .
 72
65
 73
2
 40
0.2
 49
0.0
 49
-0.2
  0
ENDTAB
  0
TABLE
  2
STYLE
  70
4
  0
STYLE
  2
KICAD
  70
0
  40
0
  41
1
  42
1
  50
0
  71
0
  3
isocp.shx
  0
STYLE
  2
KICADB
  70
0
  40
0
  41
1
  42
1
  50
0
  71
0
  3
isocp.shx
  0
STYLE
  2
KICADI
  70
0
  40
0
  41
1
  42
1
  50
15
  71
0
  3
isocp.shx
  0
STYLE
  2
KICADBI
  70
0
  40
0
  41
1
  42
1
  50
15
  71
0
  3
isocp.shx
  0
ENDTAB
  0
TABLE
  2
LAYER
  70
1
  0
LAYER
  2
BLACK
  70
0
  62
7
  6
CONTINUOUS
  0
ENDTAB
  0
ENDSEC
  0
SECTION
  2
ENTITIES
0
LINE
8
BLACK
6
CONTINUOUS
10
212.4
20
-137.3
11
80
21
-137.3
0
LINE
8
BLACK
6
CONTINUOUS
10
212.3
20
-78.9
11
212.4
21
-137.3
0
LINE
8
BLACK
6
CONTINUOUS
10
80
20
-137.3
11
80
21
-79
0
LINE
8
BLACK
6
CONTINUOUS
10
80
20
-79
11
212.3
21
-78.9
0
LINE
8
BLACK
6
CONTINUOUS
10
83.85
20
-101.65
11
84.25
21
-102.05
0
LINE
8
BLACK
6
CONTINUOUS
10
84.25
20
-101.65
11
83.85
21
-102.05
0
LINE
8
BLACK
6
CONTINUOUS
10
84.6
20
-115.75
11
85
21
-116.15
0
LINE
8
BLACK
6
CONTINUOUS
10
85
20
-115.75
11
84.6
21
-116.15
0
LINE
8
BLACK
6
CONTINUOUS
10
84.65
20
-125.75
11
85.05
21
-126.15
0
LINE
8
BLACK
6
CONTINUOUS
10
85.05
20
-125.75
11
84.65
21
-126.15
0
LINE
8
BLACK
6
CONTINUOUS
10
86.9
20
-119.65
11
87.3
21
-120.05
0
LINE
8
BLACK
6
CONTINUOUS
10
87.3
20
-119.65
11
86.9
21
-120.05
0
LINE
8
BLACK
6
CONTINUOUS
10
87.3
20
-129.55
11
87.7
21
-129.95
0
LINE
8
BLACK
6
CONTINUOUS
10
87.7
20
-129.55
11
87.3
21
-129.95
0
LINE
8
BLACK
6
CONTINUOUS
10
87.65
20
-124.45
11
88.05
21
-124.85
0
LINE
8
BLACK
6
CONTINUOUS
10
88.05
20
-124.45
11
87.65
21
-124.85
0
LINE
8
BLACK
6
CONTINUOUS
10
92.0775
20
-113.751
11
92.4775
21
-114.151
0
LINE
8
BLACK
6
CONTINUOUS
10
92.4775
20
-113.751
11
92.0775
21
-114.151
0
LINE
8
BLACK
6
CONTINUOUS
10
94.8
20
-105.05
11
95.2
21
-105.45
0
LINE
8
BLACK
6
CONTINUOUS
10
95.2
20
-105.05
11
94.8
21
-105.45
0
LINE
8
BLACK
6
CONTINUOUS
10
106.083
20
-122.194
11
106.483
21
-122.594
0
LINE
8
BLACK
6
CONTINUOUS
10
106.483
20
-122.194
11
106.083
21
-122.594
0
LINE
8
BLACK
6
CONTINUOUS
10
106.283
20
-105.55
11
106.683
21
-105.95
0
LINE
8
BLACK
6
CONTINUOUS
10
106.683
20
-105.55
11
106.283
21
-105.95
0
LINE
8
BLACK
6
CONTINUOUS
10
106.85
20
-99.2
11
107.25
21
-99.6
0
LINE
8
BLACK
6
CONTINUOUS
10
107.25
20
-99.2
11
106.85
21
-99.6
0
LINE
8
BLACK
6
CONTINUOUS
10
107.159
20
-114.037
11
107.559
21
-114.437
0
LINE
8
BLACK
6
CONTINUOUS
10
107.559
20
-114.037
11
107.159
21
-114.437
0
LINE
8
BLACK
6
CONTINUOUS
10
107.5
20
-125.9
11
107.9
21
-126.3
0
LINE
8
BLACK
6
CONTINUOUS
10
107.9
20
-125.9
11
107.5
21
-126.3
0
LINE
8
BLACK
6
CONTINUOUS
10
108.714
20
-84.7885
11
109.114
21
-85.1885
0
LINE
8
BLACK
6
CONTINUOUS
10
109.114
20
-84.7885
11
108.714
21
-85.1885
0
LINE
8
BLACK
6
CONTINUOUS
10
109.238
20
-80.227
11
109.638
21
-80.627
0
LINE
8
BLACK
6
CONTINUOUS
10
109.638
20
-80.227
11
109.238
21
-80.627
0
LINE
8
BLACK
6
CONTINUOUS
10
110.061
20
-100.686
11
110.461
21
-101.086
0
LINE
8
BLACK
6
CONTINUOUS
10
110.461
20
-100.686
11
110.061
21
-101.086
0
LINE
8
BLACK
6
CONTINUOUS
10
111.85
20
-129.25
11
112.25
21
-129.65
0
LINE
8
BLACK
6
CONTINUOUS
10
112.25
20
-129.25
11
111.85
21
-129.65
0
LINE
8
BLACK
6
CONTINUOUS
10
112.367
20
-106.314
11
112.767
21
-106.714
0
LINE
8
BLACK
6
CONTINUOUS
10
112.767
20
-106.314
11
112.367
21
-106.714
0
LINE
8
BLACK
6
CONTINUOUS
10
113.71
20
-100.11
11
114.111
21
-100.51
0
LINE
8
BLACK
6
CONTINUOUS
10
114.111
20
-100.11
11
113.71
21
-100.51
0
LINE
8
BLACK
6
CONTINUOUS
10
115.342
20
-96.9821
11
115.742
21
-97.3821
0
LINE
8
BLACK
6
CONTINUOUS
10
115.742
20
-96.9821
11
115.342
21
-97.3821
0
LINE
8
BLACK
6
CONTINUOUS
10
117.595
20
-99.3334
11
117.995
21
-99.7334
0
LINE
8
BLACK
6
CONTINUOUS
10
117.995
20
-99.3334
11
117.595
21
-99.7334
0
LINE
8
BLACK
6
CONTINUOUS
10
120.65
20
-90.8
11
121.05
21
-91.2
0
LINE
8
BLACK
6
CONTINUOUS
10
121.05
20
-90.8
11
120.65
21
-91.2
0
LINE
8
BLACK
6
CONTINUOUS
10
122.95
20
-110.45
11
123.35
21
-110.85
0
LINE
8
BLACK
6
CONTINUOUS
10
123.35
20
-110.45
11
122.95
21
-110.85
0
LINE
8
BLACK
6
CONTINUOUS
10
123.5
20
-88.85
11
123.9
21
-89.25
0
LINE
8
BLACK
6
CONTINUOUS
10
123.9
20
-88.85
11
123.5
21
-89.25
0
LINE
8
BLACK
6
CONTINUOUS
10
125.711
20
-96.5626
11
126.111
21
-96.9626
0
LINE
8
BLACK
6
CONTINUOUS
10
126.111
20
-96.5626
11
125.711
21
-96.9626
0
LINE
8
BLACK
6
CONTINUOUS
10
127.9
20
-115.8
11
128.3
21
-116.2
0
LINE
8
BLACK
6
CONTINUOUS
10
128.3
20
-115.8
11
127.9
21
-116.2
0
LINE
8
BLACK
6
CONTINUOUS
10
129.506
20
-93.7532
11
129.906
21
-94.1532
0
LINE
8
BLACK
6
CONTINUOUS
10
129.906
20
-93.7532
11
129.506
21
-94.1532
0
LINE
8
BLACK
6
CONTINUOUS
10
130.126
20
-87.4507
11
130.526
21
-87.8507
0
LINE
8
BLACK
6
CONTINUOUS
10
130.526
20
-87.4507
11
130.126
21
-87.8507
0
LINE
8
BLACK
6
CONTINUOUS
10
131.45
20
-110.85
11
131.85
21
-111.25
0
LINE
8
BLACK
6
CONTINUOUS
10
131.85
20
-110.85
11
131.45
21
-111.25
0
LINE
8
BLACK
6
CONTINUOUS
10
134.856
20
-95.0877
11
135.255
21
-95.4877
0
LINE
8
BLACK
6
CONTINUOUS
10
135.255
20
-95.0877
11
134.856
21
-95.4877
0
LINE
8
BLACK
6
CONTINUOUS
10
135.1
20
-110.4
11
135.5
21
-110.8
0
LINE
8
BLACK
6
CONTINUOUS
10
135.5
20
-110.4
11
135.1
21
-110.8
0
LINE
8
BLACK
6
CONTINUOUS
10
135.136
20
-101.008
11
135.536
21
-101.408
0
LINE
8
BLACK
6
CONTINUOUS
10
135.536
20
-101.008
11
135.136
21
-101.408
0
LINE
8
BLACK
6
CONTINUOUS
10
135.45
20
-108.805
11
135.85
21
-109.206
0
LINE
8
BLACK
6
CONTINUOUS
10
135.85
20
-108.805
11
135.45
21
-109.206
0
LINE
8
BLACK
6
CONTINUOUS
10
136.214
20
-127.573
11
136.614
21
-127.973
0
LINE
8
BLACK
6
CONTINUOUS
10
136.614
20
-127.573
11
136.214
21
-127.973
0
LINE
8
BLACK
6
CONTINUOUS
10
136.92
20
-120.274
11
137.32
21
-120.674
0
LINE
8
BLACK
6
CONTINUOUS
10
137.32
20
-120.274
11
136.92
21
-120.674
0
LINE
8
BLACK
6
CONTINUOUS
10
137.495
20
-121.18
11
137.895
21
-121.58
0
LINE
8
BLACK
6
CONTINUOUS
10
137.895
20
-121.18
11
137.495
21
-121.58
0
LINE
8
BLACK
6
CONTINUOUS
10
137.496
20
-135.897
11
137.896
21
-136.297
0
LINE
8
BLACK
6
CONTINUOUS
10
137.896
20
-135.897
11
137.496
21
-136.297
0
LINE
8
BLACK
6
CONTINUOUS
10
138.698
20
-120.258
11
139.098
21
-120.658
0
LINE
8
BLACK
6
CONTINUOUS
10
139.098
20
-120.258
11
138.698
21
-120.658
0
LINE
8
BLACK
6
CONTINUOUS
10
138.882
20
-122.383
11
139.282
21
-122.783
0
LINE
8
BLACK
6
CONTINUOUS
10
139.282
20
-122.383
11
138.882
21
-122.783
0
LINE
8
BLACK
6
CONTINUOUS
10
139.8
20
-110.65
11
140.2
21
-111.05
0
LINE
8
BLACK
6
CONTINUOUS
10
140.2
20
-110.65
11
139.8
21
-111.05
0
LINE
8
BLACK
6
CONTINUOUS
10
141.343
20
-120.803
11
141.743
21
-121.203
0
LINE
8
BLACK
6
CONTINUOUS
10
141.743
20
-120.803
11
141.343
21
-121.203
0
LINE
8
BLACK
6
CONTINUOUS
10
143.025
20
-122.458
11
143.425
21
-122.858
0
LINE
8
BLACK
6
CONTINUOUS
10
143.425
20
-122.458
11
143.025
21
-122.858
0
LINE
8
BLACK
6
CONTINUOUS
10
143.375
20
-85.6192
11
143.775
21
-86.0192
0
LINE
8
BLACK
6
CONTINUOUS
10
143.775
20
-85.6192
11
143.375
21
-86.0192
0
LINE
8
BLACK
6
CONTINUOUS
10
144.55
20
-95.75
11
144.95
21
-96.15
0
LINE
8
BLACK
6
CONTINUOUS
10
144.95
20
-95.75
11
144.55
21
-96.15
0
LINE
8
BLACK
6
CONTINUOUS
10
145.472
20
-133.778
11
145.872
21
-134.178
0
LINE
8
BLACK
6
CONTINUOUS
10
145.872
20
-133.778
11
145.472
21
-134.178
0
LINE
8
BLACK
6
CONTINUOUS
10
146.75
20
-110.75
11
147.15
21
-111.15
0
LINE
8
BLACK
6
CONTINUOUS
10
147.15
20
-110.75
11
146.75
21
-111.15
0
LINE
8
BLACK
6
CONTINUOUS
10
150.032
20
-93.3971
11
150.432
21
-93.7971
0
LINE
8
BLACK
6
CONTINUOUS
10
150.432
20
-93.3971
11
150.032
21
-93.7971
0
LINE
8
BLACK
6
CONTINUOUS
10
152.753
20
-90.4609
11
153.153
21
-90.8609
0
LINE
8
BLACK
6
CONTINUOUS
10
153.153
20
-90.4609
11
152.753
21
-90.8609
0
LINE
8
BLACK
6
CONTINUOUS
10
152.95
20
-95.15
11
153.35
21
-95.55
0
LINE
8
BLACK
6
CONTINUOUS
10
153.35
20
-95.15
11
152.95
21
-95.55
0
LINE
8
BLACK
6
CONTINUOUS
10
153.767
20
-109.883
11
154.167
21
-110.283
0
LINE
8
BLACK
6
CONTINUOUS
10
154.167
20
-109.883
11
153.767
21
-110.283
0
LINE
8
BLACK
6
CONTINUOUS
10
155.438
20
-116.461
11
155.838
21
-116.861
0
LINE
8
BLACK
6
CONTINUOUS
10
155.838
20
-116.461
11
155.438
21
-116.861
0
LINE
8
BLACK
6
CONTINUOUS
10
155.913
20
-108.817
11
156.313
21
-109.217
0
LINE
8
BLACK
6
CONTINUOUS
10
156.313
20
-108.817
11
155.913
21
-109.217
0
LINE
8
BLACK
6
CONTINUOUS
10
156.9
20
-96
11
157.3
21
-96.4
0
LINE
8
BLACK
6
CONTINUOUS
10
157.3
20
-96
11
156.9
21
-96.4
0
LINE
8
BLACK
6
CONTINUOUS
10
157.195
20
-108.367
11
157.594
21
-108.767
0
LINE
8
BLACK
6
CONTINUOUS
10
157.594
20
-108.367
11
157.195
21
-108.767
0
LINE
8
BLACK
6
CONTINUOUS
10
157.95
20
-92.8461
11
158.35
21
-93.2461
0
LINE
8
BLACK
6
CONTINUOUS
10
158.35
20
-92.8461
11
157.95
21
-93.2461
0
LINE
8
BLACK
6
CONTINUOUS
10
158.554
20
-110.089
11
158.954
21
-110.489
0
LINE
8
BLACK
6
CONTINUOUS
10
158.954
20
-110.089
11
158.554
21
-110.489
0
LINE
8
BLACK
6
CONTINUOUS
10
160.141
20
-119.955
11
160.54
21
-120.355
0
LINE
8
BLACK
6
CONTINUOUS
10
160.54
20
-119.955
11
160.141
21
-120.355
0
LINE
8
BLACK
6
CONTINUOUS
10
161.45
20
-93.55
11
161.85
21
-93.95
0
LINE
8
BLACK
6
CONTINUOUS
10
161.85
20
-93.55
11
161.45
21
-93.95
0
LINE
8
BLACK
6
CONTINUOUS
10
162.219
20
-110.707
11
162.619
21
-111.107
0
LINE
8
BLACK
6
CONTINUOUS
10
162.619
20
-110.707
11
162.219
21
-111.107
0
LINE
8
BLACK
6
CONTINUOUS
10
163.955
20
-119.897
11
164.355
21
-120.297
0
LINE
8
BLACK
6
CONTINUOUS
10
164.355
20
-119.897
11
163.955
21
-120.297
0
LINE
8
BLACK
6
CONTINUOUS
10
164.379
20
-112.163
11
164.779
21
-112.563
0
LINE
8
BLACK
6
CONTINUOUS
10
164.779
20
-112.163
11
164.379
21
-112.563
0
LINE
8
BLACK
6
CONTINUOUS
10
165.575
20
-92.852
11
165.975
21
-93.252
0
LINE
8
BLACK
6
CONTINUOUS
10
165.975
20
-92.852
11
165.575
21
-93.252
0
LINE
8
BLACK
6
CONTINUOUS
10
166.819
20
-119.735
11
167.219
21
-120.135
0
LINE
8
BLACK
6
CONTINUOUS
10
167.219
20
-119.735
11
166.819
21
-120.135
0
LINE
8
BLACK
6
CONTINUOUS
10
167.949
20
-102.027
11
168.349
21
-102.427
0
LINE
8
BLACK
6
CONTINUOUS
10
168.349
20
-102.027
11
167.949
21
-102.427
0
LINE
8
BLACK
6
CONTINUOUS
10
168.023
20
-115.793
11
168.423
21
-116.193
0
LINE
8
BLACK
6
CONTINUOUS
10
168.423
20
-115.793
11
168.023
21
-116.193
0
LINE
8
BLACK
6
CONTINUOUS
10
169.03
20
-119.839
11
169.43
21
-120.239
0
LINE
8
BLACK
6
CONTINUOUS
10
169.43
20
-119.839
11
169.03
21
-120.239
0
LINE
8
BLACK
6
CONTINUOUS
10
169.916
20
-133.1
11
170.316
21
-133.5
0
LINE
8
BLACK
6
CONTINUOUS
10
170.316
20
-133.1
11
169.916
21
-133.5
0
LINE
8
BLACK
6
CONTINUOUS
10
170.15
20
-95.1
11
170.55
21
-95.5
0
LINE
8
BLACK
6
CONTINUOUS
10
170.55
20
-95.1
11
170.15
21
-95.5
0
LINE
8
BLACK
6
CONTINUOUS
10
170.8
20
-118.85
11
171.2
21
-119.25
0
LINE
8
BLACK
6
CONTINUOUS
10
171.2
20
-118.85
11
170.8
21
-119.25
0
LINE
8
BLACK
6
CONTINUOUS
10
171.424
20
-121.286
11
171.824
21
-121.686
0
LINE
8
BLACK
6
CONTINUOUS
10
171.824
20
-121.286
11
171.424
21
-121.686
0
LINE
8
BLACK
6
CONTINUOUS
10
171.579
20
-109.75
11
171.979
21
-110.15
0
LINE
8
BLACK
6
CONTINUOUS
10
171.979
20
-109.75
11
171.579
21
-110.15
0
LINE
8
BLACK
6
CONTINUOUS
10
172.05
20
-112.85
11
172.45
21
-113.25
0
LINE
8
BLACK
6
CONTINUOUS
10
172.45
20
-112.85
11
172.05
21
-113.25
0
LINE
8
BLACK
6
CONTINUOUS
10
172.084
20
-128.255
11
172.484
21
-128.655
0
LINE
8
BLACK
6
CONTINUOUS
10
172.484
20
-128.255
11
172.084
21
-128.655
0
LINE
8
BLACK
6
CONTINUOUS
10
172.65
20
-95.65
11
173.05
21
-96.05
0
LINE
8
BLACK
6
CONTINUOUS
10
173.05
20
-95.65
11
172.65
21
-96.05
0
LINE
8
BLACK
6
CONTINUOUS
10
172.8
20
-117.55
11
173.2
21
-117.95
0
LINE
8
BLACK
6
CONTINUOUS
10
173.2
20
-117.55
11
172.8
21
-117.95
0
LINE
8
BLACK
6
CONTINUOUS
10
173.135
20
-108.078
11
173.535
21
-108.478
0
LINE
8
BLACK
6
CONTINUOUS
10
173.535
20
-108.078
11
173.135
21
-108.478
0
LINE
8
BLACK
6
CONTINUOUS
10
174.3
20
-115.35
11
174.7
21
-115.75
0
LINE
8
BLACK
6
CONTINUOUS
10
174.7
20
-115.35
11
174.3
21
-115.75
0
LINE
8
BLACK
6
CONTINUOUS
10
174.7
20
-103.143
11
175.1
21
-103.543
0
LINE
8
BLACK
6
CONTINUOUS
10
175.1
20
-103.143
11
174.7
21
-103.543
0
LINE
8
BLACK
6
CONTINUOUS
10
175
20
-112.9
11
175.4
21
-113.3
0
LINE
8
BLACK
6
CONTINUOUS
10
175.4
20
-112.9
11
175
21
-113.3
0
LINE
8
BLACK
6
CONTINUOUS
10
175.45
20
-96.05
11
175.85
21
-96.45
0
LINE
8
BLACK
6
CONTINUOUS
10
175.85
20
-96.05
11
175.45
21
-96.45
0
LINE
8
BLACK
6
CONTINUOUS
10
176.158
20
-122.816
11
176.558
21
-123.216
0
LINE
8
BLACK
6
CONTINUOUS
10
176.558
20
-122.816
11
176.158
21
-123.216
0
LINE
8
BLACK
6
CONTINUOUS
10
176.315
20
-102.941
11
176.715
21
-103.341
0
LINE
8
BLACK
6
CONTINUOUS
10
176.715
20
-102.941
11
176.315
21
-103.341
0
LINE
8
BLACK
6
CONTINUOUS
10
176.7
20
-118.05
11
177.1
21
-118.45
0
LINE
8
BLACK
6
CONTINUOUS
10
177.1
20
-118.05
11
176.7
21
-118.45
0
LINE
8
BLACK
6
CONTINUOUS
10
177.75
20
-95.65
11
178.15
21
-96.05
0
LINE
8
BLACK
6
CONTINUOUS
10
178.15
20
-95.65
11
177.75
21
-96.05
0
LINE
8
BLACK
6
CONTINUOUS
10
178.4
20
-121.3
11
178.8
21
-121.7
0
LINE
8
BLACK
6
CONTINUOUS
10
178.8
20
-121.3
11
178.4
21
-121.7
0
LINE
8
BLACK
6
CONTINUOUS
10
181.885
20
-119.422
11
182.285
21
-119.822
0
LINE
8
BLACK
6
CONTINUOUS
10
182.285
20
-119.422
11
181.885
21
-119.822
0
LINE
8
BLACK
6
CONTINUOUS
10
182.75
20
-123.95
11
183.15
21
-124.35
0
LINE
8
BLACK
6
CONTINUOUS
10
183.15
20
-123.95
11
182.75
21
-124.35
0
LINE
8
BLACK
6
CONTINUOUS
10
183.416
20
-102.603
11
183.816
21
-103.003
0
LINE
8
BLACK
6
CONTINUOUS
10
183.816
20
-102.603
11
183.416
21
-103.003
0
LINE
8
BLACK
6
CONTINUOUS
10
186.893
20
-93.8665
11
187.293
21
-94.2665
0
LINE
8
BLACK
6
CONTINUOUS
10
187.293
20
-93.8665
11
186.893
21
-94.2665
0
LINE
8
BLACK
6
CONTINUOUS
10
187.25
20
-96
11
187.65
21
-96.4
0
LINE
8
BLACK
6
CONTINUOUS
10
187.65
20
-96
11
187.25
21
-96.4
0
LINE
8
BLACK
6
CONTINUOUS
10
187.343
20
-128.583
11
187.743
21
-128.983
0
LINE
8
BLACK
6
CONTINUOUS
10
187.743
20
-128.583
11
187.343
21
-128.983
0
LINE
8
BLACK
6
CONTINUOUS
10
188.999
20
-124.896
11
189.399
21
-125.296
0
LINE
8
BLACK
6
CONTINUOUS
10
189.399
20
-124.896
11
188.999
21
-125.296
0
LINE
8
BLACK
6
CONTINUOUS
10
189.449
20
-126.798
11
189.849
21
-127.198
0
LINE
8
BLACK
6
CONTINUOUS
10
189.849
20
-126.798
11
189.449
21
-127.198
0
LINE
8
BLACK
6
CONTINUOUS
10
189.93
20
-109.572
11
190.33
21
-109.971
0
LINE
8
BLACK
6
CONTINUOUS
10
190.33
20
-109.572
11
189.93
21
-109.971
0
LINE
8
BLACK
6
CONTINUOUS
10
190.8
20
-93.15
11
191.2
21
-93.55
0
LINE
8
BLACK
6
CONTINUOUS
10
191.2
20
-93.15
11
190.8
21
-93.55
0
LINE
8
BLACK
6
CONTINUOUS
10
190.95
20
-122.8
11
191.35
21
-123.2
0
LINE
8
BLACK
6
CONTINUOUS
10
191.35
20
-122.8
11
190.95
21
-123.2
0
LINE
8
BLACK
6
CONTINUOUS
10
192.4
20
-96.1
11
192.8
21
-96.5
0
LINE
8
BLACK
6
CONTINUOUS
10
192.8
20
-96.1
11
192.4
21
-96.5
0
LINE
8
BLACK
6
CONTINUOUS
10
194.8
20
-94.35
11
195.2
21
-94.75
0
LINE
8
BLACK
6
CONTINUOUS
10
195.2
20
-94.35
11
194.8
21
-94.75
0
LINE
8
BLACK
6
CONTINUOUS
10
194.865
20
-122.542
11
195.265
21
-122.942
0
LINE
8
BLACK
6
CONTINUOUS
10
195.265
20
-122.542
11
194.865
21
-122.942
0
LINE
8
BLACK
6
CONTINUOUS
10
196.44
20
-100.95
11
196.84
21
-101.35
0
LINE
8
BLACK
6
CONTINUOUS
10
196.84
20
-100.95
11
196.44
21
-101.35
0
LINE
8
BLACK
6
CONTINUOUS
10
196.612
20
-124.89
11
197.012
21
-125.29
0
LINE
8
BLACK
6
CONTINUOUS
10
197.012
20
-124.89
11
196.612
21
-125.29
0
LINE
8
BLACK
6
CONTINUOUS
10
197.35
20
-94.1
11
197.75
21
-94.5
0
LINE
8
BLACK
6
CONTINUOUS
10
197.75
20
-94.1
11
197.35
21
-94.5
0
LINE
8
BLACK
6
CONTINUOUS
10
201.685
20
-122.764
11
202.085
21
-123.164
0
LINE
8
BLACK
6
CONTINUOUS
10
202.085
20
-122.764
11
201.685
21
-123.164
0
LINE
8
BLACK
6
CONTINUOUS
10
201.996
20
-121.37
11
202.396
21
-121.77
0
LINE
8
BLACK
6
CONTINUOUS
10
202.396
20
-121.37
11
201.996
21
-121.77
0
LINE
8
BLACK
6
CONTINUOUS
10
202.899
20
-95.2211
11
203.299
21
-95.6211
0
LINE
8
BLACK
6
CONTINUOUS
10
203.299
20
-95.2211
11
202.899
21
-95.6211
0
LINE
8
BLACK
6
CONTINUOUS
10
202.933
20
-107.626
11
203.333
21
-108.026
0
LINE
8
BLACK
6
CONTINUOUS
10
203.333
20
-107.626
11
202.933
21
-108.026
0
LINE
8
BLACK
6
CONTINUOUS
10
203.139
20
-117.995
11
203.539
21
-118.395
0
LINE
8
BLACK
6
CONTINUOUS
10
203.539
20
-117.995
11
203.139
21
-118.395
0
LINE
8
BLACK
6
CONTINUOUS
10
204.75
20
-93.55
11
205.15
21
-93.95
0
LINE
8
BLACK
6
CONTINUOUS
10
205.15
20
-93.55
11
204.75
21
-93.95
0
LINE
8
BLACK
6
CONTINUOUS
10
205.631
20
-111.662
11
206.031
21
-112.062
0
LINE
8
BLACK
6
CONTINUOUS
10
206.031
20
-111.662
11
205.631
21
-112.062
0
LINE
8
BLACK
6
CONTINUOUS
10
207.089
20
-96.1301
11
207.489
21
-96.5301
0
LINE
8
BLACK
6
CONTINUOUS
10
207.489
20
-96.1301
11
207.089
21
-96.5301
0
LINE
8
BLACK
6
CONTINUOUS
10
207.766
20
-129.443
11
208.166
21
-129.843
0
LINE
8
BLACK
6
CONTINUOUS
10
208.166
20
-129.443
11
207.766
21
-129.843
0
LINE
8
BLACK
6
CONTINUOUS
10
208.354
20
-99.4238
11
208.754
21
-99.8238
0
LINE
8
BLACK
6
CONTINUOUS
10
208.754
20
-99.4238
11
208.354
21
-99.8238
0
LINE
8
BLACK
6
CONTINUOUS
10
208.776
20
-100.663
11
209.176
21
-101.063
0
LINE
8
BLACK
6
CONTINUOUS
10
209.176
20
-100.663
11
208.776
21
-101.063
0
LINE
8
BLACK
6
CONTINUOUS
10
209.75
20
-95.3
11
210.15
21
-95.7
0
LINE
8
BLACK
6
CONTINUOUS
10
210.15
20
-95.3
11
209.75
21
-95.7
0
CIRCLE
8
BLACK
10
82.35
20
-112.025
40
0.4
0
CIRCLE
8
BLACK
10
82.35
20
-114.565
40
0.4
0
CIRCLE
8
BLACK
10
82.35
20
-117.105
40
0.4
0
CIRCLE
8
BLACK
10
82.35
20
-119.645
40
0.4
0
CIRCLE
8
BLACK
10
82.35
20
-122.185
40
0.4
0
CIRCLE
8
BLACK
10
82.35
20
-124.725
40
0.4
0
CIRCLE
8
BLACK
10
82.35
20
-127.265
40
0.4
0
CIRCLE
8
BLACK
10
82.35
20
-129.805
40
0.4
0
CIRCLE
8
BLACK
10
82.35
20
-132.345
40
0.4
0
CIRCLE
8
BLACK
10
82.35
20
-134.885
40
0.4
0
CIRCLE
8
BLACK
10
89.97
20
-112.025
40
0.4
0
CIRCLE
8
BLACK
10
89.97
20
-114.565
40
0.4
0
CIRCLE
8
BLACK
10
89.97
20
-117.105
40
0.4
0
CIRCLE
8
BLACK
10
89.97
20
-119.645
40
0.4
0
CIRCLE
8
BLACK
10
89.97
20
-122.185
40
0.4
0
CIRCLE
8
BLACK
10
89.97
20
-124.725
40
0.4
0
CIRCLE
8
BLACK
10
89.97
20
-127.265
40
0.4
0
CIRCLE
8
BLACK
10
89.97
20
-129.805
40
0.4
0
CIRCLE
8
BLACK
10
89.97
20
-132.345
40
0.4
0
CIRCLE
8
BLACK
10
89.97
20
-134.885
40
0.4
0
CIRCLE
8
BLACK
10
93.75
20
-112.1
40
0.4
0
CIRCLE
8
BLACK
10
93.75
20
-114.64
40
0.4
0
CIRCLE
8
BLACK
10
93.75
20
-117.18
40
0.4
0
CIRCLE
8
BLACK
10
93.75
20
-119.72
40
0.4
0
CIRCLE
8
BLACK
10
93.75
20
-122.26
40
0.4
0
CIRCLE
8
BLACK
10
93.75
20
-124.8
40
0.4
0
CIRCLE
8
BLACK
10
93.75
20
-127.34
40
0.4
0
CIRCLE
8
BLACK
10
93.75
20
-129.88
40
0.4
0
CIRCLE
8
BLACK
10
93.75
20
-132.42
40
0.4
0
CIRCLE
8
BLACK
10
98.15
20
-106.85
40
0.4
0
CIRCLE
8
BLACK
10
98.15
20
-109.39
40
0.4
0
CIRCLE
8
BLACK
10
98.15
20
-111.93
40
0.4
0
CIRCLE
8
BLACK
10
98.15
20
-114.47
40
0.4
0
CIRCLE
8
BLACK
10
98.15
20
-117.01
40
0.4
0
CIRCLE
8
BLACK
10
98.15
20
-119.55
40
0.4
0
CIRCLE
8
BLACK
10
98.15
20
-122.09
40
0.4
0
CIRCLE
8
BLACK
10
98.15
20
-124.63
40
0.4
0
CIRCLE
8
BLACK
10
98.15
20
-127.17
40
0.4
0
CIRCLE
8
BLACK
10
102.1
20
-105.75
40
0.4
0
CIRCLE
8
BLACK
10
102.1
20
-108.29
40
0.4
0
CIRCLE
8
BLACK
10
102.1
20
-110.83
40
0.4
0
CIRCLE
8
BLACK
10
102.1
20
-113.37
40
0.4
0
CIRCLE
8
BLACK
10
102.1
20
-115.91
40
0.4
0
CIRCLE
8
BLACK
10
102.1
20
-118.45
40
0.4
0
CIRCLE
8
BLACK
10
102.1
20
-120.99
40
0.4
0
CIRCLE
8
BLACK
10
102.1
20
-123.53
40
0.4
0
CIRCLE
8
BLACK
10
102.1
20
-126.07
40
0.4
0
CIRCLE
8
BLACK
10
102.1
20
-128.61
40
0.4
0
CIRCLE
8
BLACK
10
109.72
20
-105.75
40
0.4
0
CIRCLE
8
BLACK
10
109.72
20
-108.29
40
0.4
0
CIRCLE
8
BLACK
10
109.72
20
-110.83
40
0.4
0
CIRCLE
8
BLACK
10
109.72
20
-113.37
40
0.4
0
CIRCLE
8
BLACK
10
109.72
20
-115.91
40
0.4
0
CIRCLE
8
BLACK
10
109.72
20
-118.45
40
0.4
0
CIRCLE
8
BLACK
10
109.72
20
-120.99
40
0.4
0
CIRCLE
8
BLACK
10
109.72
20
-123.53
40
0.4
0
CIRCLE
8
BLACK
10
109.72
20
-126.07
40
0.4
0
CIRCLE
8
BLACK
10
109.72
20
-128.61
40
0.4
0
CIRCLE
8
BLACK
10
114.1
20
-107.05
40
0.4
0
CIRCLE
8
BLACK
10
114.1
20
-109.59
40
0.4
0
CIRCLE
8
BLACK
10
114.1
20
-112.13
40
0.4
0
CIRCLE
8
BLACK
10
114.1
20
-114.67
40
0.4
0
CIRCLE
8
BLACK
10
114.1
20
-117.21
40
0.4
0
CIRCLE
8
BLACK
10
114.1
20
-119.75
40
0.4
0
CIRCLE
8
BLACK
10
114.1
20
-122.29
40
0.4
0
CIRCLE
8
BLACK
10
114.1
20
-124.83
40
0.4
0
CIRCLE
8
BLACK
10
114.1
20
-127.37
40
0.4
0
CIRCLE
8
BLACK
10
117.65
20
-102.15
40
0.4
0
CIRCLE
8
BLACK
10
120.19
20
-102.15
40
0.4
0
CIRCLE
8
BLACK
10
122.73
20
-102.15
40
0.4
0
CIRCLE
8
BLACK
10
125.27
20
-102.15
40
0.4
0
CIRCLE
8
BLACK
10
127.81
20
-102.15
40
0.4
0
CIRCLE
8
BLACK
10
128.025
20
-90.78
40
0.4
0
CIRCLE
8
BLACK
10
128.025
20
-98.4
40
0.4
0
CIRCLE
8
BLACK
10
130.565
20
-90.78
40
0.4
0
CIRCLE
8
BLACK
10
130.565
20
-98.4
40
0.4
0
CIRCLE
8
BLACK
10
133.105
20
-90.78
40
0.4
0
CIRCLE
8
BLACK
10
133.105
20
-98.4
40
0.4
0
CIRCLE
8
BLACK
10
135.645
20
-90.78
40
0.4
0
CIRCLE
8
BLACK
10
135.645
20
-98.4
40
0.4
0
CIRCLE
8
BLACK
10
138.185
20
-90.78
40
0.4
0
CIRCLE
8
BLACK
10
138.185
20
-98.4
40
0.4
0
CIRCLE
8
BLACK
10
140.725
20
-90.78
40
0.4
0
CIRCLE
8
BLACK
10
140.725
20
-98.4
40
0.4
0
CIRCLE
8
BLACK
10
143.265
20
-90.78
40
0.4
0
CIRCLE
8
BLACK
10
143.265
20
-98.4
40
0.4
0
CIRCLE
8
BLACK
10
145.805
20
-90.78
40
0.4
0
CIRCLE
8
BLACK
10
145.805
20
-98.4
40
0.4
0
CIRCLE
8
BLACK
10
148.345
20
-90.78
40
0.4
0
CIRCLE
8
BLACK
10
148.345
20
-98.4
40
0.4
0
CIRCLE
8
BLACK
10
150.885
20
-90.78
40
0.4
0
CIRCLE
8
BLACK
10
150.885
20
-98.4
40
0.4
0
CIRCLE
8
BLACK
10
157.575
20
-90.88
40
0.4
0
CIRCLE
8
BLACK
10
157.575
20
-98.5
40
0.4
0
CIRCLE
8
BLACK
10
160.115
20
-90.88
40
0.4
0
CIRCLE
8
BLACK
10
160.115
20
-98.5
40
0.4
0
CIRCLE
8
BLACK
10
162.655
20
-90.88
40
0.4
0
CIRCLE
8
BLACK
10
162.655
20
-98.5
40
0.4
0
CIRCLE
8
BLACK
10
165.195
20
-90.88
40
0.4
0
CIRCLE
8
BLACK
10
165.195
20
-98.5
40
0.4
0
CIRCLE
8
BLACK
10
167.735
20
-90.88
40
0.4
0
CIRCLE
8
BLACK
10
167.735
20
-98.5
40
0.4
0
CIRCLE
8
BLACK
10
170.275
20
-90.88
40
0.4
0
CIRCLE
8
BLACK
10
170.275
20
-98.5
40
0.4
0
CIRCLE
8
BLACK
10
172.815
20
-90.88
40
0.4
0
CIRCLE
8
BLACK
10
172.815
20
-98.5
40
0.4
0
CIRCLE
8
BLACK
10
175.355
20
-90.88
40
0.4
0
CIRCLE
8
BLACK
10
175.355
20
-98.5
40
0.4
0
CIRCLE
8
BLACK
10
177.895
20
-90.88
40
0.4
0
CIRCLE
8
BLACK
10
177.895
20
-98.5
40
0.4
0
CIRCLE
8
BLACK
10
180.435
20
-90.88
40
0.4
0
CIRCLE
8
BLACK
10
180.435
20
-98.5
40
0.4
0
CIRCLE
8
BLACK
10
185.5
20
-102.6
40
0.4
0
CIRCLE
8
BLACK
10
185.5
20
-105.14
40
0.4
0
CIRCLE
8
BLACK
10
185.5
20
-107.68
40
0.4
0
CIRCLE
8
BLACK
10
185.5
20
-110.22
40
0.4
0
CIRCLE
8
BLACK
10
185.5
20
-112.76
40
0.4
0
CIRCLE
8
BLACK
10
185.5
20
-115.3
40
0.4
0
CIRCLE
8
BLACK
10
185.5
20
-117.84
40
0.4
0
CIRCLE
8
BLACK
10
185.5
20
-120.38
40
0.4
0
CIRCLE
8
BLACK
10
185.5
20
-122.92
40
0.4
0
CIRCLE
8
BLACK
10
185.5
20
-125.46
40
0.4
0
CIRCLE
8
BLACK
10
187.475
20
-90.78
40
0.4
0
CIRCLE
8
BLACK
10
187.475
20
-98.4
40
0.4
0
CIRCLE
8
BLACK
10
190.015
20
-90.78
40
0.4
0
CIRCLE
8
BLACK
10
190.015
20
-98.4
40
0.4
0
CIRCLE
8
BLACK
10
192.555
20
-90.78
40
0.4
0
CIRCLE
8
BLACK
10
192.555
20
-98.4
40
0.4
0
CIRCLE
8
BLACK
10
193.12
20
-102.6
40
0.4
0
CIRCLE
8
BLACK
10
193.12
20
-105.14
40
0.4
0
CIRCLE
8
BLACK
10
193.12
20
-107.68
40
0.4
0
CIRCLE
8
BLACK
10
193.12
20
-110.22
40
0.4
0
CIRCLE
8
BLACK
10
193.12
20
-112.76
40
0.4
0
CIRCLE
8
BLACK
10
193.12
20
-115.3
40
0.4
0
CIRCLE
8
BLACK
10
193.12
20
-117.84
40
0.4
0
CIRCLE
8
BLACK
10
193.12
20
-120.38
40
0.4
0
CIRCLE
8
BLACK
10
193.12
20
-122.92
40
0.4
0
CIRCLE
8
BLACK
10
193.12
20
-125.46
40
0.4
0
CIRCLE
8
BLACK
10
195.095
20
-90.78
40
0.4
0
CIRCLE
8
BLACK
10
195.095
20
-98.4
40
0.4
0
CIRCLE
8
BLACK
10
197.635
20
-90.78
40
0.4
0
CIRCLE
8
BLACK
10
197.635
20
-98.4
40
0.4
0
CIRCLE
8
BLACK
10
199.6
20
-102.6
40
0.4
0
CIRCLE
8
BLACK
10
199.6
20
-105.14
40
0.4
0
CIRCLE
8
BLACK
10
199.6
20
-107.68
40
0.4
0
CIRCLE
8
BLACK
10
199.6
20
-110.22
40
0.4
0
CIRCLE
8
BLACK
10
199.6
20
-112.76
40
0.4
0
CIRCLE
8
BLACK
10
199.6
20
-115.3
40
0.4
0
CIRCLE
8
BLACK
10
199.6
20
-117.84
40
0.4
0
CIRCLE
8
BLACK
10
199.6
20
-120.38
40
0.4
0
CIRCLE
8
BLACK
10
199.6
20
-122.92
40
0.4
0
CIRCLE
8
BLACK
10
199.6
20
-125.46
40
0.4
0
CIRCLE
8
BLACK
10
200.175
20
-90.78
40
0.4
0
CIRCLE
8
BLACK
10
200.175
20
-98.4
40
0.4
0
CIRCLE
8
BLACK
10
202.715
20
-90.78
40
0.4
0
CIRCLE
8
BLACK
10
202.715
20
-98.4
40
0.4
0
CIRCLE
8
BLACK
10
205.255
20
-90.78
40
0.4
0
CIRCLE
8
BLACK
10
205.255
20
-98.4
40
0.4
0
CIRCLE
8
BLACK
10
207.22
20
-102.6
40
0.4
0
CIRCLE
8
BLACK
10
207.22
20
-105.14
40
0.4
0
CIRCLE
8
BLACK
10
207.22
20
-107.68
40
0.4
0
CIRCLE
8
BLACK
10
207.22
20
-110.22
40
0.4
0
CIRCLE
8
BLACK
10
207.22
20
-112.76
40
0.4
0
CIRCLE
8
BLACK
10
207.22
20
-115.3
40
0.4
0
CIRCLE
8
BLACK
10
207.22
20
-117.84
40
0.4
0
CIRCLE
8
BLACK
10
207.22
20
-120.38
40
0.4
0
CIRCLE
8
BLACK
10
207.22
20
-122.92
40
0.4
0
CIRCLE
8
BLACK
10
207.22
20
-125.46
40
0.4
0
CIRCLE
8
BLACK
10
207.795
20
-90.78
40
0.4
0
CIRCLE
8
BLACK
10
207.795
20
-98.4
40
0.4
0
CIRCLE
8
BLACK
10
210.335
20
-90.78
40
0.4
0
CIRCLE
8
BLACK
10
210.335
20
-98.4
40
0.4
0
LINE
8
BLACK
6
CONTINUOUS
10
113.55
20
-82.425
11
113.55
21
-83.425
0
LINE
8
BLACK
6
CONTINUOUS
10
113.05
20
-82.925
11
114.05
21
-82.925
0
LINE
8
BLACK
6
CONTINUOUS
10
113.55
20
-84.965
11
113.55
21
-85.965
0
LINE
8
BLACK
6
CONTINUOUS
10
113.05
20
-85.465
11
114.05
21
-85.465
0
LINE
8
BLACK
6
CONTINUOUS
10
113.55
20
-87.505
11
113.55
21
-88.505
0
LINE
8
BLACK
6
CONTINUOUS
10
113.05
20
-88.005
11
114.05
21
-88.005
0
LINE
8
BLACK
6
CONTINUOUS
10
113.55
20
-90.045
11
113.55
21
-91.045
0
LINE
8
BLACK
6
CONTINUOUS
10
113.05
20
-90.545
11
114.05
21
-90.545
0
LINE
8
BLACK
6
CONTINUOUS
10
113.55
20
-92.585
11
113.55
21
-93.585
0
LINE
8
BLACK
6
CONTINUOUS
10
113.05
20
-93.085
11
114.05
21
-93.085
0
LINE
8
BLACK
6
CONTINUOUS
10
113.55
20
-95.125
11
113.55
21
-96.125
0
LINE
8
BLACK
6
CONTINUOUS
10
113.05
20
-95.625
11
114.05
21
-95.625
0
LINE
8
BLACK
6
CONTINUOUS
10
124.73
20
-81.6725
11
124.73
21
-82.6725
0
LINE
8
BLACK
6
CONTINUOUS
10
124.23
20
-82.1725
11
125.23
21
-82.1725
0
LINE
8
BLACK
6
CONTINUOUS
10
124.73
20
-84.2125
11
124.73
21
-85.2125
0
LINE
8
BLACK
6
CONTINUOUS
10
124.23
20
-84.7125
11
125.23
21
-84.7125
0
LINE
8
BLACK
6
CONTINUOUS
10
125.56
20
-129.36
11
125.56
21
-130.36
0
LINE
8
BLACK
6
CONTINUOUS
10
125.06
20
-129.86
11
126.06
21
-129.86
0
LINE
8
BLACK
6
CONTINUOUS
10
125.56
20
-131.9
11
125.56
21
-132.9
0
LINE
8
BLACK
6
CONTINUOUS
10
125.06
20
-132.4
11
126.06
21
-132.4
0
LINE
8
BLACK
6
CONTINUOUS
10
127.27
20
-81.6725
11
127.27
21
-82.6725
0
LINE
8
BLACK
6
CONTINUOUS
10
126.77
20
-82.1725
11
127.77
21
-82.1725
0
LINE
8
BLACK
6
CONTINUOUS
10
127.27
20
-84.2125
11
127.27
21
-85.2125
0
LINE
8
BLACK
6
CONTINUOUS
10
126.77
20
-84.7125
11
127.77
21
-84.7125
0
LINE
8
BLACK
6
CONTINUOUS
10
128.1
20
-129.36
11
128.1
21
-130.36
0
LINE
8
BLACK
6
CONTINUOUS
10
127.6
20
-129.86
11
128.6
21
-129.86
0
LINE
8
BLACK
6
CONTINUOUS
10
128.1
20
-131.9
11
128.1
21
-132.9
0
LINE
8
BLACK
6
CONTINUOUS
10
127.6
20
-132.4
11
128.6
21
-132.4
0
LINE
8
BLACK
6
CONTINUOUS
10
129.81
20
-81.6725
11
129.81
21
-82.6725
0
LINE
8
BLACK
6
CONTINUOUS
10
129.31
20
-82.1725
11
130.31
21
-82.1725
0
LINE
8
BLACK
6
CONTINUOUS
10
129.81
20
-84.2125
11
129.81
21
-85.2125
0
LINE
8
BLACK
6
CONTINUOUS
10
129.31
20
-84.7125
11
130.31
21
-84.7125
0
LINE
8
BLACK
6
CONTINUOUS
10
130.64
20
-129.36
11
130.64
21
-130.36
0
LINE
8
BLACK
6
CONTINUOUS
10
130.14
20
-129.86
11
131.14
21
-129.86
0
LINE
8
BLACK
6
CONTINUOUS
10
130.64
20
-131.9
11
130.64
21
-132.9
0
LINE
8
BLACK
6
CONTINUOUS
10
130.14
20
-132.4
11
131.14
21
-132.4
0
LINE
8
BLACK
6
CONTINUOUS
10
132.35
20
-81.6725
11
132.35
21
-82.6725
0
LINE
8
BLACK
6
CONTINUOUS
10
131.85
20
-82.1725
11
132.85
21
-82.1725
0
LINE
8
BLACK
6
CONTINUOUS
10
132.35
20
-84.2125
11
132.35
21
-85.2125
0
LINE
8
BLACK
6
CONTINUOUS
10
131.85
20
-84.7125
11
132.85
21
-84.7125
0
LINE
8
BLACK
6
CONTINUOUS
10
133.18
20
-129.36
11
133.18
21
-130.36
0
LINE
8
BLACK
6
CONTINUOUS
10
132.68
20
-129.86
11
133.68
21
-129.86
0
LINE
8
BLACK
6
CONTINUOUS
10
133.18
20
-131.9
11
133.18
21
-132.9
0
LINE
8
BLACK
6
CONTINUOUS
10
132.68
20
-132.4
11
133.68
21
-132.4
0
LINE
8
BLACK
6
CONTINUOUS
10
134.89
20
-81.6725
11
134.89
21
-82.6725
0
LINE
8
BLACK
6
CONTINUOUS
10
134.39
20
-82.1725
11
135.39
21
-82.1725
0
LINE
8
BLACK
6
CONTINUOUS
10
134.89
20
-84.2125
11
134.89
21
-85.2125
0
LINE
8
BLACK
6
CONTINUOUS
10
134.39
20
-84.7125
11
135.39
21
-84.7125
0
LINE
8
BLACK
6
CONTINUOUS
10
135.72
20
-129.36
11
135.72
21
-130.36
0
LINE
8
BLACK
6
CONTINUOUS
10
135.22
20
-129.86
11
136.22
21
-129.86
0
LINE
8
BLACK
6
CONTINUOUS
10
135.72
20
-131.9
11
135.72
21
-132.9
0
LINE
8
BLACK
6
CONTINUOUS
10
135.22
20
-132.4
11
136.22
21
-132.4
0
LINE
8
BLACK
6
CONTINUOUS
10
137.43
20
-81.6725
11
137.43
21
-82.6725
0
LINE
8
BLACK
6
CONTINUOUS
10
136.93
20
-82.1725
11
137.93
21
-82.1725
0
LINE
8
BLACK
6
CONTINUOUS
10
137.43
20
-84.2125
11
137.43
21
-85.2125
0
LINE
8
BLACK
6
CONTINUOUS
10
136.93
20
-84.7125
11
137.93
21
-84.7125
0
LINE
8
BLACK
6
CONTINUOUS
10
138.26
20
-129.36
11
138.26
21
-130.36
0
LINE
8
BLACK
6
CONTINUOUS
10
137.76
20
-129.86
11
138.76
21
-129.86
0
LINE
8
BLACK
6
CONTINUOUS
10
138.26
20
-131.9
11
138.26
21
-132.9
0
LINE
8
BLACK
6
CONTINUOUS
10
137.76
20
-132.4
11
138.76
21
-132.4
0
LINE
8
BLACK
6
CONTINUOUS
10
139.97
20
-81.6725
11
139.97
21
-82.6725
0
LINE
8
BLACK
6
CONTINUOUS
10
139.47
20
-82.1725
11
140.47
21
-82.1725
0
LINE
8
BLACK
6
CONTINUOUS
10
139.97
20
-84.2125
11
139.97
21
-85.2125
0
LINE
8
BLACK
6
CONTINUOUS
10
139.47
20
-84.7125
11
140.47
21
-84.7125
0
LINE
8
BLACK
6
CONTINUOUS
10
140.8
20
-129.36
11
140.8
21
-130.36
0
LINE
8
BLACK
6
CONTINUOUS
10
140.3
20
-129.86
11
141.3
21
-129.86
0
LINE
8
BLACK
6
CONTINUOUS
10
140.8
20
-131.9
11
140.8
21
-132.9
0
LINE
8
BLACK
6
CONTINUOUS
10
140.3
20
-132.4
11
141.3
21
-132.4
0
LINE
8
BLACK
6
CONTINUOUS
10
142.51
20
-81.6725
11
142.51
21
-82.6725
0
LINE
8
BLACK
6
CONTINUOUS
10
142.01
20
-82.1725
11
143.01
21
-82.1725
0
LINE
8
BLACK
6
CONTINUOUS
10
142.51
20
-84.2125
11
142.51
21
-85.2125
0
LINE
8
BLACK
6
CONTINUOUS
10
142.01
20
-84.7125
11
143.01
21
-84.7125
0
LINE
8
BLACK
6
CONTINUOUS
10
143.34
20
-129.36
11
143.34
21
-130.36
0
LINE
8
BLACK
6
CONTINUOUS
10
142.84
20
-129.86
11
143.84
21
-129.86
0
LINE
8
BLACK
6
CONTINUOUS
10
143.34
20
-131.9
11
143.34
21
-132.9
0
LINE
8
BLACK
6
CONTINUOUS
10
142.84
20
-132.4
11
143.84
21
-132.4
0
LINE
8
BLACK
6
CONTINUOUS
10
145.05
20
-81.6725
11
145.05
21
-82.6725
0
LINE
8
BLACK
6
CONTINUOUS
10
144.55
20
-82.1725
11
145.55
21
-82.1725
0
LINE
8
BLACK
6
CONTINUOUS
10
145.05
20
-84.2125
11
145.05
21
-85.2125
0
LINE
8
BLACK
6
CONTINUOUS
10
144.55
20
-84.7125
11
145.55
21
-84.7125
0
LINE
8
BLACK
6
CONTINUOUS
10
145.88
20
-129.36
11
145.88
21
-130.36
0
LINE
8
BLACK
6
CONTINUOUS
10
145.38
20
-129.86
11
146.38
21
-129.86
0
LINE
8
BLACK
6
CONTINUOUS
10
145.88
20
-131.9
11
145.88
21
-132.9
0
LINE
8
BLACK
6
CONTINUOUS
10
145.38
20
-132.4
11
146.38
21
-132.4
0
LINE
8
BLACK
6
CONTINUOUS
10
147.59
20
-81.6725
11
147.59
21
-82.6725
0
LINE
8
BLACK
6
CONTINUOUS
10
147.09
20
-82.1725
11
148.09
21
-82.1725
0
LINE
8
BLACK
6
CONTINUOUS
10
147.59
20
-84.2125
11
147.59
21
-85.2125
0
LINE
8
BLACK
6
CONTINUOUS
10
147.09
20
-84.7125
11
148.09
21
-84.7125
0
LINE
8
BLACK
6
CONTINUOUS
10
148.42
20
-129.36
11
148.42
21
-130.36
0
LINE
8
BLACK
6
CONTINUOUS
10
147.92
20
-129.86
11
148.92
21
-129.86
0
LINE
8
BLACK
6
CONTINUOUS
10
148.42
20
-131.9
11
148.42
21
-132.9
0
LINE
8
BLACK
6
CONTINUOUS
10
147.92
20
-132.4
11
148.92
21
-132.4
0
LINE
8
BLACK
6
CONTINUOUS
10
150.13
20
-81.6725
11
150.13
21
-82.6725
0
LINE
8
BLACK
6
CONTINUOUS
10
149.63
20
-82.1725
11
150.63
21
-82.1725
0
LINE
8
BLACK
6
CONTINUOUS
10
150.13
20
-84.2125
11
150.13
21
-85.2125
0
LINE
8
BLACK
6
CONTINUOUS
10
149.63
20
-84.7125
11
150.63
21
-84.7125
0
LINE
8
BLACK
6
CONTINUOUS
10
150.96
20
-129.36
11
150.96
21
-130.36
0
LINE
8
BLACK
6
CONTINUOUS
10
150.46
20
-129.86
11
151.46
21
-129.86
0
LINE
8
BLACK
6
CONTINUOUS
10
150.96
20
-131.9
11
150.96
21
-132.9
0
LINE
8
BLACK
6
CONTINUOUS
10
150.46
20
-132.4
11
151.46
21
-132.4
0
LINE
8
BLACK
6
CONTINUOUS
10
152.67
20
-81.6725
11
152.67
21
-82.6725
0
LINE
8
BLACK
6
CONTINUOUS
10
152.17
20
-82.1725
11
153.17
21
-82.1725
0
LINE
8
BLACK
6
CONTINUOUS
10
152.67
20
-84.2125
11
152.67
21
-85.2125
0
LINE
8
BLACK
6
CONTINUOUS
10
152.17
20
-84.7125
11
153.17
21
-84.7125
0
LINE
8
BLACK
6
CONTINUOUS
10
153.5
20
-129.36
11
153.5
21
-130.36
0
LINE
8
BLACK
6
CONTINUOUS
10
153
20
-129.86
11
154
21
-129.86
0
LINE
8
BLACK
6
CONTINUOUS
10
153.5
20
-131.9
11
153.5
21
-132.9
0
LINE
8
BLACK
6
CONTINUOUS
10
153
20
-132.4
11
154
21
-132.4
0
LINE
8
BLACK
6
CONTINUOUS
10
155.21
20
-81.6725
11
155.21
21
-82.6725
0
LINE
8
BLACK
6
CONTINUOUS
10
154.71
20
-82.1725
11
155.71
21
-82.1725
0
LINE
8
BLACK
6
CONTINUOUS
10
155.21
20
-84.2125
11
155.21
21
-85.2125
0
LINE
8
BLACK
6
CONTINUOUS
10
154.71
20
-84.7125
11
155.71
21
-84.7125
0
LINE
8
BLACK
6
CONTINUOUS
10
156.04
20
-129.36
11
156.04
21
-130.36
0
LINE
8
BLACK
6
CONTINUOUS
10
155.54
20
-129.86
11
156.54
21
-129.86
0
LINE
8
BLACK
6
CONTINUOUS
10
156.04
20
-131.9
11
156.04
21
-132.9
0
LINE
8
BLACK
6
CONTINUOUS
10
155.54
20
-132.4
11
156.54
21
-132.4
0
LINE
8
BLACK
6
CONTINUOUS
10
157.75
20
-81.6725
11
157.75
21
-82.6725
0
LINE
8
BLACK
6
CONTINUOUS
10
157.25
20
-82.1725
11
158.25
21
-82.1725
0
LINE
8
BLACK
6
CONTINUOUS
10
157.75
20
-84.2125
11
157.75
21
-85.2125
0
LINE
8
BLACK
6
CONTINUOUS
10
157.25
20
-84.7125
11
158.25
21
-84.7125
0
LINE
8
BLACK
6
CONTINUOUS
10
158.58
20
-129.36
11
158.58
21
-130.36
0
LINE
8
BLACK
6
CONTINUOUS
10
158.08
20
-129.86
11
159.08
21
-129.86
0
LINE
8
BLACK
6
CONTINUOUS
10
158.58
20
-131.9
11
158.58
21
-132.9
0
LINE
8
BLACK
6
CONTINUOUS
10
158.08
20
-132.4
11
159.08
21
-132.4
0
LINE
8
BLACK
6
CONTINUOUS
10
160.29
20
-81.6725
11
160.29
21
-82.6725
0
LINE
8
BLACK
6
CONTINUOUS
10
159.79
20
-82.1725
11
160.79
21
-82.1725
0
LINE
8
BLACK
6
CONTINUOUS
10
160.29
20
-84.2125
11
160.29
21
-85.2125
0
LINE
8
BLACK
6
CONTINUOUS
10
159.79
20
-84.7125
11
160.79
21
-84.7125
0
LINE
8
BLACK
6
CONTINUOUS
10
161.12
20
-129.36
11
161.12
21
-130.36
0
LINE
8
BLACK
6
CONTINUOUS
10
160.62
20
-129.86
11
161.62
21
-129.86
0
LINE
8
BLACK
6
CONTINUOUS
10
161.12
20
-131.9
11
161.12
21
-132.9
0
LINE
8
BLACK
6
CONTINUOUS
10
160.62
20
-132.4
11
161.62
21
-132.4
0
LINE
8
BLACK
6
CONTINUOUS
10
162.83
20
-81.6725
11
162.83
21
-82.6725
0
LINE
8
BLACK
6
CONTINUOUS
10
162.33
20
-82.1725
11
163.33
21
-82.1725
0
LINE
8
BLACK
6
CONTINUOUS
10
162.83
20
-84.2125
11
162.83
21
-85.2125
0
LINE
8
BLACK
6
CONTINUOUS
10
162.33
20
-84.7125
11
163.33
21
-84.7125
0
LINE
8
BLACK
6
CONTINUOUS
10
163.66
20
-129.36
11
163.66
21
-130.36
0
LINE
8
BLACK
6
CONTINUOUS
10
163.16
20
-129.86
11
164.16
21
-129.86
0
LINE
8
BLACK
6
CONTINUOUS
10
163.66
20
-131.9
11
163.66
21
-132.9
0
LINE
8
BLACK
6
CONTINUOUS
10
163.16
20
-132.4
11
164.16
21
-132.4
0
LINE
8
BLACK
6
CONTINUOUS
10
165.37
20
-81.6725
11
165.37
21
-82.6725
0
LINE
8
BLACK
6
CONTINUOUS
10
164.87
20
-82.1725
11
165.87
21
-82.1725
0
LINE
8
BLACK
6
CONTINUOUS
10
165.37
20
-84.2125
11
165.37
21
-85.2125
0
LINE
8
BLACK
6
CONTINUOUS
10
164.87
20
-84.7125
11
165.87
21
-84.7125
0
LINE
8
BLACK
6
CONTINUOUS
10
166.2
20
-129.36
11
166.2
21
-130.36
0
LINE
8
BLACK
6
CONTINUOUS
10
165.7
20
-129.86
11
166.7
21
-129.86
0
LINE
8
BLACK
6
CONTINUOUS
10
166.2
20
-131.9
11
166.2
21
-132.9
0
LINE
8
BLACK
6
CONTINUOUS
10
165.7
20
-132.4
11
166.7
21
-132.4
0
LINE
8
BLACK
6
CONTINUOUS
10
167.91
20
-81.6725
11
167.91
21
-82.6725
0
LINE
8
BLACK
6
CONTINUOUS
10
167.41
20
-82.1725
11
168.41
21
-82.1725
0
LINE
8
BLACK
6
CONTINUOUS
10
167.91
20
-84.2125
11
167.91
21
-85.2125
0
LINE
8
BLACK
6
CONTINUOUS
10
167.41
20
-84.7125
11
168.41
21
-84.7125
0
LINE
8
BLACK
6
CONTINUOUS
10
168.74
20
-129.36
11
168.74
21
-130.36
0
LINE
8
BLACK
6
CONTINUOUS
10
168.24
20
-129.86
11
169.24
21
-129.86
0
LINE
8
BLACK
6
CONTINUOUS
10
168.74
20
-131.9
11
168.74
21
-132.9
0
LINE
8
BLACK
6
CONTINUOUS
10
168.24
20
-132.4
11
169.24
21
-132.4
0
LINE
8
BLACK
6
CONTINUOUS
10
170.45
20
-81.6725
11
170.45
21
-82.6725
0
LINE
8
BLACK
6
CONTINUOUS
10
169.95
20
-82.1725
11
170.95
21
-82.1725
0
LINE
8
BLACK
6
CONTINUOUS
10
170.45
20
-84.2125
11
170.45
21
-85.2125
0
LINE
8
BLACK
6
CONTINUOUS
10
169.95
20
-84.7125
11
170.95
21
-84.7125
0
LINE
8
BLACK
6
CONTINUOUS
10
171.28
20
-129.36
11
171.28
21
-130.36
0
LINE
8
BLACK
6
CONTINUOUS
10
170.78
20
-129.86
11
171.78
21
-129.86
0
LINE
8
BLACK
6
CONTINUOUS
10
171.28
20
-131.9
11
171.28
21
-132.9
0
LINE
8
BLACK
6
CONTINUOUS
10
170.78
20
-132.4
11
171.78
21
-132.4
0
LINE
8
BLACK
6
CONTINUOUS
10
172.99
20
-81.6725
11
172.99
21
-82.6725
0
LINE
8
BLACK
6
CONTINUOUS
10
172.49
20
-82.1725
11
173.49
21
-82.1725
0
LINE
8
BLACK
6
CONTINUOUS
10
172.99
20
-84.2125
11
172.99
21
-85.2125
0
LINE
8
BLACK
6
CONTINUOUS
10
172.49
20
-84.7125
11
173.49
21
-84.7125
0
LINE
8
BLACK
6
CONTINUOUS
10
173.82
20
-129.36
11
173.82
21
-130.36
0
LINE
8
BLACK
6
CONTINUOUS
10
173.32
20
-129.86
11
174.32
21
-129.86
0
LINE
8
BLACK
6
CONTINUOUS
10
173.82
20
-131.9
11
173.82
21
-132.9
0
LINE
8
BLACK
6
CONTINUOUS
10
173.32
20
-132.4
11
174.32
21
-132.4
0
LINE
8
BLACK
6
CONTINUOUS
10
175.53
20
-81.6725
11
175.53
21
-82.6725
0
LINE
8
BLACK
6
CONTINUOUS
10
175.03
20
-82.1725
11
176.03
21
-82.1725
0
LINE
8
BLACK
6
CONTINUOUS
10
175.53
20
-84.2125
11
175.53
21
-85.2125
0
LINE
8
BLACK
6
CONTINUOUS
10
175.03
20
-84.7125
11
176.03
21
-84.7125
0
LINE
8
BLACK
6
CONTINUOUS
10
176.36
20
-129.36
11
176.36
21
-130.36
0
LINE
8
BLACK
6
CONTINUOUS
10
175.86
20
-129.86
11
176.86
21
-129.86
0
LINE
8
BLACK
6
CONTINUOUS
10
176.36
20
-131.9
11
176.36
21
-132.9
0
LINE
8
BLACK
6
CONTINUOUS
10
175.86
20
-132.4
11
176.86
21
-132.4
0
LINE
8
BLACK
6
CONTINUOUS
10
178.07
20
-81.6725
11
178.07
21
-82.6725
0
LINE
8
BLACK
6
CONTINUOUS
10
177.57
20
-82.1725
11
178.57
21
-82.1725
0
LINE
8
BLACK
6
CONTINUOUS
10
178.07
20
-84.2125
11
178.07
21
-85.2125
0
LINE
8
BLACK
6
CONTINUOUS
10
177.57
20
-84.7125
11
178.57
21
-84.7125
0
LINE
8
BLACK
6
CONTINUOUS
10
178.9
20
-129.36
11
178.9
21
-130.36
0
LINE
8
BLACK
6
CONTINUOUS
10
178.4
20
-129.86
11
179.4
21
-129.86
0
LINE
8
BLACK
6
CONTINUOUS
10
178.9
20
-131.9
11
178.9
21
-132.9
0
LINE
8
BLACK
6
CONTINUOUS
10
178.4
20
-132.4
11
179.4
21
-132.4
0
LINE
8
BLACK
6
CONTINUOUS
10
180.61
20
-81.6725
11
180.61
21
-82.6725
0
LINE
8
BLACK
6
CONTINUOUS
10
180.11
20
-82.1725
11
181.11
21
-82.1725
0
LINE
8
BLACK
6
CONTINUOUS
10
180.61
20
-84.2125
11
180.61
21
-85.2125
0
LINE
8
BLACK
6
CONTINUOUS
10
180.11
20
-84.7125
11
181.11
21
-84.7125
0
LINE
8
BLACK
6
CONTINUOUS
10
181.44
20
-129.36
11
181.44
21
-130.36
0
LINE
8
BLACK
6
CONTINUOUS
10
180.94
20
-129.86
11
181.94
21
-129.86
0
LINE
8
BLACK
6
CONTINUOUS
10
181.44
20
-131.9
11
181.44
21
-132.9
0
LINE
8
BLACK
6
CONTINUOUS
10
180.94
20
-132.4
11
181.94
21
-132.4
0
LINE
8
BLACK
6
CONTINUOUS
10
183.15
20
-81.6725
11
183.15
21
-82.6725
0
LINE
8
BLACK
6
CONTINUOUS
10
182.65
20
-82.1725
11
183.65
21
-82.1725
0
LINE
8
BLACK
6
CONTINUOUS
10
183.15
20
-84.2125
11
183.15
21
-85.2125
0
LINE
8
BLACK
6
CONTINUOUS
10
182.65
20
-84.7125
11
183.65
21
-84.7125
0
LINE
8
BLACK
6
CONTINUOUS
10
183.98
20
-129.36
11
183.98
21
-130.36
0
LINE
8
BLACK
6
CONTINUOUS
10
183.48
20
-129.86
11
184.48
21
-129.86
0
LINE
8
BLACK
6
CONTINUOUS
10
183.98
20
-131.9
11
183.98
21
-132.9
0
LINE
8
BLACK
6
CONTINUOUS
10
183.48
20
-132.4
11
184.48
21
-132.4
0
LINE
8
BLACK
6
CONTINUOUS
10
185.69
20
-81.6725
11
185.69
21
-82.6725
0
LINE
8
BLACK
6
CONTINUOUS
10
185.19
20
-82.1725
11
186.19
21
-82.1725
0
LINE
8
BLACK
6
CONTINUOUS
10
185.69
20
-84.2125
11
185.69
21
-85.2125
0
LINE
8
BLACK
6
CONTINUOUS
10
185.19
20
-84.7125
11
186.19
21
-84.7125
0
LINE
8
BLACK
6
CONTINUOUS
10
186.52
20
-129.36
11
186.52
21
-130.36
0
LINE
8
BLACK
6
CONTINUOUS
10
186.02
20
-129.86
11
187.02
21
-129.86
0
LINE
8
BLACK
6
CONTINUOUS
10
186.52
20
-131.9
11
186.52
21
-132.9
0
LINE
8
BLACK
6
CONTINUOUS
10
186.02
20
-132.4
11
187.02
21
-132.4
0
LINE
8
BLACK
6
CONTINUOUS
10
188.23
20
-81.6725
11
188.23
21
-82.6725
0
LINE
8
BLACK
6
CONTINUOUS
10
187.73
20
-82.1725
11
188.73
21
-82.1725
0
LINE
8
BLACK
6
CONTINUOUS
10
188.23
20
-84.2125
11
188.23
21
-85.2125
0
LINE
8
BLACK
6
CONTINUOUS
10
187.73
20
-84.7125
11
188.73
21
-84.7125
0
LINE
8
BLACK
6
CONTINUOUS
10
189.06
20
-129.36
11
189.06
21
-130.36
0
LINE
8
BLACK
6
CONTINUOUS
10
188.56
20
-129.86
11
189.56
21
-129.86
0
LINE
8
BLACK
6
CONTINUOUS
10
189.06
20
-131.9
11
189.06
21
-132.9
0
LINE
8
BLACK
6
CONTINUOUS
10
188.56
20
-132.4
11
189.56
21
-132.4
0
LINE
8
BLACK
6
CONTINUOUS
10
190.77
20
-81.6725
11
190.77
21
-82.6725
0
LINE
8
BLACK
6
CONTINUOUS
10
190.27
20
-82.1725
11
191.27
21
-82.1725
0
LINE
8
BLACK
6
CONTINUOUS
10
190.77
20
-84.2125
11
190.77
21
-85.2125
0
LINE
8
BLACK
6
CONTINUOUS
10
190.27
20
-84.7125
11
191.27
21
-84.7125
0
LINE
8
BLACK
6
CONTINUOUS
10
191.6
20
-129.36
11
191.6
21
-130.36
0
LINE
8
BLACK
6
CONTINUOUS
10
191.1
20
-129.86
11
192.1
21
-129.86
0
LINE
8
BLACK
6
CONTINUOUS
10
191.6
20
-131.9
11
191.6
21
-132.9
0
LINE
8
BLACK
6
CONTINUOUS
10
191.1
20
-132.4
11
192.1
21
-132.4
0
LINE
8
BLACK
6
CONTINUOUS
10
193.31
20
-81.6725
11
193.31
21
-82.6725
0
LINE
8
BLACK
6
CONTINUOUS
10
192.81
20
-82.1725
11
193.81
21
-82.1725
0
LINE
8
BLACK
6
CONTINUOUS
10
193.31
20
-84.2125
11
193.31
21
-85.2125
0
LINE
8
BLACK
6
CONTINUOUS
10
192.81
20
-84.7125
11
193.81
21
-84.7125
0
LINE
8
BLACK
6
CONTINUOUS
10
194.14
20
-129.36
11
194.14
21
-130.36
0
LINE
8
BLACK
6
CONTINUOUS
10
193.64
20
-129.86
11
194.64
21
-129.86
0
LINE
8
BLACK
6
CONTINUOUS
10
194.14
20
-131.9
11
194.14
21
-132.9
0
LINE
8
BLACK
6
CONTINUOUS
10
193.64
20
-132.4
11
194.64
21
-132.4
0
LINE
8
BLACK
6
CONTINUOUS
10
195.85
20
-81.6725
11
195.85
21
-82.6725
0
LINE
8
BLACK
6
CONTINUOUS
10
195.35
20
-82.1725
11
196.35
21
-82.1725
0
LINE
8
BLACK
6
CONTINUOUS
10
195.85
20
-84.2125
11
195.85
21
-85.2125
0
LINE
8
BLACK
6
CONTINUOUS
10
195.35
20
-84.7125
11
196.35
21
-84.7125
0
LINE
8
BLACK
6
CONTINUOUS
10
196.68
20
-129.36
11
196.68
21
-130.36
0
LINE
8
BLACK
6
CONTINUOUS
10
196.18
20
-129.86
11
197.18
21
-129.86
0
LINE
8
BLACK
6
CONTINUOUS
10
196.68
20
-131.9
11
196.68
21
-132.9
0
LINE
8
BLACK
6
CONTINUOUS
10
196.18
20
-132.4
11
197.18
21
-132.4
0
LINE
8
BLACK
6
CONTINUOUS
10
198.39
20
-81.6725
11
198.39
21
-82.6725
0
LINE
8
BLACK
6
CONTINUOUS
10
197.89
20
-82.1725
11
198.89
21
-82.1725
0
LINE
8
BLACK
6
CONTINUOUS
10
198.39
20
-84.2125
11
198.39
21
-85.2125
0
LINE
8
BLACK
6
CONTINUOUS
10
197.89
20
-84.7125
11
198.89
21
-84.7125
0
LINE
8
BLACK
6
CONTINUOUS
10
199.22
20
-129.36
11
199.22
21
-130.36
0
LINE
8
BLACK
6
CONTINUOUS
10
198.72
20
-129.86
11
199.72
21
-129.86
0
LINE
8
BLACK
6
CONTINUOUS
10
199.22
20
-131.9
11
199.22
21
-132.9
0
LINE
8
BLACK
6
CONTINUOUS
10
198.72
20
-132.4
11
199.72
21
-132.4
0
LINE
8
BLACK
6
CONTINUOUS
10
200.93
20
-81.6725
11
200.93
21
-82.6725
0
LINE
8
BLACK
6
CONTINUOUS
10
200.43
20
-82.1725
11
201.43
21
-82.1725
0
LINE
8
BLACK
6
CONTINUOUS
10
200.93
20
-84.2125
11
200.93
21
-85.2125
0
LINE
8
BLACK
6
CONTINUOUS
10
200.43
20
-84.7125
11
201.43
21
-84.7125
0
LINE
8
BLACK
6
CONTINUOUS
10
201.76
20
-129.36
11
201.76
21
-130.36
0
LINE
8
BLACK
6
CONTINUOUS
10
201.26
20
-129.86
11
202.26
21
-129.86
0
LINE
8
BLACK
6
CONTINUOUS
10
201.76
20
-131.9
11
201.76
21
-132.9
0
LINE
8
BLACK
6
CONTINUOUS
10
201.26
20
-132.4
11
202.26
21
-132.4
0
LINE
8
BLACK
6
CONTINUOUS
10
203.47
20
-81.6725
11
203.47
21
-82.6725
0
LINE
8
BLACK
6
CONTINUOUS
10
202.97
20
-82.1725
11
203.97
21
-82.1725
0
LINE
8
BLACK
6
CONTINUOUS
10
203.47
20
-84.2125
11
203.47
21
-85.2125
0
LINE
8
BLACK
6
CONTINUOUS
10
202.97
20
-84.7125
11
203.97
21
-84.7125
0
LINE
8
BLACK
6
CONTINUOUS
10
204.3
20
-129.36
11
204.3
21
-130.36
0
LINE
8
BLACK
6
CONTINUOUS
10
203.8
20
-129.86
11
204.8
21
-129.86
0
LINE
8
BLACK
6
CONTINUOUS
10
204.3
20
-131.9
11
204.3
21
-132.9
0
LINE
8
BLACK
6
CONTINUOUS
10
203.8
20
-132.4
11
204.8
21
-132.4
0
LINE
8
BLACK
6
CONTINUOUS
10
132.331
20
-107.071
11
132.331
21
-106.349
0
LINE
8
BLACK
6
CONTINUOUS
10
132.331
20
-106.349
11
131.609
21
-106.349
0
LINE
8
BLACK
6
CONTINUOUS
10
131.609
20
-106.349
11
131.609
21
-107.071
0
LINE
8
BLACK
6
CONTINUOUS
10
131.609
20
-107.071
11
132.331
21
-107.071
0
LINE
8
BLACK
6
CONTINUOUS
10
132.331
20
-124.851
11
132.331
21
-124.129
0
LINE
8
BLACK
6
CONTINUOUS
10
132.331
20
-124.129
11
131.609
21
-124.129
0
LINE
8
BLACK
6
CONTINUOUS
10
131.609
20
-124.129
11
131.609
21
-124.851
0
LINE
8
BLACK
6
CONTINUOUS
10
131.609
20
-124.851
11
132.331
21
-124.851
0
LINE
8
BLACK
6
CONTINUOUS
10
134.871
20
-107.071
11
134.871
21
-106.349
0
LINE
8
BLACK
6
CONTINUOUS
10
134.871
20
-106.349
11
134.149
21
-106.349
0
LINE
8
BLACK
6
CONTINUOUS
10
134.149
20
-106.349
11
134.149
21
-107.071
0
LINE
8
BLACK
6
CONTINUOUS
10
134.149
20
-107.071
11
134.871
21
-107.071
0
LINE
8
BLACK
6
CONTINUOUS
10
134.871
20
-124.851
11
134.871
21
-124.129
0
LINE
8
BLACK
6
CONTINUOUS
10
134.871
20
-124.129
11
134.149
21
-124.129
0
LINE
8
BLACK
6
CONTINUOUS
10
134.149
20
-124.129
11
134.149
21
-124.851
0
LINE
8
BLACK
6
CONTINUOUS
10
134.149
20
-124.851
11
134.871
21
-124.851
0
LINE
8
BLACK
6
CONTINUOUS
10
137.411
20
-107.071
11
137.411
21
-106.349
0
LINE
8
BLACK
6
CONTINUOUS
10
137.411
20
-106.349
11
136.689
21
-106.349
0
LINE
8
BLACK
6
CONTINUOUS
10
136.689
20
-106.349
11
136.689
21
-107.071
0
LINE
8
BLACK
6
CONTINUOUS
10
136.689
20
-107.071
11
137.411
21
-107.071
0
LINE
8
BLACK
6
CONTINUOUS
10
137.411
20
-124.851
11
137.411
21
-124.129
0
LINE
8
BLACK
6
CONTINUOUS
10
137.411
20
-124.129
11
136.689
21
-124.129
0
LINE
8
BLACK
6
CONTINUOUS
10
136.689
20
-124.129
11
136.689
21
-124.851
0
LINE
8
BLACK
6
CONTINUOUS
10
136.689
20
-124.851
11
137.411
21
-124.851
0
LINE
8
BLACK
6
CONTINUOUS
10
139.951
20
-107.071
11
139.951
21
-106.349
0
LINE
8
BLACK
6
CONTINUOUS
10
139.951
20
-106.349
11
139.229
21
-106.349
0
LINE
8
BLACK
6
CONTINUOUS
10
139.229
20
-106.349
11
139.229
21
-107.071
0
LINE
8
BLACK
6
CONTINUOUS
10
139.229
20
-107.071
11
139.951
21
-107.071
0
LINE
8
BLACK
6
CONTINUOUS
10
139.951
20
-124.851
11
139.951
21
-124.129
0
LINE
8
BLACK
6
CONTINUOUS
10
139.951
20
-124.129
11
139.229
21
-124.129
0
LINE
8
BLACK
6
CONTINUOUS
10
139.229
20
-124.129
11
139.229
21
-124.851
0
LINE
8
BLACK
6
CONTINUOUS
10
139.229
20
-124.851
11
139.951
21
-124.851
0
LINE
8
BLACK
6
CONTINUOUS
10
142.491
20
-107.071
11
142.491
21
-106.349
0
LINE
8
BLACK
6
CONTINUOUS
10
142.491
20
-106.349
11
141.769
21
-106.349
0
LINE
8
BLACK
6
CONTINUOUS
10
141.769
20
-106.349
11
141.769
21
-107.071
0
LINE
8
BLACK
6
CONTINUOUS
10
141.769
20
-107.071
11
142.491
21
-107.071
0
LINE
8
BLACK
6
CONTINUOUS
10
142.491
20
-124.851
11
142.491
21
-124.129
0
LINE
8
BLACK
6
CONTINUOUS
10
142.491
20
-124.129
11
141.769
21
-124.129
0
LINE
8
BLACK
6
CONTINUOUS
10
141.769
20
-124.129
11
141.769
21
-124.851
0
LINE
8
BLACK
6
CONTINUOUS
10
141.769
20
-124.851
11
142.491
21
-124.851
0
LINE
8
BLACK
6
CONTINUOUS
10
145.031
20
-107.071
11
145.031
21
-106.349
0
LINE
8
BLACK
6
CONTINUOUS
10
145.031
20
-106.349
11
144.309
21
-106.349
0
LINE
8
BLACK
6
CONTINUOUS
10
144.309
20
-106.349
11
144.309
21
-107.071
0
LINE
8
BLACK
6
CONTINUOUS
10
144.309
20
-107.071
11
145.031
21
-107.071
0
LINE
8
BLACK
6
CONTINUOUS
10
145.031
20
-124.851
11
145.031
21
-124.129
0
LINE
8
BLACK
6
CONTINUOUS
10
145.031
20
-124.129
11
144.309
21
-124.129
0
LINE
8
BLACK
6
CONTINUOUS
10
144.309
20
-124.129
11
144.309
21
-124.851
0
LINE
8
BLACK
6
CONTINUOUS
10
144.309
20
-124.851
11
145.031
21
-124.851
0
LINE
8
BLACK
6
CONTINUOUS
10
147.571
20
-107.071
11
147.571
21
-106.349
0
LINE
8
BLACK
6
CONTINUOUS
10
147.571
20
-106.349
11
146.849
21
-106.349
0
LINE
8
BLACK
6
CONTINUOUS
10
146.849
20
-106.349
11
146.849
21
-107.071
0
LINE
8
BLACK
6
CONTINUOUS
10
146.849
20
-107.071
11
147.571
21
-107.071
0
LINE
8
BLACK
6
CONTINUOUS
10
147.571
20
-124.851
11
147.571
21
-124.129
0
LINE
8
BLACK
6
CONTINUOUS
10
147.571
20
-124.129
11
146.849
21
-124.129
0
LINE
8
BLACK
6
CONTINUOUS
10
146.849
20
-124.129
11
146.849
21
-124.851
0
LINE
8
BLACK
6
CONTINUOUS
10
146.849
20
-124.851
11
147.571
21
-124.851
0
LINE
8
BLACK
6
CONTINUOUS
10
150.111
20
-107.071
11
150.111
21
-106.349
0
LINE
8
BLACK
6
CONTINUOUS
10
150.111
20
-106.349
11
149.389
21
-106.349
0
LINE
8
BLACK
6
CONTINUOUS
10
149.389
20
-106.349
11
149.389
21
-107.071
0
LINE
8
BLACK
6
CONTINUOUS
10
149.389
20
-107.071
11
150.111
21
-107.071
0
LINE
8
BLACK
6
CONTINUOUS
10
150.111
20
-124.851
11
150.111
21
-124.129
0
LINE
8
BLACK
6
CONTINUOUS
10
150.111
20
-124.129
11
149.389
21
-124.129
0
LINE
8
BLACK
6
CONTINUOUS
10
149.389
20
-124.129
11
149.389
21
-124.851
0
LINE
8
BLACK
6
CONTINUOUS
10
149.389
20
-124.851
11
150.111
21
-124.851
0
LINE
8
BLACK
6
CONTINUOUS
10
152.651
20
-107.071
11
152.651
21
-106.349
0
LINE
8
BLACK
6
CONTINUOUS
10
152.651
20
-106.349
11
151.929
21
-106.349
0
LINE
8
BLACK
6
CONTINUOUS
10
151.929
20
-106.349
11
151.929
21
-107.071
0
LINE
8
BLACK
6
CONTINUOUS
10
151.929
20
-107.071
11
152.651
21
-107.071
0
LINE
8
BLACK
6
CONTINUOUS
10
152.651
20
-124.851
11
152.651
21
-124.129
0
LINE
8
BLACK
6
CONTINUOUS
10
152.651
20
-124.129
11
151.929
21
-124.129
0
LINE
8
BLACK
6
CONTINUOUS
10
151.929
20
-124.129
11
151.929
21
-124.851
0
LINE
8
BLACK
6
CONTINUOUS
10
151.929
20
-124.851
11
152.651
21
-124.851
0
LINE
8
BLACK
6
CONTINUOUS
10
155.191
20
-107.071
11
155.191
21
-106.349
0
LINE
8
BLACK
6
CONTINUOUS
10
155.191
20
-106.349
11
154.469
21
-106.349
0
LINE
8
BLACK
6
CONTINUOUS
10
154.469
20
-106.349
11
154.469
21
-107.071
0
LINE
8
BLACK
6
CONTINUOUS
10
154.469
20
-107.071
11
155.191
21
-107.071
0
LINE
8
BLACK
6
CONTINUOUS
10
155.191
20
-124.851
11
155.191
21
-124.129
0
LINE
8
BLACK
6
CONTINUOUS
10
155.191
20
-124.129
11
154.469
21
-124.129
0
LINE
8
BLACK
6
CONTINUOUS
10
154.469
20
-124.129
11
154.469
21
-124.851
0
LINE
8
BLACK
6
CONTINUOUS
10
154.469
20
-124.851
11
155.191
21
-124.851
0
LINE
8
BLACK
6
CONTINUOUS
10
157.731
20
-107.071
11
157.731
21
-106.349
0
LINE
8
BLACK
6
CONTINUOUS
10
157.731
20
-106.349
11
157.009
21
-106.349
0
LINE
8
BLACK
6
CONTINUOUS
10
157.009
20
-106.349
11
157.009
21
-107.071
0
LINE
8
BLACK
6
CONTINUOUS
10
157.009
20
-107.071
11
157.731
21
-107.071
0
LINE
8
BLACK
6
CONTINUOUS
10
157.731
20
-124.851
11
157.731
21
-124.129
0
LINE
8
BLACK
6
CONTINUOUS
10
157.731
20
-124.129
11
157.009
21
-124.129
0
LINE
8
BLACK
6
CONTINUOUS
10
157.009
20
-124.129
11
157.009
21
-124.851
0
LINE
8
BLACK
6
CONTINUOUS
10
157.009
20
-124.851
11
157.731
21
-124.851
0
LINE
8
BLACK
6
CONTINUOUS
10
160.271
20
-107.071
11
160.271
21
-106.349
0
LINE
8
BLACK
6
CONTINUOUS
10
160.271
20
-106.349
11
159.549
21
-106.349
0
LINE
8
BLACK
6
CONTINUOUS
10
159.549
20
-106.349
11
159.549
21
-107.071
0
LINE
8
BLACK
6
CONTINUOUS
10
159.549
20
-107.071
11
160.271
21
-107.071
0
LINE
8
BLACK
6
CONTINUOUS
10
160.271
20
-124.851
11
160.271
21
-124.129
0
LINE
8
BLACK
6
CONTINUOUS
10
160.271
20
-124.129
11
159.549
21
-124.129
0
LINE
8
BLACK
6
CONTINUOUS
10
159.549
20
-124.129
11
159.549
21
-124.851
0
LINE
8
BLACK
6
CONTINUOUS
10
159.549
20
-124.851
11
160.271
21
-124.851
0
LINE
8
BLACK
6
CONTINUOUS
10
162.811
20
-107.071
11
162.811
21
-106.349
0
LINE
8
BLACK
6
CONTINUOUS
10
162.811
20
-106.349
11
162.089
21
-106.349
0
LINE
8
BLACK
6
CONTINUOUS
10
162.089
20
-106.349
11
162.089
21
-107.071
0
LINE
8
BLACK
6
CONTINUOUS
10
162.089
20
-107.071
11
162.811
21
-107.071
0
LINE
8
BLACK
6
CONTINUOUS
10
162.811
20
-124.851
11
162.811
21
-124.129
0
LINE
8
BLACK
6
CONTINUOUS
10
162.811
20
-124.129
11
162.089
21
-124.129
0
LINE
8
BLACK
6
CONTINUOUS
10
162.089
20
-124.129
11
162.089
21
-124.851
0
LINE
8
BLACK
6
CONTINUOUS
10
162.089
20
-124.851
11
162.811
21
-124.851
0
LINE
8
BLACK
6
CONTINUOUS
10
165.351
20
-107.071
11
165.351
21
-106.349
0
LINE
8
BLACK
6
CONTINUOUS
10
165.351
20
-106.349
11
164.629
21
-106.349
0
LINE
8
BLACK
6
CONTINUOUS
10
164.629
20
-106.349
11
164.629
21
-107.071
0
LINE
8
BLACK
6
CONTINUOUS
10
164.629
20
-107.071
11
165.351
21
-107.071
0
LINE
8
BLACK
6
CONTINUOUS
10
165.351
20
-124.851
11
165.351
21
-124.129
0
LINE
8
BLACK
6
CONTINUOUS
10
165.351
20
-124.129
11
164.629
21
-124.129
0
LINE
8
BLACK
6
CONTINUOUS
10
164.629
20
-124.129
11
164.629
21
-124.851
0
LINE
8
BLACK
6
CONTINUOUS
10
164.629
20
-124.851
11
165.351
21
-124.851
0
LINE
8
BLACK
6
CONTINUOUS
10
167.891
20
-107.071
11
167.891
21
-106.349
0
LINE
8
BLACK
6
CONTINUOUS
10
167.891
20
-106.349
11
167.169
21
-106.349
0
LINE
8
BLACK
6
CONTINUOUS
10
167.169
20
-106.349
11
167.169
21
-107.071
0
LINE
8
BLACK
6
CONTINUOUS
10
167.169
20
-107.071
11
167.891
21
-107.071
0
LINE
8
BLACK
6
CONTINUOUS
10
167.891
20
-124.851
11
167.891
21
-124.129
0
LINE
8
BLACK
6
CONTINUOUS
10
167.891
20
-124.129
11
167.169
21
-124.129
0
LINE
8
BLACK
6
CONTINUOUS
10
167.169
20
-124.129
11
167.169
21
-124.851
0
LINE
8
BLACK
6
CONTINUOUS
10
167.169
20
-124.851
11
167.891
21
-124.851
0
LINE
8
BLACK
6
CONTINUOUS
10
170.431
20
-107.071
11
170.431
21
-106.349
0
LINE
8
BLACK
6
CONTINUOUS
10
170.431
20
-106.349
11
169.709
21
-106.349
0
LINE
8
BLACK
6
CONTINUOUS
10
169.709
20
-106.349
11
169.709
21
-107.071
0
LINE
8
BLACK
6
CONTINUOUS
10
169.709
20
-107.071
11
170.431
21
-107.071
0
LINE
8
BLACK
6
CONTINUOUS
10
170.431
20
-124.851
11
170.431
21
-124.129
0
LINE
8
BLACK
6
CONTINUOUS
10
170.431
20
-124.129
11
169.709
21
-124.129
0
LINE
8
BLACK
6
CONTINUOUS
10
169.709
20
-124.129
11
169.709
21
-124.851
0
LINE
8
BLACK
6
CONTINUOUS
10
169.709
20
-124.851
11
170.431
21
-124.851
0
LINE
8
BLACK
6
CONTINUOUS
10
172.971
20
-107.071
11
172.971
21
-106.349
0
LINE
8
BLACK
6
CONTINUOUS
10
172.971
20
-106.349
11
172.249
21
-106.349
0
LINE
8
BLACK
6
CONTINUOUS
10
172.249
20
-106.349
11
172.249
21
-107.071
0
LINE
8
BLACK
6
CONTINUOUS
10
172.249
20
-107.071
11
172.971
21
-107.071
0
LINE
8
BLACK
6
CONTINUOUS
10
172.971
20
-124.851
11
172.971
21
-124.129
0
LINE
8
BLACK
6
CONTINUOUS
10
172.971
20
-124.129
11
172.249
21
-124.129
0
LINE
8
BLACK
6
CONTINUOUS
10
172.249
20
-124.129
11
172.249
21
-124.851
0
LINE
8
BLACK
6
CONTINUOUS
10
172.249
20
-124.851
11
172.971
21
-124.851
0
LINE
8
BLACK
6
CONTINUOUS
10
175.511
20
-107.071
11
175.511
21
-106.349
0
LINE
8
BLACK
6
CONTINUOUS
10
175.511
20
-106.349
11
174.789
21
-106.349
0
LINE
8
BLACK
6
CONTINUOUS
10
174.789
20
-106.349
11
174.789
21
-107.071
0
LINE
8
BLACK
6
CONTINUOUS
10
174.789
20
-107.071
11
175.511
21
-107.071
0
LINE
8
BLACK
6
CONTINUOUS
10
175.511
20
-124.851
11
175.511
21
-124.129
0
LINE
8
BLACK
6
CONTINUOUS
10
175.511
20
-124.129
11
174.789
21
-124.129
0
LINE
8
BLACK
6
CONTINUOUS
10
174.789
20
-124.129
11
174.789
21
-124.851
0
LINE
8
BLACK
6
CONTINUOUS
10
174.789
20
-124.851
11
175.511
21
-124.851
0
LINE
8
BLACK
6
CONTINUOUS
10
178.051
20
-107.071
11
178.051
21
-106.349
0
LINE
8
BLACK
6
CONTINUOUS
10
178.051
20
-106.349
11
177.329
21
-106.349
0
LINE
8
BLACK
6
CONTINUOUS
10
177.329
20
-106.349
11
177.329
21
-107.071
0
LINE
8
BLACK
6
CONTINUOUS
10
177.329
20
-107.071
11
178.051
21
-107.071
0
LINE
8
BLACK
6
CONTINUOUS
10
178.051
20
-124.851
11
178.051
21
-124.129
0
LINE
8
BLACK
6
CONTINUOUS
10
178.051
20
-124.129
11
177.329
21
-124.129
0
LINE
8
BLACK
6
CONTINUOUS
10
177.329
20
-124.129
11
177.329
21
-124.851
0
LINE
8
BLACK
6
CONTINUOUS
10
177.329
20
-124.851
11
178.051
21
-124.851
0
LINE
8
BLACK
6
CONTINUOUS
10
180.361
20
-113.421
11
180.361
21
-112.699
0
LINE
8
BLACK
6
CONTINUOUS
10
180.361
20
-112.699
11
179.639
21
-112.699
0
LINE
8
BLACK
6
CONTINUOUS
10
179.639
20
-112.699
11
179.639
21
-113.421
0
LINE
8
BLACK
6
CONTINUOUS
10
179.639
20
-113.421
11
180.361
21
-113.421
0
LINE
8
BLACK
6
CONTINUOUS
10
180.361
20
-115.961
11
180.361
21
-115.239
0
LINE
8
BLACK
6
CONTINUOUS
10
180.361
20
-115.239
11
179.639
21
-115.239
0
LINE
8
BLACK
6
CONTINUOUS
10
179.639
20
-115.239
11
179.639
21
-115.961
0
LINE
8
BLACK
6
CONTINUOUS
10
179.639
20
-115.961
11
180.361
21
-115.961
0
LINE
8
BLACK
6
CONTINUOUS
10
180.361
20
-118.501
11
180.361
21
-117.779
0
LINE
8
BLACK
6
CONTINUOUS
10
180.361
20
-117.779
11
179.639
21
-117.779
0
LINE
8
BLACK
6
CONTINUOUS
10
179.639
20
-117.779
11
179.639
21
-118.501
0
LINE
8
BLACK
6
CONTINUOUS
10
179.639
20
-118.501
11
180.361
21
-118.501
0
LINE
8
BLACK
6
CONTINUOUS
10
180.591
20
-107.071
11
180.591
21
-106.349
0
LINE
8
BLACK
6
CONTINUOUS
10
180.591
20
-106.349
11
179.869
21
-106.349
0
LINE
8
BLACK
6
CONTINUOUS
10
179.869
20
-106.349
11
179.869
21
-107.071
0
LINE
8
BLACK
6
CONTINUOUS
10
179.869
20
-107.071
11
180.591
21
-107.071
0
LINE
8
BLACK
6
CONTINUOUS
10
180.591
20
-124.851
11
180.591
21
-124.129
0
LINE
8
BLACK
6
CONTINUOUS
10
180.591
20
-124.129
11
179.869
21
-124.129
0
LINE
8
BLACK
6
CONTINUOUS
10
179.869
20
-124.129
11
179.869
21
-124.851
0
LINE
8
BLACK
6
CONTINUOUS
10
179.869
20
-124.851
11
180.591
21
-124.851
0
LINE
8
BLACK
6
CONTINUOUS
10
117.97
20
-107.3
11
118.52
21
-106.75
0
LINE
8
BLACK
6
CONTINUOUS
10
118.52
20
-106.75
11
117.97
21
-106.2
0
LINE
8
BLACK
6
CONTINUOUS
10
117.97
20
-106.2
11
117.42
21
-106.75
0
LINE
8
BLACK
6
CONTINUOUS
10
117.42
20
-106.75
11
117.97
21
-107.3
0
LINE
8
BLACK
6
CONTINUOUS
10
128.13
20
-107.3
11
128.68
21
-106.75
0
LINE
8
BLACK
6
CONTINUOUS
10
128.68
20
-106.75
11
128.13
21
-106.2
0
LINE
8
BLACK
6
CONTINUOUS
10
128.13
20
-106.2
11
127.58
21
-106.75
0
LINE
8
BLACK
6
CONTINUOUS
10
127.58
20
-106.75
11
128.13
21
-107.3
0
LINE
8
BLACK
6
CONTINUOUS
10
82.5262
20
-140.455
11
82.5262
21
-138.455
0
LINE
8
BLACK
6
CONTINUOUS
10
82.5262
20
-138.455
11
83.0024
21
-138.455
0
LINE
8
BLACK
6
CONTINUOUS
10
83.0024
20
-138.455
11
83.2881
21
-138.55
0
LINE
8
BLACK
6
CONTINUOUS
10
83.2881
20
-138.55
11
83.4786
21
-138.74
0
LINE
8
BLACK
6
CONTINUOUS
10
83.4786
20
-138.74
11
83.5738
21
-138.931
0
LINE
8
BLACK
6
CONTINUOUS
10
83.5738
20
-138.931
11
83.669
21
-139.312
0
LINE
8
BLACK
6
CONTINUOUS
10
83.669
20
-139.312
11
83.669
21
-139.598
0
LINE
8
BLACK
6
CONTINUOUS
10
83.669
20
-139.598
11
83.5738
21
-139.979
0
LINE
8
BLACK
6
CONTINUOUS
10
83.5738
20
-139.979
11
83.4786
21
-140.169
0
LINE
8
BLACK
6
CONTINUOUS
10
83.4786
20
-140.169
11
83.2881
21
-140.36
0
LINE
8
BLACK
6
CONTINUOUS
10
83.2881
20
-140.36
11
83.0024
21
-140.455
0
LINE
8
BLACK
6
CONTINUOUS
10
83.0024
20
-140.455
11
82.5262
21
-140.455
0
LINE
8
BLACK
6
CONTINUOUS
10
84.5262
20
-140.455
11
84.5262
21
-139.121
0
LINE
8
BLACK
6
CONTINUOUS
10
84.5262
20
-139.502
11
84.6214
21
-139.312
0
LINE
8
BLACK
6
CONTINUOUS
10
84.6214
20
-139.312
11
84.7167
21
-139.217
0
LINE
8
BLACK
6
CONTINUOUS
10
84.7167
20
-139.217
11
84.9071
21
-139.121
0
LINE
8
BLACK
6
CONTINUOUS
10
84.9071
20
-139.121
11
85.0976
21
-139.121
0
LINE
8
BLACK
6
CONTINUOUS
10
85.7643
20
-140.455
11
85.7643
21
-139.121
0
LINE
8
BLACK
6
CONTINUOUS
10
85.7643
20
-138.455
11
85.669
21
-138.55
0
LINE
8
BLACK
6
CONTINUOUS
10
85.669
20
-138.55
11
85.7643
21
-138.645
0
LINE
8
BLACK
6
CONTINUOUS
10
85.7643
20
-138.645
11
85.8595
21
-138.55
0
LINE
8
BLACK
6
CONTINUOUS
10
85.8595
20
-138.55
11
85.7643
21
-138.455
0
LINE
8
BLACK
6
CONTINUOUS
10
85.7643
20
-138.455
11
85.7643
21
-138.645
0
LINE
8
BLACK
6
CONTINUOUS
10
87.0024
20
-140.455
11
86.8119
21
-140.36
0
LINE
8
BLACK
6
CONTINUOUS
10
86.8119
20
-140.36
11
86.7167
21
-140.169
0
LINE
8
BLACK
6
CONTINUOUS
10
86.7167
20
-140.169
11
86.7167
21
-138.455
0
LINE
8
BLACK
6
CONTINUOUS
10
88.05
20
-140.455
11
87.8595
21
-140.36
0
LINE
8
BLACK
6
CONTINUOUS
10
87.8595
20
-140.36
11
87.7643
21
-140.169
0
LINE
8
BLACK
6
CONTINUOUS
10
87.7643
20
-140.169
11
87.7643
21
-138.455
0
LINE
8
BLACK
6
CONTINUOUS
10
90.3357
20
-140.455
11
90.3357
21
-138.455
0
LINE
8
BLACK
6
CONTINUOUS
10
90.3357
20
-138.455
11
91.0024
21
-139.883
0
LINE
8
BLACK
6
CONTINUOUS
10
91.0024
20
-139.883
11
91.669
21
-138.455
0
LINE
8
BLACK
6
CONTINUOUS
10
91.669
20
-138.455
11
91.669
21
-140.455
0
LINE
8
BLACK
6
CONTINUOUS
10
93.4786
20
-140.455
11
93.4786
21
-139.407
0
LINE
8
BLACK
6
CONTINUOUS
10
93.4786
20
-139.407
11
93.3833
21
-139.217
0
LINE
8
BLACK
6
CONTINUOUS
10
93.3833
20
-139.217
11
93.1929
21
-139.121
0
LINE
8
BLACK
6
CONTINUOUS
10
93.1929
20
-139.121
11
92.8119
21
-139.121
0
LINE
8
BLACK
6
CONTINUOUS
10
92.8119
20
-139.121
11
92.6214
21
-139.217
0
LINE
8
BLACK
6
CONTINUOUS
10
93.4786
20
-140.36
11
93.2881
21
-140.455
0
LINE
8
BLACK
6
CONTINUOUS
10
93.2881
20
-140.455
11
92.8119
21
-140.455
0
LINE
8
BLACK
6
CONTINUOUS
10
92.8119
20
-140.455
11
92.6214
21
-140.36
0
LINE
8
BLACK
6
CONTINUOUS
10
92.6214
20
-140.36
11
92.5262
21
-140.169
0
LINE
8
BLACK
6
CONTINUOUS
10
92.5262
20
-140.169
11
92.5262
21
-139.979
0
LINE
8
BLACK
6
CONTINUOUS
10
92.5262
20
-139.979
11
92.6214
21
-139.788
0
LINE
8
BLACK
6
CONTINUOUS
10
92.6214
20
-139.788
11
92.8119
21
-139.693
0
LINE
8
BLACK
6
CONTINUOUS
10
92.8119
20
-139.693
11
93.2881
21
-139.693
0
LINE
8
BLACK
6
CONTINUOUS
10
93.2881
20
-139.693
11
93.4786
21
-139.598
0
LINE
8
BLACK
6
CONTINUOUS
10
94.431
20
-139.121
11
94.431
21
-141.121
0
LINE
8
BLACK
6
CONTINUOUS
10
94.431
20
-139.217
11
94.6214
21
-139.121
0
LINE
8
BLACK
6
CONTINUOUS
10
94.6214
20
-139.121
11
95.0024
21
-139.121
0
LINE
8
BLACK
6
CONTINUOUS
10
95.0024
20
-139.121
11
95.1929
21
-139.217
0
LINE
8
BLACK
6
CONTINUOUS
10
95.1929
20
-139.217
11
95.2881
21
-139.312
0
LINE
8
BLACK
6
CONTINUOUS
10
95.2881
20
-139.312
11
95.3833
21
-139.502
0
LINE
8
BLACK
6
CONTINUOUS
10
95.3833
20
-139.502
11
95.3833
21
-140.074
0
LINE
8
BLACK
6
CONTINUOUS
10
95.3833
20
-140.074
11
95.2881
21
-140.264
0
LINE
8
BLACK
6
CONTINUOUS
10
95.2881
20
-140.264
11
95.1929
21
-140.36
0
LINE
8
BLACK
6
CONTINUOUS
10
95.1929
20
-140.36
11
95.0024
21
-140.455
0
LINE
8
BLACK
6
CONTINUOUS
10
95.0024
20
-140.455
11
94.6214
21
-140.455
0
LINE
8
BLACK
6
CONTINUOUS
10
94.6214
20
-140.455
11
94.431
21
-140.36
0
LINE
8
BLACK
6
CONTINUOUS
10
96.2405
20
-140.264
11
96.3357
21
-140.36
0
LINE
8
BLACK
6
CONTINUOUS
10
96.3357
20
-140.36
11
96.2405
21
-140.455
0
LINE
8
BLACK
6
CONTINUOUS
10
96.2405
20
-140.455
11
96.1452
21
-140.36
0
LINE
8
BLACK
6
CONTINUOUS
10
96.1452
20
-140.36
11
96.2405
21
-140.264
0
LINE
8
BLACK
6
CONTINUOUS
10
96.2405
20
-140.264
11
96.2405
21
-140.455
0
LINE
8
BLACK
6
CONTINUOUS
10
96.2405
20
-139.217
11
96.3357
21
-139.312
0
LINE
8
BLACK
6
CONTINUOUS
10
96.3357
20
-139.312
11
96.2405
21
-139.407
0
LINE
8
BLACK
6
CONTINUOUS
10
96.2405
20
-139.407
11
96.1452
21
-139.312
0
LINE
8
BLACK
6
CONTINUOUS
10
96.1452
20
-139.312
11
96.2405
21
-139.217
0
LINE
8
BLACK
6
CONTINUOUS
10
96.2405
20
-139.217
11
96.2405
21
-139.407
0
LINE
8
BLACK
6
CONTINUOUS
10
79.55
20
-143.55
11
79.95
21
-143.95
0
LINE
8
BLACK
6
CONTINUOUS
10
79.95
20
-143.55
11
79.55
21
-143.95
0
LINE
8
BLACK
6
CONTINUOUS
10
82.9071
20
-142.655
11
83.0976
21
-142.655
0
LINE
8
BLACK
6
CONTINUOUS
10
83.0976
20
-142.655
11
83.2881
21
-142.75
0
LINE
8
BLACK
6
CONTINUOUS
10
83.2881
20
-142.75
11
83.3833
21
-142.845
0
LINE
8
BLACK
6
CONTINUOUS
10
83.3833
20
-142.845
11
83.4786
21
-143.036
0
LINE
8
BLACK
6
CONTINUOUS
10
83.4786
20
-143.036
11
83.5738
21
-143.417
0
LINE
8
BLACK
6
CONTINUOUS
10
83.5738
20
-143.417
11
83.5738
21
-143.893
0
LINE
8
BLACK
6
CONTINUOUS
10
83.5738
20
-143.893
11
83.4786
21
-144.274
0
LINE
8
BLACK
6
CONTINUOUS
10
83.4786
20
-144.274
11
83.3833
21
-144.464
0
LINE
8
BLACK
6
CONTINUOUS
10
83.3833
20
-144.464
11
83.2881
21
-144.56
0
LINE
8
BLACK
6
CONTINUOUS
10
83.2881
20
-144.56
11
83.0976
21
-144.655
0
LINE
8
BLACK
6
CONTINUOUS
10
83.0976
20
-144.655
11
82.9071
21
-144.655
0
LINE
8
BLACK
6
CONTINUOUS
10
82.9071
20
-144.655
11
82.7167
21
-144.56
0
LINE
8
BLACK
6
CONTINUOUS
10
82.7167
20
-144.56
11
82.6214
21
-144.464
0
LINE
8
BLACK
6
CONTINUOUS
10
82.6214
20
-144.464
11
82.5262
21
-144.274
0
LINE
8
BLACK
6
CONTINUOUS
10
82.5262
20
-144.274
11
82.431
21
-143.893
0
LINE
8
BLACK
6
CONTINUOUS
10
82.431
20
-143.893
11
82.431
21
-143.417
0
LINE
8
BLACK
6
CONTINUOUS
10
82.431
20
-143.417
11
82.5262
21
-143.036
0
LINE
8
BLACK
6
CONTINUOUS
10
82.5262
20
-143.036
11
82.6214
21
-142.845
0
LINE
8
BLACK
6
CONTINUOUS
10
82.6214
20
-142.845
11
82.7167
21
-142.75
0
LINE
8
BLACK
6
CONTINUOUS
10
82.7167
20
-142.75
11
82.9071
21
-142.655
0
LINE
8
BLACK
6
CONTINUOUS
10
84.431
20
-144.464
11
84.5262
21
-144.56
0
LINE
8
BLACK
6
CONTINUOUS
10
84.5262
20
-144.56
11
84.431
21
-144.655
0
LINE
8
BLACK
6
CONTINUOUS
10
84.431
20
-144.655
11
84.3357
21
-144.56
0
LINE
8
BLACK
6
CONTINUOUS
10
84.3357
20
-144.56
11
84.431
21
-144.464
0
LINE
8
BLACK
6
CONTINUOUS
10
84.431
20
-144.464
11
84.431
21
-144.655
0
LINE
8
BLACK
6
CONTINUOUS
10
86.2405
20
-143.321
11
86.2405
21
-144.655
0
LINE
8
BLACK
6
CONTINUOUS
10
85.7643
20
-142.56
11
85.2881
21
-143.988
0
LINE
8
BLACK
6
CONTINUOUS
10
85.2881
20
-143.988
11
86.5262
21
-143.988
0
LINE
8
BLACK
6
CONTINUOUS
10
87.669
20
-142.655
11
87.8595
21
-142.655
0
LINE
8
BLACK
6
CONTINUOUS
10
87.8595
20
-142.655
11
88.05
21
-142.75
0
LINE
8
BLACK
6
CONTINUOUS
10
88.05
20
-142.75
11
88.1452
21
-142.845
0
LINE
8
BLACK
6
CONTINUOUS
10
88.1452
20
-142.845
11
88.2405
21
-143.036
0
LINE
8
BLACK
6
CONTINUOUS
10
88.2405
20
-143.036
11
88.3357
21
-143.417
0
LINE
8
BLACK
6
CONTINUOUS
10
88.3357
20
-143.417
11
88.3357
21
-143.893
0
LINE
8
BLACK
6
CONTINUOUS
10
88.3357
20
-143.893
11
88.2405
21
-144.274
0
LINE
8
BLACK
6
CONTINUOUS
10
88.2405
20
-144.274
11
88.1452
21
-144.464
0
LINE
8
BLACK
6
CONTINUOUS
10
88.1452
20
-144.464
11
88.05
21
-144.56
0
LINE
8
BLACK
6
CONTINUOUS
10
88.05
20
-144.56
11
87.8595
21
-144.655
0
LINE
8
BLACK
6
CONTINUOUS
10
87.8595
20
-144.655
11
87.669
21
-144.655
0
LINE
8
BLACK
6
CONTINUOUS
10
87.669
20
-144.655
11
87.4786
21
-144.56
0
LINE
8
BLACK
6
CONTINUOUS
10
87.4786
20
-144.56
11
87.3833
21
-144.464
0
LINE
8
BLACK
6
CONTINUOUS
10
87.3833
20
-144.464
11
87.2881
21
-144.274
0
LINE
8
BLACK
6
CONTINUOUS
10
87.2881
20
-144.274
11
87.1929
21
-143.893
0
LINE
8
BLACK
6
CONTINUOUS
10
87.1929
20
-143.893
11
87.1929
21
-143.417
0
LINE
8
BLACK
6
CONTINUOUS
10
87.1929
20
-143.417
11
87.2881
21
-143.036
0
LINE
8
BLACK
6
CONTINUOUS
10
87.2881
20
-143.036
11
87.3833
21
-142.845
0
LINE
8
BLACK
6
CONTINUOUS
10
87.3833
20
-142.845
11
87.4786
21
-142.75
0
LINE
8
BLACK
6
CONTINUOUS
10
87.4786
20
-142.75
11
87.669
21
-142.655
0
LINE
8
BLACK
6
CONTINUOUS
10
89.5738
20
-142.655
11
89.7643
21
-142.655
0
LINE
8
BLACK
6
CONTINUOUS
10
89.7643
20
-142.655
11
89.9548
21
-142.75
0
LINE
8
BLACK
6
CONTINUOUS
10
89.9548
20
-142.75
11
90.05
21
-142.845
0
LINE
8
BLACK
6
CONTINUOUS
10
90.05
20
-142.845
11
90.1452
21
-143.036
0
LINE
8
BLACK
6
CONTINUOUS
10
90.1452
20
-143.036
11
90.2405
21
-143.417
0
LINE
8
BLACK
6
CONTINUOUS
10
90.2405
20
-143.417
11
90.2405
21
-143.893
0
LINE
8
BLACK
6
CONTINUOUS
10
90.2405
20
-143.893
11
90.1452
21
-144.274
0
LINE
8
BLACK
6
CONTINUOUS
10
90.1452
20
-144.274
11
90.05
21
-144.464
0
LINE
8
BLACK
6
CONTINUOUS
10
90.05
20
-144.464
11
89.9548
21
-144.56
0
LINE
8
BLACK
6
CONTINUOUS
10
89.9548
20
-144.56
11
89.7643
21
-144.655
0
LINE
8
BLACK
6
CONTINUOUS
10
89.7643
20
-144.655
11
89.5738
21
-144.655
0
LINE
8
BLACK
6
CONTINUOUS
10
89.5738
20
-144.655
11
89.3833
21
-144.56
0
LINE
8
BLACK
6
CONTINUOUS
10
89.3833
20
-144.56
11
89.2881
21
-144.464
0
LINE
8
BLACK
6
CONTINUOUS
10
89.2881
20
-144.464
11
89.1929
21
-144.274
0
LINE
8
BLACK
6
CONTINUOUS
10
89.1929
20
-144.274
11
89.0976
21
-143.893
0
LINE
8
BLACK
6
CONTINUOUS
10
89.0976
20
-143.893
11
89.0976
21
-143.417
0
LINE
8
BLACK
6
CONTINUOUS
10
89.0976
20
-143.417
11
89.1929
21
-143.036
0
LINE
8
BLACK
6
CONTINUOUS
10
89.1929
20
-143.036
11
89.2881
21
-142.845
0
LINE
8
BLACK
6
CONTINUOUS
10
89.2881
20
-142.845
11
89.3833
21
-142.75
0
LINE
8
BLACK
6
CONTINUOUS
10
89.3833
20
-142.75
11
89.5738
21
-142.655
0
LINE
8
BLACK
6
CONTINUOUS
10
91.0976
20
-144.655
11
91.0976
21
-143.321
0
LINE
8
BLACK
6
CONTINUOUS
10
91.0976
20
-143.512
11
91.1929
21
-143.417
0
LINE
8
BLACK
6
CONTINUOUS
10
91.1929
20
-143.417
11
91.3833
21
-143.321
0
LINE
8
BLACK
6
CONTINUOUS
10
91.3833
20
-143.321
11
91.669
21
-143.321
0
LINE
8
BLACK
6
CONTINUOUS
10
91.669
20
-143.321
11
91.8595
21
-143.417
0
LINE
8
BLACK
6
CONTINUOUS
10
91.8595
20
-143.417
11
91.9548
21
-143.607
0
LINE
8
BLACK
6
CONTINUOUS
10
91.9548
20
-143.607
11
91.9548
21
-144.655
0
LINE
8
BLACK
6
CONTINUOUS
10
91.9548
20
-143.607
11
92.05
21
-143.417
0
LINE
8
BLACK
6
CONTINUOUS
10
92.05
20
-143.417
11
92.2405
21
-143.321
0
LINE
8
BLACK
6
CONTINUOUS
10
92.2405
20
-143.321
11
92.5262
21
-143.321
0
LINE
8
BLACK
6
CONTINUOUS
10
92.5262
20
-143.321
11
92.7167
21
-143.417
0
LINE
8
BLACK
6
CONTINUOUS
10
92.7167
20
-143.417
11
92.8119
21
-143.607
0
LINE
8
BLACK
6
CONTINUOUS
10
92.8119
20
-143.607
11
92.8119
21
-144.655
0
LINE
8
BLACK
6
CONTINUOUS
10
93.7643
20
-144.655
11
93.7643
21
-143.321
0
LINE
8
BLACK
6
CONTINUOUS
10
93.7643
20
-143.512
11
93.8595
21
-143.417
0
LINE
8
BLACK
6
CONTINUOUS
10
93.8595
20
-143.417
11
94.05
21
-143.321
0
LINE
8
BLACK
6
CONTINUOUS
10
94.05
20
-143.321
11
94.3357
21
-143.321
0
LINE
8
BLACK
6
CONTINUOUS
10
94.3357
20
-143.321
11
94.5262
21
-143.417
0
LINE
8
BLACK
6
CONTINUOUS
10
94.5262
20
-143.417
11
94.6214
21
-143.607
0
LINE
8
BLACK
6
CONTINUOUS
10
94.6214
20
-143.607
11
94.6214
21
-144.655
0
LINE
8
BLACK
6
CONTINUOUS
10
94.6214
20
-143.607
11
94.7167
21
-143.417
0
LINE
8
BLACK
6
CONTINUOUS
10
94.7167
20
-143.417
11
94.9071
21
-143.321
0
LINE
8
BLACK
6
CONTINUOUS
10
94.9071
20
-143.321
11
95.1929
21
-143.321
0
LINE
8
BLACK
6
CONTINUOUS
10
95.1929
20
-143.321
11
95.3833
21
-143.417
0
LINE
8
BLACK
6
CONTINUOUS
10
95.3833
20
-143.417
11
95.4786
21
-143.607
0
LINE
8
BLACK
6
CONTINUOUS
10
95.4786
20
-143.607
11
95.4786
21
-144.655
0
LINE
8
BLACK
6
CONTINUOUS
10
99.3833
20
-142.56
11
97.669
21
-145.131
0
LINE
8
BLACK
6
CONTINUOUS
10
101.955
20
-142.655
11
102.145
21
-142.655
0
LINE
8
BLACK
6
CONTINUOUS
10
102.145
20
-142.655
11
102.336
21
-142.75
0
LINE
8
BLACK
6
CONTINUOUS
10
102.336
20
-142.75
11
102.431
21
-142.845
0
LINE
8
BLACK
6
CONTINUOUS
10
102.431
20
-142.845
11
102.526
21
-143.036
0
LINE
8
BLACK
6
CONTINUOUS
10
102.526
20
-143.036
11
102.621
21
-143.417
0
LINE
8
BLACK
6
CONTINUOUS
10
102.621
20
-143.417
11
102.621
21
-143.893
0
LINE
8
BLACK
6
CONTINUOUS
10
102.621
20
-143.893
11
102.526
21
-144.274
0
LINE
8
BLACK
6
CONTINUOUS
10
102.526
20
-144.274
11
102.431
21
-144.464
0
LINE
8
BLACK
6
CONTINUOUS
10
102.431
20
-144.464
11
102.336
21
-144.56
0
LINE
8
BLACK
6
CONTINUOUS
10
102.336
20
-144.56
11
102.145
21
-144.655
0
LINE
8
BLACK
6
CONTINUOUS
10
102.145
20
-144.655
11
101.955
21
-144.655
0
LINE
8
BLACK
6
CONTINUOUS
10
101.955
20
-144.655
11
101.764
21
-144.56
0
LINE
8
BLACK
6
CONTINUOUS
10
101.764
20
-144.56
11
101.669
21
-144.464
0
LINE
8
BLACK
6
CONTINUOUS
10
101.669
20
-144.464
11
101.574
21
-144.274
0
LINE
8
BLACK
6
CONTINUOUS
10
101.574
20
-144.274
11
101.479
21
-143.893
0
LINE
8
BLACK
6
CONTINUOUS
10
101.479
20
-143.893
11
101.479
21
-143.417
0
LINE
8
BLACK
6
CONTINUOUS
10
101.479
20
-143.417
11
101.574
21
-143.036
0
LINE
8
BLACK
6
CONTINUOUS
10
101.574
20
-143.036
11
101.669
21
-142.845
0
LINE
8
BLACK
6
CONTINUOUS
10
101.669
20
-142.845
11
101.764
21
-142.75
0
LINE
8
BLACK
6
CONTINUOUS
10
101.764
20
-142.75
11
101.955
21
-142.655
0
LINE
8
BLACK
6
CONTINUOUS
10
103.479
20
-144.464
11
103.574
21
-144.56
0
LINE
8
BLACK
6
CONTINUOUS
10
103.574
20
-144.56
11
103.479
21
-144.655
0
LINE
8
BLACK
6
CONTINUOUS
10
103.479
20
-144.655
11
103.383
21
-144.56
0
LINE
8
BLACK
6
CONTINUOUS
10
103.383
20
-144.56
11
103.479
21
-144.464
0
LINE
8
BLACK
6
CONTINUOUS
10
103.479
20
-144.464
11
103.479
21
-144.655
0
LINE
8
BLACK
6
CONTINUOUS
10
104.812
20
-142.655
11
105.002
21
-142.655
0
LINE
8
BLACK
6
CONTINUOUS
10
105.002
20
-142.655
11
105.193
21
-142.75
0
LINE
8
BLACK
6
CONTINUOUS
10
105.193
20
-142.75
11
105.288
21
-142.845
0
LINE
8
BLACK
6
CONTINUOUS
10
105.288
20
-142.845
11
105.383
21
-143.036
0
LINE
8
BLACK
6
CONTINUOUS
10
105.383
20
-143.036
11
105.479
21
-143.417
0
LINE
8
BLACK
6
CONTINUOUS
10
105.479
20
-143.417
11
105.479
21
-143.893
0
LINE
8
BLACK
6
CONTINUOUS
10
105.479
20
-143.893
11
105.383
21
-144.274
0
LINE
8
BLACK
6
CONTINUOUS
10
105.383
20
-144.274
11
105.288
21
-144.464
0
LINE
8
BLACK
6
CONTINUOUS
10
105.288
20
-144.464
11
105.193
21
-144.56
0
LINE
8
BLACK
6
CONTINUOUS
10
105.193
20
-144.56
11
105.002
21
-144.655
0
LINE
8
BLACK
6
CONTINUOUS
10
105.002
20
-144.655
11
104.812
21
-144.655
0
LINE
8
BLACK
6
CONTINUOUS
10
104.812
20
-144.655
11
104.621
21
-144.56
0
LINE
8
BLACK
6
CONTINUOUS
10
104.621
20
-144.56
11
104.526
21
-144.464
0
LINE
8
BLACK
6
CONTINUOUS
10
104.526
20
-144.464
11
104.431
21
-144.274
0
LINE
8
BLACK
6
CONTINUOUS
10
104.431
20
-144.274
11
104.336
21
-143.893
0
LINE
8
BLACK
6
CONTINUOUS
10
104.336
20
-143.893
11
104.336
21
-143.417
0
LINE
8
BLACK
6
CONTINUOUS
10
104.336
20
-143.417
11
104.431
21
-143.036
0
LINE
8
BLACK
6
CONTINUOUS
10
104.431
20
-143.036
11
104.526
21
-142.845
0
LINE
8
BLACK
6
CONTINUOUS
10
104.526
20
-142.845
11
104.621
21
-142.75
0
LINE
8
BLACK
6
CONTINUOUS
10
104.621
20
-142.75
11
104.812
21
-142.655
0
LINE
8
BLACK
6
CONTINUOUS
10
107.383
20
-144.655
11
106.24
21
-144.655
0
LINE
8
BLACK
6
CONTINUOUS
10
106.812
20
-144.655
11
106.812
21
-142.655
0
LINE
8
BLACK
6
CONTINUOUS
10
106.812
20
-142.655
11
106.621
21
-142.94
0
LINE
8
BLACK
6
CONTINUOUS
10
106.621
20
-142.94
11
106.431
21
-143.131
0
LINE
8
BLACK
6
CONTINUOUS
10
106.431
20
-143.131
11
106.24
21
-143.226
0
LINE
8
BLACK
6
CONTINUOUS
10
109.193
20
-142.655
11
108.24
21
-142.655
0
LINE
8
BLACK
6
CONTINUOUS
10
108.24
20
-142.655
11
108.145
21
-143.607
0
LINE
8
BLACK
6
CONTINUOUS
10
108.145
20
-143.607
11
108.24
21
-143.512
0
LINE
8
BLACK
6
CONTINUOUS
10
108.24
20
-143.512
11
108.431
21
-143.417
0
LINE
8
BLACK
6
CONTINUOUS
10
108.431
20
-143.417
11
108.907
21
-143.417
0
LINE
8
BLACK
6
CONTINUOUS
10
108.907
20
-143.417
11
109.098
21
-143.512
0
LINE
8
BLACK
6
CONTINUOUS
10
109.098
20
-143.512
11
109.193
21
-143.607
0
LINE
8
BLACK
6
CONTINUOUS
10
109.193
20
-143.607
11
109.288
21
-143.798
0
LINE
8
BLACK
6
CONTINUOUS
10
109.288
20
-143.798
11
109.288
21
-144.274
0
LINE
8
BLACK
6
CONTINUOUS
10
109.288
20
-144.274
11
109.193
21
-144.464
0
LINE
8
BLACK
6
CONTINUOUS
10
109.193
20
-144.464
11
109.098
21
-144.56
0
LINE
8
BLACK
6
CONTINUOUS
10
109.098
20
-144.56
11
108.907
21
-144.655
0
LINE
8
BLACK
6
CONTINUOUS
10
108.907
20
-144.655
11
108.431
21
-144.655
0
LINE
8
BLACK
6
CONTINUOUS
10
108.431
20
-144.655
11
108.24
21
-144.56
0
LINE
8
BLACK
6
CONTINUOUS
10
108.24
20
-144.56
11
108.145
21
-144.464
0
LINE
8
BLACK
6
CONTINUOUS
10
109.955
20
-142.655
11
111.288
21
-142.655
0
LINE
8
BLACK
6
CONTINUOUS
10
111.288
20
-142.655
11
110.431
21
-144.655
0
LINE
8
BLACK
6
CONTINUOUS
10
111.955
20
-142.655
11
111.955
21
-143.036
0
LINE
8
BLACK
6
CONTINUOUS
10
112.717
20
-142.655
11
112.717
21
-143.036
0
LINE
8
BLACK
6
CONTINUOUS
10
115.669
20
-145.417
11
115.574
21
-145.321
0
LINE
8
BLACK
6
CONTINUOUS
10
115.574
20
-145.321
11
115.383
21
-145.036
0
LINE
8
BLACK
6
CONTINUOUS
10
115.383
20
-145.036
11
115.288
21
-144.845
0
LINE
8
BLACK
6
CONTINUOUS
10
115.288
20
-144.845
11
115.193
21
-144.56
0
LINE
8
BLACK
6
CONTINUOUS
10
115.193
20
-144.56
11
115.098
21
-144.083
0
LINE
8
BLACK
6
CONTINUOUS
10
115.098
20
-144.083
11
115.098
21
-143.702
0
LINE
8
BLACK
6
CONTINUOUS
10
115.098
20
-143.702
11
115.193
21
-143.226
0
LINE
8
BLACK
6
CONTINUOUS
10
115.193
20
-143.226
11
115.288
21
-142.94
0
LINE
8
BLACK
6
CONTINUOUS
10
115.288
20
-142.94
11
115.383
21
-142.75
0
LINE
8
BLACK
6
CONTINUOUS
10
115.383
20
-142.75
11
115.574
21
-142.464
0
LINE
8
BLACK
6
CONTINUOUS
10
115.574
20
-142.464
11
115.669
21
-142.369
0
LINE
8
BLACK
6
CONTINUOUS
10
117.479
20
-144.655
11
116.336
21
-144.655
0
LINE
8
BLACK
6
CONTINUOUS
10
116.907
20
-144.655
11
116.907
21
-142.655
0
LINE
8
BLACK
6
CONTINUOUS
10
116.907
20
-142.655
11
116.717
21
-142.94
0
LINE
8
BLACK
6
CONTINUOUS
10
116.717
20
-142.94
11
116.526
21
-143.131
0
LINE
8
BLACK
6
CONTINUOUS
10
116.526
20
-143.131
11
116.336
21
-143.226
0
LINE
8
BLACK
6
CONTINUOUS
10
119.383
20
-144.655
11
118.24
21
-144.655
0
LINE
8
BLACK
6
CONTINUOUS
10
118.812
20
-144.655
11
118.812
21
-142.655
0
LINE
8
BLACK
6
CONTINUOUS
10
118.812
20
-142.655
11
118.621
21
-142.94
0
LINE
8
BLACK
6
CONTINUOUS
10
118.621
20
-142.94
11
118.431
21
-143.131
0
LINE
8
BLACK
6
CONTINUOUS
10
118.431
20
-143.131
11
118.24
21
-143.226
0
LINE
8
BLACK
6
CONTINUOUS
10
121.098
20
-143.321
11
121.098
21
-144.655
0
LINE
8
BLACK
6
CONTINUOUS
10
120.621
20
-142.56
11
120.145
21
-143.988
0
LINE
8
BLACK
6
CONTINUOUS
10
120.145
20
-143.988
11
121.383
21
-143.988
0
LINE
8
BLACK
6
CONTINUOUS
10
123.669
20
-144.655
11
123.669
21
-142.655
0
LINE
8
BLACK
6
CONTINUOUS
10
124.526
20
-144.655
11
124.526
21
-143.607
0
LINE
8
BLACK
6
CONTINUOUS
10
124.526
20
-143.607
11
124.431
21
-143.417
0
LINE
8
BLACK
6
CONTINUOUS
10
124.431
20
-143.417
11
124.24
21
-143.321
0
LINE
8
BLACK
6
CONTINUOUS
10
124.24
20
-143.321
11
123.955
21
-143.321
0
LINE
8
BLACK
6
CONTINUOUS
10
123.955
20
-143.321
11
123.764
21
-143.417
0
LINE
8
BLACK
6
CONTINUOUS
10
123.764
20
-143.417
11
123.669
21
-143.512
0
LINE
8
BLACK
6
CONTINUOUS
10
125.764
20
-144.655
11
125.574
21
-144.56
0
LINE
8
BLACK
6
CONTINUOUS
10
125.574
20
-144.56
11
125.479
21
-144.464
0
LINE
8
BLACK
6
CONTINUOUS
10
125.479
20
-144.464
11
125.383
21
-144.274
0
LINE
8
BLACK
6
CONTINUOUS
10
125.383
20
-144.274
11
125.383
21
-143.702
0
LINE
8
BLACK
6
CONTINUOUS
10
125.383
20
-143.702
11
125.479
21
-143.512
0
LINE
8
BLACK
6
CONTINUOUS
10
125.479
20
-143.512
11
125.574
21
-143.417
0
LINE
8
BLACK
6
CONTINUOUS
10
125.574
20
-143.417
11
125.764
21
-143.321
0
LINE
8
BLACK
6
CONTINUOUS
10
125.764
20
-143.321
11
126.05
21
-143.321
0
LINE
8
BLACK
6
CONTINUOUS
10
126.05
20
-143.321
11
126.24
21
-143.417
0
LINE
8
BLACK
6
CONTINUOUS
10
126.24
20
-143.417
11
126.336
21
-143.512
0
LINE
8
BLACK
6
CONTINUOUS
10
126.336
20
-143.512
11
126.431
21
-143.702
0
LINE
8
BLACK
6
CONTINUOUS
10
126.431
20
-143.702
11
126.431
21
-144.274
0
LINE
8
BLACK
6
CONTINUOUS
10
126.431
20
-144.274
11
126.336
21
-144.464
0
LINE
8
BLACK
6
CONTINUOUS
10
126.336
20
-144.464
11
126.24
21
-144.56
0
LINE
8
BLACK
6
CONTINUOUS
10
126.24
20
-144.56
11
126.05
21
-144.655
0
LINE
8
BLACK
6
CONTINUOUS
10
126.05
20
-144.655
11
125.764
21
-144.655
0
LINE
8
BLACK
6
CONTINUOUS
10
127.574
20
-144.655
11
127.383
21
-144.56
0
LINE
8
BLACK
6
CONTINUOUS
10
127.383
20
-144.56
11
127.288
21
-144.369
0
LINE
8
BLACK
6
CONTINUOUS
10
127.288
20
-144.369
11
127.288
21
-142.655
0
LINE
8
BLACK
6
CONTINUOUS
10
129.098
20
-144.56
11
128.907
21
-144.655
0
LINE
8
BLACK
6
CONTINUOUS
10
128.907
20
-144.655
11
128.526
21
-144.655
0
LINE
8
BLACK
6
CONTINUOUS
10
128.526
20
-144.655
11
128.336
21
-144.56
0
LINE
8
BLACK
6
CONTINUOUS
10
128.336
20
-144.56
11
128.24
21
-144.369
0
LINE
8
BLACK
6
CONTINUOUS
10
128.24
20
-144.369
11
128.24
21
-143.607
0
LINE
8
BLACK
6
CONTINUOUS
10
128.24
20
-143.607
11
128.336
21
-143.417
0
LINE
8
BLACK
6
CONTINUOUS
10
128.336
20
-143.417
11
128.526
21
-143.321
0
LINE
8
BLACK
6
CONTINUOUS
10
128.526
20
-143.321
11
128.907
21
-143.321
0
LINE
8
BLACK
6
CONTINUOUS
10
128.907
20
-143.321
11
129.098
21
-143.417
0
LINE
8
BLACK
6
CONTINUOUS
10
129.098
20
-143.417
11
129.193
21
-143.607
0
LINE
8
BLACK
6
CONTINUOUS
10
129.193
20
-143.607
11
129.193
21
-143.798
0
LINE
8
BLACK
6
CONTINUOUS
10
129.193
20
-143.798
11
128.24
21
-143.988
0
LINE
8
BLACK
6
CONTINUOUS
10
129.955
20
-144.56
11
130.145
21
-144.655
0
LINE
8
BLACK
6
CONTINUOUS
10
130.145
20
-144.655
11
130.526
21
-144.655
0
LINE
8
BLACK
6
CONTINUOUS
10
130.526
20
-144.655
11
130.717
21
-144.56
0
LINE
8
BLACK
6
CONTINUOUS
10
130.717
20
-144.56
11
130.812
21
-144.369
0
LINE
8
BLACK
6
CONTINUOUS
10
130.812
20
-144.369
11
130.812
21
-144.274
0
LINE
8
BLACK
6
CONTINUOUS
10
130.812
20
-144.274
11
130.717
21
-144.083
0
LINE
8
BLACK
6
CONTINUOUS
10
130.717
20
-144.083
11
130.526
21
-143.988
0
LINE
8
BLACK
6
CONTINUOUS
10
130.526
20
-143.988
11
130.24
21
-143.988
0
LINE
8
BLACK
6
CONTINUOUS
10
130.24
20
-143.988
11
130.05
21
-143.893
0
LINE
8
BLACK
6
CONTINUOUS
10
130.05
20
-143.893
11
129.955
21
-143.702
0
LINE
8
BLACK
6
CONTINUOUS
10
129.955
20
-143.702
11
129.955
21
-143.607
0
LINE
8
BLACK
6
CONTINUOUS
10
129.955
20
-143.607
11
130.05
21
-143.417
0
LINE
8
BLACK
6
CONTINUOUS
10
130.05
20
-143.417
11
130.24
21
-143.321
0
LINE
8
BLACK
6
CONTINUOUS
10
130.24
20
-143.321
11
130.526
21
-143.321
0
LINE
8
BLACK
6
CONTINUOUS
10
130.526
20
-143.321
11
130.717
21
-143.417
0
LINE
8
BLACK
6
CONTINUOUS
10
131.479
20
-145.417
11
131.574
21
-145.321
0
LINE
8
BLACK
6
CONTINUOUS
10
131.574
20
-145.321
11
131.764
21
-145.036
0
LINE
8
BLACK
6
CONTINUOUS
10
131.764
20
-145.036
11
131.86
21
-144.845
0
LINE
8
BLACK
6
CONTINUOUS
10
131.86
20
-144.845
11
131.955
21
-144.56
0
LINE
8
BLACK
6
CONTINUOUS
10
131.955
20
-144.56
11
132.05
21
-144.083
0
LINE
8
BLACK
6
CONTINUOUS
10
132.05
20
-144.083
11
132.05
21
-143.702
0
LINE
8
BLACK
6
CONTINUOUS
10
132.05
20
-143.702
11
131.955
21
-143.226
0
LINE
8
BLACK
6
CONTINUOUS
10
131.955
20
-143.226
11
131.86
21
-142.94
0
LINE
8
BLACK
6
CONTINUOUS
10
131.86
20
-142.94
11
131.764
21
-142.75
0
LINE
8
BLACK
6
CONTINUOUS
10
131.764
20
-142.75
11
131.574
21
-142.464
0
LINE
8
BLACK
6
CONTINUOUS
10
131.574
20
-142.464
11
131.479
21
-142.369
0
CIRCLE
8
BLACK
10
79.55
20
-146.39
40
0.4
0
LINE
8
BLACK
6
CONTINUOUS
10
82.9071
20
-145.295
11
83.0976
21
-145.295
0
LINE
8
BLACK
6
CONTINUOUS
10
83.0976
20
-145.295
11
83.2881
21
-145.39
0
LINE
8
BLACK
6
CONTINUOUS
10
83.2881
20
-145.39
11
83.3833
21
-145.485
0
LINE
8
BLACK
6
CONTINUOUS
10
83.3833
20
-145.485
11
83.4786
21
-145.676
0
LINE
8
BLACK
6
CONTINUOUS
10
83.4786
20
-145.676
11
83.5738
21
-146.057
0
LINE
8
BLACK
6
CONTINUOUS
10
83.5738
20
-146.057
11
83.5738
21
-146.533
0
LINE
8
BLACK
6
CONTINUOUS
10
83.5738
20
-146.533
11
83.4786
21
-146.914
0
LINE
8
BLACK
6
CONTINUOUS
10
83.4786
20
-146.914
11
83.3833
21
-147.104
0
LINE
8
BLACK
6
CONTINUOUS
10
83.3833
20
-147.104
11
83.2881
21
-147.2
0
LINE
8
BLACK
6
CONTINUOUS
10
83.2881
20
-147.2
11
83.0976
21
-147.295
0
LINE
8
BLACK
6
CONTINUOUS
10
83.0976
20
-147.295
11
82.9071
21
-147.295
0
LINE
8
BLACK
6
CONTINUOUS
10
82.9071
20
-147.295
11
82.7167
21
-147.2
0
LINE
8
BLACK
6
CONTINUOUS
10
82.7167
20
-147.2
11
82.6214
21
-147.104
0
LINE
8
BLACK
6
CONTINUOUS
10
82.6214
20
-147.104
11
82.5262
21
-146.914
0
LINE
8
BLACK
6
CONTINUOUS
10
82.5262
20
-146.914
11
82.431
21
-146.533
0
LINE
8
BLACK
6
CONTINUOUS
10
82.431
20
-146.533
11
82.431
21
-146.057
0
LINE
8
BLACK
6
CONTINUOUS
10
82.431
20
-146.057
11
82.5262
21
-145.676
0
LINE
8
BLACK
6
CONTINUOUS
10
82.5262
20
-145.676
11
82.6214
21
-145.485
0
LINE
8
BLACK
6
CONTINUOUS
10
82.6214
20
-145.485
11
82.7167
21
-145.39
0
LINE
8
BLACK
6
CONTINUOUS
10
82.7167
20
-145.39
11
82.9071
21
-145.295
0
LINE
8
BLACK
6
CONTINUOUS
10
84.431
20
-147.104
11
84.5262
21
-147.2
0
LINE
8
BLACK
6
CONTINUOUS
10
84.5262
20
-147.2
11
84.431
21
-147.295
0
LINE
8
BLACK
6
CONTINUOUS
10
84.431
20
-147.295
11
84.3357
21
-147.2
0
LINE
8
BLACK
6
CONTINUOUS
10
84.3357
20
-147.2
11
84.431
21
-147.104
0
LINE
8
BLACK
6
CONTINUOUS
10
84.431
20
-147.104
11
84.431
21
-147.295
0
LINE
8
BLACK
6
CONTINUOUS
10
85.669
20
-146.152
11
85.4786
21
-146.057
0
LINE
8
BLACK
6
CONTINUOUS
10
85.4786
20
-146.057
11
85.3833
21
-145.961
0
LINE
8
BLACK
6
CONTINUOUS
10
85.3833
20
-145.961
11
85.2881
21
-145.771
0
LINE
8
BLACK
6
CONTINUOUS
10
85.2881
20
-145.771
11
85.2881
21
-145.676
0
LINE
8
BLACK
6
CONTINUOUS
10
85.2881
20
-145.676
11
85.3833
21
-145.485
0
LINE
8
BLACK
6
CONTINUOUS
10
85.3833
20
-145.485
11
85.4786
21
-145.39
0
LINE
8
BLACK
6
CONTINUOUS
10
85.4786
20
-145.39
11
85.669
21
-145.295
0
LINE
8
BLACK
6
CONTINUOUS
10
85.669
20
-145.295
11
86.05
21
-145.295
0
LINE
8
BLACK
6
CONTINUOUS
10
86.05
20
-145.295
11
86.2405
21
-145.39
0
LINE
8
BLACK
6
CONTINUOUS
10
86.2405
20
-145.39
11
86.3357
21
-145.485
0
LINE
8
BLACK
6
CONTINUOUS
10
86.3357
20
-145.485
11
86.431
21
-145.676
0
LINE
8
BLACK
6
CONTINUOUS
10
86.431
20
-145.676
11
86.431
21
-145.771
0
LINE
8
BLACK
6
CONTINUOUS
10
86.431
20
-145.771
11
86.3357
21
-145.961
0
LINE
8
BLACK
6
CONTINUOUS
10
86.3357
20
-145.961
11
86.2405
21
-146.057
0
LINE
8
BLACK
6
CONTINUOUS
10
86.2405
20
-146.057
11
86.05
21
-146.152
0
LINE
8
BLACK
6
CONTINUOUS
10
86.05
20
-146.152
11
85.669
21
-146.152
0
LINE
8
BLACK
6
CONTINUOUS
10
85.669
20
-146.152
11
85.4786
21
-146.247
0
LINE
8
BLACK
6
CONTINUOUS
10
85.4786
20
-146.247
11
85.3833
21
-146.342
0
LINE
8
BLACK
6
CONTINUOUS
10
85.3833
20
-146.342
11
85.2881
21
-146.533
0
LINE
8
BLACK
6
CONTINUOUS
10
85.2881
20
-146.533
11
85.2881
21
-146.914
0
LINE
8
BLACK
6
CONTINUOUS
10
85.2881
20
-146.914
11
85.3833
21
-147.104
0
LINE
8
BLACK
6
CONTINUOUS
10
85.3833
20
-147.104
11
85.4786
21
-147.2
0
LINE
8
BLACK
6
CONTINUOUS
10
85.4786
20
-147.2
11
85.669
21
-147.295
0
LINE
8
BLACK
6
CONTINUOUS
10
85.669
20
-147.295
11
86.05
21
-147.295
0
LINE
8
BLACK
6
CONTINUOUS
10
86.05
20
-147.295
11
86.2405
21
-147.2
0
LINE
8
BLACK
6
CONTINUOUS
10
86.2405
20
-147.2
11
86.3357
21
-147.104
0
LINE
8
BLACK
6
CONTINUOUS
10
86.3357
20
-147.104
11
86.431
21
-146.914
0
LINE
8
BLACK
6
CONTINUOUS
10
86.431
20
-146.914
11
86.431
21
-146.533
0
LINE
8
BLACK
6
CONTINUOUS
10
86.431
20
-146.533
11
86.3357
21
-146.342
0
LINE
8
BLACK
6
CONTINUOUS
10
86.3357
20
-146.342
11
86.2405
21
-146.247
0
LINE
8
BLACK
6
CONTINUOUS
10
86.2405
20
-146.247
11
86.05
21
-146.152
0
LINE
8
BLACK
6
CONTINUOUS
10
87.669
20
-145.295
11
87.8595
21
-145.295
0
LINE
8
BLACK
6
CONTINUOUS
10
87.8595
20
-145.295
11
88.05
21
-145.39
0
LINE
8
BLACK
6
CONTINUOUS
10
88.05
20
-145.39
11
88.1452
21
-145.485
0
LINE
8
BLACK
6
CONTINUOUS
10
88.1452
20
-145.485
11
88.2405
21
-145.676
0
LINE
8
BLACK
6
CONTINUOUS
10
88.2405
20
-145.676
11
88.3357
21
-146.057
0
LINE
8
BLACK
6
CONTINUOUS
10
88.3357
20
-146.057
11
88.3357
21
-146.533
0
LINE
8
BLACK
6
CONTINUOUS
10
88.3357
20
-146.533
11
88.2405
21
-146.914
0
LINE
8
BLACK
6
CONTINUOUS
10
88.2405
20
-146.914
11
88.1452
21
-147.104
0
LINE
8
BLACK
6
CONTINUOUS
10
88.1452
20
-147.104
11
88.05
21
-147.2
0
LINE
8
BLACK
6
CONTINUOUS
10
88.05
20
-147.2
11
87.8595
21
-147.295
0
LINE
8
BLACK
6
CONTINUOUS
10
87.8595
20
-147.295
11
87.669
21
-147.295
0
LINE
8
BLACK
6
CONTINUOUS
10
87.669
20
-147.295
11
87.4786
21
-147.2
0
LINE
8
BLACK
6
CONTINUOUS
10
87.4786
20
-147.2
11
87.3833
21
-147.104
0
LINE
8
BLACK
6
CONTINUOUS
10
87.3833
20
-147.104
11
87.2881
21
-146.914
0
LINE
8
BLACK
6
CONTINUOUS
10
87.2881
20
-146.914
11
87.1929
21
-146.533
0
LINE
8
BLACK
6
CONTINUOUS
10
87.1929
20
-146.533
11
87.1929
21
-146.057
0
LINE
8
BLACK
6
CONTINUOUS
10
87.1929
20
-146.057
11
87.2881
21
-145.676
0
LINE
8
BLACK
6
CONTINUOUS
10
87.2881
20
-145.676
11
87.3833
21
-145.485
0
LINE
8
BLACK
6
CONTINUOUS
10
87.3833
20
-145.485
11
87.4786
21
-145.39
0
LINE
8
BLACK
6
CONTINUOUS
10
87.4786
20
-145.39
11
87.669
21
-145.295
0
LINE
8
BLACK
6
CONTINUOUS
10
89.5738
20
-145.295
11
89.7643
21
-145.295
0
LINE
8
BLACK
6
CONTINUOUS
10
89.7643
20
-145.295
11
89.9548
21
-145.39
0
LINE
8
BLACK
6
CONTINUOUS
10
89.9548
20
-145.39
11
90.05
21
-145.485
0
LINE
8
BLACK
6
CONTINUOUS
10
90.05
20
-145.485
11
90.1452
21
-145.676
0
LINE
8
BLACK
6
CONTINUOUS
10
90.1452
20
-145.676
11
90.2405
21
-146.057
0
LINE
8
BLACK
6
CONTINUOUS
10
90.2405
20
-146.057
11
90.2405
21
-146.533
0
LINE
8
BLACK
6
CONTINUOUS
10
90.2405
20
-146.533
11
90.1452
21
-146.914
0
LINE
8
BLACK
6
CONTINUOUS
10
90.1452
20
-146.914
11
90.05
21
-147.104
0
LINE
8
BLACK
6
CONTINUOUS
10
90.05
20
-147.104
11
89.9548
21
-147.2
0
LINE
8
BLACK
6
CONTINUOUS
10
89.9548
20
-147.2
11
89.7643
21
-147.295
0
LINE
8
BLACK
6
CONTINUOUS
10
89.7643
20
-147.295
11
89.5738
21
-147.295
0
LINE
8
BLACK
6
CONTINUOUS
10
89.5738
20
-147.295
11
89.3833
21
-147.2
0
LINE
8
BLACK
6
CONTINUOUS
10
89.3833
20
-147.2
11
89.2881
21
-147.104
0
LINE
8
BLACK
6
CONTINUOUS
10
89.2881
20
-147.104
11
89.1929
21
-146.914
0
LINE
8
BLACK
6
CONTINUOUS
10
89.1929
20
-146.914
11
89.0976
21
-146.533
0
LINE
8
BLACK
6
CONTINUOUS
10
89.0976
20
-146.533
11
89.0976
21
-146.057
0
LINE
8
BLACK
6
CONTINUOUS
10
89.0976
20
-146.057
11
89.1929
21
-145.676
0
LINE
8
BLACK
6
CONTINUOUS
10
89.1929
20
-145.676
11
89.2881
21
-145.485
0
LINE
8
BLACK
6
CONTINUOUS
10
89.2881
20
-145.485
11
89.3833
21
-145.39
0
LINE
8
BLACK
6
CONTINUOUS
10
89.3833
20
-145.39
11
89.5738
21
-145.295
0
LINE
8
BLACK
6
CONTINUOUS
10
91.0976
20
-147.295
11
91.0976
21
-145.961
0
LINE
8
BLACK
6
CONTINUOUS
10
91.0976
20
-146.152
11
91.1929
21
-146.057
0
LINE
8
BLACK
6
CONTINUOUS
10
91.1929
20
-146.057
11
91.3833
21
-145.961
0
LINE
8
BLACK
6
CONTINUOUS
10
91.3833
20
-145.961
11
91.669
21
-145.961
0
LINE
8
BLACK
6
CONTINUOUS
10
91.669
20
-145.961
11
91.8595
21
-146.057
0
LINE
8
BLACK
6
CONTINUOUS
10
91.8595
20
-146.057
11
91.9548
21
-146.247
0
LINE
8
BLACK
6
CONTINUOUS
10
91.9548
20
-146.247
11
91.9548
21
-147.295
0
LINE
8
BLACK
6
CONTINUOUS
10
91.9548
20
-146.247
11
92.05
21
-146.057
0
LINE
8
BLACK
6
CONTINUOUS
10
92.05
20
-146.057
11
92.2405
21
-145.961
0
LINE
8
BLACK
6
CONTINUOUS
10
92.2405
20
-145.961
11
92.5262
21
-145.961
0
LINE
8
BLACK
6
CONTINUOUS
10
92.5262
20
-145.961
11
92.7167
21
-146.057
0
LINE
8
BLACK
6
CONTINUOUS
10
92.7167
20
-146.057
11
92.8119
21
-146.247
0
LINE
8
BLACK
6
CONTINUOUS
10
92.8119
20
-146.247
11
92.8119
21
-147.295
0
LINE
8
BLACK
6
CONTINUOUS
10
93.7643
20
-147.295
11
93.7643
21
-145.961
0
LINE
8
BLACK
6
CONTINUOUS
10
93.7643
20
-146.152
11
93.8595
21
-146.057
0
LINE
8
BLACK
6
CONTINUOUS
10
93.8595
20
-146.057
11
94.05
21
-145.961
0
LINE
8
BLACK
6
CONTINUOUS
10
94.05
20
-145.961
11
94.3357
21
-145.961
0
LINE
8
BLACK
6
CONTINUOUS
10
94.3357
20
-145.961
11
94.5262
21
-146.057
0
LINE
8
BLACK
6
CONTINUOUS
10
94.5262
20
-146.057
11
94.6214
21
-146.247
0
LINE
8
BLACK
6
CONTINUOUS
10
94.6214
20
-146.247
11
94.6214
21
-147.295
0
LINE
8
BLACK
6
CONTINUOUS
10
94.6214
20
-146.247
11
94.7167
21
-146.057
0
LINE
8
BLACK
6
CONTINUOUS
10
94.7167
20
-146.057
11
94.9071
21
-145.961
0
LINE
8
BLACK
6
CONTINUOUS
10
94.9071
20
-145.961
11
95.1929
21
-145.961
0
LINE
8
BLACK
6
CONTINUOUS
10
95.1929
20
-145.961
11
95.3833
21
-146.057
0
LINE
8
BLACK
6
CONTINUOUS
10
95.3833
20
-146.057
11
95.4786
21
-146.247
0
LINE
8
BLACK
6
CONTINUOUS
10
95.4786
20
-146.247
11
95.4786
21
-147.295
0
LINE
8
BLACK
6
CONTINUOUS
10
99.3833
20
-145.2
11
97.669
21
-147.771
0
LINE
8
BLACK
6
CONTINUOUS
10
101.955
20
-145.295
11
102.145
21
-145.295
0
LINE
8
BLACK
6
CONTINUOUS
10
102.145
20
-145.295
11
102.336
21
-145.39
0
LINE
8
BLACK
6
CONTINUOUS
10
102.336
20
-145.39
11
102.431
21
-145.485
0
LINE
8
BLACK
6
CONTINUOUS
10
102.431
20
-145.485
11
102.526
21
-145.676
0
LINE
8
BLACK
6
CONTINUOUS
10
102.526
20
-145.676
11
102.621
21
-146.057
0
LINE
8
BLACK
6
CONTINUOUS
10
102.621
20
-146.057
11
102.621
21
-146.533
0
LINE
8
BLACK
6
CONTINUOUS
10
102.621
20
-146.533
11
102.526
21
-146.914
0
LINE
8
BLACK
6
CONTINUOUS
10
102.526
20
-146.914
11
102.431
21
-147.104
0
LINE
8
BLACK
6
CONTINUOUS
10
102.431
20
-147.104
11
102.336
21
-147.2
0
LINE
8
BLACK
6
CONTINUOUS
10
102.336
20
-147.2
11
102.145
21
-147.295
0
LINE
8
BLACK
6
CONTINUOUS
10
102.145
20
-147.295
11
101.955
21
-147.295
0
LINE
8
BLACK
6
CONTINUOUS
10
101.955
20
-147.295
11
101.764
21
-147.2
0
LINE
8
BLACK
6
CONTINUOUS
10
101.764
20
-147.2
11
101.669
21
-147.104
0
LINE
8
BLACK
6
CONTINUOUS
10
101.669
20
-147.104
11
101.574
21
-146.914
0
LINE
8
BLACK
6
CONTINUOUS
10
101.574
20
-146.914
11
101.479
21
-146.533
0
LINE
8
BLACK
6
CONTINUOUS
10
101.479
20
-146.533
11
101.479
21
-146.057
0
LINE
8
BLACK
6
CONTINUOUS
10
101.479
20
-146.057
11
101.574
21
-145.676
0
LINE
8
BLACK
6
CONTINUOUS
10
101.574
20
-145.676
11
101.669
21
-145.485
0
LINE
8
BLACK
6
CONTINUOUS
10
101.669
20
-145.485
11
101.764
21
-145.39
0
LINE
8
BLACK
6
CONTINUOUS
10
101.764
20
-145.39
11
101.955
21
-145.295
0
LINE
8
BLACK
6
CONTINUOUS
10
103.479
20
-147.104
11
103.574
21
-147.2
0
LINE
8
BLACK
6
CONTINUOUS
10
103.574
20
-147.2
11
103.479
21
-147.295
0
LINE
8
BLACK
6
CONTINUOUS
10
103.479
20
-147.295
11
103.383
21
-147.2
0
LINE
8
BLACK
6
CONTINUOUS
10
103.383
20
-147.2
11
103.479
21
-147.104
0
LINE
8
BLACK
6
CONTINUOUS
10
103.479
20
-147.104
11
103.479
21
-147.295
0
LINE
8
BLACK
6
CONTINUOUS
10
104.812
20
-145.295
11
105.002
21
-145.295
0
LINE
8
BLACK
6
CONTINUOUS
10
105.002
20
-145.295
11
105.193
21
-145.39
0
LINE
8
BLACK
6
CONTINUOUS
10
105.193
20
-145.39
11
105.288
21
-145.485
0
LINE
8
BLACK
6
CONTINUOUS
10
105.288
20
-145.485
11
105.383
21
-145.676
0
LINE
8
BLACK
6
CONTINUOUS
10
105.383
20
-145.676
11
105.479
21
-146.057
0
LINE
8
BLACK
6
CONTINUOUS
10
105.479
20
-146.057
11
105.479
21
-146.533
0
LINE
8
BLACK
6
CONTINUOUS
10
105.479
20
-146.533
11
105.383
21
-146.914
0
LINE
8
BLACK
6
CONTINUOUS
10
105.383
20
-146.914
11
105.288
21
-147.104
0
LINE
8
BLACK
6
CONTINUOUS
10
105.288
20
-147.104
11
105.193
21
-147.2
0
LINE
8
BLACK
6
CONTINUOUS
10
105.193
20
-147.2
11
105.002
21
-147.295
0
LINE
8
BLACK
6
CONTINUOUS
10
105.002
20
-147.295
11
104.812
21
-147.295
0
LINE
8
BLACK
6
CONTINUOUS
10
104.812
20
-147.295
11
104.621
21
-147.2
0
LINE
8
BLACK
6
CONTINUOUS
10
104.621
20
-147.2
11
104.526
21
-147.104
0
LINE
8
BLACK
6
CONTINUOUS
10
104.526
20
-147.104
11
104.431
21
-146.914
0
LINE
8
BLACK
6
CONTINUOUS
10
104.431
20
-146.914
11
104.336
21
-146.533
0
LINE
8
BLACK
6
CONTINUOUS
10
104.336
20
-146.533
11
104.336
21
-146.057
0
LINE
8
BLACK
6
CONTINUOUS
10
104.336
20
-146.057
11
104.431
21
-145.676
0
LINE
8
BLACK
6
CONTINUOUS
10
104.431
20
-145.676
11
104.526
21
-145.485
0
LINE
8
BLACK
6
CONTINUOUS
10
104.526
20
-145.485
11
104.621
21
-145.39
0
LINE
8
BLACK
6
CONTINUOUS
10
104.621
20
-145.39
11
104.812
21
-145.295
0
LINE
8
BLACK
6
CONTINUOUS
10
106.145
20
-145.295
11
107.383
21
-145.295
0
LINE
8
BLACK
6
CONTINUOUS
10
107.383
20
-145.295
11
106.717
21
-146.057
0
LINE
8
BLACK
6
CONTINUOUS
10
106.717
20
-146.057
11
107.002
21
-146.057
0
LINE
8
BLACK
6
CONTINUOUS
10
107.002
20
-146.057
11
107.193
21
-146.152
0
LINE
8
BLACK
6
CONTINUOUS
10
107.193
20
-146.152
11
107.288
21
-146.247
0
LINE
8
BLACK
6
CONTINUOUS
10
107.288
20
-146.247
11
107.383
21
-146.438
0
LINE
8
BLACK
6
CONTINUOUS
10
107.383
20
-146.438
11
107.383
21
-146.914
0
LINE
8
BLACK
6
CONTINUOUS
10
107.383
20
-146.914
11
107.288
21
-147.104
0
LINE
8
BLACK
6
CONTINUOUS
10
107.288
20
-147.104
11
107.193
21
-147.2
0
LINE
8
BLACK
6
CONTINUOUS
10
107.193
20
-147.2
11
107.002
21
-147.295
0
LINE
8
BLACK
6
CONTINUOUS
10
107.002
20
-147.295
11
106.431
21
-147.295
0
LINE
8
BLACK
6
CONTINUOUS
10
106.431
20
-147.295
11
106.24
21
-147.2
0
LINE
8
BLACK
6
CONTINUOUS
10
106.24
20
-147.2
11
106.145
21
-147.104
0
LINE
8
BLACK
6
CONTINUOUS
10
109.288
20
-147.295
11
108.145
21
-147.295
0
LINE
8
BLACK
6
CONTINUOUS
10
108.717
20
-147.295
11
108.717
21
-145.295
0
LINE
8
BLACK
6
CONTINUOUS
10
108.717
20
-145.295
11
108.526
21
-145.58
0
LINE
8
BLACK
6
CONTINUOUS
10
108.526
20
-145.58
11
108.336
21
-145.771
0
LINE
8
BLACK
6
CONTINUOUS
10
108.336
20
-145.771
11
108.145
21
-145.866
0
LINE
8
BLACK
6
CONTINUOUS
10
111.098
20
-145.295
11
110.145
21
-145.295
0
LINE
8
BLACK
6
CONTINUOUS
10
110.145
20
-145.295
11
110.05
21
-146.247
0
LINE
8
BLACK
6
CONTINUOUS
10
110.05
20
-146.247
11
110.145
21
-146.152
0
LINE
8
BLACK
6
CONTINUOUS
10
110.145
20
-146.152
11
110.336
21
-146.057
0
LINE
8
BLACK
6
CONTINUOUS
10
110.336
20
-146.057
11
110.812
21
-146.057
0
LINE
8
BLACK
6
CONTINUOUS
10
110.812
20
-146.057
11
111.002
21
-146.152
0
LINE
8
BLACK
6
CONTINUOUS
10
111.002
20
-146.152
11
111.098
21
-146.247
0
LINE
8
BLACK
6
CONTINUOUS
10
111.098
20
-146.247
11
111.193
21
-146.438
0
LINE
8
BLACK
6
CONTINUOUS
10
111.193
20
-146.438
11
111.193
21
-146.914
0
LINE
8
BLACK
6
CONTINUOUS
10
111.193
20
-146.914
11
111.098
21
-147.104
0
LINE
8
BLACK
6
CONTINUOUS
10
111.098
20
-147.104
11
111.002
21
-147.2
0
LINE
8
BLACK
6
CONTINUOUS
10
111.002
20
-147.2
11
110.812
21
-147.295
0
LINE
8
BLACK
6
CONTINUOUS
10
110.812
20
-147.295
11
110.336
21
-147.295
0
LINE
8
BLACK
6
CONTINUOUS
10
110.336
20
-147.295
11
110.145
21
-147.2
0
LINE
8
BLACK
6
CONTINUOUS
10
110.145
20
-147.2
11
110.05
21
-147.104
0
LINE
8
BLACK
6
CONTINUOUS
10
111.955
20
-145.295
11
111.955
21
-145.676
0
LINE
8
BLACK
6
CONTINUOUS
10
112.717
20
-145.295
11
112.717
21
-145.676
0
LINE
8
BLACK
6
CONTINUOUS
10
115.669
20
-148.057
11
115.574
21
-147.961
0
LINE
8
BLACK
6
CONTINUOUS
10
115.574
20
-147.961
11
115.383
21
-147.676
0
LINE
8
BLACK
6
CONTINUOUS
10
115.383
20
-147.676
11
115.288
21
-147.485
0
LINE
8
BLACK
6
CONTINUOUS
10
115.288
20
-147.485
11
115.193
21
-147.2
0
LINE
8
BLACK
6
CONTINUOUS
10
115.193
20
-147.2
11
115.098
21
-146.723
0
LINE
8
BLACK
6
CONTINUOUS
10
115.098
20
-146.723
11
115.098
21
-146.342
0
LINE
8
BLACK
6
CONTINUOUS
10
115.098
20
-146.342
11
115.193
21
-145.866
0
LINE
8
BLACK
6
CONTINUOUS
10
115.193
20
-145.866
11
115.288
21
-145.58
0
LINE
8
BLACK
6
CONTINUOUS
10
115.288
20
-145.58
11
115.383
21
-145.39
0
LINE
8
BLACK
6
CONTINUOUS
10
115.383
20
-145.39
11
115.574
21
-145.104
0
LINE
8
BLACK
6
CONTINUOUS
10
115.574
20
-145.104
11
115.669
21
-145.009
0
LINE
8
BLACK
6
CONTINUOUS
10
117.479
20
-147.295
11
116.336
21
-147.295
0
LINE
8
BLACK
6
CONTINUOUS
10
116.907
20
-147.295
11
116.907
21
-145.295
0
LINE
8
BLACK
6
CONTINUOUS
10
116.907
20
-145.295
11
116.717
21
-145.58
0
LINE
8
BLACK
6
CONTINUOUS
10
116.717
20
-145.58
11
116.526
21
-145.771
0
LINE
8
BLACK
6
CONTINUOUS
10
116.526
20
-145.771
11
116.336
21
-145.866
0
LINE
8
BLACK
6
CONTINUOUS
10
118.145
20
-145.295
11
119.479
21
-145.295
0
LINE
8
BLACK
6
CONTINUOUS
10
119.479
20
-145.295
11
118.621
21
-147.295
0
LINE
8
BLACK
6
CONTINUOUS
10
120.145
20
-145.485
11
120.24
21
-145.39
0
LINE
8
BLACK
6
CONTINUOUS
10
120.24
20
-145.39
11
120.431
21
-145.295
0
LINE
8
BLACK
6
CONTINUOUS
10
120.431
20
-145.295
11
120.907
21
-145.295
0
LINE
8
BLACK
6
CONTINUOUS
10
120.907
20
-145.295
11
121.098
21
-145.39
0
LINE
8
BLACK
6
CONTINUOUS
10
121.098
20
-145.39
11
121.193
21
-145.485
0
LINE
8
BLACK
6
CONTINUOUS
10
121.193
20
-145.485
11
121.288
21
-145.676
0
LINE
8
BLACK
6
CONTINUOUS
10
121.288
20
-145.676
11
121.288
21
-145.866
0
LINE
8
BLACK
6
CONTINUOUS
10
121.288
20
-145.866
11
121.193
21
-146.152
0
LINE
8
BLACK
6
CONTINUOUS
10
121.193
20
-146.152
11
120.05
21
-147.295
0
LINE
8
BLACK
6
CONTINUOUS
10
120.05
20
-147.295
11
121.288
21
-147.295
0
LINE
8
BLACK
6
CONTINUOUS
10
123.669
20
-147.295
11
123.669
21
-145.295
0
LINE
8
BLACK
6
CONTINUOUS
10
124.526
20
-147.295
11
124.526
21
-146.247
0
LINE
8
BLACK
6
CONTINUOUS
10
124.526
20
-146.247
11
124.431
21
-146.057
0
LINE
8
BLACK
6
CONTINUOUS
10
124.431
20
-146.057
11
124.24
21
-145.961
0
LINE
8
BLACK
6
CONTINUOUS
10
124.24
20
-145.961
11
123.955
21
-145.961
0
LINE
8
BLACK
6
CONTINUOUS
10
123.955
20
-145.961
11
123.764
21
-146.057
0
LINE
8
BLACK
6
CONTINUOUS
10
123.764
20
-146.057
11
123.669
21
-146.152
0
LINE
8
BLACK
6
CONTINUOUS
10
125.764
20
-147.295
11
125.574
21
-147.2
0
LINE
8
BLACK
6
CONTINUOUS
10
125.574
20
-147.2
11
125.479
21
-147.104
0
LINE
8
BLACK
6
CONTINUOUS
10
125.479
20
-147.104
11
125.383
21
-146.914
0
LINE
8
BLACK
6
CONTINUOUS
10
125.383
20
-146.914
11
125.383
21
-146.342
0
LINE
8
BLACK
6
CONTINUOUS
10
125.383
20
-146.342
11
125.479
21
-146.152
0
LINE
8
BLACK
6
CONTINUOUS
10
125.479
20
-146.152
11
125.574
21
-146.057
0
LINE
8
BLACK
6
CONTINUOUS
10
125.574
20
-146.057
11
125.764
21
-145.961
0
LINE
8
BLACK
6
CONTINUOUS
10
125.764
20
-145.961
11
126.05
21
-145.961
0
LINE
8
BLACK
6
CONTINUOUS
10
126.05
20
-145.961
11
126.24
21
-146.057
0
LINE
8
BLACK
6
CONTINUOUS
10
126.24
20
-146.057
11
126.336
21
-146.152
0
LINE
8
BLACK
6
CONTINUOUS
10
126.336
20
-146.152
11
126.431
21
-146.342
0
LINE
8
BLACK
6
CONTINUOUS
10
126.431
20
-146.342
11
126.431
21
-146.914
0
LINE
8
BLACK
6
CONTINUOUS
10
126.431
20
-146.914
11
126.336
21
-147.104
0
LINE
8
BLACK
6
CONTINUOUS
10
126.336
20
-147.104
11
126.24
21
-147.2
0
LINE
8
BLACK
6
CONTINUOUS
10
126.24
20
-147.2
11
126.05
21
-147.295
0
LINE
8
BLACK
6
CONTINUOUS
10
126.05
20
-147.295
11
125.764
21
-147.295
0
LINE
8
BLACK
6
CONTINUOUS
10
127.574
20
-147.295
11
127.383
21
-147.2
0
LINE
8
BLACK
6
CONTINUOUS
10
127.383
20
-147.2
11
127.288
21
-147.009
0
LINE
8
BLACK
6
CONTINUOUS
10
127.288
20
-147.009
11
127.288
21
-145.295
0
LINE
8
BLACK
6
CONTINUOUS
10
129.098
20
-147.2
11
128.907
21
-147.295
0
LINE
8
BLACK
6
CONTINUOUS
10
128.907
20
-147.295
11
128.526
21
-147.295
0
LINE
8
BLACK
6
CONTINUOUS
10
128.526
20
-147.295
11
128.336
21
-147.2
0
LINE
8
BLACK
6
CONTINUOUS
10
128.336
20
-147.2
11
128.24
21
-147.009
0
LINE
8
BLACK
6
CONTINUOUS
10
128.24
20
-147.009
11
128.24
21
-146.247
0
LINE
8
BLACK
6
CONTINUOUS
10
128.24
20
-146.247
11
128.336
21
-146.057
0
LINE
8
BLACK
6
CONTINUOUS
10
128.336
20
-146.057
11
128.526
21
-145.961
0
LINE
8
BLACK
6
CONTINUOUS
10
128.526
20
-145.961
11
128.907
21
-145.961
0
LINE
8
BLACK
6
CONTINUOUS
10
128.907
20
-145.961
11
129.098
21
-146.057
0
LINE
8
BLACK
6
CONTINUOUS
10
129.098
20
-146.057
11
129.193
21
-146.247
0
LINE
8
BLACK
6
CONTINUOUS
10
129.193
20
-146.247
11
129.193
21
-146.438
0
LINE
8
BLACK
6
CONTINUOUS
10
129.193
20
-146.438
11
128.24
21
-146.628
0
LINE
8
BLACK
6
CONTINUOUS
10
129.955
20
-147.2
11
130.145
21
-147.295
0
LINE
8
BLACK
6
CONTINUOUS
10
130.145
20
-147.295
11
130.526
21
-147.295
0
LINE
8
BLACK
6
CONTINUOUS
10
130.526
20
-147.295
11
130.717
21
-147.2
0
LINE
8
BLACK
6
CONTINUOUS
10
130.717
20
-147.2
11
130.812
21
-147.009
0
LINE
8
BLACK
6
CONTINUOUS
10
130.812
20
-147.009
11
130.812
21
-146.914
0
LINE
8
BLACK
6
CONTINUOUS
10
130.812
20
-146.914
11
130.717
21
-146.723
0
LINE
8
BLACK
6
CONTINUOUS
10
130.717
20
-146.723
11
130.526
21
-146.628
0
LINE
8
BLACK
6
CONTINUOUS
10
130.526
20
-146.628
11
130.24
21
-146.628
0
LINE
8
BLACK
6
CONTINUOUS
10
130.24
20
-146.628
11
130.05
21
-146.533
0
LINE
8
BLACK
6
CONTINUOUS
10
130.05
20
-146.533
11
129.955
21
-146.342
0
LINE
8
BLACK
6
CONTINUOUS
10
129.955
20
-146.342
11
129.955
21
-146.247
0
LINE
8
BLACK
6
CONTINUOUS
10
129.955
20
-146.247
11
130.05
21
-146.057
0
LINE
8
BLACK
6
CONTINUOUS
10
130.05
20
-146.057
11
130.24
21
-145.961
0
LINE
8
BLACK
6
CONTINUOUS
10
130.24
20
-145.961
11
130.526
21
-145.961
0
LINE
8
BLACK
6
CONTINUOUS
10
130.526
20
-145.961
11
130.717
21
-146.057
0
LINE
8
BLACK
6
CONTINUOUS
10
131.479
20
-148.057
11
131.574
21
-147.961
0
LINE
8
BLACK
6
CONTINUOUS
10
131.574
20
-147.961
11
131.764
21
-147.676
0
LINE
8
BLACK
6
CONTINUOUS
10
131.764
20
-147.676
11
131.86
21
-147.485
0
LINE
8
BLACK
6
CONTINUOUS
10
131.86
20
-147.485
11
131.955
21
-147.2
0
LINE
8
BLACK
6
CONTINUOUS
10
131.955
20
-147.2
11
132.05
21
-146.723
0
LINE
8
BLACK
6
CONTINUOUS
10
132.05
20
-146.723
11
132.05
21
-146.342
0
LINE
8
BLACK
6
CONTINUOUS
10
132.05
20
-146.342
11
131.955
21
-145.866
0
LINE
8
BLACK
6
CONTINUOUS
10
131.955
20
-145.866
11
131.86
21
-145.58
0
LINE
8
BLACK
6
CONTINUOUS
10
131.86
20
-145.58
11
131.764
21
-145.39
0
LINE
8
BLACK
6
CONTINUOUS
10
131.764
20
-145.39
11
131.574
21
-145.104
0
LINE
8
BLACK
6
CONTINUOUS
10
131.574
20
-145.104
11
131.479
21
-145.009
0
LINE
8
BLACK
6
CONTINUOUS
10
79.45
20
-148.53
11
79.45
21
-149.53
0
LINE
8
BLACK
6
CONTINUOUS
10
78.95
20
-149.03
11
79.95
21
-149.03
0
LINE
8
BLACK
6
CONTINUOUS
10
83.5738
20
-149.935
11
82.431
21
-149.935
0
LINE
8
BLACK
6
CONTINUOUS
10
83.0024
20
-149.935
11
83.0024
21
-147.935
0
LINE
8
BLACK
6
CONTINUOUS
10
83.0024
20
-147.935
11
82.8119
21
-148.22
0
LINE
8
BLACK
6
CONTINUOUS
10
82.8119
20
-148.22
11
82.6214
21
-148.411
0
LINE
8
BLACK
6
CONTINUOUS
10
82.6214
20
-148.411
11
82.431
21
-148.506
0
LINE
8
BLACK
6
CONTINUOUS
10
84.431
20
-149.744
11
84.5262
21
-149.84
0
LINE
8
BLACK
6
CONTINUOUS
10
84.5262
20
-149.84
11
84.431
21
-149.935
0
LINE
8
BLACK
6
CONTINUOUS
10
84.431
20
-149.935
11
84.3357
21
-149.84
0
LINE
8
BLACK
6
CONTINUOUS
10
84.3357
20
-149.84
11
84.431
21
-149.744
0
LINE
8
BLACK
6
CONTINUOUS
10
84.431
20
-149.744
11
84.431
21
-149.935
0
LINE
8
BLACK
6
CONTINUOUS
10
85.7643
20
-147.935
11
85.9548
21
-147.935
0
LINE
8
BLACK
6
CONTINUOUS
10
85.9548
20
-147.935
11
86.1452
21
-148.03
0
LINE
8
BLACK
6
CONTINUOUS
10
86.1452
20
-148.03
11
86.2405
21
-148.125
0
LINE
8
BLACK
6
CONTINUOUS
10
86.2405
20
-148.125
11
86.3357
21
-148.316
0
LINE
8
BLACK
6
CONTINUOUS
10
86.3357
20
-148.316
11
86.431
21
-148.697
0
LINE
8
BLACK
6
CONTINUOUS
10
86.431
20
-148.697
11
86.431
21
-149.173
0
LINE
8
BLACK
6
CONTINUOUS
10
86.431
20
-149.173
11
86.3357
21
-149.554
0
LINE
8
BLACK
6
CONTINUOUS
10
86.3357
20
-149.554
11
86.2405
21
-149.744
0
LINE
8
BLACK
6
CONTINUOUS
10
86.2405
20
-149.744
11
86.1452
21
-149.84
0
LINE
8
BLACK
6
CONTINUOUS
10
86.1452
20
-149.84
11
85.9548
21
-149.935
0
LINE
8
BLACK
6
CONTINUOUS
10
85.9548
20
-149.935
11
85.7643
21
-149.935
0
LINE
8
BLACK
6
CONTINUOUS
10
85.7643
20
-149.935
11
85.5738
21
-149.84
0
LINE
8
BLACK
6
CONTINUOUS
10
85.5738
20
-149.84
11
85.4786
21
-149.744
0
LINE
8
BLACK
6
CONTINUOUS
10
85.4786
20
-149.744
11
85.3833
21
-149.554
0
LINE
8
BLACK
6
CONTINUOUS
10
85.3833
20
-149.554
11
85.2881
21
-149.173
0
LINE
8
BLACK
6
CONTINUOUS
10
85.2881
20
-149.173
11
85.2881
21
-148.697
0
LINE
8
BLACK
6
CONTINUOUS
10
85.2881
20
-148.697
11
85.3833
21
-148.316
0
LINE
8
BLACK
6
CONTINUOUS
10
85.3833
20
-148.316
11
85.4786
21
-148.125
0
LINE
8
BLACK
6
CONTINUOUS
10
85.4786
20
-148.125
11
85.5738
21
-148.03
0
LINE
8
BLACK
6
CONTINUOUS
10
85.5738
20
-148.03
11
85.7643
21
-147.935
0
LINE
8
BLACK
6
CONTINUOUS
10
87.669
20
-147.935
11
87.8595
21
-147.935
0
LINE
8
BLACK
6
CONTINUOUS
10
87.8595
20
-147.935
11
88.05
21
-148.03
0
LINE
8
BLACK
6
CONTINUOUS
10
88.05
20
-148.03
11
88.1452
21
-148.125
0
LINE
8
BLACK
6
CONTINUOUS
10
88.1452
20
-148.125
11
88.2405
21
-148.316
0
LINE
8
BLACK
6
CONTINUOUS
10
88.2405
20
-148.316
11
88.3357
21
-148.697
0
LINE
8
BLACK
6
CONTINUOUS
10
88.3357
20
-148.697
11
88.3357
21
-149.173
0
LINE
8
BLACK
6
CONTINUOUS
10
88.3357
20
-149.173
11
88.2405
21
-149.554
0
LINE
8
BLACK
6
CONTINUOUS
10
88.2405
20
-149.554
11
88.1452
21
-149.744
0
LINE
8
BLACK
6
CONTINUOUS
10
88.1452
20
-149.744
11
88.05
21
-149.84
0
LINE
8
BLACK
6
CONTINUOUS
10
88.05
20
-149.84
11
87.8595
21
-149.935
0
LINE
8
BLACK
6
CONTINUOUS
10
87.8595
20
-149.935
11
87.669
21
-149.935
0
LINE
8
BLACK
6
CONTINUOUS
10
87.669
20
-149.935
11
87.4786
21
-149.84
0
LINE
8
BLACK
6
CONTINUOUS
10
87.4786
20
-149.84
11
87.3833
21
-149.744
0
LINE
8
BLACK
6
CONTINUOUS
10
87.3833
20
-149.744
11
87.2881
21
-149.554
0
LINE
8
BLACK
6
CONTINUOUS
10
87.2881
20
-149.554
11
87.1929
21
-149.173
0
LINE
8
BLACK
6
CONTINUOUS
10
87.1929
20
-149.173
11
87.1929
21
-148.697
0
LINE
8
BLACK
6
CONTINUOUS
10
87.1929
20
-148.697
11
87.2881
21
-148.316
0
LINE
8
BLACK
6
CONTINUOUS
10
87.2881
20
-148.316
11
87.3833
21
-148.125
0
LINE
8
BLACK
6
CONTINUOUS
10
87.3833
20
-148.125
11
87.4786
21
-148.03
0
LINE
8
BLACK
6
CONTINUOUS
10
87.4786
20
-148.03
11
87.669
21
-147.935
0
LINE
8
BLACK
6
CONTINUOUS
10
89.5738
20
-147.935
11
89.7643
21
-147.935
0
LINE
8
BLACK
6
CONTINUOUS
10
89.7643
20
-147.935
11
89.9548
21
-148.03
0
LINE
8
BLACK
6
CONTINUOUS
10
89.9548
20
-148.03
11
90.05
21
-148.125
0
LINE
8
BLACK
6
CONTINUOUS
10
90.05
20
-148.125
11
90.1452
21
-148.316
0
LINE
8
BLACK
6
CONTINUOUS
10
90.1452
20
-148.316
11
90.2405
21
-148.697
0
LINE
8
BLACK
6
CONTINUOUS
10
90.2405
20
-148.697
11
90.2405
21
-149.173
0
LINE
8
BLACK
6
CONTINUOUS
10
90.2405
20
-149.173
11
90.1452
21
-149.554
0
LINE
8
BLACK
6
CONTINUOUS
10
90.1452
20
-149.554
11
90.05
21
-149.744
0
LINE
8
BLACK
6
CONTINUOUS
10
90.05
20
-149.744
11
89.9548
21
-149.84
0
LINE
8
BLACK
6
CONTINUOUS
10
89.9548
20
-149.84
11
89.7643
21
-149.935
0
LINE
8
BLACK
6
CONTINUOUS
10
89.7643
20
-149.935
11
89.5738
21
-149.935
0
LINE
8
BLACK
6
CONTINUOUS
10
89.5738
20
-149.935
11
89.3833
21
-149.84
0
LINE
8
BLACK
6
CONTINUOUS
10
89.3833
20
-149.84
11
89.2881
21
-149.744
0
LINE
8
BLACK
6
CONTINUOUS
10
89.2881
20
-149.744
11
89.1929
21
-149.554
0
LINE
8
BLACK
6
CONTINUOUS
10
89.1929
20
-149.554
11
89.0976
21
-149.173
0
LINE
8
BLACK
6
CONTINUOUS
10
89.0976
20
-149.173
11
89.0976
21
-148.697
0
LINE
8
BLACK
6
CONTINUOUS
10
89.0976
20
-148.697
11
89.1929
21
-148.316
0
LINE
8
BLACK
6
CONTINUOUS
10
89.1929
20
-148.316
11
89.2881
21
-148.125
0
LINE
8
BLACK
6
CONTINUOUS
10
89.2881
20
-148.125
11
89.3833
21
-148.03
0
LINE
8
BLACK
6
CONTINUOUS
10
89.3833
20
-148.03
11
89.5738
21
-147.935
0
LINE
8
BLACK
6
CONTINUOUS
10
91.0976
20
-149.935
11
91.0976
21
-148.601
0
LINE
8
BLACK
6
CONTINUOUS
10
91.0976
20
-148.792
11
91.1929
21
-148.697
0
LINE
8
BLACK
6
CONTINUOUS
10
91.1929
20
-148.697
11
91.3833
21
-148.601
0
LINE
8
BLACK
6
CONTINUOUS
10
91.3833
20
-148.601
11
91.669
21
-148.601
0
LINE
8
BLACK
6
CONTINUOUS
10
91.669
20
-148.601
11
91.8595
21
-148.697
0
LINE
8
BLACK
6
CONTINUOUS
10
91.8595
20
-148.697
11
91.9548
21
-148.887
0
LINE
8
BLACK
6
CONTINUOUS
10
91.9548
20
-148.887
11
91.9548
21
-149.935
0
LINE
8
BLACK
6
CONTINUOUS
10
91.9548
20
-148.887
11
92.05
21
-148.697
0
LINE
8
BLACK
6
CONTINUOUS
10
92.05
20
-148.697
11
92.2405
21
-148.601
0
LINE
8
BLACK
6
CONTINUOUS
10
92.2405
20
-148.601
11
92.5262
21
-148.601
0
LINE
8
BLACK
6
CONTINUOUS
10
92.5262
20
-148.601
11
92.7167
21
-148.697
0
LINE
8
BLACK
6
CONTINUOUS
10
92.7167
20
-148.697
11
92.8119
21
-148.887
0
LINE
8
BLACK
6
CONTINUOUS
10
92.8119
20
-148.887
11
92.8119
21
-149.935
0
LINE
8
BLACK
6
CONTINUOUS
10
93.7643
20
-149.935
11
93.7643
21
-148.601
0
LINE
8
BLACK
6
CONTINUOUS
10
93.7643
20
-148.792
11
93.8595
21
-148.697
0
LINE
8
BLACK
6
CONTINUOUS
10
93.8595
20
-148.697
11
94.05
21
-148.601
0
LINE
8
BLACK
6
CONTINUOUS
10
94.05
20
-148.601
11
94.3357
21
-148.601
0
LINE
8
BLACK
6
CONTINUOUS
10
94.3357
20
-148.601
11
94.5262
21
-148.697
0
LINE
8
BLACK
6
CONTINUOUS
10
94.5262
20
-148.697
11
94.6214
21
-148.887
0
LINE
8
BLACK
6
CONTINUOUS
10
94.6214
20
-148.887
11
94.6214
21
-149.935
0
LINE
8
BLACK
6
CONTINUOUS
10
94.6214
20
-148.887
11
94.7167
21
-148.697
0
LINE
8
BLACK
6
CONTINUOUS
10
94.7167
20
-148.697
11
94.9071
21
-148.601
0
LINE
8
BLACK
6
CONTINUOUS
10
94.9071
20
-148.601
11
95.1929
21
-148.601
0
LINE
8
BLACK
6
CONTINUOUS
10
95.1929
20
-148.601
11
95.3833
21
-148.697
0
LINE
8
BLACK
6
CONTINUOUS
10
95.3833
20
-148.697
11
95.4786
21
-148.887
0
LINE
8
BLACK
6
CONTINUOUS
10
95.4786
20
-148.887
11
95.4786
21
-149.935
0
LINE
8
BLACK
6
CONTINUOUS
10
99.3833
20
-147.84
11
97.669
21
-150.411
0
LINE
8
BLACK
6
CONTINUOUS
10
101.955
20
-147.935
11
102.145
21
-147.935
0
LINE
8
BLACK
6
CONTINUOUS
10
102.145
20
-147.935
11
102.336
21
-148.03
0
LINE
8
BLACK
6
CONTINUOUS
10
102.336
20
-148.03
11
102.431
21
-148.125
0
LINE
8
BLACK
6
CONTINUOUS
10
102.431
20
-148.125
11
102.526
21
-148.316
0
LINE
8
BLACK
6
CONTINUOUS
10
102.526
20
-148.316
11
102.621
21
-148.697
0
LINE
8
BLACK
6
CONTINUOUS
10
102.621
20
-148.697
11
102.621
21
-149.173
0
LINE
8
BLACK
6
CONTINUOUS
10
102.621
20
-149.173
11
102.526
21
-149.554
0
LINE
8
BLACK
6
CONTINUOUS
10
102.526
20
-149.554
11
102.431
21
-149.744
0
LINE
8
BLACK
6
CONTINUOUS
10
102.431
20
-149.744
11
102.336
21
-149.84
0
LINE
8
BLACK
6
CONTINUOUS
10
102.336
20
-149.84
11
102.145
21
-149.935
0
LINE
8
BLACK
6
CONTINUOUS
10
102.145
20
-149.935
11
101.955
21
-149.935
0
LINE
8
BLACK
6
CONTINUOUS
10
101.955
20
-149.935
11
101.764
21
-149.84
0
LINE
8
BLACK
6
CONTINUOUS
10
101.764
20
-149.84
11
101.669
21
-149.744
0
LINE
8
BLACK
6
CONTINUOUS
10
101.669
20
-149.744
11
101.574
21
-149.554
0
LINE
8
BLACK
6
CONTINUOUS
10
101.574
20
-149.554
11
101.479
21
-149.173
0
LINE
8
BLACK
6
CONTINUOUS
10
101.479
20
-149.173
11
101.479
21
-148.697
0
LINE
8
BLACK
6
CONTINUOUS
10
101.479
20
-148.697
11
101.574
21
-148.316
0
LINE
8
BLACK
6
CONTINUOUS
10
101.574
20
-148.316
11
101.669
21
-148.125
0
LINE
8
BLACK
6
CONTINUOUS
10
101.669
20
-148.125
11
101.764
21
-148.03
0
LINE
8
BLACK
6
CONTINUOUS
10
101.764
20
-148.03
11
101.955
21
-147.935
0
LINE
8
BLACK
6
CONTINUOUS
10
103.479
20
-149.744
11
103.574
21
-149.84
0
LINE
8
BLACK
6
CONTINUOUS
10
103.574
20
-149.84
11
103.479
21
-149.935
0
LINE
8
BLACK
6
CONTINUOUS
10
103.479
20
-149.935
11
103.383
21
-149.84
0
LINE
8
BLACK
6
CONTINUOUS
10
103.383
20
-149.84
11
103.479
21
-149.744
0
LINE
8
BLACK
6
CONTINUOUS
10
103.479
20
-149.744
11
103.479
21
-149.935
0
LINE
8
BLACK
6
CONTINUOUS
10
104.812
20
-147.935
11
105.002
21
-147.935
0
LINE
8
BLACK
6
CONTINUOUS
10
105.002
20
-147.935
11
105.193
21
-148.03
0
LINE
8
BLACK
6
CONTINUOUS
10
105.193
20
-148.03
11
105.288
21
-148.125
0
LINE
8
BLACK
6
CONTINUOUS
10
105.288
20
-148.125
11
105.383
21
-148.316
0
LINE
8
BLACK
6
CONTINUOUS
10
105.383
20
-148.316
11
105.479
21
-148.697
0
LINE
8
BLACK
6
CONTINUOUS
10
105.479
20
-148.697
11
105.479
21
-149.173
0
LINE
8
BLACK
6
CONTINUOUS
10
105.479
20
-149.173
11
105.383
21
-149.554
0
LINE
8
BLACK
6
CONTINUOUS
10
105.383
20
-149.554
11
105.288
21
-149.744
0
LINE
8
BLACK
6
CONTINUOUS
10
105.288
20
-149.744
11
105.193
21
-149.84
0
LINE
8
BLACK
6
CONTINUOUS
10
105.193
20
-149.84
11
105.002
21
-149.935
0
LINE
8
BLACK
6
CONTINUOUS
10
105.002
20
-149.935
11
104.812
21
-149.935
0
LINE
8
BLACK
6
CONTINUOUS
10
104.812
20
-149.935
11
104.621
21
-149.84
0
LINE
8
BLACK
6
CONTINUOUS
10
104.621
20
-149.84
11
104.526
21
-149.744
0
LINE
8
BLACK
6
CONTINUOUS
10
104.526
20
-149.744
11
104.431
21
-149.554
0
LINE
8
BLACK
6
CONTINUOUS
10
104.431
20
-149.554
11
104.336
21
-149.173
0
LINE
8
BLACK
6
CONTINUOUS
10
104.336
20
-149.173
11
104.336
21
-148.697
0
LINE
8
BLACK
6
CONTINUOUS
10
104.336
20
-148.697
11
104.431
21
-148.316
0
LINE
8
BLACK
6
CONTINUOUS
10
104.431
20
-148.316
11
104.526
21
-148.125
0
LINE
8
BLACK
6
CONTINUOUS
10
104.526
20
-148.125
11
104.621
21
-148.03
0
LINE
8
BLACK
6
CONTINUOUS
10
104.621
20
-148.03
11
104.812
21
-147.935
0
LINE
8
BLACK
6
CONTINUOUS
10
106.145
20
-147.935
11
107.383
21
-147.935
0
LINE
8
BLACK
6
CONTINUOUS
10
107.383
20
-147.935
11
106.717
21
-148.697
0
LINE
8
BLACK
6
CONTINUOUS
10
106.717
20
-148.697
11
107.002
21
-148.697
0
LINE
8
BLACK
6
CONTINUOUS
10
107.002
20
-148.697
11
107.193
21
-148.792
0
LINE
8
BLACK
6
CONTINUOUS
10
107.193
20
-148.792
11
107.288
21
-148.887
0
LINE
8
BLACK
6
CONTINUOUS
10
107.288
20
-148.887
11
107.383
21
-149.078
0
LINE
8
BLACK
6
CONTINUOUS
10
107.383
20
-149.078
11
107.383
21
-149.554
0
LINE
8
BLACK
6
CONTINUOUS
10
107.383
20
-149.554
11
107.288
21
-149.744
0
LINE
8
BLACK
6
CONTINUOUS
10
107.288
20
-149.744
11
107.193
21
-149.84
0
LINE
8
BLACK
6
CONTINUOUS
10
107.193
20
-149.84
11
107.002
21
-149.935
0
LINE
8
BLACK
6
CONTINUOUS
10
107.002
20
-149.935
11
106.431
21
-149.935
0
LINE
8
BLACK
6
CONTINUOUS
10
106.431
20
-149.935
11
106.24
21
-149.84
0
LINE
8
BLACK
6
CONTINUOUS
10
106.24
20
-149.84
11
106.145
21
-149.744
0
LINE
8
BLACK
6
CONTINUOUS
10
108.336
20
-149.935
11
108.717
21
-149.935
0
LINE
8
BLACK
6
CONTINUOUS
10
108.717
20
-149.935
11
108.907
21
-149.84
0
LINE
8
BLACK
6
CONTINUOUS
10
108.907
20
-149.84
11
109.002
21
-149.744
0
LINE
8
BLACK
6
CONTINUOUS
10
109.002
20
-149.744
11
109.193
21
-149.459
0
LINE
8
BLACK
6
CONTINUOUS
10
109.193
20
-149.459
11
109.288
21
-149.078
0
LINE
8
BLACK
6
CONTINUOUS
10
109.288
20
-149.078
11
109.288
21
-148.316
0
LINE
8
BLACK
6
CONTINUOUS
10
109.288
20
-148.316
11
109.193
21
-148.125
0
LINE
8
BLACK
6
CONTINUOUS
10
109.193
20
-148.125
11
109.098
21
-148.03
0
LINE
8
BLACK
6
CONTINUOUS
10
109.098
20
-148.03
11
108.907
21
-147.935
0
LINE
8
BLACK
6
CONTINUOUS
10
108.907
20
-147.935
11
108.526
21
-147.935
0
LINE
8
BLACK
6
CONTINUOUS
10
108.526
20
-147.935
11
108.336
21
-148.03
0
LINE
8
BLACK
6
CONTINUOUS
10
108.336
20
-148.03
11
108.24
21
-148.125
0
LINE
8
BLACK
6
CONTINUOUS
10
108.24
20
-148.125
11
108.145
21
-148.316
0
LINE
8
BLACK
6
CONTINUOUS
10
108.145
20
-148.316
11
108.145
21
-148.792
0
LINE
8
BLACK
6
CONTINUOUS
10
108.145
20
-148.792
11
108.24
21
-148.982
0
LINE
8
BLACK
6
CONTINUOUS
10
108.24
20
-148.982
11
108.336
21
-149.078
0
LINE
8
BLACK
6
CONTINUOUS
10
108.336
20
-149.078
11
108.526
21
-149.173
0
LINE
8
BLACK
6
CONTINUOUS
10
108.526
20
-149.173
11
108.907
21
-149.173
0
LINE
8
BLACK
6
CONTINUOUS
10
108.907
20
-149.173
11
109.098
21
-149.078
0
LINE
8
BLACK
6
CONTINUOUS
10
109.098
20
-149.078
11
109.193
21
-148.982
0
LINE
8
BLACK
6
CONTINUOUS
10
109.193
20
-148.982
11
109.288
21
-148.792
0
LINE
8
BLACK
6
CONTINUOUS
10
111.002
20
-148.601
11
111.002
21
-149.935
0
LINE
8
BLACK
6
CONTINUOUS
10
110.526
20
-147.84
11
110.05
21
-149.268
0
LINE
8
BLACK
6
CONTINUOUS
10
110.05
20
-149.268
11
111.288
21
-149.268
0
LINE
8
BLACK
6
CONTINUOUS
10
111.955
20
-147.935
11
111.955
21
-148.316
0
LINE
8
BLACK
6
CONTINUOUS
10
112.717
20
-147.935
11
112.717
21
-148.316
0
LINE
8
BLACK
6
CONTINUOUS
10
115.669
20
-150.697
11
115.574
21
-150.601
0
LINE
8
BLACK
6
CONTINUOUS
10
115.574
20
-150.601
11
115.383
21
-150.316
0
LINE
8
BLACK
6
CONTINUOUS
10
115.383
20
-150.316
11
115.288
21
-150.125
0
LINE
8
BLACK
6
CONTINUOUS
10
115.288
20
-150.125
11
115.193
21
-149.84
0
LINE
8
BLACK
6
CONTINUOUS
10
115.193
20
-149.84
11
115.098
21
-149.363
0
LINE
8
BLACK
6
CONTINUOUS
10
115.098
20
-149.363
11
115.098
21
-148.982
0
LINE
8
BLACK
6
CONTINUOUS
10
115.098
20
-148.982
11
115.193
21
-148.506
0
LINE
8
BLACK
6
CONTINUOUS
10
115.193
20
-148.506
11
115.288
21
-148.22
0
LINE
8
BLACK
6
CONTINUOUS
10
115.288
20
-148.22
11
115.383
21
-148.03
0
LINE
8
BLACK
6
CONTINUOUS
10
115.383
20
-148.03
11
115.574
21
-147.744
0
LINE
8
BLACK
6
CONTINUOUS
10
115.574
20
-147.744
11
115.669
21
-147.649
0
LINE
8
BLACK
6
CONTINUOUS
10
117.479
20
-149.935
11
116.336
21
-149.935
0
LINE
8
BLACK
6
CONTINUOUS
10
116.907
20
-149.935
11
116.907
21
-147.935
0
LINE
8
BLACK
6
CONTINUOUS
10
116.907
20
-147.935
11
116.717
21
-148.22
0
LINE
8
BLACK
6
CONTINUOUS
10
116.717
20
-148.22
11
116.526
21
-148.411
0
LINE
8
BLACK
6
CONTINUOUS
10
116.526
20
-148.411
11
116.336
21
-148.506
0
LINE
8
BLACK
6
CONTINUOUS
10
118.145
20
-147.935
11
119.383
21
-147.935
0
LINE
8
BLACK
6
CONTINUOUS
10
119.383
20
-147.935
11
118.717
21
-148.697
0
LINE
8
BLACK
6
CONTINUOUS
10
118.717
20
-148.697
11
119.002
21
-148.697
0
LINE
8
BLACK
6
CONTINUOUS
10
119.002
20
-148.697
11
119.193
21
-148.792
0
LINE
8
BLACK
6
CONTINUOUS
10
119.193
20
-148.792
11
119.288
21
-148.887
0
LINE
8
BLACK
6
CONTINUOUS
10
119.288
20
-148.887
11
119.383
21
-149.078
0
LINE
8
BLACK
6
CONTINUOUS
10
119.383
20
-149.078
11
119.383
21
-149.554
0
LINE
8
BLACK
6
CONTINUOUS
10
119.383
20
-149.554
11
119.288
21
-149.744
0
LINE
8
BLACK
6
CONTINUOUS
10
119.288
20
-149.744
11
119.193
21
-149.84
0
LINE
8
BLACK
6
CONTINUOUS
10
119.193
20
-149.84
11
119.002
21
-149.935
0
LINE
8
BLACK
6
CONTINUOUS
10
119.002
20
-149.935
11
118.431
21
-149.935
0
LINE
8
BLACK
6
CONTINUOUS
10
118.431
20
-149.935
11
118.24
21
-149.84
0
LINE
8
BLACK
6
CONTINUOUS
10
118.24
20
-149.84
11
118.145
21
-149.744
0
LINE
8
BLACK
6
CONTINUOUS
10
121.098
20
-148.601
11
121.098
21
-149.935
0
LINE
8
BLACK
6
CONTINUOUS
10
120.621
20
-147.84
11
120.145
21
-149.268
0
LINE
8
BLACK
6
CONTINUOUS
10
120.145
20
-149.268
11
121.383
21
-149.268
0
LINE
8
BLACK
6
CONTINUOUS
10
123.669
20
-149.935
11
123.669
21
-147.935
0
LINE
8
BLACK
6
CONTINUOUS
10
124.526
20
-149.935
11
124.526
21
-148.887
0
LINE
8
BLACK
6
CONTINUOUS
10
124.526
20
-148.887
11
124.431
21
-148.697
0
LINE
8
BLACK
6
CONTINUOUS
10
124.431
20
-148.697
11
124.24
21
-148.601
0
LINE
8
BLACK
6
CONTINUOUS
10
124.24
20
-148.601
11
123.955
21
-148.601
0
LINE
8
BLACK
6
CONTINUOUS
10
123.955
20
-148.601
11
123.764
21
-148.697
0
LINE
8
BLACK
6
CONTINUOUS
10
123.764
20
-148.697
11
123.669
21
-148.792
0
LINE
8
BLACK
6
CONTINUOUS
10
125.764
20
-149.935
11
125.574
21
-149.84
0
LINE
8
BLACK
6
CONTINUOUS
10
125.574
20
-149.84
11
125.479
21
-149.744
0
LINE
8
BLACK
6
CONTINUOUS
10
125.479
20
-149.744
11
125.383
21
-149.554
0
LINE
8
BLACK
6
CONTINUOUS
10
125.383
20
-149.554
11
125.383
21
-148.982
0
LINE
8
BLACK
6
CONTINUOUS
10
125.383
20
-148.982
11
125.479
21
-148.792
0
LINE
8
BLACK
6
CONTINUOUS
10
125.479
20
-148.792
11
125.574
21
-148.697
0
LINE
8
BLACK
6
CONTINUOUS
10
125.574
20
-148.697
11
125.764
21
-148.601
0
LINE
8
BLACK
6
CONTINUOUS
10
125.764
20
-148.601
11
126.05
21
-148.601
0
LINE
8
BLACK
6
CONTINUOUS
10
126.05
20
-148.601
11
126.24
21
-148.697
0
LINE
8
BLACK
6
CONTINUOUS
10
126.24
20
-148.697
11
126.336
21
-148.792
0
LINE
8
BLACK
6
CONTINUOUS
10
126.336
20
-148.792
11
126.431
21
-148.982
0
LINE
8
BLACK
6
CONTINUOUS
10
126.431
20
-148.982
11
126.431
21
-149.554
0
LINE
8
BLACK
6
CONTINUOUS
10
126.431
20
-149.554
11
126.336
21
-149.744
0
LINE
8
BLACK
6
CONTINUOUS
10
126.336
20
-149.744
11
126.24
21
-149.84
0
LINE
8
BLACK
6
CONTINUOUS
10
126.24
20
-149.84
11
126.05
21
-149.935
0
LINE
8
BLACK
6
CONTINUOUS
10
126.05
20
-149.935
11
125.764
21
-149.935
0
LINE
8
BLACK
6
CONTINUOUS
10
127.574
20
-149.935
11
127.383
21
-149.84
0
LINE
8
BLACK
6
CONTINUOUS
10
127.383
20
-149.84
11
127.288
21
-149.649
0
LINE
8
BLACK
6
CONTINUOUS
10
127.288
20
-149.649
11
127.288
21
-147.935
0
LINE
8
BLACK
6
CONTINUOUS
10
129.098
20
-149.84
11
128.907
21
-149.935
0
LINE
8
BLACK
6
CONTINUOUS
10
128.907
20
-149.935
11
128.526
21
-149.935
0
LINE
8
BLACK
6
CONTINUOUS
10
128.526
20
-149.935
11
128.336
21
-149.84
0
LINE
8
BLACK
6
CONTINUOUS
10
128.336
20
-149.84
11
128.24
21
-149.649
0
LINE
8
BLACK
6
CONTINUOUS
10
128.24
20
-149.649
11
128.24
21
-148.887
0
LINE
8
BLACK
6
CONTINUOUS
10
128.24
20
-148.887
11
128.336
21
-148.697
0
LINE
8
BLACK
6
CONTINUOUS
10
128.336
20
-148.697
11
128.526
21
-148.601
0
LINE
8
BLACK
6
CONTINUOUS
10
128.526
20
-148.601
11
128.907
21
-148.601
0
LINE
8
BLACK
6
CONTINUOUS
10
128.907
20
-148.601
11
129.098
21
-148.697
0
LINE
8
BLACK
6
CONTINUOUS
10
129.098
20
-148.697
11
129.193
21
-148.887
0
LINE
8
BLACK
6
CONTINUOUS
10
129.193
20
-148.887
11
129.193
21
-149.078
0
LINE
8
BLACK
6
CONTINUOUS
10
129.193
20
-149.078
11
128.24
21
-149.268
0
LINE
8
BLACK
6
CONTINUOUS
10
129.955
20
-149.84
11
130.145
21
-149.935
0
LINE
8
BLACK
6
CONTINUOUS
10
130.145
20
-149.935
11
130.526
21
-149.935
0
LINE
8
BLACK
6
CONTINUOUS
10
130.526
20
-149.935
11
130.717
21
-149.84
0
LINE
8
BLACK
6
CONTINUOUS
10
130.717
20
-149.84
11
130.812
21
-149.649
0
LINE
8
BLACK
6
CONTINUOUS
10
130.812
20
-149.649
11
130.812
21
-149.554
0
LINE
8
BLACK
6
CONTINUOUS
10
130.812
20
-149.554
11
130.717
21
-149.363
0
LINE
8
BLACK
6
CONTINUOUS
10
130.717
20
-149.363
11
130.526
21
-149.268
0
LINE
8
BLACK
6
CONTINUOUS
10
130.526
20
-149.268
11
130.24
21
-149.268
0
LINE
8
BLACK
6
CONTINUOUS
10
130.24
20
-149.268
11
130.05
21
-149.173
0
LINE
8
BLACK
6
CONTINUOUS
10
130.05
20
-149.173
11
129.955
21
-148.982
0
LINE
8
BLACK
6
CONTINUOUS
10
129.955
20
-148.982
11
129.955
21
-148.887
0
LINE
8
BLACK
6
CONTINUOUS
10
129.955
20
-148.887
11
130.05
21
-148.697
0
LINE
8
BLACK
6
CONTINUOUS
10
130.05
20
-148.697
11
130.24
21
-148.601
0
LINE
8
BLACK
6
CONTINUOUS
10
130.24
20
-148.601
11
130.526
21
-148.601
0
LINE
8
BLACK
6
CONTINUOUS
10
130.526
20
-148.601
11
130.717
21
-148.697
0
LINE
8
BLACK
6
CONTINUOUS
10
131.479
20
-150.697
11
131.574
21
-150.601
0
LINE
8
BLACK
6
CONTINUOUS
10
131.574
20
-150.601
11
131.764
21
-150.316
0
LINE
8
BLACK
6
CONTINUOUS
10
131.764
20
-150.316
11
131.86
21
-150.125
0
LINE
8
BLACK
6
CONTINUOUS
10
131.86
20
-150.125
11
131.955
21
-149.84
0
LINE
8
BLACK
6
CONTINUOUS
10
131.955
20
-149.84
11
132.05
21
-149.363
0
LINE
8
BLACK
6
CONTINUOUS
10
132.05
20
-149.363
11
132.05
21
-148.982
0
LINE
8
BLACK
6
CONTINUOUS
10
132.05
20
-148.982
11
131.955
21
-148.506
0
LINE
8
BLACK
6
CONTINUOUS
10
131.955
20
-148.506
11
131.86
21
-148.22
0
LINE
8
BLACK
6
CONTINUOUS
10
131.86
20
-148.22
11
131.764
21
-148.03
0
LINE
8
BLACK
6
CONTINUOUS
10
131.764
20
-148.03
11
131.574
21
-147.744
0
LINE
8
BLACK
6
CONTINUOUS
10
131.574
20
-147.744
11
131.479
21
-147.649
0
LINE
8
BLACK
6
CONTINUOUS
10
79.8006
20
-152.031
11
79.8006
21
-151.309
0
LINE
8
BLACK
6
CONTINUOUS
10
79.8006
20
-151.309
11
79.0794
21
-151.309
0
LINE
8
BLACK
6
CONTINUOUS
10
79.0794
20
-151.309
11
79.0794
21
-152.031
0
LINE
8
BLACK
6
CONTINUOUS
10
79.0794
20
-152.031
11
79.8006
21
-152.031
0
LINE
8
BLACK
6
CONTINUOUS
10
83.5738
20
-152.575
11
82.431
21
-152.575
0
LINE
8
BLACK
6
CONTINUOUS
10
83.0024
20
-152.575
11
83.0024
21
-150.575
0
LINE
8
BLACK
6
CONTINUOUS
10
83.0024
20
-150.575
11
82.8119
21
-150.86
0
LINE
8
BLACK
6
CONTINUOUS
10
82.8119
20
-150.86
11
82.6214
21
-151.051
0
LINE
8
BLACK
6
CONTINUOUS
10
82.6214
20
-151.051
11
82.431
21
-151.146
0
LINE
8
BLACK
6
CONTINUOUS
10
84.431
20
-152.384
11
84.5262
21
-152.48
0
LINE
8
BLACK
6
CONTINUOUS
10
84.5262
20
-152.48
11
84.431
21
-152.575
0
LINE
8
BLACK
6
CONTINUOUS
10
84.431
20
-152.575
11
84.3357
21
-152.48
0
LINE
8
BLACK
6
CONTINUOUS
10
84.3357
20
-152.48
11
84.431
21
-152.384
0
LINE
8
BLACK
6
CONTINUOUS
10
84.431
20
-152.384
11
84.431
21
-152.575
0
LINE
8
BLACK
6
CONTINUOUS
10
85.7643
20
-150.575
11
85.9548
21
-150.575
0
LINE
8
BLACK
6
CONTINUOUS
10
85.9548
20
-150.575
11
86.1452
21
-150.67
0
LINE
8
BLACK
6
CONTINUOUS
10
86.1452
20
-150.67
11
86.2405
21
-150.765
0
LINE
8
BLACK
6
CONTINUOUS
10
86.2405
20
-150.765
11
86.3357
21
-150.956
0
LINE
8
BLACK
6
CONTINUOUS
10
86.3357
20
-150.956
11
86.431
21
-151.337
0
LINE
8
BLACK
6
CONTINUOUS
10
86.431
20
-151.337
11
86.431
21
-151.813
0
LINE
8
BLACK
6
CONTINUOUS
10
86.431
20
-151.813
11
86.3357
21
-152.194
0
LINE
8
BLACK
6
CONTINUOUS
10
86.3357
20
-152.194
11
86.2405
21
-152.384
0
LINE
8
BLACK
6
CONTINUOUS
10
86.2405
20
-152.384
11
86.1452
21
-152.48
0
LINE
8
BLACK
6
CONTINUOUS
10
86.1452
20
-152.48
11
85.9548
21
-152.575
0
LINE
8
BLACK
6
CONTINUOUS
10
85.9548
20
-152.575
11
85.7643
21
-152.575
0
LINE
8
BLACK
6
CONTINUOUS
10
85.7643
20
-152.575
11
85.5738
21
-152.48
0
LINE
8
BLACK
6
CONTINUOUS
10
85.5738
20
-152.48
11
85.4786
21
-152.384
0
LINE
8
BLACK
6
CONTINUOUS
10
85.4786
20
-152.384
11
85.3833
21
-152.194
0
LINE
8
BLACK
6
CONTINUOUS
10
85.3833
20
-152.194
11
85.2881
21
-151.813
0
LINE
8
BLACK
6
CONTINUOUS
10
85.2881
20
-151.813
11
85.2881
21
-151.337
0
LINE
8
BLACK
6
CONTINUOUS
10
85.2881
20
-151.337
11
85.3833
21
-150.956
0
LINE
8
BLACK
6
CONTINUOUS
10
85.3833
20
-150.956
11
85.4786
21
-150.765
0
LINE
8
BLACK
6
CONTINUOUS
10
85.4786
20
-150.765
11
85.5738
21
-150.67
0
LINE
8
BLACK
6
CONTINUOUS
10
85.5738
20
-150.67
11
85.7643
21
-150.575
0
LINE
8
BLACK
6
CONTINUOUS
10
87.1929
20
-150.765
11
87.2881
21
-150.67
0
LINE
8
BLACK
6
CONTINUOUS
10
87.2881
20
-150.67
11
87.4786
21
-150.575
0
LINE
8
BLACK
6
CONTINUOUS
10
87.4786
20
-150.575
11
87.9548
21
-150.575
0
LINE
8
BLACK
6
CONTINUOUS
10
87.9548
20
-150.575
11
88.1452
21
-150.67
0
LINE
8
BLACK
6
CONTINUOUS
10
88.1452
20
-150.67
11
88.2405
21
-150.765
0
LINE
8
BLACK
6
CONTINUOUS
10
88.2405
20
-150.765
11
88.3357
21
-150.956
0
LINE
8
BLACK
6
CONTINUOUS
10
88.3357
20
-150.956
11
88.3357
21
-151.146
0
LINE
8
BLACK
6
CONTINUOUS
10
88.3357
20
-151.146
11
88.2405
21
-151.432
0
LINE
8
BLACK
6
CONTINUOUS
10
88.2405
20
-151.432
11
87.0976
21
-152.575
0
LINE
8
BLACK
6
CONTINUOUS
10
87.0976
20
-152.575
11
88.3357
21
-152.575
0
LINE
8
BLACK
6
CONTINUOUS
10
89.5738
20
-150.575
11
89.7643
21
-150.575
0
LINE
8
BLACK
6
CONTINUOUS
10
89.7643
20
-150.575
11
89.9548
21
-150.67
0
LINE
8
BLACK
6
CONTINUOUS
10
89.9548
20
-150.67
11
90.05
21
-150.765
0
LINE
8
BLACK
6
CONTINUOUS
10
90.05
20
-150.765
11
90.1452
21
-150.956
0
LINE
8
BLACK
6
CONTINUOUS
10
90.1452
20
-150.956
11
90.2405
21
-151.337
0
LINE
8
BLACK
6
CONTINUOUS
10
90.2405
20
-151.337
11
90.2405
21
-151.813
0
LINE
8
BLACK
6
CONTINUOUS
10
90.2405
20
-151.813
11
90.1452
21
-152.194
0
LINE
8
BLACK
6
CONTINUOUS
10
90.1452
20
-152.194
11
90.05
21
-152.384
0
LINE
8
BLACK
6
CONTINUOUS
10
90.05
20
-152.384
11
89.9548
21
-152.48
0
LINE
8
BLACK
6
CONTINUOUS
10
89.9548
20
-152.48
11
89.7643
21
-152.575
0
LINE
8
BLACK
6
CONTINUOUS
10
89.7643
20
-152.575
11
89.5738
21
-152.575
0
LINE
8
BLACK
6
CONTINUOUS
10
89.5738
20
-152.575
11
89.3833
21
-152.48
0
LINE
8
BLACK
6
CONTINUOUS
10
89.3833
20
-152.48
11
89.2881
21
-152.384
0
LINE
8
BLACK
6
CONTINUOUS
10
89.2881
20
-152.384
11
89.1929
21
-152.194
0
LINE
8
BLACK
6
CONTINUOUS
10
89.1929
20
-152.194
11
89.0976
21
-151.813
0
LINE
8
BLACK
6
CONTINUOUS
10
89.0976
20
-151.813
11
89.0976
21
-151.337
0
LINE
8
BLACK
6
CONTINUOUS
10
89.0976
20
-151.337
11
89.1929
21
-150.956
0
LINE
8
BLACK
6
CONTINUOUS
10
89.1929
20
-150.956
11
89.2881
21
-150.765
0
LINE
8
BLACK
6
CONTINUOUS
10
89.2881
20
-150.765
11
89.3833
21
-150.67
0
LINE
8
BLACK
6
CONTINUOUS
10
89.3833
20
-150.67
11
89.5738
21
-150.575
0
LINE
8
BLACK
6
CONTINUOUS
10
91.0976
20
-152.575
11
91.0976
21
-151.241
0
LINE
8
BLACK
6
CONTINUOUS
10
91.0976
20
-151.432
11
91.1929
21
-151.337
0
LINE
8
BLACK
6
CONTINUOUS
10
91.1929
20
-151.337
11
91.3833
21
-151.241
0
LINE
8
BLACK
6
CONTINUOUS
10
91.3833
20
-151.241
11
91.669
21
-151.241
0
LINE
8
BLACK
6
CONTINUOUS
10
91.669
20
-151.241
11
91.8595
21
-151.337
0
LINE
8
BLACK
6
CONTINUOUS
10
91.8595
20
-151.337
11
91.9548
21
-151.527
0
LINE
8
BLACK
6
CONTINUOUS
10
91.9548
20
-151.527
11
91.9548
21
-152.575
0
LINE
8
BLACK
6
CONTINUOUS
10
91.9548
20
-151.527
11
92.05
21
-151.337
0
LINE
8
BLACK
6
CONTINUOUS
10
92.05
20
-151.337
11
92.2405
21
-151.241
0
LINE
8
BLACK
6
CONTINUOUS
10
92.2405
20
-151.241
11
92.5262
21
-151.241
0
LINE
8
BLACK
6
CONTINUOUS
10
92.5262
20
-151.241
11
92.7167
21
-151.337
0
LINE
8
BLACK
6
CONTINUOUS
10
92.7167
20
-151.337
11
92.8119
21
-151.527
0
LINE
8
BLACK
6
CONTINUOUS
10
92.8119
20
-151.527
11
92.8119
21
-152.575
0
LINE
8
BLACK
6
CONTINUOUS
10
93.7643
20
-152.575
11
93.7643
21
-151.241
0
LINE
8
BLACK
6
CONTINUOUS
10
93.7643
20
-151.432
11
93.8595
21
-151.337
0
LINE
8
BLACK
6
CONTINUOUS
10
93.8595
20
-151.337
11
94.05
21
-151.241
0
LINE
8
BLACK
6
CONTINUOUS
10
94.05
20
-151.241
11
94.3357
21
-151.241
0
LINE
8
BLACK
6
CONTINUOUS
10
94.3357
20
-151.241
11
94.5262
21
-151.337
0
LINE
8
BLACK
6
CONTINUOUS
10
94.5262
20
-151.337
11
94.6214
21
-151.527
0
LINE
8
BLACK
6
CONTINUOUS
10
94.6214
20
-151.527
11
94.6214
21
-152.575
0
LINE
8
BLACK
6
CONTINUOUS
10
94.6214
20
-151.527
11
94.7167
21
-151.337
0
LINE
8
BLACK
6
CONTINUOUS
10
94.7167
20
-151.337
11
94.9071
21
-151.241
0
LINE
8
BLACK
6
CONTINUOUS
10
94.9071
20
-151.241
11
95.1929
21
-151.241
0
LINE
8
BLACK
6
CONTINUOUS
10
95.1929
20
-151.241
11
95.3833
21
-151.337
0
LINE
8
BLACK
6
CONTINUOUS
10
95.3833
20
-151.337
11
95.4786
21
-151.527
0
LINE
8
BLACK
6
CONTINUOUS
10
95.4786
20
-151.527
11
95.4786
21
-152.575
0
LINE
8
BLACK
6
CONTINUOUS
10
99.3833
20
-150.48
11
97.669
21
-153.051
0
LINE
8
BLACK
6
CONTINUOUS
10
101.955
20
-150.575
11
102.145
21
-150.575
0
LINE
8
BLACK
6
CONTINUOUS
10
102.145
20
-150.575
11
102.336
21
-150.67
0
LINE
8
BLACK
6
CONTINUOUS
10
102.336
20
-150.67
11
102.431
21
-150.765
0
LINE
8
BLACK
6
CONTINUOUS
10
102.431
20
-150.765
11
102.526
21
-150.956
0
LINE
8
BLACK
6
CONTINUOUS
10
102.526
20
-150.956
11
102.621
21
-151.337
0
LINE
8
BLACK
6
CONTINUOUS
10
102.621
20
-151.337
11
102.621
21
-151.813
0
LINE
8
BLACK
6
CONTINUOUS
10
102.621
20
-151.813
11
102.526
21
-152.194
0
LINE
8
BLACK
6
CONTINUOUS
10
102.526
20
-152.194
11
102.431
21
-152.384
0
LINE
8
BLACK
6
CONTINUOUS
10
102.431
20
-152.384
11
102.336
21
-152.48
0
LINE
8
BLACK
6
CONTINUOUS
10
102.336
20
-152.48
11
102.145
21
-152.575
0
LINE
8
BLACK
6
CONTINUOUS
10
102.145
20
-152.575
11
101.955
21
-152.575
0
LINE
8
BLACK
6
CONTINUOUS
10
101.955
20
-152.575
11
101.764
21
-152.48
0
LINE
8
BLACK
6
CONTINUOUS
10
101.764
20
-152.48
11
101.669
21
-152.384
0
LINE
8
BLACK
6
CONTINUOUS
10
101.669
20
-152.384
11
101.574
21
-152.194
0
LINE
8
BLACK
6
CONTINUOUS
10
101.574
20
-152.194
11
101.479
21
-151.813
0
LINE
8
BLACK
6
CONTINUOUS
10
101.479
20
-151.813
11
101.479
21
-151.337
0
LINE
8
BLACK
6
CONTINUOUS
10
101.479
20
-151.337
11
101.574
21
-150.956
0
LINE
8
BLACK
6
CONTINUOUS
10
101.574
20
-150.956
11
101.669
21
-150.765
0
LINE
8
BLACK
6
CONTINUOUS
10
101.669
20
-150.765
11
101.764
21
-150.67
0
LINE
8
BLACK
6
CONTINUOUS
10
101.764
20
-150.67
11
101.955
21
-150.575
0
LINE
8
BLACK
6
CONTINUOUS
10
103.479
20
-152.384
11
103.574
21
-152.48
0
LINE
8
BLACK
6
CONTINUOUS
10
103.574
20
-152.48
11
103.479
21
-152.575
0
LINE
8
BLACK
6
CONTINUOUS
10
103.479
20
-152.575
11
103.383
21
-152.48
0
LINE
8
BLACK
6
CONTINUOUS
10
103.383
20
-152.48
11
103.479
21
-152.384
0
LINE
8
BLACK
6
CONTINUOUS
10
103.479
20
-152.384
11
103.479
21
-152.575
0
LINE
8
BLACK
6
CONTINUOUS
10
104.812
20
-150.575
11
105.002
21
-150.575
0
LINE
8
BLACK
6
CONTINUOUS
10
105.002
20
-150.575
11
105.193
21
-150.67
0
LINE
8
BLACK
6
CONTINUOUS
10
105.193
20
-150.67
11
105.288
21
-150.765
0
LINE
8
BLACK
6
CONTINUOUS
10
105.288
20
-150.765
11
105.383
21
-150.956
0
LINE
8
BLACK
6
CONTINUOUS
10
105.383
20
-150.956
11
105.479
21
-151.337
0
LINE
8
BLACK
6
CONTINUOUS
10
105.479
20
-151.337
11
105.479
21
-151.813
0
LINE
8
BLACK
6
CONTINUOUS
10
105.479
20
-151.813
11
105.383
21
-152.194
0
LINE
8
BLACK
6
CONTINUOUS
10
105.383
20
-152.194
11
105.288
21
-152.384
0
LINE
8
BLACK
6
CONTINUOUS
10
105.288
20
-152.384
11
105.193
21
-152.48
0
LINE
8
BLACK
6
CONTINUOUS
10
105.193
20
-152.48
11
105.002
21
-152.575
0
LINE
8
BLACK
6
CONTINUOUS
10
105.002
20
-152.575
11
104.812
21
-152.575
0
LINE
8
BLACK
6
CONTINUOUS
10
104.812
20
-152.575
11
104.621
21
-152.48
0
LINE
8
BLACK
6
CONTINUOUS
10
104.621
20
-152.48
11
104.526
21
-152.384
0
LINE
8
BLACK
6
CONTINUOUS
10
104.526
20
-152.384
11
104.431
21
-152.194
0
LINE
8
BLACK
6
CONTINUOUS
10
104.431
20
-152.194
11
104.336
21
-151.813
0
LINE
8
BLACK
6
CONTINUOUS
10
104.336
20
-151.813
11
104.336
21
-151.337
0
LINE
8
BLACK
6
CONTINUOUS
10
104.336
20
-151.337
11
104.431
21
-150.956
0
LINE
8
BLACK
6
CONTINUOUS
10
104.431
20
-150.956
11
104.526
21
-150.765
0
LINE
8
BLACK
6
CONTINUOUS
10
104.526
20
-150.765
11
104.621
21
-150.67
0
LINE
8
BLACK
6
CONTINUOUS
10
104.621
20
-150.67
11
104.812
21
-150.575
0
LINE
8
BLACK
6
CONTINUOUS
10
107.193
20
-151.241
11
107.193
21
-152.575
0
LINE
8
BLACK
6
CONTINUOUS
10
106.717
20
-150.48
11
106.24
21
-151.908
0
LINE
8
BLACK
6
CONTINUOUS
10
106.24
20
-151.908
11
107.479
21
-151.908
0
LINE
8
BLACK
6
CONTINUOUS
10
108.621
20
-150.575
11
108.812
21
-150.575
0
LINE
8
BLACK
6
CONTINUOUS
10
108.812
20
-150.575
11
109.002
21
-150.67
0
LINE
8
BLACK
6
CONTINUOUS
10
109.002
20
-150.67
11
109.098
21
-150.765
0
LINE
8
BLACK
6
CONTINUOUS
10
109.098
20
-150.765
11
109.193
21
-150.956
0
LINE
8
BLACK
6
CONTINUOUS
10
109.193
20
-150.956
11
109.288
21
-151.337
0
LINE
8
BLACK
6
CONTINUOUS
10
109.288
20
-151.337
11
109.288
21
-151.813
0
LINE
8
BLACK
6
CONTINUOUS
10
109.288
20
-151.813
11
109.193
21
-152.194
0
LINE
8
BLACK
6
CONTINUOUS
10
109.193
20
-152.194
11
109.098
21
-152.384
0
LINE
8
BLACK
6
CONTINUOUS
10
109.098
20
-152.384
11
109.002
21
-152.48
0
LINE
8
BLACK
6
CONTINUOUS
10
109.002
20
-152.48
11
108.812
21
-152.575
0
LINE
8
BLACK
6
CONTINUOUS
10
108.812
20
-152.575
11
108.621
21
-152.575
0
LINE
8
BLACK
6
CONTINUOUS
10
108.621
20
-152.575
11
108.431
21
-152.48
0
LINE
8
BLACK
6
CONTINUOUS
10
108.431
20
-152.48
11
108.336
21
-152.384
0
LINE
8
BLACK
6
CONTINUOUS
10
108.336
20
-152.384
11
108.24
21
-152.194
0
LINE
8
BLACK
6
CONTINUOUS
10
108.24
20
-152.194
11
108.145
21
-151.813
0
LINE
8
BLACK
6
CONTINUOUS
10
108.145
20
-151.813
11
108.145
21
-151.337
0
LINE
8
BLACK
6
CONTINUOUS
10
108.145
20
-151.337
11
108.24
21
-150.956
0
LINE
8
BLACK
6
CONTINUOUS
10
108.24
20
-150.956
11
108.336
21
-150.765
0
LINE
8
BLACK
6
CONTINUOUS
10
108.336
20
-150.765
11
108.431
21
-150.67
0
LINE
8
BLACK
6
CONTINUOUS
10
108.431
20
-150.67
11
108.621
21
-150.575
0
LINE
8
BLACK
6
CONTINUOUS
10
110.05
20
-150.765
11
110.145
21
-150.67
0
LINE
8
BLACK
6
CONTINUOUS
10
110.145
20
-150.67
11
110.336
21
-150.575
0
LINE
8
BLACK
6
CONTINUOUS
10
110.336
20
-150.575
11
110.812
21
-150.575
0
LINE
8
BLACK
6
CONTINUOUS
10
110.812
20
-150.575
11
111.002
21
-150.67
0
LINE
8
BLACK
6
CONTINUOUS
10
111.002
20
-150.67
11
111.098
21
-150.765
0
LINE
8
BLACK
6
CONTINUOUS
10
111.098
20
-150.765
11
111.193
21
-150.956
0
LINE
8
BLACK
6
CONTINUOUS
10
111.193
20
-150.956
11
111.193
21
-151.146
0
LINE
8
BLACK
6
CONTINUOUS
10
111.193
20
-151.146
11
111.098
21
-151.432
0
LINE
8
BLACK
6
CONTINUOUS
10
111.098
20
-151.432
11
109.955
21
-152.575
0
LINE
8
BLACK
6
CONTINUOUS
10
109.955
20
-152.575
11
111.193
21
-152.575
0
LINE
8
BLACK
6
CONTINUOUS
10
111.955
20
-150.575
11
111.955
21
-150.956
0
LINE
8
BLACK
6
CONTINUOUS
10
112.717
20
-150.575
11
112.717
21
-150.956
0
LINE
8
BLACK
6
CONTINUOUS
10
115.669
20
-153.337
11
115.574
21
-153.241
0
LINE
8
BLACK
6
CONTINUOUS
10
115.574
20
-153.241
11
115.383
21
-152.956
0
LINE
8
BLACK
6
CONTINUOUS
10
115.383
20
-152.956
11
115.288
21
-152.765
0
LINE
8
BLACK
6
CONTINUOUS
10
115.288
20
-152.765
11
115.193
21
-152.48
0
LINE
8
BLACK
6
CONTINUOUS
10
115.193
20
-152.48
11
115.098
21
-152.003
0
LINE
8
BLACK
6
CONTINUOUS
10
115.098
20
-152.003
11
115.098
21
-151.622
0
LINE
8
BLACK
6
CONTINUOUS
10
115.098
20
-151.622
11
115.193
21
-151.146
0
LINE
8
BLACK
6
CONTINUOUS
10
115.193
20
-151.146
11
115.288
21
-150.86
0
LINE
8
BLACK
6
CONTINUOUS
10
115.288
20
-150.86
11
115.383
21
-150.67
0
LINE
8
BLACK
6
CONTINUOUS
10
115.383
20
-150.67
11
115.574
21
-150.384
0
LINE
8
BLACK
6
CONTINUOUS
10
115.574
20
-150.384
11
115.669
21
-150.289
0
LINE
8
BLACK
6
CONTINUOUS
10
117.288
20
-151.241
11
117.288
21
-152.575
0
LINE
8
BLACK
6
CONTINUOUS
10
116.812
20
-150.48
11
116.336
21
-151.908
0
LINE
8
BLACK
6
CONTINUOUS
10
116.336
20
-151.908
11
117.574
21
-151.908
0
LINE
8
BLACK
6
CONTINUOUS
10
118.145
20
-150.575
11
119.383
21
-150.575
0
LINE
8
BLACK
6
CONTINUOUS
10
119.383
20
-150.575
11
118.717
21
-151.337
0
LINE
8
BLACK
6
CONTINUOUS
10
118.717
20
-151.337
11
119.002
21
-151.337
0
LINE
8
BLACK
6
CONTINUOUS
10
119.002
20
-151.337
11
119.193
21
-151.432
0
LINE
8
BLACK
6
CONTINUOUS
10
119.193
20
-151.432
11
119.288
21
-151.527
0
LINE
8
BLACK
6
CONTINUOUS
10
119.288
20
-151.527
11
119.383
21
-151.718
0
LINE
8
BLACK
6
CONTINUOUS
10
119.383
20
-151.718
11
119.383
21
-152.194
0
LINE
8
BLACK
6
CONTINUOUS
10
119.383
20
-152.194
11
119.288
21
-152.384
0
LINE
8
BLACK
6
CONTINUOUS
10
119.288
20
-152.384
11
119.193
21
-152.48
0
LINE
8
BLACK
6
CONTINUOUS
10
119.193
20
-152.48
11
119.002
21
-152.575
0
LINE
8
BLACK
6
CONTINUOUS
10
119.002
20
-152.575
11
118.431
21
-152.575
0
LINE
8
BLACK
6
CONTINUOUS
10
118.431
20
-152.575
11
118.24
21
-152.48
0
LINE
8
BLACK
6
CONTINUOUS
10
118.24
20
-152.48
11
118.145
21
-152.384
0
LINE
8
BLACK
6
CONTINUOUS
10
121.764
20
-152.575
11
121.764
21
-150.575
0
LINE
8
BLACK
6
CONTINUOUS
10
122.621
20
-152.575
11
122.621
21
-151.527
0
LINE
8
BLACK
6
CONTINUOUS
10
122.621
20
-151.527
11
122.526
21
-151.337
0
LINE
8
BLACK
6
CONTINUOUS
10
122.526
20
-151.337
11
122.336
21
-151.241
0
LINE
8
BLACK
6
CONTINUOUS
10
122.336
20
-151.241
11
122.05
21
-151.241
0
LINE
8
BLACK
6
CONTINUOUS
10
122.05
20
-151.241
11
121.86
21
-151.337
0
LINE
8
BLACK
6
CONTINUOUS
10
121.86
20
-151.337
11
121.764
21
-151.432
0
LINE
8
BLACK
6
CONTINUOUS
10
123.86
20
-152.575
11
123.669
21
-152.48
0
LINE
8
BLACK
6
CONTINUOUS
10
123.669
20
-152.48
11
123.574
21
-152.384
0
LINE
8
BLACK
6
CONTINUOUS
10
123.574
20
-152.384
11
123.479
21
-152.194
0
LINE
8
BLACK
6
CONTINUOUS
10
123.479
20
-152.194
11
123.479
21
-151.622
0
LINE
8
BLACK
6
CONTINUOUS
10
123.479
20
-151.622
11
123.574
21
-151.432
0
LINE
8
BLACK
6
CONTINUOUS
10
123.574
20
-151.432
11
123.669
21
-151.337
0
LINE
8
BLACK
6
CONTINUOUS
10
123.669
20
-151.337
11
123.86
21
-151.241
0
LINE
8
BLACK
6
CONTINUOUS
10
123.86
20
-151.241
11
124.145
21
-151.241
0
LINE
8
BLACK
6
CONTINUOUS
10
124.145
20
-151.241
11
124.336
21
-151.337
0
LINE
8
BLACK
6
CONTINUOUS
10
124.336
20
-151.337
11
124.431
21
-151.432
0
LINE
8
BLACK
6
CONTINUOUS
10
124.431
20
-151.432
11
124.526
21
-151.622
0
LINE
8
BLACK
6
CONTINUOUS
10
124.526
20
-151.622
11
124.526
21
-152.194
0
LINE
8
BLACK
6
CONTINUOUS
10
124.526
20
-152.194
11
124.431
21
-152.384
0
LINE
8
BLACK
6
CONTINUOUS
10
124.431
20
-152.384
11
124.336
21
-152.48
0
LINE
8
BLACK
6
CONTINUOUS
10
124.336
20
-152.48
11
124.145
21
-152.575
0
LINE
8
BLACK
6
CONTINUOUS
10
124.145
20
-152.575
11
123.86
21
-152.575
0
LINE
8
BLACK
6
CONTINUOUS
10
125.669
20
-152.575
11
125.479
21
-152.48
0
LINE
8
BLACK
6
CONTINUOUS
10
125.479
20
-152.48
11
125.383
21
-152.289
0
LINE
8
BLACK
6
CONTINUOUS
10
125.383
20
-152.289
11
125.383
21
-150.575
0
LINE
8
BLACK
6
CONTINUOUS
10
127.193
20
-152.48
11
127.002
21
-152.575
0
LINE
8
BLACK
6
CONTINUOUS
10
127.002
20
-152.575
11
126.621
21
-152.575
0
LINE
8
BLACK
6
CONTINUOUS
10
126.621
20
-152.575
11
126.431
21
-152.48
0
LINE
8
BLACK
6
CONTINUOUS
10
126.431
20
-152.48
11
126.336
21
-152.289
0
LINE
8
BLACK
6
CONTINUOUS
10
126.336
20
-152.289
11
126.336
21
-151.527
0
LINE
8
BLACK
6
CONTINUOUS
10
126.336
20
-151.527
11
126.431
21
-151.337
0
LINE
8
BLACK
6
CONTINUOUS
10
126.431
20
-151.337
11
126.621
21
-151.241
0
LINE
8
BLACK
6
CONTINUOUS
10
126.621
20
-151.241
11
127.002
21
-151.241
0
LINE
8
BLACK
6
CONTINUOUS
10
127.002
20
-151.241
11
127.193
21
-151.337
0
LINE
8
BLACK
6
CONTINUOUS
10
127.193
20
-151.337
11
127.288
21
-151.527
0
LINE
8
BLACK
6
CONTINUOUS
10
127.288
20
-151.527
11
127.288
21
-151.718
0
LINE
8
BLACK
6
CONTINUOUS
10
127.288
20
-151.718
11
126.336
21
-151.908
0
LINE
8
BLACK
6
CONTINUOUS
10
128.05
20
-152.48
11
128.24
21
-152.575
0
LINE
8
BLACK
6
CONTINUOUS
10
128.24
20
-152.575
11
128.621
21
-152.575
0
LINE
8
BLACK
6
CONTINUOUS
10
128.621
20
-152.575
11
128.812
21
-152.48
0
LINE
8
BLACK
6
CONTINUOUS
10
128.812
20
-152.48
11
128.907
21
-152.289
0
LINE
8
BLACK
6
CONTINUOUS
10
128.907
20
-152.289
11
128.907
21
-152.194
0
LINE
8
BLACK
6
CONTINUOUS
10
128.907
20
-152.194
11
128.812
21
-152.003
0
LINE
8
BLACK
6
CONTINUOUS
10
128.812
20
-152.003
11
128.621
21
-151.908
0
LINE
8
BLACK
6
CONTINUOUS
10
128.621
20
-151.908
11
128.336
21
-151.908
0
LINE
8
BLACK
6
CONTINUOUS
10
128.336
20
-151.908
11
128.145
21
-151.813
0
LINE
8
BLACK
6
CONTINUOUS
10
128.145
20
-151.813
11
128.05
21
-151.622
0
LINE
8
BLACK
6
CONTINUOUS
10
128.05
20
-151.622
11
128.05
21
-151.527
0
LINE
8
BLACK
6
CONTINUOUS
10
128.05
20
-151.527
11
128.145
21
-151.337
0
LINE
8
BLACK
6
CONTINUOUS
10
128.145
20
-151.337
11
128.336
21
-151.241
0
LINE
8
BLACK
6
CONTINUOUS
10
128.336
20
-151.241
11
128.621
21
-151.241
0
LINE
8
BLACK
6
CONTINUOUS
10
128.621
20
-151.241
11
128.812
21
-151.337
0
LINE
8
BLACK
6
CONTINUOUS
10
129.574
20
-153.337
11
129.669
21
-153.241
0
LINE
8
BLACK
6
CONTINUOUS
10
129.669
20
-153.241
11
129.86
21
-152.956
0
LINE
8
BLACK
6
CONTINUOUS
10
129.86
20
-152.956
11
129.955
21
-152.765
0
LINE
8
BLACK
6
CONTINUOUS
10
129.955
20
-152.765
11
130.05
21
-152.48
0
LINE
8
BLACK
6
CONTINUOUS
10
130.05
20
-152.48
11
130.145
21
-152.003
0
LINE
8
BLACK
6
CONTINUOUS
10
130.145
20
-152.003
11
130.145
21
-151.622
0
LINE
8
BLACK
6
CONTINUOUS
10
130.145
20
-151.622
11
130.05
21
-151.146
0
LINE
8
BLACK
6
CONTINUOUS
10
130.05
20
-151.146
11
129.955
21
-150.86
0
LINE
8
BLACK
6
CONTINUOUS
10
129.955
20
-150.86
11
129.86
21
-150.67
0
LINE
8
BLACK
6
CONTINUOUS
10
129.86
20
-150.67
11
129.669
21
-150.384
0
LINE
8
BLACK
6
CONTINUOUS
10
129.669
20
-150.384
11
129.574
21
-150.289
0
LINE
8
BLACK
6
CONTINUOUS
10
79.4
20
-154.86
11
79.95
21
-154.31
0
LINE
8
BLACK
6
CONTINUOUS
10
79.95
20
-154.31
11
79.4
21
-153.76
0
LINE
8
BLACK
6
CONTINUOUS
10
79.4
20
-153.76
11
78.85
21
-154.31
0
LINE
8
BLACK
6
CONTINUOUS
10
78.85
20
-154.31
11
79.4
21
-154.86
0
LINE
8
BLACK
6
CONTINUOUS
10
83.5738
20
-155.215
11
82.431
21
-155.215
0
LINE
8
BLACK
6
CONTINUOUS
10
83.0024
20
-155.215
11
83.0024
21
-153.215
0
LINE
8
BLACK
6
CONTINUOUS
10
83.0024
20
-153.215
11
82.8119
21
-153.5
0
LINE
8
BLACK
6
CONTINUOUS
10
82.8119
20
-153.5
11
82.6214
21
-153.691
0
LINE
8
BLACK
6
CONTINUOUS
10
82.6214
20
-153.691
11
82.431
21
-153.786
0
LINE
8
BLACK
6
CONTINUOUS
10
84.431
20
-155.024
11
84.5262
21
-155.12
0
LINE
8
BLACK
6
CONTINUOUS
10
84.5262
20
-155.12
11
84.431
21
-155.215
0
LINE
8
BLACK
6
CONTINUOUS
10
84.431
20
-155.215
11
84.3357
21
-155.12
0
LINE
8
BLACK
6
CONTINUOUS
10
84.3357
20
-155.12
11
84.431
21
-155.024
0
LINE
8
BLACK
6
CONTINUOUS
10
84.431
20
-155.024
11
84.431
21
-155.215
0
LINE
8
BLACK
6
CONTINUOUS
10
86.431
20
-155.215
11
85.2881
21
-155.215
0
LINE
8
BLACK
6
CONTINUOUS
10
85.8595
20
-155.215
11
85.8595
21
-153.215
0
LINE
8
BLACK
6
CONTINUOUS
10
85.8595
20
-153.215
11
85.669
21
-153.5
0
LINE
8
BLACK
6
CONTINUOUS
10
85.669
20
-153.5
11
85.4786
21
-153.691
0
LINE
8
BLACK
6
CONTINUOUS
10
85.4786
20
-153.691
11
85.2881
21
-153.786
0
LINE
8
BLACK
6
CONTINUOUS
10
87.669
20
-153.215
11
87.8595
21
-153.215
0
LINE
8
BLACK
6
CONTINUOUS
10
87.8595
20
-153.215
11
88.05
21
-153.31
0
LINE
8
BLACK
6
CONTINUOUS
10
88.05
20
-153.31
11
88.1452
21
-153.405
0
LINE
8
BLACK
6
CONTINUOUS
10
88.1452
20
-153.405
11
88.2405
21
-153.596
0
LINE
8
BLACK
6
CONTINUOUS
10
88.2405
20
-153.596
11
88.3357
21
-153.977
0
LINE
8
BLACK
6
CONTINUOUS
10
88.3357
20
-153.977
11
88.3357
21
-154.453
0
LINE
8
BLACK
6
CONTINUOUS
10
88.3357
20
-154.453
11
88.2405
21
-154.834
0
LINE
8
BLACK
6
CONTINUOUS
10
88.2405
20
-154.834
11
88.1452
21
-155.024
0
LINE
8
BLACK
6
CONTINUOUS
10
88.1452
20
-155.024
11
88.05
21
-155.12
0
LINE
8
BLACK
6
CONTINUOUS
10
88.05
20
-155.12
11
87.8595
21
-155.215
0
LINE
8
BLACK
6
CONTINUOUS
10
87.8595
20
-155.215
11
87.669
21
-155.215
0
LINE
8
BLACK
6
CONTINUOUS
10
87.669
20
-155.215
11
87.4786
21
-155.12
0
LINE
8
BLACK
6
CONTINUOUS
10
87.4786
20
-155.12
11
87.3833
21
-155.024
0
LINE
8
BLACK
6
CONTINUOUS
10
87.3833
20
-155.024
11
87.2881
21
-154.834
0
LINE
8
BLACK
6
CONTINUOUS
10
87.2881
20
-154.834
11
87.1929
21
-154.453
0
LINE
8
BLACK
6
CONTINUOUS
10
87.1929
20
-154.453
11
87.1929
21
-153.977
0
LINE
8
BLACK
6
CONTINUOUS
10
87.1929
20
-153.977
11
87.2881
21
-153.596
0
LINE
8
BLACK
6
CONTINUOUS
10
87.2881
20
-153.596
11
87.3833
21
-153.405
0
LINE
8
BLACK
6
CONTINUOUS
10
87.3833
20
-153.405
11
87.4786
21
-153.31
0
LINE
8
BLACK
6
CONTINUOUS
10
87.4786
20
-153.31
11
87.669
21
-153.215
0
LINE
8
BLACK
6
CONTINUOUS
10
89.5738
20
-153.215
11
89.7643
21
-153.215
0
LINE
8
BLACK
6
CONTINUOUS
10
89.7643
20
-153.215
11
89.9548
21
-153.31
0
LINE
8
BLACK
6
CONTINUOUS
10
89.9548
20
-153.31
11
90.05
21
-153.405
0
LINE
8
BLACK
6
CONTINUOUS
10
90.05
20
-153.405
11
90.1452
21
-153.596
0
LINE
8
BLACK
6
CONTINUOUS
10
90.1452
20
-153.596
11
90.2405
21
-153.977
0
LINE
8
BLACK
6
CONTINUOUS
10
90.2405
20
-153.977
11
90.2405
21
-154.453
0
LINE
8
BLACK
6
CONTINUOUS
10
90.2405
20
-154.453
11
90.1452
21
-154.834
0
LINE
8
BLACK
6
CONTINUOUS
10
90.1452
20
-154.834
11
90.05
21
-155.024
0
LINE
8
BLACK
6
CONTINUOUS
10
90.05
20
-155.024
11
89.9548
21
-155.12
0
LINE
8
BLACK
6
CONTINUOUS
10
89.9548
20
-155.12
11
89.7643
21
-155.215
0
LINE
8
BLACK
6
CONTINUOUS
10
89.7643
20
-155.215
11
89.5738
21
-155.215
0
LINE
8
BLACK
6
CONTINUOUS
10
89.5738
20
-155.215
11
89.3833
21
-155.12
0
LINE
8
BLACK
6
CONTINUOUS
10
89.3833
20
-155.12
11
89.2881
21
-155.024
0
LINE
8
BLACK
6
CONTINUOUS
10
89.2881
20
-155.024
11
89.1929
21
-154.834
0
LINE
8
BLACK
6
CONTINUOUS
10
89.1929
20
-154.834
11
89.0976
21
-154.453
0
LINE
8
BLACK
6
CONTINUOUS
10
89.0976
20
-154.453
11
89.0976
21
-153.977
0
LINE
8
BLACK
6
CONTINUOUS
10
89.0976
20
-153.977
11
89.1929
21
-153.596
0
LINE
8
BLACK
6
CONTINUOUS
10
89.1929
20
-153.596
11
89.2881
21
-153.405
0
LINE
8
BLACK
6
CONTINUOUS
10
89.2881
20
-153.405
11
89.3833
21
-153.31
0
LINE
8
BLACK
6
CONTINUOUS
10
89.3833
20
-153.31
11
89.5738
21
-153.215
0
LINE
8
BLACK
6
CONTINUOUS
10
91.0976
20
-155.215
11
91.0976
21
-153.881
0
LINE
8
BLACK
6
CONTINUOUS
10
91.0976
20
-154.072
11
91.1929
21
-153.977
0
LINE
8
BLACK
6
CONTINUOUS
10
91.1929
20
-153.977
11
91.3833
21
-153.881
0
LINE
8
BLACK
6
CONTINUOUS
10
91.3833
20
-153.881
11
91.669
21
-153.881
0
LINE
8
BLACK
6
CONTINUOUS
10
91.669
20
-153.881
11
91.8595
21
-153.977
0
LINE
8
BLACK
6
CONTINUOUS
10
91.8595
20
-153.977
11
91.9548
21
-154.167
0
LINE
8
BLACK
6
CONTINUOUS
10
91.9548
20
-154.167
11
91.9548
21
-155.215
0
LINE
8
BLACK
6
CONTINUOUS
10
91.9548
20
-154.167
11
92.05
21
-153.977
0
LINE
8
BLACK
6
CONTINUOUS
10
92.05
20
-153.977
11
92.2405
21
-153.881
0
LINE
8
BLACK
6
CONTINUOUS
10
92.2405
20
-153.881
11
92.5262
21
-153.881
0
LINE
8
BLACK
6
CONTINUOUS
10
92.5262
20
-153.881
11
92.7167
21
-153.977
0
LINE
8
BLACK
6
CONTINUOUS
10
92.7167
20
-153.977
11
92.8119
21
-154.167
0
LINE
8
BLACK
6
CONTINUOUS
10
92.8119
20
-154.167
11
92.8119
21
-155.215
0
LINE
8
BLACK
6
CONTINUOUS
10
93.7643
20
-155.215
11
93.7643
21
-153.881
0
LINE
8
BLACK
6
CONTINUOUS
10
93.7643
20
-154.072
11
93.8595
21
-153.977
0
LINE
8
BLACK
6
CONTINUOUS
10
93.8595
20
-153.977
11
94.05
21
-153.881
0
LINE
8
BLACK
6
CONTINUOUS
10
94.05
20
-153.881
11
94.3357
21
-153.881
0
LINE
8
BLACK
6
CONTINUOUS
10
94.3357
20
-153.881
11
94.5262
21
-153.977
0
LINE
8
BLACK
6
CONTINUOUS
10
94.5262
20
-153.977
11
94.6214
21
-154.167
0
LINE
8
BLACK
6
CONTINUOUS
10
94.6214
20
-154.167
11
94.6214
21
-155.215
0
LINE
8
BLACK
6
CONTINUOUS
10
94.6214
20
-154.167
11
94.7167
21
-153.977
0
LINE
8
BLACK
6
CONTINUOUS
10
94.7167
20
-153.977
11
94.9071
21
-153.881
0
LINE
8
BLACK
6
CONTINUOUS
10
94.9071
20
-153.881
11
95.1929
21
-153.881
0
LINE
8
BLACK
6
CONTINUOUS
10
95.1929
20
-153.881
11
95.3833
21
-153.977
0
LINE
8
BLACK
6
CONTINUOUS
10
95.3833
20
-153.977
11
95.4786
21
-154.167
0
LINE
8
BLACK
6
CONTINUOUS
10
95.4786
20
-154.167
11
95.4786
21
-155.215
0
LINE
8
BLACK
6
CONTINUOUS
10
99.3833
20
-153.12
11
97.669
21
-155.691
0
LINE
8
BLACK
6
CONTINUOUS
10
101.955
20
-153.215
11
102.145
21
-153.215
0
LINE
8
BLACK
6
CONTINUOUS
10
102.145
20
-153.215
11
102.336
21
-153.31
0
LINE
8
BLACK
6
CONTINUOUS
10
102.336
20
-153.31
11
102.431
21
-153.405
0
LINE
8
BLACK
6
CONTINUOUS
10
102.431
20
-153.405
11
102.526
21
-153.596
0
LINE
8
BLACK
6
CONTINUOUS
10
102.526
20
-153.596
11
102.621
21
-153.977
0
LINE
8
BLACK
6
CONTINUOUS
10
102.621
20
-153.977
11
102.621
21
-154.453
0
LINE
8
BLACK
6
CONTINUOUS
10
102.621
20
-154.453
11
102.526
21
-154.834
0
LINE
8
BLACK
6
CONTINUOUS
10
102.526
20
-154.834
11
102.431
21
-155.024
0
LINE
8
BLACK
6
CONTINUOUS
10
102.431
20
-155.024
11
102.336
21
-155.12
0
LINE
8
BLACK
6
CONTINUOUS
10
102.336
20
-155.12
11
102.145
21
-155.215
0
LINE
8
BLACK
6
CONTINUOUS
10
102.145
20
-155.215
11
101.955
21
-155.215
0
LINE
8
BLACK
6
CONTINUOUS
10
101.955
20
-155.215
11
101.764
21
-155.12
0
LINE
8
BLACK
6
CONTINUOUS
10
101.764
20
-155.12
11
101.669
21
-155.024
0
LINE
8
BLACK
6
CONTINUOUS
10
101.669
20
-155.024
11
101.574
21
-154.834
0
LINE
8
BLACK
6
CONTINUOUS
10
101.574
20
-154.834
11
101.479
21
-154.453
0
LINE
8
BLACK
6
CONTINUOUS
10
101.479
20
-154.453
11
101.479
21
-153.977
0
LINE
8
BLACK
6
CONTINUOUS
10
101.479
20
-153.977
11
101.574
21
-153.596
0
LINE
8
BLACK
6
CONTINUOUS
10
101.574
20
-153.596
11
101.669
21
-153.405
0
LINE
8
BLACK
6
CONTINUOUS
10
101.669
20
-153.405
11
101.764
21
-153.31
0
LINE
8
BLACK
6
CONTINUOUS
10
101.764
20
-153.31
11
101.955
21
-153.215
0
LINE
8
BLACK
6
CONTINUOUS
10
103.479
20
-155.024
11
103.574
21
-155.12
0
LINE
8
BLACK
6
CONTINUOUS
10
103.574
20
-155.12
11
103.479
21
-155.215
0
LINE
8
BLACK
6
CONTINUOUS
10
103.479
20
-155.215
11
103.383
21
-155.12
0
LINE
8
BLACK
6
CONTINUOUS
10
103.383
20
-155.12
11
103.479
21
-155.024
0
LINE
8
BLACK
6
CONTINUOUS
10
103.479
20
-155.024
11
103.479
21
-155.215
0
LINE
8
BLACK
6
CONTINUOUS
10
104.812
20
-153.215
11
105.002
21
-153.215
0
LINE
8
BLACK
6
CONTINUOUS
10
105.002
20
-153.215
11
105.193
21
-153.31
0
LINE
8
BLACK
6
CONTINUOUS
10
105.193
20
-153.31
11
105.288
21
-153.405
0
LINE
8
BLACK
6
CONTINUOUS
10
105.288
20
-153.405
11
105.383
21
-153.596
0
LINE
8
BLACK
6
CONTINUOUS
10
105.383
20
-153.596
11
105.479
21
-153.977
0
LINE
8
BLACK
6
CONTINUOUS
10
105.479
20
-153.977
11
105.479
21
-154.453
0
LINE
8
BLACK
6
CONTINUOUS
10
105.479
20
-154.453
11
105.383
21
-154.834
0
LINE
8
BLACK
6
CONTINUOUS
10
105.383
20
-154.834
11
105.288
21
-155.024
0
LINE
8
BLACK
6
CONTINUOUS
10
105.288
20
-155.024
11
105.193
21
-155.12
0
LINE
8
BLACK
6
CONTINUOUS
10
105.193
20
-155.12
11
105.002
21
-155.215
0
LINE
8
BLACK
6
CONTINUOUS
10
105.002
20
-155.215
11
104.812
21
-155.215
0
LINE
8
BLACK
6
CONTINUOUS
10
104.812
20
-155.215
11
104.621
21
-155.12
0
LINE
8
BLACK
6
CONTINUOUS
10
104.621
20
-155.12
11
104.526
21
-155.024
0
LINE
8
BLACK
6
CONTINUOUS
10
104.526
20
-155.024
11
104.431
21
-154.834
0
LINE
8
BLACK
6
CONTINUOUS
10
104.431
20
-154.834
11
104.336
21
-154.453
0
LINE
8
BLACK
6
CONTINUOUS
10
104.336
20
-154.453
11
104.336
21
-153.977
0
LINE
8
BLACK
6
CONTINUOUS
10
104.336
20
-153.977
11
104.431
21
-153.596
0
LINE
8
BLACK
6
CONTINUOUS
10
104.431
20
-153.596
11
104.526
21
-153.405
0
LINE
8
BLACK
6
CONTINUOUS
10
104.526
20
-153.405
11
104.621
21
-153.31
0
LINE
8
BLACK
6
CONTINUOUS
10
104.621
20
-153.31
11
104.812
21
-153.215
0
LINE
8
BLACK
6
CONTINUOUS
10
107.193
20
-153.881
11
107.193
21
-155.215
0
LINE
8
BLACK
6
CONTINUOUS
10
106.717
20
-153.12
11
106.24
21
-154.548
0
LINE
8
BLACK
6
CONTINUOUS
10
106.24
20
-154.548
11
107.479
21
-154.548
0
LINE
8
BLACK
6
CONTINUOUS
10
108.05
20
-153.215
11
109.288
21
-153.215
0
LINE
8
BLACK
6
CONTINUOUS
10
109.288
20
-153.215
11
108.621
21
-153.977
0
LINE
8
BLACK
6
CONTINUOUS
10
108.621
20
-153.977
11
108.907
21
-153.977
0
LINE
8
BLACK
6
CONTINUOUS
10
108.907
20
-153.977
11
109.098
21
-154.072
0
LINE
8
BLACK
6
CONTINUOUS
10
109.098
20
-154.072
11
109.193
21
-154.167
0
LINE
8
BLACK
6
CONTINUOUS
10
109.193
20
-154.167
11
109.288
21
-154.358
0
LINE
8
BLACK
6
CONTINUOUS
10
109.288
20
-154.358
11
109.288
21
-154.834
0
LINE
8
BLACK
6
CONTINUOUS
10
109.288
20
-154.834
11
109.193
21
-155.024
0
LINE
8
BLACK
6
CONTINUOUS
10
109.193
20
-155.024
11
109.098
21
-155.12
0
LINE
8
BLACK
6
CONTINUOUS
10
109.098
20
-155.12
11
108.907
21
-155.215
0
LINE
8
BLACK
6
CONTINUOUS
10
108.907
20
-155.215
11
108.336
21
-155.215
0
LINE
8
BLACK
6
CONTINUOUS
10
108.336
20
-155.215
11
108.145
21
-155.12
0
LINE
8
BLACK
6
CONTINUOUS
10
108.145
20
-155.12
11
108.05
21
-155.024
0
LINE
8
BLACK
6
CONTINUOUS
10
109.955
20
-153.215
11
111.193
21
-153.215
0
LINE
8
BLACK
6
CONTINUOUS
10
111.193
20
-153.215
11
110.526
21
-153.977
0
LINE
8
BLACK
6
CONTINUOUS
10
110.526
20
-153.977
11
110.812
21
-153.977
0
LINE
8
BLACK
6
CONTINUOUS
10
110.812
20
-153.977
11
111.002
21
-154.072
0
LINE
8
BLACK
6
CONTINUOUS
10
111.002
20
-154.072
11
111.098
21
-154.167
0
LINE
8
BLACK
6
CONTINUOUS
10
111.098
20
-154.167
11
111.193
21
-154.358
0
LINE
8
BLACK
6
CONTINUOUS
10
111.193
20
-154.358
11
111.193
21
-154.834
0
LINE
8
BLACK
6
CONTINUOUS
10
111.193
20
-154.834
11
111.098
21
-155.024
0
LINE
8
BLACK
6
CONTINUOUS
10
111.098
20
-155.024
11
111.002
21
-155.12
0
LINE
8
BLACK
6
CONTINUOUS
10
111.002
20
-155.12
11
110.812
21
-155.215
0
LINE
8
BLACK
6
CONTINUOUS
10
110.812
20
-155.215
11
110.24
21
-155.215
0
LINE
8
BLACK
6
CONTINUOUS
10
110.24
20
-155.215
11
110.05
21
-155.12
0
LINE
8
BLACK
6
CONTINUOUS
10
110.05
20
-155.12
11
109.955
21
-155.024
0
LINE
8
BLACK
6
CONTINUOUS
10
111.955
20
-153.215
11
111.955
21
-153.596
0
LINE
8
BLACK
6
CONTINUOUS
10
112.717
20
-153.215
11
112.717
21
-153.596
0
LINE
8
BLACK
6
CONTINUOUS
10
115.669
20
-155.977
11
115.574
21
-155.881
0
LINE
8
BLACK
6
CONTINUOUS
10
115.574
20
-155.881
11
115.383
21
-155.596
0
LINE
8
BLACK
6
CONTINUOUS
10
115.383
20
-155.596
11
115.288
21
-155.405
0
LINE
8
BLACK
6
CONTINUOUS
10
115.288
20
-155.405
11
115.193
21
-155.12
0
LINE
8
BLACK
6
CONTINUOUS
10
115.193
20
-155.12
11
115.098
21
-154.643
0
LINE
8
BLACK
6
CONTINUOUS
10
115.098
20
-154.643
11
115.098
21
-154.262
0
LINE
8
BLACK
6
CONTINUOUS
10
115.098
20
-154.262
11
115.193
21
-153.786
0
LINE
8
BLACK
6
CONTINUOUS
10
115.193
20
-153.786
11
115.288
21
-153.5
0
LINE
8
BLACK
6
CONTINUOUS
10
115.288
20
-153.5
11
115.383
21
-153.31
0
LINE
8
BLACK
6
CONTINUOUS
10
115.383
20
-153.31
11
115.574
21
-153.024
0
LINE
8
BLACK
6
CONTINUOUS
10
115.574
20
-153.024
11
115.669
21
-152.929
0
LINE
8
BLACK
6
CONTINUOUS
10
116.336
20
-153.405
11
116.431
21
-153.31
0
LINE
8
BLACK
6
CONTINUOUS
10
116.431
20
-153.31
11
116.621
21
-153.215
0
LINE
8
BLACK
6
CONTINUOUS
10
116.621
20
-153.215
11
117.098
21
-153.215
0
LINE
8
BLACK
6
CONTINUOUS
10
117.098
20
-153.215
11
117.288
21
-153.31
0
LINE
8
BLACK
6
CONTINUOUS
10
117.288
20
-153.31
11
117.383
21
-153.405
0
LINE
8
BLACK
6
CONTINUOUS
10
117.383
20
-153.405
11
117.479
21
-153.596
0
LINE
8
BLACK
6
CONTINUOUS
10
117.479
20
-153.596
11
117.479
21
-153.786
0
LINE
8
BLACK
6
CONTINUOUS
10
117.479
20
-153.786
11
117.383
21
-154.072
0
LINE
8
BLACK
6
CONTINUOUS
10
117.383
20
-154.072
11
116.24
21
-155.215
0
LINE
8
BLACK
6
CONTINUOUS
10
116.24
20
-155.215
11
117.479
21
-155.215
0
LINE
8
BLACK
6
CONTINUOUS
10
119.86
20
-155.215
11
119.86
21
-153.215
0
LINE
8
BLACK
6
CONTINUOUS
10
120.717
20
-155.215
11
120.717
21
-154.167
0
LINE
8
BLACK
6
CONTINUOUS
10
120.717
20
-154.167
11
120.621
21
-153.977
0
LINE
8
BLACK
6
CONTINUOUS
10
120.621
20
-153.977
11
120.431
21
-153.881
0
LINE
8
BLACK
6
CONTINUOUS
10
120.431
20
-153.881
11
120.145
21
-153.881
0
LINE
8
BLACK
6
CONTINUOUS
10
120.145
20
-153.881
11
119.955
21
-153.977
0
LINE
8
BLACK
6
CONTINUOUS
10
119.955
20
-153.977
11
119.86
21
-154.072
0
LINE
8
BLACK
6
CONTINUOUS
10
121.955
20
-155.215
11
121.764
21
-155.12
0
LINE
8
BLACK
6
CONTINUOUS
10
121.764
20
-155.12
11
121.669
21
-155.024
0
LINE
8
BLACK
6
CONTINUOUS
10
121.669
20
-155.024
11
121.574
21
-154.834
0
LINE
8
BLACK
6
CONTINUOUS
10
121.574
20
-154.834
11
121.574
21
-154.262
0
LINE
8
BLACK
6
CONTINUOUS
10
121.574
20
-154.262
11
121.669
21
-154.072
0
LINE
8
BLACK
6
CONTINUOUS
10
121.669
20
-154.072
11
121.764
21
-153.977
0
LINE
8
BLACK
6
CONTINUOUS
10
121.764
20
-153.977
11
121.955
21
-153.881
0
LINE
8
BLACK
6
CONTINUOUS
10
121.955
20
-153.881
11
122.24
21
-153.881
0
LINE
8
BLACK
6
CONTINUOUS
10
122.24
20
-153.881
11
122.431
21
-153.977
0
LINE
8
BLACK
6
CONTINUOUS
10
122.431
20
-153.977
11
122.526
21
-154.072
0
LINE
8
BLACK
6
CONTINUOUS
10
122.526
20
-154.072
11
122.621
21
-154.262
0
LINE
8
BLACK
6
CONTINUOUS
10
122.621
20
-154.262
11
122.621
21
-154.834
0
LINE
8
BLACK
6
CONTINUOUS
10
122.621
20
-154.834
11
122.526
21
-155.024
0
LINE
8
BLACK
6
CONTINUOUS
10
122.526
20
-155.024
11
122.431
21
-155.12
0
LINE
8
BLACK
6
CONTINUOUS
10
122.431
20
-155.12
11
122.24
21
-155.215
0
LINE
8
BLACK
6
CONTINUOUS
10
122.24
20
-155.215
11
121.955
21
-155.215
0
LINE
8
BLACK
6
CONTINUOUS
10
123.764
20
-155.215
11
123.574
21
-155.12
0
LINE
8
BLACK
6
CONTINUOUS
10
123.574
20
-155.12
11
123.479
21
-154.929
0
LINE
8
BLACK
6
CONTINUOUS
10
123.479
20
-154.929
11
123.479
21
-153.215
0
LINE
8
BLACK
6
CONTINUOUS
10
125.288
20
-155.12
11
125.098
21
-155.215
0
LINE
8
BLACK
6
CONTINUOUS
10
125.098
20
-155.215
11
124.717
21
-155.215
0
LINE
8
BLACK
6
CONTINUOUS
10
124.717
20
-155.215
11
124.526
21
-155.12
0
LINE
8
BLACK
6
CONTINUOUS
10
124.526
20
-155.12
11
124.431
21
-154.929
0
LINE
8
BLACK
6
CONTINUOUS
10
124.431
20
-154.929
11
124.431
21
-154.167
0
LINE
8
BLACK
6
CONTINUOUS
10
124.431
20
-154.167
11
124.526
21
-153.977
0
LINE
8
BLACK
6
CONTINUOUS
10
124.526
20
-153.977
11
124.717
21
-153.881
0
LINE
8
BLACK
6
CONTINUOUS
10
124.717
20
-153.881
11
125.098
21
-153.881
0
LINE
8
BLACK
6
CONTINUOUS
10
125.098
20
-153.881
11
125.288
21
-153.977
0
LINE
8
BLACK
6
CONTINUOUS
10
125.288
20
-153.977
11
125.383
21
-154.167
0
LINE
8
BLACK
6
CONTINUOUS
10
125.383
20
-154.167
11
125.383
21
-154.358
0
LINE
8
BLACK
6
CONTINUOUS
10
125.383
20
-154.358
11
124.431
21
-154.548
0
LINE
8
BLACK
6
CONTINUOUS
10
126.145
20
-155.12
11
126.336
21
-155.215
0
LINE
8
BLACK
6
CONTINUOUS
10
126.336
20
-155.215
11
126.717
21
-155.215
0
LINE
8
BLACK
6
CONTINUOUS
10
126.717
20
-155.215
11
126.907
21
-155.12
0
LINE
8
BLACK
6
CONTINUOUS
10
126.907
20
-155.12
11
127.002
21
-154.929
0
LINE
8
BLACK
6
CONTINUOUS
10
127.002
20
-154.929
11
127.002
21
-154.834
0
LINE
8
BLACK
6
CONTINUOUS
10
127.002
20
-154.834
11
126.907
21
-154.643
0
LINE
8
BLACK
6
CONTINUOUS
10
126.907
20
-154.643
11
126.717
21
-154.548
0
LINE
8
BLACK
6
CONTINUOUS
10
126.717
20
-154.548
11
126.431
21
-154.548
0
LINE
8
BLACK
6
CONTINUOUS
10
126.431
20
-154.548
11
126.24
21
-154.453
0
LINE
8
BLACK
6
CONTINUOUS
10
126.24
20
-154.453
11
126.145
21
-154.262
0
LINE
8
BLACK
6
CONTINUOUS
10
126.145
20
-154.262
11
126.145
21
-154.167
0
LINE
8
BLACK
6
CONTINUOUS
10
126.145
20
-154.167
11
126.24
21
-153.977
0
LINE
8
BLACK
6
CONTINUOUS
10
126.24
20
-153.977
11
126.431
21
-153.881
0
LINE
8
BLACK
6
CONTINUOUS
10
126.431
20
-153.881
11
126.717
21
-153.881
0
LINE
8
BLACK
6
CONTINUOUS
10
126.717
20
-153.881
11
126.907
21
-153.977
0
LINE
8
BLACK
6
CONTINUOUS
10
127.669
20
-155.977
11
127.764
21
-155.881
0
LINE
8
BLACK
6
CONTINUOUS
10
127.764
20
-155.881
11
127.955
21
-155.596
0
LINE
8
BLACK
6
CONTINUOUS
10
127.955
20
-155.596
11
128.05
21
-155.405
0
LINE
8
BLACK
6
CONTINUOUS
10
128.05
20
-155.405
11
128.145
21
-155.12
0
LINE
8
BLACK
6
CONTINUOUS
10
128.145
20
-155.12
11
128.24
21
-154.643
0
LINE
8
BLACK
6
CONTINUOUS
10
128.24
20
-154.643
11
128.24
21
-154.262
0
LINE
8
BLACK
6
CONTINUOUS
10
128.24
20
-154.262
11
128.145
21
-153.786
0
LINE
8
BLACK
6
CONTINUOUS
10
128.145
20
-153.786
11
128.05
21
-153.5
0
LINE
8
BLACK
6
CONTINUOUS
10
128.05
20
-153.5
11
127.955
21
-153.31
0
LINE
8
BLACK
6
CONTINUOUS
10
127.955
20
-153.31
11
127.764
21
-153.024
0
LINE
8
BLACK
6
CONTINUOUS
10
127.764
20
-153.024
11
127.669
21
-152.929
  0
ENDSEC
  0
EOF
