  0
SECTION
  2
HEADER
  9
$ANGBASE
  50
0.0
  9
$ANGDIR
  70
1
  9
$MEASUREMENT
  70
1
  0
ENDSEC
  0
SECTION
  2
TABLES
  0
TABLE
  2
LTYPE
  70
4
  0
LTYPE
  5
40F
  2
CONTINUOUS
  70
0
  3
Solid line
  72
65
  73
0
  40
0.0
  0
LTYPE
  5
410
  2
DASHDOT
 70
0
  3
Dash Dot ____ _ ____ _
 72
65
 73
4
 40
2.0
 49
1.25
 49
-0.25
 49
0.25
 49
-0.25
  0
LTYPE
  5
411
  2
DASHED
 70
0
  3
Dashed __ __ __ __ __
 72
65
 73
2
 40
0.75
 49
0.5
 49
-0.25
  0
LTYPE
  5
43B
  2
DOTTED
 70
0
  3
Dotted .  .  .  .
 72
65
 73
2
 40
0.2
 49
0.0
 49
-0.2
  0
ENDTAB
  0
TABLE
  2
STYLE
  70
4
  0
STYLE
  2
KICAD
  70
0
  40
0
  41
1
  42
1
  50
0
  71
0
  3
isocp.shx
  0
STYLE
  2
KICADB
  70
0
  40
0
  41
1
  42
1
  50
0
  71
0
  3
isocp.shx
  0
STYLE
  2
KICADI
  70
0
  40
0
  41
1
  42
1
  50
15
  71
0
  3
isocp.shx
  0
STYLE
  2
KICADBI
  70
0
  40
0
  41
1
  42
1
  50
15
  71
0
  3
isocp.shx
  0
ENDTAB
  0
TABLE
  2
LAYER
  70
1
  0
LAYER
  2
BLACK
  70
0
  62
7
  6
CONTINUOUS
  0
ENDTAB
  0
ENDSEC
  0
SECTION
  2
ENTITIES
0
LINE
8
BLACK
6
CONTINUOUS
10
212.4
20
-137.3
11
80
21
-137.3
0
LINE
8
BLACK
6
CONTINUOUS
10
212.3
20
-78.9
11
212.4
21
-137.3
0
LINE
8
BLACK
6
CONTINUOUS
10
80
20
-137.3
11
80
21
-79
0
LINE
8
BLACK
6
CONTINUOUS
10
80
20
-79
11
212.3
21
-78.9
0
LINE
8
BLACK
6
CONTINUOUS
10
117.675
20
-81.0475
11
120.525
21
-83.8975
0
LINE
8
BLACK
6
CONTINUOUS
10
120.525
20
-81.0475
11
117.675
21
-83.8975
0
LINE
8
BLACK
6
CONTINUOUS
10
119.055
20
-133.515
11
121.905
21
-136.365
0
LINE
8
BLACK
6
CONTINUOUS
10
121.905
20
-133.515
11
119.055
21
-136.365
0
LINE
8
BLACK
6
CONTINUOUS
10
207.675
20
-81.0475
11
210.525
21
-83.8975
0
LINE
8
BLACK
6
CONTINUOUS
10
210.525
20
-81.0475
11
207.675
21
-83.8975
0
LINE
8
BLACK
6
CONTINUOUS
10
207.955
20
-133.515
11
210.805
21
-136.365
0
LINE
8
BLACK
6
CONTINUOUS
10
210.805
20
-133.515
11
207.955
21
-136.365
0
LINE
8
BLACK
6
CONTINUOUS
10
82.5262
20
-140.455
11
82.5262
21
-138.455
0
LINE
8
BLACK
6
CONTINUOUS
10
82.5262
20
-138.455
11
83.0024
21
-138.455
0
LINE
8
BLACK
6
CONTINUOUS
10
83.0024
20
-138.455
11
83.2881
21
-138.55
0
LINE
8
BLACK
6
CONTINUOUS
10
83.2881
20
-138.55
11
83.4786
21
-138.74
0
LINE
8
BLACK
6
CONTINUOUS
10
83.4786
20
-138.74
11
83.5738
21
-138.931
0
LINE
8
BLACK
6
CONTINUOUS
10
83.5738
20
-138.931
11
83.669
21
-139.312
0
LINE
8
BLACK
6
CONTINUOUS
10
83.669
20
-139.312
11
83.669
21
-139.598
0
LINE
8
BLACK
6
CONTINUOUS
10
83.669
20
-139.598
11
83.5738
21
-139.979
0
LINE
8
BLACK
6
CONTINUOUS
10
83.5738
20
-139.979
11
83.4786
21
-140.169
0
LINE
8
BLACK
6
CONTINUOUS
10
83.4786
20
-140.169
11
83.2881
21
-140.36
0
LINE
8
BLACK
6
CONTINUOUS
10
83.2881
20
-140.36
11
83.0024
21
-140.455
0
LINE
8
BLACK
6
CONTINUOUS
10
83.0024
20
-140.455
11
82.5262
21
-140.455
0
LINE
8
BLACK
6
CONTINUOUS
10
84.5262
20
-140.455
11
84.5262
21
-139.121
0
LINE
8
BLACK
6
CONTINUOUS
10
84.5262
20
-139.502
11
84.6214
21
-139.312
0
LINE
8
BLACK
6
CONTINUOUS
10
84.6214
20
-139.312
11
84.7167
21
-139.217
0
LINE
8
BLACK
6
CONTINUOUS
10
84.7167
20
-139.217
11
84.9071
21
-139.121
0
LINE
8
BLACK
6
CONTINUOUS
10
84.9071
20
-139.121
11
85.0976
21
-139.121
0
LINE
8
BLACK
6
CONTINUOUS
10
85.7643
20
-140.455
11
85.7643
21
-139.121
0
LINE
8
BLACK
6
CONTINUOUS
10
85.7643
20
-138.455
11
85.669
21
-138.55
0
LINE
8
BLACK
6
CONTINUOUS
10
85.669
20
-138.55
11
85.7643
21
-138.645
0
LINE
8
BLACK
6
CONTINUOUS
10
85.7643
20
-138.645
11
85.8595
21
-138.55
0
LINE
8
BLACK
6
CONTINUOUS
10
85.8595
20
-138.55
11
85.7643
21
-138.455
0
LINE
8
BLACK
6
CONTINUOUS
10
85.7643
20
-138.455
11
85.7643
21
-138.645
0
LINE
8
BLACK
6
CONTINUOUS
10
87.0024
20
-140.455
11
86.8119
21
-140.36
0
LINE
8
BLACK
6
CONTINUOUS
10
86.8119
20
-140.36
11
86.7167
21
-140.169
0
LINE
8
BLACK
6
CONTINUOUS
10
86.7167
20
-140.169
11
86.7167
21
-138.455
0
LINE
8
BLACK
6
CONTINUOUS
10
88.05
20
-140.455
11
87.8595
21
-140.36
0
LINE
8
BLACK
6
CONTINUOUS
10
87.8595
20
-140.36
11
87.7643
21
-140.169
0
LINE
8
BLACK
6
CONTINUOUS
10
87.7643
20
-140.169
11
87.7643
21
-138.455
0
LINE
8
BLACK
6
CONTINUOUS
10
90.3357
20
-140.455
11
90.3357
21
-138.455
0
LINE
8
BLACK
6
CONTINUOUS
10
90.3357
20
-138.455
11
91.0024
21
-139.883
0
LINE
8
BLACK
6
CONTINUOUS
10
91.0024
20
-139.883
11
91.669
21
-138.455
0
LINE
8
BLACK
6
CONTINUOUS
10
91.669
20
-138.455
11
91.669
21
-140.455
0
LINE
8
BLACK
6
CONTINUOUS
10
93.4786
20
-140.455
11
93.4786
21
-139.407
0
LINE
8
BLACK
6
CONTINUOUS
10
93.4786
20
-139.407
11
93.3833
21
-139.217
0
LINE
8
BLACK
6
CONTINUOUS
10
93.3833
20
-139.217
11
93.1929
21
-139.121
0
LINE
8
BLACK
6
CONTINUOUS
10
93.1929
20
-139.121
11
92.8119
21
-139.121
0
LINE
8
BLACK
6
CONTINUOUS
10
92.8119
20
-139.121
11
92.6214
21
-139.217
0
LINE
8
BLACK
6
CONTINUOUS
10
93.4786
20
-140.36
11
93.2881
21
-140.455
0
LINE
8
BLACK
6
CONTINUOUS
10
93.2881
20
-140.455
11
92.8119
21
-140.455
0
LINE
8
BLACK
6
CONTINUOUS
10
92.8119
20
-140.455
11
92.6214
21
-140.36
0
LINE
8
BLACK
6
CONTINUOUS
10
92.6214
20
-140.36
11
92.5262
21
-140.169
0
LINE
8
BLACK
6
CONTINUOUS
10
92.5262
20
-140.169
11
92.5262
21
-139.979
0
LINE
8
BLACK
6
CONTINUOUS
10
92.5262
20
-139.979
11
92.6214
21
-139.788
0
LINE
8
BLACK
6
CONTINUOUS
10
92.6214
20
-139.788
11
92.8119
21
-139.693
0
LINE
8
BLACK
6
CONTINUOUS
10
92.8119
20
-139.693
11
93.2881
21
-139.693
0
LINE
8
BLACK
6
CONTINUOUS
10
93.2881
20
-139.693
11
93.4786
21
-139.598
0
LINE
8
BLACK
6
CONTINUOUS
10
94.431
20
-139.121
11
94.431
21
-141.121
0
LINE
8
BLACK
6
CONTINUOUS
10
94.431
20
-139.217
11
94.6214
21
-139.121
0
LINE
8
BLACK
6
CONTINUOUS
10
94.6214
20
-139.121
11
95.0024
21
-139.121
0
LINE
8
BLACK
6
CONTINUOUS
10
95.0024
20
-139.121
11
95.1929
21
-139.217
0
LINE
8
BLACK
6
CONTINUOUS
10
95.1929
20
-139.217
11
95.2881
21
-139.312
0
LINE
8
BLACK
6
CONTINUOUS
10
95.2881
20
-139.312
11
95.3833
21
-139.502
0
LINE
8
BLACK
6
CONTINUOUS
10
95.3833
20
-139.502
11
95.3833
21
-140.074
0
LINE
8
BLACK
6
CONTINUOUS
10
95.3833
20
-140.074
11
95.2881
21
-140.264
0
LINE
8
BLACK
6
CONTINUOUS
10
95.2881
20
-140.264
11
95.1929
21
-140.36
0
LINE
8
BLACK
6
CONTINUOUS
10
95.1929
20
-140.36
11
95.0024
21
-140.455
0
LINE
8
BLACK
6
CONTINUOUS
10
95.0024
20
-140.455
11
94.6214
21
-140.455
0
LINE
8
BLACK
6
CONTINUOUS
10
94.6214
20
-140.455
11
94.431
21
-140.36
0
LINE
8
BLACK
6
CONTINUOUS
10
96.2405
20
-140.264
11
96.3357
21
-140.36
0
LINE
8
BLACK
6
CONTINUOUS
10
96.3357
20
-140.36
11
96.2405
21
-140.455
0
LINE
8
BLACK
6
CONTINUOUS
10
96.2405
20
-140.455
11
96.1452
21
-140.36
0
LINE
8
BLACK
6
CONTINUOUS
10
96.1452
20
-140.36
11
96.2405
21
-140.264
0
LINE
8
BLACK
6
CONTINUOUS
10
96.2405
20
-140.264
11
96.2405
21
-140.455
0
LINE
8
BLACK
6
CONTINUOUS
10
96.2405
20
-139.217
11
96.3357
21
-139.312
0
LINE
8
BLACK
6
CONTINUOUS
10
96.3357
20
-139.312
11
96.2405
21
-139.407
0
LINE
8
BLACK
6
CONTINUOUS
10
96.2405
20
-139.407
11
96.1452
21
-139.312
0
LINE
8
BLACK
6
CONTINUOUS
10
96.1452
20
-139.312
11
96.2405
21
-139.217
0
LINE
8
BLACK
6
CONTINUOUS
10
96.2405
20
-139.217
11
96.2405
21
-139.407
0
LINE
8
BLACK
6
CONTINUOUS
10
77.95
20
-142.75
11
79.95
21
-144.75
0
LINE
8
BLACK
6
CONTINUOUS
10
79.95
20
-142.75
11
77.95
21
-144.75
0
LINE
8
BLACK
6
CONTINUOUS
10
82.431
20
-142.845
11
82.5262
21
-142.75
0
LINE
8
BLACK
6
CONTINUOUS
10
82.5262
20
-142.75
11
82.7167
21
-142.655
0
LINE
8
BLACK
6
CONTINUOUS
10
82.7167
20
-142.655
11
83.1929
21
-142.655
0
LINE
8
BLACK
6
CONTINUOUS
10
83.1929
20
-142.655
11
83.3833
21
-142.75
0
LINE
8
BLACK
6
CONTINUOUS
10
83.3833
20
-142.75
11
83.4786
21
-142.845
0
LINE
8
BLACK
6
CONTINUOUS
10
83.4786
20
-142.845
11
83.5738
21
-143.036
0
LINE
8
BLACK
6
CONTINUOUS
10
83.5738
20
-143.036
11
83.5738
21
-143.226
0
LINE
8
BLACK
6
CONTINUOUS
10
83.5738
20
-143.226
11
83.4786
21
-143.512
0
LINE
8
BLACK
6
CONTINUOUS
10
83.4786
20
-143.512
11
82.3357
21
-144.655
0
LINE
8
BLACK
6
CONTINUOUS
10
82.3357
20
-144.655
11
83.5738
21
-144.655
0
LINE
8
BLACK
6
CONTINUOUS
10
84.431
20
-144.464
11
84.5262
21
-144.56
0
LINE
8
BLACK
6
CONTINUOUS
10
84.5262
20
-144.56
11
84.431
21
-144.655
0
LINE
8
BLACK
6
CONTINUOUS
10
84.431
20
-144.655
11
84.3357
21
-144.56
0
LINE
8
BLACK
6
CONTINUOUS
10
84.3357
20
-144.56
11
84.431
21
-144.464
0
LINE
8
BLACK
6
CONTINUOUS
10
84.431
20
-144.464
11
84.431
21
-144.655
0
LINE
8
BLACK
6
CONTINUOUS
10
85.669
20
-143.512
11
85.4786
21
-143.417
0
LINE
8
BLACK
6
CONTINUOUS
10
85.4786
20
-143.417
11
85.3833
21
-143.321
0
LINE
8
BLACK
6
CONTINUOUS
10
85.3833
20
-143.321
11
85.2881
21
-143.131
0
LINE
8
BLACK
6
CONTINUOUS
10
85.2881
20
-143.131
11
85.2881
21
-143.036
0
LINE
8
BLACK
6
CONTINUOUS
10
85.2881
20
-143.036
11
85.3833
21
-142.845
0
LINE
8
BLACK
6
CONTINUOUS
10
85.3833
20
-142.845
11
85.4786
21
-142.75
0
LINE
8
BLACK
6
CONTINUOUS
10
85.4786
20
-142.75
11
85.669
21
-142.655
0
LINE
8
BLACK
6
CONTINUOUS
10
85.669
20
-142.655
11
86.05
21
-142.655
0
LINE
8
BLACK
6
CONTINUOUS
10
86.05
20
-142.655
11
86.2405
21
-142.75
0
LINE
8
BLACK
6
CONTINUOUS
10
86.2405
20
-142.75
11
86.3357
21
-142.845
0
LINE
8
BLACK
6
CONTINUOUS
10
86.3357
20
-142.845
11
86.431
21
-143.036
0
LINE
8
BLACK
6
CONTINUOUS
10
86.431
20
-143.036
11
86.431
21
-143.131
0
LINE
8
BLACK
6
CONTINUOUS
10
86.431
20
-143.131
11
86.3357
21
-143.321
0
LINE
8
BLACK
6
CONTINUOUS
10
86.3357
20
-143.321
11
86.2405
21
-143.417
0
LINE
8
BLACK
6
CONTINUOUS
10
86.2405
20
-143.417
11
86.05
21
-143.512
0
LINE
8
BLACK
6
CONTINUOUS
10
86.05
20
-143.512
11
85.669
21
-143.512
0
LINE
8
BLACK
6
CONTINUOUS
10
85.669
20
-143.512
11
85.4786
21
-143.607
0
LINE
8
BLACK
6
CONTINUOUS
10
85.4786
20
-143.607
11
85.3833
21
-143.702
0
LINE
8
BLACK
6
CONTINUOUS
10
85.3833
20
-143.702
11
85.2881
21
-143.893
0
LINE
8
BLACK
6
CONTINUOUS
10
85.2881
20
-143.893
11
85.2881
21
-144.274
0
LINE
8
BLACK
6
CONTINUOUS
10
85.2881
20
-144.274
11
85.3833
21
-144.464
0
LINE
8
BLACK
6
CONTINUOUS
10
85.3833
20
-144.464
11
85.4786
21
-144.56
0
LINE
8
BLACK
6
CONTINUOUS
10
85.4786
20
-144.56
11
85.669
21
-144.655
0
LINE
8
BLACK
6
CONTINUOUS
10
85.669
20
-144.655
11
86.05
21
-144.655
0
LINE
8
BLACK
6
CONTINUOUS
10
86.05
20
-144.655
11
86.2405
21
-144.56
0
LINE
8
BLACK
6
CONTINUOUS
10
86.2405
20
-144.56
11
86.3357
21
-144.464
0
LINE
8
BLACK
6
CONTINUOUS
10
86.3357
20
-144.464
11
86.431
21
-144.274
0
LINE
8
BLACK
6
CONTINUOUS
10
86.431
20
-144.274
11
86.431
21
-143.893
0
LINE
8
BLACK
6
CONTINUOUS
10
86.431
20
-143.893
11
86.3357
21
-143.702
0
LINE
8
BLACK
6
CONTINUOUS
10
86.3357
20
-143.702
11
86.2405
21
-143.607
0
LINE
8
BLACK
6
CONTINUOUS
10
86.2405
20
-143.607
11
86.05
21
-143.512
0
LINE
8
BLACK
6
CONTINUOUS
10
88.2405
20
-142.655
11
87.2881
21
-142.655
0
LINE
8
BLACK
6
CONTINUOUS
10
87.2881
20
-142.655
11
87.1929
21
-143.607
0
LINE
8
BLACK
6
CONTINUOUS
10
87.1929
20
-143.607
11
87.2881
21
-143.512
0
LINE
8
BLACK
6
CONTINUOUS
10
87.2881
20
-143.512
11
87.4786
21
-143.417
0
LINE
8
BLACK
6
CONTINUOUS
10
87.4786
20
-143.417
11
87.9548
21
-143.417
0
LINE
8
BLACK
6
CONTINUOUS
10
87.9548
20
-143.417
11
88.1452
21
-143.512
0
LINE
8
BLACK
6
CONTINUOUS
10
88.1452
20
-143.512
11
88.2405
21
-143.607
0
LINE
8
BLACK
6
CONTINUOUS
10
88.2405
20
-143.607
11
88.3357
21
-143.798
0
LINE
8
BLACK
6
CONTINUOUS
10
88.3357
20
-143.798
11
88.3357
21
-144.274
0
LINE
8
BLACK
6
CONTINUOUS
10
88.3357
20
-144.274
11
88.2405
21
-144.464
0
LINE
8
BLACK
6
CONTINUOUS
10
88.2405
20
-144.464
11
88.1452
21
-144.56
0
LINE
8
BLACK
6
CONTINUOUS
10
88.1452
20
-144.56
11
87.9548
21
-144.655
0
LINE
8
BLACK
6
CONTINUOUS
10
87.9548
20
-144.655
11
87.4786
21
-144.655
0
LINE
8
BLACK
6
CONTINUOUS
10
87.4786
20
-144.655
11
87.2881
21
-144.56
0
LINE
8
BLACK
6
CONTINUOUS
10
87.2881
20
-144.56
11
87.1929
21
-144.464
0
LINE
8
BLACK
6
CONTINUOUS
10
89.5738
20
-142.655
11
89.7643
21
-142.655
0
LINE
8
BLACK
6
CONTINUOUS
10
89.7643
20
-142.655
11
89.9548
21
-142.75
0
LINE
8
BLACK
6
CONTINUOUS
10
89.9548
20
-142.75
11
90.05
21
-142.845
0
LINE
8
BLACK
6
CONTINUOUS
10
90.05
20
-142.845
11
90.1452
21
-143.036
0
LINE
8
BLACK
6
CONTINUOUS
10
90.1452
20
-143.036
11
90.2405
21
-143.417
0
LINE
8
BLACK
6
CONTINUOUS
10
90.2405
20
-143.417
11
90.2405
21
-143.893
0
LINE
8
BLACK
6
CONTINUOUS
10
90.2405
20
-143.893
11
90.1452
21
-144.274
0
LINE
8
BLACK
6
CONTINUOUS
10
90.1452
20
-144.274
11
90.05
21
-144.464
0
LINE
8
BLACK
6
CONTINUOUS
10
90.05
20
-144.464
11
89.9548
21
-144.56
0
LINE
8
BLACK
6
CONTINUOUS
10
89.9548
20
-144.56
11
89.7643
21
-144.655
0
LINE
8
BLACK
6
CONTINUOUS
10
89.7643
20
-144.655
11
89.5738
21
-144.655
0
LINE
8
BLACK
6
CONTINUOUS
10
89.5738
20
-144.655
11
89.3833
21
-144.56
0
LINE
8
BLACK
6
CONTINUOUS
10
89.3833
20
-144.56
11
89.2881
21
-144.464
0
LINE
8
BLACK
6
CONTINUOUS
10
89.2881
20
-144.464
11
89.1929
21
-144.274
0
LINE
8
BLACK
6
CONTINUOUS
10
89.1929
20
-144.274
11
89.0976
21
-143.893
0
LINE
8
BLACK
6
CONTINUOUS
10
89.0976
20
-143.893
11
89.0976
21
-143.417
0
LINE
8
BLACK
6
CONTINUOUS
10
89.0976
20
-143.417
11
89.1929
21
-143.036
0
LINE
8
BLACK
6
CONTINUOUS
10
89.1929
20
-143.036
11
89.2881
21
-142.845
0
LINE
8
BLACK
6
CONTINUOUS
10
89.2881
20
-142.845
11
89.3833
21
-142.75
0
LINE
8
BLACK
6
CONTINUOUS
10
89.3833
20
-142.75
11
89.5738
21
-142.655
0
LINE
8
BLACK
6
CONTINUOUS
10
91.0976
20
-144.655
11
91.0976
21
-143.321
0
LINE
8
BLACK
6
CONTINUOUS
10
91.0976
20
-143.512
11
91.1929
21
-143.417
0
LINE
8
BLACK
6
CONTINUOUS
10
91.1929
20
-143.417
11
91.3833
21
-143.321
0
LINE
8
BLACK
6
CONTINUOUS
10
91.3833
20
-143.321
11
91.669
21
-143.321
0
LINE
8
BLACK
6
CONTINUOUS
10
91.669
20
-143.321
11
91.8595
21
-143.417
0
LINE
8
BLACK
6
CONTINUOUS
10
91.8595
20
-143.417
11
91.9548
21
-143.607
0
LINE
8
BLACK
6
CONTINUOUS
10
91.9548
20
-143.607
11
91.9548
21
-144.655
0
LINE
8
BLACK
6
CONTINUOUS
10
91.9548
20
-143.607
11
92.05
21
-143.417
0
LINE
8
BLACK
6
CONTINUOUS
10
92.05
20
-143.417
11
92.2405
21
-143.321
0
LINE
8
BLACK
6
CONTINUOUS
10
92.2405
20
-143.321
11
92.5262
21
-143.321
0
LINE
8
BLACK
6
CONTINUOUS
10
92.5262
20
-143.321
11
92.7167
21
-143.417
0
LINE
8
BLACK
6
CONTINUOUS
10
92.7167
20
-143.417
11
92.8119
21
-143.607
0
LINE
8
BLACK
6
CONTINUOUS
10
92.8119
20
-143.607
11
92.8119
21
-144.655
0
LINE
8
BLACK
6
CONTINUOUS
10
93.7643
20
-144.655
11
93.7643
21
-143.321
0
LINE
8
BLACK
6
CONTINUOUS
10
93.7643
20
-143.512
11
93.8595
21
-143.417
0
LINE
8
BLACK
6
CONTINUOUS
10
93.8595
20
-143.417
11
94.05
21
-143.321
0
LINE
8
BLACK
6
CONTINUOUS
10
94.05
20
-143.321
11
94.3357
21
-143.321
0
LINE
8
BLACK
6
CONTINUOUS
10
94.3357
20
-143.321
11
94.5262
21
-143.417
0
LINE
8
BLACK
6
CONTINUOUS
10
94.5262
20
-143.417
11
94.6214
21
-143.607
0
LINE
8
BLACK
6
CONTINUOUS
10
94.6214
20
-143.607
11
94.6214
21
-144.655
0
LINE
8
BLACK
6
CONTINUOUS
10
94.6214
20
-143.607
11
94.7167
21
-143.417
0
LINE
8
BLACK
6
CONTINUOUS
10
94.7167
20
-143.417
11
94.9071
21
-143.321
0
LINE
8
BLACK
6
CONTINUOUS
10
94.9071
20
-143.321
11
95.1929
21
-143.321
0
LINE
8
BLACK
6
CONTINUOUS
10
95.1929
20
-143.321
11
95.3833
21
-143.417
0
LINE
8
BLACK
6
CONTINUOUS
10
95.3833
20
-143.417
11
95.4786
21
-143.607
0
LINE
8
BLACK
6
CONTINUOUS
10
95.4786
20
-143.607
11
95.4786
21
-144.655
0
LINE
8
BLACK
6
CONTINUOUS
10
99.3833
20
-142.56
11
97.669
21
-145.131
0
LINE
8
BLACK
6
CONTINUOUS
10
101.955
20
-142.655
11
102.145
21
-142.655
0
LINE
8
BLACK
6
CONTINUOUS
10
102.145
20
-142.655
11
102.336
21
-142.75
0
LINE
8
BLACK
6
CONTINUOUS
10
102.336
20
-142.75
11
102.431
21
-142.845
0
LINE
8
BLACK
6
CONTINUOUS
10
102.431
20
-142.845
11
102.526
21
-143.036
0
LINE
8
BLACK
6
CONTINUOUS
10
102.526
20
-143.036
11
102.621
21
-143.417
0
LINE
8
BLACK
6
CONTINUOUS
10
102.621
20
-143.417
11
102.621
21
-143.893
0
LINE
8
BLACK
6
CONTINUOUS
10
102.621
20
-143.893
11
102.526
21
-144.274
0
LINE
8
BLACK
6
CONTINUOUS
10
102.526
20
-144.274
11
102.431
21
-144.464
0
LINE
8
BLACK
6
CONTINUOUS
10
102.431
20
-144.464
11
102.336
21
-144.56
0
LINE
8
BLACK
6
CONTINUOUS
10
102.336
20
-144.56
11
102.145
21
-144.655
0
LINE
8
BLACK
6
CONTINUOUS
10
102.145
20
-144.655
11
101.955
21
-144.655
0
LINE
8
BLACK
6
CONTINUOUS
10
101.955
20
-144.655
11
101.764
21
-144.56
0
LINE
8
BLACK
6
CONTINUOUS
10
101.764
20
-144.56
11
101.669
21
-144.464
0
LINE
8
BLACK
6
CONTINUOUS
10
101.669
20
-144.464
11
101.574
21
-144.274
0
LINE
8
BLACK
6
CONTINUOUS
10
101.574
20
-144.274
11
101.479
21
-143.893
0
LINE
8
BLACK
6
CONTINUOUS
10
101.479
20
-143.893
11
101.479
21
-143.417
0
LINE
8
BLACK
6
CONTINUOUS
10
101.479
20
-143.417
11
101.574
21
-143.036
0
LINE
8
BLACK
6
CONTINUOUS
10
101.574
20
-143.036
11
101.669
21
-142.845
0
LINE
8
BLACK
6
CONTINUOUS
10
101.669
20
-142.845
11
101.764
21
-142.75
0
LINE
8
BLACK
6
CONTINUOUS
10
101.764
20
-142.75
11
101.955
21
-142.655
0
LINE
8
BLACK
6
CONTINUOUS
10
103.479
20
-144.464
11
103.574
21
-144.56
0
LINE
8
BLACK
6
CONTINUOUS
10
103.574
20
-144.56
11
103.479
21
-144.655
0
LINE
8
BLACK
6
CONTINUOUS
10
103.479
20
-144.655
11
103.383
21
-144.56
0
LINE
8
BLACK
6
CONTINUOUS
10
103.383
20
-144.56
11
103.479
21
-144.464
0
LINE
8
BLACK
6
CONTINUOUS
10
103.479
20
-144.464
11
103.479
21
-144.655
0
LINE
8
BLACK
6
CONTINUOUS
10
105.479
20
-144.655
11
104.336
21
-144.655
0
LINE
8
BLACK
6
CONTINUOUS
10
104.907
20
-144.655
11
104.907
21
-142.655
0
LINE
8
BLACK
6
CONTINUOUS
10
104.907
20
-142.655
11
104.717
21
-142.94
0
LINE
8
BLACK
6
CONTINUOUS
10
104.717
20
-142.94
11
104.526
21
-143.131
0
LINE
8
BLACK
6
CONTINUOUS
10
104.526
20
-143.131
11
104.336
21
-143.226
0
LINE
8
BLACK
6
CONTINUOUS
10
107.383
20
-144.655
11
106.24
21
-144.655
0
LINE
8
BLACK
6
CONTINUOUS
10
106.812
20
-144.655
11
106.812
21
-142.655
0
LINE
8
BLACK
6
CONTINUOUS
10
106.812
20
-142.655
11
106.621
21
-142.94
0
LINE
8
BLACK
6
CONTINUOUS
10
106.621
20
-142.94
11
106.431
21
-143.131
0
LINE
8
BLACK
6
CONTINUOUS
10
106.431
20
-143.131
11
106.24
21
-143.226
0
LINE
8
BLACK
6
CONTINUOUS
10
108.145
20
-142.845
11
108.24
21
-142.75
0
LINE
8
BLACK
6
CONTINUOUS
10
108.24
20
-142.75
11
108.431
21
-142.655
0
LINE
8
BLACK
6
CONTINUOUS
10
108.431
20
-142.655
11
108.907
21
-142.655
0
LINE
8
BLACK
6
CONTINUOUS
10
108.907
20
-142.655
11
109.098
21
-142.75
0
LINE
8
BLACK
6
CONTINUOUS
10
109.098
20
-142.75
11
109.193
21
-142.845
0
LINE
8
BLACK
6
CONTINUOUS
10
109.193
20
-142.845
11
109.288
21
-143.036
0
LINE
8
BLACK
6
CONTINUOUS
10
109.288
20
-143.036
11
109.288
21
-143.226
0
LINE
8
BLACK
6
CONTINUOUS
10
109.288
20
-143.226
11
109.193
21
-143.512
0
LINE
8
BLACK
6
CONTINUOUS
10
109.193
20
-143.512
11
108.05
21
-144.655
0
LINE
8
BLACK
6
CONTINUOUS
10
108.05
20
-144.655
11
109.288
21
-144.655
0
LINE
8
BLACK
6
CONTINUOUS
10
110.05
20
-142.845
11
110.145
21
-142.75
0
LINE
8
BLACK
6
CONTINUOUS
10
110.145
20
-142.75
11
110.336
21
-142.655
0
LINE
8
BLACK
6
CONTINUOUS
10
110.336
20
-142.655
11
110.812
21
-142.655
0
LINE
8
BLACK
6
CONTINUOUS
10
110.812
20
-142.655
11
111.002
21
-142.75
0
LINE
8
BLACK
6
CONTINUOUS
10
111.002
20
-142.75
11
111.098
21
-142.845
0
LINE
8
BLACK
6
CONTINUOUS
10
111.098
20
-142.845
11
111.193
21
-143.036
0
LINE
8
BLACK
6
CONTINUOUS
10
111.193
20
-143.036
11
111.193
21
-143.226
0
LINE
8
BLACK
6
CONTINUOUS
10
111.193
20
-143.226
11
111.098
21
-143.512
0
LINE
8
BLACK
6
CONTINUOUS
10
111.098
20
-143.512
11
109.955
21
-144.655
0
LINE
8
BLACK
6
CONTINUOUS
10
109.955
20
-144.655
11
111.193
21
-144.655
0
LINE
8
BLACK
6
CONTINUOUS
10
111.955
20
-142.655
11
111.955
21
-143.036
0
LINE
8
BLACK
6
CONTINUOUS
10
112.717
20
-142.655
11
112.717
21
-143.036
0
LINE
8
BLACK
6
CONTINUOUS
10
115.669
20
-145.417
11
115.574
21
-145.321
0
LINE
8
BLACK
6
CONTINUOUS
10
115.574
20
-145.321
11
115.383
21
-145.036
0
LINE
8
BLACK
6
CONTINUOUS
10
115.383
20
-145.036
11
115.288
21
-144.845
0
LINE
8
BLACK
6
CONTINUOUS
10
115.288
20
-144.845
11
115.193
21
-144.56
0
LINE
8
BLACK
6
CONTINUOUS
10
115.193
20
-144.56
11
115.098
21
-144.083
0
LINE
8
BLACK
6
CONTINUOUS
10
115.098
20
-144.083
11
115.098
21
-143.702
0
LINE
8
BLACK
6
CONTINUOUS
10
115.098
20
-143.702
11
115.193
21
-143.226
0
LINE
8
BLACK
6
CONTINUOUS
10
115.193
20
-143.226
11
115.288
21
-142.94
0
LINE
8
BLACK
6
CONTINUOUS
10
115.288
20
-142.94
11
115.383
21
-142.75
0
LINE
8
BLACK
6
CONTINUOUS
10
115.383
20
-142.75
11
115.574
21
-142.464
0
LINE
8
BLACK
6
CONTINUOUS
10
115.574
20
-142.464
11
115.669
21
-142.369
0
LINE
8
BLACK
6
CONTINUOUS
10
117.288
20
-143.321
11
117.288
21
-144.655
0
LINE
8
BLACK
6
CONTINUOUS
10
116.812
20
-142.56
11
116.336
21
-143.988
0
LINE
8
BLACK
6
CONTINUOUS
10
116.336
20
-143.988
11
117.574
21
-143.988
0
LINE
8
BLACK
6
CONTINUOUS
10
119.86
20
-144.655
11
119.86
21
-142.655
0
LINE
8
BLACK
6
CONTINUOUS
10
120.717
20
-144.655
11
120.717
21
-143.607
0
LINE
8
BLACK
6
CONTINUOUS
10
120.717
20
-143.607
11
120.621
21
-143.417
0
LINE
8
BLACK
6
CONTINUOUS
10
120.621
20
-143.417
11
120.431
21
-143.321
0
LINE
8
BLACK
6
CONTINUOUS
10
120.431
20
-143.321
11
120.145
21
-143.321
0
LINE
8
BLACK
6
CONTINUOUS
10
120.145
20
-143.321
11
119.955
21
-143.417
0
LINE
8
BLACK
6
CONTINUOUS
10
119.955
20
-143.417
11
119.86
21
-143.512
0
LINE
8
BLACK
6
CONTINUOUS
10
121.955
20
-144.655
11
121.764
21
-144.56
0
LINE
8
BLACK
6
CONTINUOUS
10
121.764
20
-144.56
11
121.669
21
-144.464
0
LINE
8
BLACK
6
CONTINUOUS
10
121.669
20
-144.464
11
121.574
21
-144.274
0
LINE
8
BLACK
6
CONTINUOUS
10
121.574
20
-144.274
11
121.574
21
-143.702
0
LINE
8
BLACK
6
CONTINUOUS
10
121.574
20
-143.702
11
121.669
21
-143.512
0
LINE
8
BLACK
6
CONTINUOUS
10
121.669
20
-143.512
11
121.764
21
-143.417
0
LINE
8
BLACK
6
CONTINUOUS
10
121.764
20
-143.417
11
121.955
21
-143.321
0
LINE
8
BLACK
6
CONTINUOUS
10
121.955
20
-143.321
11
122.24
21
-143.321
0
LINE
8
BLACK
6
CONTINUOUS
10
122.24
20
-143.321
11
122.431
21
-143.417
0
LINE
8
BLACK
6
CONTINUOUS
10
122.431
20
-143.417
11
122.526
21
-143.512
0
LINE
8
BLACK
6
CONTINUOUS
10
122.526
20
-143.512
11
122.621
21
-143.702
0
LINE
8
BLACK
6
CONTINUOUS
10
122.621
20
-143.702
11
122.621
21
-144.274
0
LINE
8
BLACK
6
CONTINUOUS
10
122.621
20
-144.274
11
122.526
21
-144.464
0
LINE
8
BLACK
6
CONTINUOUS
10
122.526
20
-144.464
11
122.431
21
-144.56
0
LINE
8
BLACK
6
CONTINUOUS
10
122.431
20
-144.56
11
122.24
21
-144.655
0
LINE
8
BLACK
6
CONTINUOUS
10
122.24
20
-144.655
11
121.955
21
-144.655
0
LINE
8
BLACK
6
CONTINUOUS
10
123.764
20
-144.655
11
123.574
21
-144.56
0
LINE
8
BLACK
6
CONTINUOUS
10
123.574
20
-144.56
11
123.479
21
-144.369
0
LINE
8
BLACK
6
CONTINUOUS
10
123.479
20
-144.369
11
123.479
21
-142.655
0
LINE
8
BLACK
6
CONTINUOUS
10
125.288
20
-144.56
11
125.098
21
-144.655
0
LINE
8
BLACK
6
CONTINUOUS
10
125.098
20
-144.655
11
124.717
21
-144.655
0
LINE
8
BLACK
6
CONTINUOUS
10
124.717
20
-144.655
11
124.526
21
-144.56
0
LINE
8
BLACK
6
CONTINUOUS
10
124.526
20
-144.56
11
124.431
21
-144.369
0
LINE
8
BLACK
6
CONTINUOUS
10
124.431
20
-144.369
11
124.431
21
-143.607
0
LINE
8
BLACK
6
CONTINUOUS
10
124.431
20
-143.607
11
124.526
21
-143.417
0
LINE
8
BLACK
6
CONTINUOUS
10
124.526
20
-143.417
11
124.717
21
-143.321
0
LINE
8
BLACK
6
CONTINUOUS
10
124.717
20
-143.321
11
125.098
21
-143.321
0
LINE
8
BLACK
6
CONTINUOUS
10
125.098
20
-143.321
11
125.288
21
-143.417
0
LINE
8
BLACK
6
CONTINUOUS
10
125.288
20
-143.417
11
125.383
21
-143.607
0
LINE
8
BLACK
6
CONTINUOUS
10
125.383
20
-143.607
11
125.383
21
-143.798
0
LINE
8
BLACK
6
CONTINUOUS
10
125.383
20
-143.798
11
124.431
21
-143.988
0
LINE
8
BLACK
6
CONTINUOUS
10
126.145
20
-144.56
11
126.336
21
-144.655
0
LINE
8
BLACK
6
CONTINUOUS
10
126.336
20
-144.655
11
126.717
21
-144.655
0
LINE
8
BLACK
6
CONTINUOUS
10
126.717
20
-144.655
11
126.907
21
-144.56
0
LINE
8
BLACK
6
CONTINUOUS
10
126.907
20
-144.56
11
127.002
21
-144.369
0
LINE
8
BLACK
6
CONTINUOUS
10
127.002
20
-144.369
11
127.002
21
-144.274
0
LINE
8
BLACK
6
CONTINUOUS
10
127.002
20
-144.274
11
126.907
21
-144.083
0
LINE
8
BLACK
6
CONTINUOUS
10
126.907
20
-144.083
11
126.717
21
-143.988
0
LINE
8
BLACK
6
CONTINUOUS
10
126.717
20
-143.988
11
126.431
21
-143.988
0
LINE
8
BLACK
6
CONTINUOUS
10
126.431
20
-143.988
11
126.24
21
-143.893
0
LINE
8
BLACK
6
CONTINUOUS
10
126.24
20
-143.893
11
126.145
21
-143.702
0
LINE
8
BLACK
6
CONTINUOUS
10
126.145
20
-143.702
11
126.145
21
-143.607
0
LINE
8
BLACK
6
CONTINUOUS
10
126.145
20
-143.607
11
126.24
21
-143.417
0
LINE
8
BLACK
6
CONTINUOUS
10
126.24
20
-143.417
11
126.431
21
-143.321
0
LINE
8
BLACK
6
CONTINUOUS
10
126.431
20
-143.321
11
126.717
21
-143.321
0
LINE
8
BLACK
6
CONTINUOUS
10
126.717
20
-143.321
11
126.907
21
-143.417
0
LINE
8
BLACK
6
CONTINUOUS
10
127.669
20
-145.417
11
127.764
21
-145.321
0
LINE
8
BLACK
6
CONTINUOUS
10
127.764
20
-145.321
11
127.955
21
-145.036
0
LINE
8
BLACK
6
CONTINUOUS
10
127.955
20
-145.036
11
128.05
21
-144.845
0
LINE
8
BLACK
6
CONTINUOUS
10
128.05
20
-144.845
11
128.145
21
-144.56
0
LINE
8
BLACK
6
CONTINUOUS
10
128.145
20
-144.56
11
128.24
21
-144.083
0
LINE
8
BLACK
6
CONTINUOUS
10
128.24
20
-144.083
11
128.24
21
-143.702
0
LINE
8
BLACK
6
CONTINUOUS
10
128.24
20
-143.702
11
128.145
21
-143.226
0
LINE
8
BLACK
6
CONTINUOUS
10
128.145
20
-143.226
11
128.05
21
-142.94
0
LINE
8
BLACK
6
CONTINUOUS
10
128.05
20
-142.94
11
127.955
21
-142.75
0
LINE
8
BLACK
6
CONTINUOUS
10
127.955
20
-142.75
11
127.764
21
-142.464
0
LINE
8
BLACK
6
CONTINUOUS
10
127.764
20
-142.464
11
127.669
21
-142.369
0
LINE
8
BLACK
6
CONTINUOUS
10
131.288
20
-145.417
11
131.193
21
-145.321
0
LINE
8
BLACK
6
CONTINUOUS
10
131.193
20
-145.321
11
131.002
21
-145.036
0
LINE
8
BLACK
6
CONTINUOUS
10
131.002
20
-145.036
11
130.907
21
-144.845
0
LINE
8
BLACK
6
CONTINUOUS
10
130.907
20
-144.845
11
130.812
21
-144.56
0
LINE
8
BLACK
6
CONTINUOUS
10
130.812
20
-144.56
11
130.717
21
-144.083
0
LINE
8
BLACK
6
CONTINUOUS
10
130.717
20
-144.083
11
130.717
21
-143.702
0
LINE
8
BLACK
6
CONTINUOUS
10
130.717
20
-143.702
11
130.812
21
-143.226
0
LINE
8
BLACK
6
CONTINUOUS
10
130.812
20
-143.226
11
130.907
21
-142.94
0
LINE
8
BLACK
6
CONTINUOUS
10
130.907
20
-142.94
11
131.002
21
-142.75
0
LINE
8
BLACK
6
CONTINUOUS
10
131.002
20
-142.75
11
131.193
21
-142.464
0
LINE
8
BLACK
6
CONTINUOUS
10
131.193
20
-142.464
11
131.288
21
-142.369
0
LINE
8
BLACK
6
CONTINUOUS
10
132.05
20
-143.321
11
132.05
21
-144.655
0
LINE
8
BLACK
6
CONTINUOUS
10
132.05
20
-143.512
11
132.145
21
-143.417
0
LINE
8
BLACK
6
CONTINUOUS
10
132.145
20
-143.417
11
132.336
21
-143.321
0
LINE
8
BLACK
6
CONTINUOUS
10
132.336
20
-143.321
11
132.621
21
-143.321
0
LINE
8
BLACK
6
CONTINUOUS
10
132.621
20
-143.321
11
132.812
21
-143.417
0
LINE
8
BLACK
6
CONTINUOUS
10
132.812
20
-143.417
11
132.907
21
-143.607
0
LINE
8
BLACK
6
CONTINUOUS
10
132.907
20
-143.607
11
132.907
21
-144.655
0
LINE
8
BLACK
6
CONTINUOUS
10
134.145
20
-144.655
11
133.955
21
-144.56
0
LINE
8
BLACK
6
CONTINUOUS
10
133.955
20
-144.56
11
133.86
21
-144.464
0
LINE
8
BLACK
6
CONTINUOUS
10
133.86
20
-144.464
11
133.764
21
-144.274
0
LINE
8
BLACK
6
CONTINUOUS
10
133.764
20
-144.274
11
133.764
21
-143.702
0
LINE
8
BLACK
6
CONTINUOUS
10
133.764
20
-143.702
11
133.86
21
-143.512
0
LINE
8
BLACK
6
CONTINUOUS
10
133.86
20
-143.512
11
133.955
21
-143.417
0
LINE
8
BLACK
6
CONTINUOUS
10
133.955
20
-143.417
11
134.145
21
-143.321
0
LINE
8
BLACK
6
CONTINUOUS
10
134.145
20
-143.321
11
134.431
21
-143.321
0
LINE
8
BLACK
6
CONTINUOUS
10
134.431
20
-143.321
11
134.621
21
-143.417
0
LINE
8
BLACK
6
CONTINUOUS
10
134.621
20
-143.417
11
134.717
21
-143.512
0
LINE
8
BLACK
6
CONTINUOUS
10
134.717
20
-143.512
11
134.812
21
-143.702
0
LINE
8
BLACK
6
CONTINUOUS
10
134.812
20
-143.702
11
134.812
21
-144.274
0
LINE
8
BLACK
6
CONTINUOUS
10
134.812
20
-144.274
11
134.717
21
-144.464
0
LINE
8
BLACK
6
CONTINUOUS
10
134.717
20
-144.464
11
134.621
21
-144.56
0
LINE
8
BLACK
6
CONTINUOUS
10
134.621
20
-144.56
11
134.431
21
-144.655
0
LINE
8
BLACK
6
CONTINUOUS
10
134.431
20
-144.655
11
134.145
21
-144.655
0
LINE
8
BLACK
6
CONTINUOUS
10
135.383
20
-143.321
11
136.145
21
-143.321
0
LINE
8
BLACK
6
CONTINUOUS
10
135.669
20
-142.655
11
135.669
21
-144.369
0
LINE
8
BLACK
6
CONTINUOUS
10
135.669
20
-144.369
11
135.764
21
-144.56
0
LINE
8
BLACK
6
CONTINUOUS
10
135.764
20
-144.56
11
135.955
21
-144.655
0
LINE
8
BLACK
6
CONTINUOUS
10
135.955
20
-144.655
11
136.145
21
-144.655
0
LINE
8
BLACK
6
CONTINUOUS
10
138.336
20
-143.321
11
138.336
21
-145.321
0
LINE
8
BLACK
6
CONTINUOUS
10
138.336
20
-143.417
11
138.526
21
-143.321
0
LINE
8
BLACK
6
CONTINUOUS
10
138.526
20
-143.321
11
138.907
21
-143.321
0
LINE
8
BLACK
6
CONTINUOUS
10
138.907
20
-143.321
11
139.098
21
-143.417
0
LINE
8
BLACK
6
CONTINUOUS
10
139.098
20
-143.417
11
139.193
21
-143.512
0
LINE
8
BLACK
6
CONTINUOUS
10
139.193
20
-143.512
11
139.288
21
-143.702
0
LINE
8
BLACK
6
CONTINUOUS
10
139.288
20
-143.702
11
139.288
21
-144.274
0
LINE
8
BLACK
6
CONTINUOUS
10
139.288
20
-144.274
11
139.193
21
-144.464
0
LINE
8
BLACK
6
CONTINUOUS
10
139.193
20
-144.464
11
139.098
21
-144.56
0
LINE
8
BLACK
6
CONTINUOUS
10
139.098
20
-144.56
11
138.907
21
-144.655
0
LINE
8
BLACK
6
CONTINUOUS
10
138.907
20
-144.655
11
138.526
21
-144.655
0
LINE
8
BLACK
6
CONTINUOUS
10
138.526
20
-144.655
11
138.336
21
-144.56
0
LINE
8
BLACK
6
CONTINUOUS
10
140.431
20
-144.655
11
140.24
21
-144.56
0
LINE
8
BLACK
6
CONTINUOUS
10
140.24
20
-144.56
11
140.145
21
-144.369
0
LINE
8
BLACK
6
CONTINUOUS
10
140.145
20
-144.369
11
140.145
21
-142.655
0
LINE
8
BLACK
6
CONTINUOUS
10
142.05
20
-144.655
11
142.05
21
-143.607
0
LINE
8
BLACK
6
CONTINUOUS
10
142.05
20
-143.607
11
141.955
21
-143.417
0
LINE
8
BLACK
6
CONTINUOUS
10
141.955
20
-143.417
11
141.764
21
-143.321
0
LINE
8
BLACK
6
CONTINUOUS
10
141.764
20
-143.321
11
141.383
21
-143.321
0
LINE
8
BLACK
6
CONTINUOUS
10
141.383
20
-143.321
11
141.193
21
-143.417
0
LINE
8
BLACK
6
CONTINUOUS
10
142.05
20
-144.56
11
141.86
21
-144.655
0
LINE
8
BLACK
6
CONTINUOUS
10
141.86
20
-144.655
11
141.383
21
-144.655
0
LINE
8
BLACK
6
CONTINUOUS
10
141.383
20
-144.655
11
141.193
21
-144.56
0
LINE
8
BLACK
6
CONTINUOUS
10
141.193
20
-144.56
11
141.098
21
-144.369
0
LINE
8
BLACK
6
CONTINUOUS
10
141.098
20
-144.369
11
141.098
21
-144.179
0
LINE
8
BLACK
6
CONTINUOUS
10
141.098
20
-144.179
11
141.193
21
-143.988
0
LINE
8
BLACK
6
CONTINUOUS
10
141.193
20
-143.988
11
141.383
21
-143.893
0
LINE
8
BLACK
6
CONTINUOUS
10
141.383
20
-143.893
11
141.86
21
-143.893
0
LINE
8
BLACK
6
CONTINUOUS
10
141.86
20
-143.893
11
142.05
21
-143.798
0
LINE
8
BLACK
6
CONTINUOUS
10
142.717
20
-143.321
11
143.479
21
-143.321
0
LINE
8
BLACK
6
CONTINUOUS
10
143.002
20
-142.655
11
143.002
21
-144.369
0
LINE
8
BLACK
6
CONTINUOUS
10
143.002
20
-144.369
11
143.098
21
-144.56
0
LINE
8
BLACK
6
CONTINUOUS
10
143.098
20
-144.56
11
143.288
21
-144.655
0
LINE
8
BLACK
6
CONTINUOUS
10
143.288
20
-144.655
11
143.479
21
-144.655
0
LINE
8
BLACK
6
CONTINUOUS
10
144.907
20
-144.56
11
144.717
21
-144.655
0
LINE
8
BLACK
6
CONTINUOUS
10
144.717
20
-144.655
11
144.336
21
-144.655
0
LINE
8
BLACK
6
CONTINUOUS
10
144.336
20
-144.655
11
144.145
21
-144.56
0
LINE
8
BLACK
6
CONTINUOUS
10
144.145
20
-144.56
11
144.05
21
-144.369
0
LINE
8
BLACK
6
CONTINUOUS
10
144.05
20
-144.369
11
144.05
21
-143.607
0
LINE
8
BLACK
6
CONTINUOUS
10
144.05
20
-143.607
11
144.145
21
-143.417
0
LINE
8
BLACK
6
CONTINUOUS
10
144.145
20
-143.417
11
144.336
21
-143.321
0
LINE
8
BLACK
6
CONTINUOUS
10
144.336
20
-143.321
11
144.717
21
-143.321
0
LINE
8
BLACK
6
CONTINUOUS
10
144.717
20
-143.321
11
144.907
21
-143.417
0
LINE
8
BLACK
6
CONTINUOUS
10
144.907
20
-143.417
11
145.002
21
-143.607
0
LINE
8
BLACK
6
CONTINUOUS
10
145.002
20
-143.607
11
145.002
21
-143.798
0
LINE
8
BLACK
6
CONTINUOUS
10
145.002
20
-143.798
11
144.05
21
-143.988
0
LINE
8
BLACK
6
CONTINUOUS
10
146.717
20
-144.655
11
146.717
21
-142.655
0
LINE
8
BLACK
6
CONTINUOUS
10
146.717
20
-144.56
11
146.526
21
-144.655
0
LINE
8
BLACK
6
CONTINUOUS
10
146.526
20
-144.655
11
146.145
21
-144.655
0
LINE
8
BLACK
6
CONTINUOUS
10
146.145
20
-144.655
11
145.955
21
-144.56
0
LINE
8
BLACK
6
CONTINUOUS
10
145.955
20
-144.56
11
145.86
21
-144.464
0
LINE
8
BLACK
6
CONTINUOUS
10
145.86
20
-144.464
11
145.764
21
-144.274
0
LINE
8
BLACK
6
CONTINUOUS
10
145.764
20
-144.274
11
145.764
21
-143.702
0
LINE
8
BLACK
6
CONTINUOUS
10
145.764
20
-143.702
11
145.86
21
-143.512
0
LINE
8
BLACK
6
CONTINUOUS
10
145.86
20
-143.512
11
145.955
21
-143.417
0
LINE
8
BLACK
6
CONTINUOUS
10
145.955
20
-143.417
11
146.145
21
-143.321
0
LINE
8
BLACK
6
CONTINUOUS
10
146.145
20
-143.321
11
146.526
21
-143.321
0
LINE
8
BLACK
6
CONTINUOUS
10
146.526
20
-143.321
11
146.717
21
-143.417
0
LINE
8
BLACK
6
CONTINUOUS
10
147.479
20
-145.417
11
147.574
21
-145.321
0
LINE
8
BLACK
6
CONTINUOUS
10
147.574
20
-145.321
11
147.764
21
-145.036
0
LINE
8
BLACK
6
CONTINUOUS
10
147.764
20
-145.036
11
147.86
21
-144.845
0
LINE
8
BLACK
6
CONTINUOUS
10
147.86
20
-144.845
11
147.955
21
-144.56
0
LINE
8
BLACK
6
CONTINUOUS
10
147.955
20
-144.56
11
148.05
21
-144.083
0
LINE
8
BLACK
6
CONTINUOUS
10
148.05
20
-144.083
11
148.05
21
-143.702
0
LINE
8
BLACK
6
CONTINUOUS
10
148.05
20
-143.702
11
147.955
21
-143.226
0
LINE
8
BLACK
6
CONTINUOUS
10
147.955
20
-143.226
11
147.86
21
-142.94
0
LINE
8
BLACK
6
CONTINUOUS
10
147.86
20
-142.94
11
147.764
21
-142.75
0
LINE
8
BLACK
6
CONTINUOUS
10
147.764
20
-142.75
11
147.574
21
-142.464
0
LINE
8
BLACK
6
CONTINUOUS
10
147.574
20
-142.464
11
147.479
21
-142.369
  0
ENDSEC
  0
EOF
