M48
METRIC,TZ
T1C0.400
T2C0.800
T3C1.000
T4C1.020
T5C1.100
%
G90
G05
T1
X84050Y-101850
X84800Y-115950
X84850Y-125950
X87100Y-119850
X87500Y-129750
X87850Y-124650
X92277Y-113951
X95000Y-105250
X106283Y-122394
X106483Y-105750
X107050Y-99400
X107359Y-114237
X107700Y-126100
X108914Y-84989
X109438Y-80427
X110261Y-100886
X112050Y-129450
X112567Y-106514
X113911Y-100310
X115542Y-97182
X117795Y-99533
X120850Y-91000
X123150Y-110650
X123700Y-89050
X125911Y-96763
X128100Y-116000
X129706Y-93953
X130326Y-87651
X131650Y-111050
X135056Y-95288
X135300Y-110600
X135336Y-101208
X135650Y-109006
X136414Y-127773
X137120Y-120474
X137695Y-121380
X137696Y-136097
X138898Y-120458
X139082Y-122584
X140000Y-110850
X141543Y-121003
X143225Y-122658
X143575Y-85819
X144750Y-95950
X145672Y-133979
X146950Y-110950
X150232Y-93597
X152953Y-90661
X153150Y-95350
X153967Y-110083
X155638Y-116661
X156113Y-109017
X157100Y-96200
X157395Y-108567
X158150Y-93046
X158754Y-110289
X160341Y-120155
X161650Y-93750
X162419Y-110907
X164155Y-120097
X164580Y-112363
X165775Y-93052
X167019Y-119935
X168149Y-102227
X168223Y-115993
X169230Y-120039
X170116Y-133300
X170350Y-95300
X171000Y-119050
X171624Y-121486
X171779Y-109950
X172250Y-113050
X172284Y-128456
X172850Y-95850
X173000Y-117750
X173335Y-108278
X174500Y-115550
X174900Y-103343
X175200Y-113100
X175650Y-96250
X176358Y-123016
X176515Y-103141
X176900Y-118250
X177950Y-95850
X178600Y-121500
X182085Y-119623
X182950Y-124150
X183616Y-102803
X187093Y-94067
X187450Y-96200
X187544Y-128783
X189199Y-125096
X189649Y-126998
X190130Y-109772
X191000Y-93350
X191150Y-123000
X192600Y-96300
X195000Y-94550
X195065Y-122742
X196640Y-101150
X196812Y-125090
X197550Y-94300
X201885Y-122964
X202196Y-121570
X203099Y-95421
X203133Y-107826
X203339Y-118195
X204950Y-93750
X205831Y-111862
X207289Y-96330
X207966Y-129643
X208554Y-99624
X208976Y-100863
X209950Y-95500
T2
X82350Y-112025
X82350Y-114565
X82350Y-117105
X82350Y-119645
X82350Y-122185
X82350Y-124725
X82350Y-127265
X82350Y-129805
X82350Y-132345
X82350Y-134885
X89970Y-112025
X89970Y-114565
X89970Y-117105
X89970Y-119645
X89970Y-122185
X89970Y-124725
X89970Y-127265
X89970Y-129805
X89970Y-132345
X89970Y-134885
X93750Y-112100
X93750Y-114640
X93750Y-117180
X93750Y-119720
X93750Y-122260
X93750Y-124800
X93750Y-127340
X93750Y-129880
X93750Y-132420
X98150Y-106850
X98150Y-109390
X98150Y-111930
X98150Y-114470
X98150Y-117010
X98150Y-119550
X98150Y-122090
X98150Y-124630
X98150Y-127170
X102100Y-105750
X102100Y-108290
X102100Y-110830
X102100Y-113370
X102100Y-115910
X102100Y-118450
X102100Y-120990
X102100Y-123530
X102100Y-126070
X102100Y-128610
X109720Y-105750
X109720Y-108290
X109720Y-110830
X109720Y-113370
X109720Y-115910
X109720Y-118450
X109720Y-120990
X109720Y-123530
X109720Y-126070
X109720Y-128610
X114100Y-107050
X114100Y-109590
X114100Y-112130
X114100Y-114670
X114100Y-117210
X114100Y-119750
X114100Y-122290
X114100Y-124830
X114100Y-127370
X117650Y-102150
X120190Y-102150
X122730Y-102150
X125270Y-102150
X127810Y-102150
X128025Y-90780
X128025Y-98400
X130565Y-90780
X130565Y-98400
X133105Y-90780
X133105Y-98400
X135645Y-90780
X135645Y-98400
X138185Y-90780
X138185Y-98400
X140725Y-90780
X140725Y-98400
X143265Y-90780
X143265Y-98400
X145805Y-90780
X145805Y-98400
X148345Y-90780
X148345Y-98400
X150885Y-90780
X150885Y-98400
X157575Y-90880
X157575Y-98500
X160115Y-90880
X160115Y-98500
X162655Y-90880
X162655Y-98500
X165195Y-90880
X165195Y-98500
X167735Y-90880
X167735Y-98500
X170275Y-90880
X170275Y-98500
X172815Y-90880
X172815Y-98500
X175355Y-90880
X175355Y-98500
X177895Y-90880
X177895Y-98500
X180435Y-90880
X180435Y-98500
X185500Y-102600
X185500Y-105140
X185500Y-107680
X185500Y-110220
X185500Y-112760
X185500Y-115300
X185500Y-117840
X185500Y-120380
X185500Y-122920
X185500Y-125460
X187475Y-90780
X187475Y-98400
X190015Y-90780
X190015Y-98400
X192555Y-90780
X192555Y-98400
X193120Y-102600
X193120Y-105140
X193120Y-107680
X193120Y-110220
X193120Y-112760
X193120Y-115300
X193120Y-117840
X193120Y-120380
X193120Y-122920
X193120Y-125460
X195095Y-90780
X195095Y-98400
X197635Y-90780
X197635Y-98400
X199600Y-102600
X199600Y-105140
X199600Y-107680
X199600Y-110220
X199600Y-112760
X199600Y-115300
X199600Y-117840
X199600Y-120380
X199600Y-122920
X199600Y-125460
X200175Y-90780
X200175Y-98400
X202715Y-90780
X202715Y-98400
X205255Y-90780
X205255Y-98400
X207220Y-102600
X207220Y-105140
X207220Y-107680
X207220Y-110220
X207220Y-112760
X207220Y-115300
X207220Y-117840
X207220Y-120380
X207220Y-122920
X207220Y-125460
X207795Y-90780
X207795Y-98400
X210335Y-90780
X210335Y-98400
T3
X113550Y-82925
X113550Y-85465
X113550Y-88005
X113550Y-90545
X113550Y-93085
X113550Y-95625
X124730Y-82173
X124730Y-84712
X125560Y-129860
X125560Y-132400
X127270Y-82173
X127270Y-84712
X128100Y-129860
X128100Y-132400
X129810Y-82173
X129810Y-84712
X130640Y-129860
X130640Y-132400
X132350Y-82173
X132350Y-84712
X133180Y-129860
X133180Y-132400
X134890Y-82173
X134890Y-84712
X135720Y-129860
X135720Y-132400
X137430Y-82173
X137430Y-84712
X138260Y-129860
X138260Y-132400
X139970Y-82173
X139970Y-84712
X140800Y-129860
X140800Y-132400
X142510Y-82173
X142510Y-84712
X143340Y-129860
X143340Y-132400
X145050Y-82173
X145050Y-84712
X145880Y-129860
X145880Y-132400
X147590Y-82173
X147590Y-84712
X148420Y-129860
X148420Y-132400
X150130Y-82173
X150130Y-84712
X150960Y-129860
X150960Y-132400
X152670Y-82173
X152670Y-84712
X153500Y-129860
X153500Y-132400
X155210Y-82173
X155210Y-84712
X156040Y-129860
X156040Y-132400
X157750Y-82173
X157750Y-84712
X158580Y-129860
X158580Y-132400
X160290Y-82173
X160290Y-84712
X161120Y-129860
X161120Y-132400
X162830Y-82173
X162830Y-84712
X163660Y-129860
X163660Y-132400
X165370Y-82173
X165370Y-84712
X166200Y-129860
X166200Y-132400
X167910Y-82173
X167910Y-84712
X168740Y-129860
X168740Y-132400
X170450Y-82173
X170450Y-84712
X171280Y-129860
X171280Y-132400
X172990Y-82173
X172990Y-84712
X173820Y-129860
X173820Y-132400
X175530Y-82173
X175530Y-84712
X176360Y-129860
X176360Y-132400
X178070Y-82173
X178070Y-84712
X178900Y-129860
X178900Y-132400
X180610Y-82173
X180610Y-84712
X181440Y-129860
X181440Y-132400
X183150Y-82173
X183150Y-84712
X183980Y-129860
X183980Y-132400
X185690Y-82173
X185690Y-84712
X186520Y-129860
X186520Y-132400
X188230Y-82173
X188230Y-84712
X189060Y-129860
X189060Y-132400
X190770Y-82173
X190770Y-84712
X191600Y-129860
X191600Y-132400
X193310Y-82173
X193310Y-84712
X194140Y-129860
X194140Y-132400
X195850Y-82173
X195850Y-84712
X196680Y-129860
X196680Y-132400
X198390Y-82173
X198390Y-84712
X199220Y-129860
X199220Y-132400
X200930Y-82173
X200930Y-84712
X201760Y-129860
X201760Y-132400
X203470Y-82173
X203470Y-84712
X204300Y-129860
X204300Y-132400
T4
X131970Y-106710
X131970Y-124490
X134510Y-106710
X134510Y-124490
X137050Y-106710
X137050Y-124490
X139590Y-106710
X139590Y-124490
X142130Y-106710
X142130Y-124490
X144670Y-106710
X144670Y-124490
X147210Y-106710
X147210Y-124490
X149750Y-106710
X149750Y-124490
X152290Y-106710
X152290Y-124490
X154830Y-106710
X154830Y-124490
X157370Y-106710
X157370Y-124490
X159910Y-106710
X159910Y-124490
X162450Y-106710
X162450Y-124490
X164990Y-106710
X164990Y-124490
X167530Y-106710
X167530Y-124490
X170070Y-106710
X170070Y-124490
X172610Y-106710
X172610Y-124490
X175150Y-106710
X175150Y-124490
X177690Y-106710
X177690Y-124490
X180000Y-113060
X180000Y-115600
X180000Y-118140
X180230Y-106710
X180230Y-124490
T5
X117970Y-106750
X128130Y-106750
T0
M30
