M48
METRIC,TZ
T1C0.400
T2C0.800
T3C1.000
T4C1.020
T5C1.100
%
G90
G05
T1
X84020Y-127072
X86950Y-120250
X87000Y-124300
X87300Y-115700
X87450Y-129100
X87450Y-132350
X90950Y-104250
X93850Y-132250
X94200Y-118650
X97200Y-98100
X97600Y-108150
X99350Y-117300
X99789Y-100169
X99900Y-102365
X104650Y-116650
X108375Y-112543
X108450Y-132200
X108650Y-128450
X113050Y-135700
X115650Y-132550
X115850Y-101400
X116000Y-104500
X116379Y-111097
X116700Y-113400
X118658Y-97457
X120206Y-95926
X121868Y-94229
X121926Y-118999
X122056Y-97578
X122098Y-125584
X122763Y-96052
X123200Y-110950
X123215Y-81066
X125150Y-112650
X125800Y-101650
X127732Y-96026
X128000Y-134850
X128094Y-89251
X128250Y-116250
X128463Y-120279
X129603Y-122664
X132596Y-120812
X133642Y-99866
X133937Y-112082
X135726Y-80326
X136731Y-112023
X136765Y-122569
X136841Y-121322
X137338Y-112830
X137774Y-86571
X139896Y-86141
X141691Y-134801
X141850Y-115450
X145700Y-117750
X146300Y-113200
X148425Y-133959
X150178Y-111685
X152600Y-112950
X153035Y-121834
X154929Y-120068
X155128Y-131343
X155250Y-97950
X155400Y-112307
X157831Y-118071
X158617Y-117313
X159650Y-96250
X161850Y-113100
X162462Y-95490
X163181Y-120966
X163930Y-89867
X167748Y-100812
X168233Y-123033
X171004Y-94658
X171772Y-93935
X173450Y-118350
X173547Y-96107
X174224Y-91872
X174510Y-120380
X176500Y-93650
X176837Y-109234
X177650Y-118550
X179602Y-100370
X180008Y-131029
X180628Y-133533
X182614Y-101410
X184374Y-100808
X184990Y-128721
X187200Y-92850
X188671Y-128468
X188964Y-105555
X189375Y-100300
X189850Y-93350
X189913Y-103037
X191263Y-95771
X192500Y-93250
X194520Y-83496
X194950Y-94250
X194953Y-127010
X197104Y-100906
X197408Y-126552
X197450Y-94250
X198066Y-114797
X198775Y-134444
X199526Y-83856
X200150Y-94450
X200799Y-116321
X201099Y-127931
X202093Y-110020
X202192Y-136004
X203557Y-125035
X203732Y-121638
X203950Y-93150
X203952Y-126122
X204950Y-115000
X205100Y-107700
X205477Y-131296
X206557Y-130298
X207958Y-124189
X209600Y-95550
X210971Y-123225
X211707Y-123949
T2
X82350Y-112025
X82350Y-114565
X82350Y-117105
X82350Y-119645
X82350Y-122185
X82350Y-124725
X82350Y-127265
X82350Y-129805
X82350Y-132345
X82350Y-134885
X89970Y-112025
X89970Y-114565
X89970Y-117105
X89970Y-119645
X89970Y-122185
X89970Y-124725
X89970Y-127265
X89970Y-129805
X89970Y-132345
X89970Y-134885
X96850Y-114500
X96850Y-117040
X96850Y-119580
X96850Y-122120
X96850Y-124660
X96850Y-127200
X96850Y-129740
X96850Y-132280
X96850Y-134820
X101700Y-100950
X101700Y-103490
X101700Y-106030
X101700Y-108570
X101700Y-111110
X101700Y-113650
X101700Y-116190
X101700Y-118730
X101700Y-121270
X101700Y-123810
X109320Y-100950
X109320Y-103490
X109320Y-106030
X109320Y-108570
X109320Y-111110
X109320Y-113650
X109320Y-116190
X109320Y-118730
X109320Y-121270
X109320Y-123810
X114100Y-107050
X114100Y-109590
X114100Y-112130
X114100Y-114670
X114100Y-117210
X114100Y-119750
X114100Y-122290
X114100Y-124830
X114100Y-127370
X128025Y-90780
X128025Y-98400
X130565Y-90780
X130565Y-98400
X133105Y-90780
X133105Y-98400
X135645Y-90780
X135645Y-98400
X138185Y-90780
X138185Y-98400
X140725Y-90780
X140725Y-98400
X143265Y-90780
X143265Y-98400
X145805Y-90780
X145805Y-98400
X148345Y-90780
X148345Y-98400
X150885Y-90780
X150885Y-98400
X157575Y-90880
X157575Y-98500
X160115Y-90880
X160115Y-98500
X162655Y-90880
X162655Y-98500
X165195Y-90880
X165195Y-98500
X167735Y-90880
X167735Y-98500
X170275Y-90880
X170275Y-98500
X172815Y-90880
X172815Y-98500
X175355Y-90880
X175355Y-98500
X177895Y-90880
X177895Y-98500
X180435Y-90880
X180435Y-98500
X185500Y-102600
X185500Y-105140
X185500Y-107680
X185500Y-110220
X185500Y-112760
X185500Y-115300
X185500Y-117840
X185500Y-120380
X185500Y-122920
X185500Y-125460
X187475Y-90780
X187475Y-98400
X190015Y-90780
X190015Y-98400
X192555Y-90780
X192555Y-98400
X193120Y-102600
X193120Y-105140
X193120Y-107680
X193120Y-110220
X193120Y-112760
X193120Y-115300
X193120Y-117840
X193120Y-120380
X193120Y-122920
X193120Y-125460
X195095Y-90780
X195095Y-98400
X197635Y-90780
X197635Y-98400
X199600Y-102600
X199600Y-105140
X199600Y-107680
X199600Y-110220
X199600Y-112760
X199600Y-115300
X199600Y-117840
X199600Y-120380
X199600Y-122920
X199600Y-125460
X200175Y-90780
X200175Y-98400
X202715Y-90780
X202715Y-98400
X205255Y-90780
X205255Y-98400
X207220Y-102600
X207220Y-105140
X207220Y-107680
X207220Y-110220
X207220Y-112760
X207220Y-115300
X207220Y-117840
X207220Y-120380
X207220Y-122920
X207220Y-125460
X207795Y-90780
X207795Y-98400
X210335Y-90780
X210335Y-98400
T3
X113200Y-81775
X113200Y-84315
X113200Y-86855
X113200Y-89395
X113200Y-91935
X113200Y-94475
X124730Y-82173
X124730Y-84712
X125560Y-129860
X125560Y-132400
X127270Y-82173
X127270Y-84712
X128100Y-129860
X128100Y-132400
X129810Y-82173
X129810Y-84712
X130640Y-129860
X130640Y-132400
X132350Y-82173
X132350Y-84712
X133180Y-129860
X133180Y-132400
X134890Y-82173
X134890Y-84712
X135720Y-129860
X135720Y-132400
X137430Y-82173
X137430Y-84712
X138260Y-129860
X138260Y-132400
X139970Y-82173
X139970Y-84712
X140800Y-129860
X140800Y-132400
X142510Y-82173
X142510Y-84712
X143340Y-129860
X143340Y-132400
X145050Y-82173
X145050Y-84712
X145880Y-129860
X145880Y-132400
X147590Y-82173
X147590Y-84712
X148420Y-129860
X148420Y-132400
X150130Y-82173
X150130Y-84712
X150960Y-129860
X150960Y-132400
X152670Y-82173
X152670Y-84712
X153500Y-129860
X153500Y-132400
X155210Y-82173
X155210Y-84712
X156040Y-129860
X156040Y-132400
X157750Y-82173
X157750Y-84712
X158580Y-129860
X158580Y-132400
X160290Y-82173
X160290Y-84712
X161120Y-129860
X161120Y-132400
X162830Y-82173
X162830Y-84712
X163660Y-129860
X163660Y-132400
X165370Y-82173
X165370Y-84712
X166200Y-129860
X166200Y-132400
X167910Y-82173
X167910Y-84712
X168740Y-129860
X168740Y-132400
X170450Y-82173
X170450Y-84712
X171280Y-129860
X171280Y-132400
X172990Y-82173
X172990Y-84712
X173820Y-129860
X173820Y-132400
X175530Y-82173
X175530Y-84712
X176360Y-129860
X176360Y-132400
X178070Y-82173
X178070Y-84712
X178900Y-129860
X178900Y-132400
X180610Y-82173
X180610Y-84712
X181440Y-129860
X181440Y-132400
X183150Y-82173
X183150Y-84712
X183980Y-129860
X183980Y-132400
X185690Y-82173
X185690Y-84712
X186520Y-129860
X186520Y-132400
X188230Y-82173
X188230Y-84712
X189060Y-129860
X189060Y-132400
X190770Y-82173
X190770Y-84712
X191600Y-129860
X191600Y-132400
X193310Y-82173
X193310Y-84712
X194140Y-129860
X194140Y-132400
X195850Y-82173
X195850Y-84712
X196680Y-129860
X196680Y-132400
X198390Y-82173
X198390Y-84712
X199220Y-129860
X199220Y-132400
X200930Y-82173
X200930Y-84712
X201760Y-129860
X201760Y-132400
X203470Y-82173
X203470Y-84712
X204300Y-129860
X204300Y-132400
T4
X131970Y-106710
X131970Y-124490
X134510Y-106710
X134510Y-124490
X137050Y-106710
X137050Y-124490
X139590Y-106710
X139590Y-124490
X142130Y-106710
X142130Y-124490
X144670Y-106710
X144670Y-124490
X147210Y-106710
X147210Y-124490
X149750Y-106710
X149750Y-124490
X152290Y-106710
X152290Y-124490
X154830Y-106710
X154830Y-124490
X157370Y-106710
X157370Y-124490
X159910Y-106710
X159910Y-124490
X162450Y-106710
X162450Y-124490
X164990Y-106710
X164990Y-124490
X167530Y-106710
X167530Y-124490
X170070Y-106710
X170070Y-124490
X172610Y-106710
X172610Y-124490
X175150Y-106710
X175150Y-124490
X177690Y-106710
X177690Y-124490
X180000Y-113060
X180000Y-115600
X180000Y-118140
X180230Y-106710
X180230Y-124490
T5
X117970Y-106750
X128130Y-106750
T0
M30
